<svg width="876" height="1899" viewBox="0 0 876 1899" fill="none" xmlns="http://www.w3.org/2000/svg">
<path opacity="0.27474" d="M867.219 741.948C871.622 741.948 875.191 745.517 875.191 749.92V861.525C875.191 865.928 871.622 869.497 867.219 869.497V741.948Z" fill="#AFAFAF"/>
<path d="M867.219 741.948H869.497C872.642 741.948 875.191 744.498 875.191 747.642V863.803C875.191 866.948 872.642 869.497 869.497 869.497H867.219V741.948Z" fill="#BBBCBF"/>
<mask id="mask0" mask-type="alpha" maskUnits="userSpaceOnUse" x="867" y="741" width="9" height="129">
<path d="M867.219 741.948H869.497C872.642 741.948 875.191 744.498 875.191 747.642V863.803C875.191 866.948 872.642 869.497 869.497 869.497H867.219V741.948Z" fill="white"/>
</mask>
<g mask="url(#mask0)">
<g filter="url(#filter0_f)">
<rect x="873.482" y="731.699" width="1.70825" height="149.187" fill="#B8B7B7"/>
</g>
<g filter="url(#filter1_f)">
<ellipse cx="871.774" cy="741.663" rx="9.11064" ry="4.84003" fill="#050505"/>
</g>
<g filter="url(#filter2_f)">
<ellipse cx="871.774" cy="869.782" rx="9.11064" ry="4.84003" fill="#050505"/>
</g>
</g>
<path opacity="0.27474" d="M867.219 377.052C871.622 377.052 875.191 380.621 875.191 385.024V609.943C875.191 614.346 871.622 617.915 867.219 617.915V377.052Z" fill="#AFAFAF"/>
<path d="M867.219 377.052H869.497C872.642 377.052 875.191 379.602 875.191 382.746V612.221C875.191 615.366 872.642 617.915 869.497 617.915H867.219V377.052Z" fill="#BBBCBF"/>
<mask id="mask1" mask-type="alpha" maskUnits="userSpaceOnUse" x="867" y="377" width="9" height="241">
<path d="M867.219 377.052H869.497C872.642 377.052 875.191 379.602 875.191 382.746V612.221C875.191 615.366 872.642 617.915 869.497 617.915H867.219V377.052Z" fill="white"/>
</mask>
<g mask="url(#mask1)">
<g filter="url(#filter3_f)">
<rect x="874.052" y="357.593" width="2.84708" height="280.921" fill="#AFADAD"/>
</g>
<rect x="873.482" y="357.593" width="1.70825" height="280.921" fill="#878789"/>
<g filter="url(#filter4_f)">
<circle cx="871.774" cy="373.067" r="9.11064" fill="#050505"/>
</g>
<g filter="url(#filter5_f)">
<circle cx="871.774" cy="622.471" r="9.11064" fill="#050505"/>
</g>
</g>
<g filter="url(#filter6_i)">
<path d="M0 167.636C0 108.958 0 79.6188 11.4195 57.2067C21.4644 37.4925 37.4925 21.4644 57.2067 11.4195C79.6188 0 108.958 0 167.636 0H702.431C761.109 0 790.448 0 812.86 11.4195C832.574 21.4644 848.602 37.4925 858.647 57.2067C870.067 79.6188 870.067 108.958 870.067 167.636V1732.28C870.067 1790.63 870.067 1819.81 858.709 1842.1C848.719 1861.71 832.778 1877.65 813.171 1887.64C790.88 1899 761.701 1899 703.342 1899H166.725C108.366 1899 79.1861 1899 56.8958 1887.64C37.2888 1877.65 21.3477 1861.71 11.3574 1842.1C0 1819.81 0 1790.63 0 1732.28V167.636Z" fill="#6D6C72"/>
</g>
<g filter="url(#filter7_d)">
<path d="M6.26367 159.55C6.26367 107.888 6.26367 82.0567 16.3178 62.3243C25.1617 44.9673 39.2734 30.8555 56.6305 22.0117C76.3628 11.9575 102.194 11.9575 153.856 11.9575H716.211C767.873 11.9575 793.704 11.9575 813.436 22.0117C830.793 30.8555 844.905 44.9673 853.749 62.3243C863.803 82.0567 863.803 107.888 863.803 159.55V1732.62C863.803 1787.47 863.803 1814.89 853.128 1835.84C843.739 1854.27 828.756 1869.26 810.327 1878.64C789.377 1889.32 761.951 1889.32 707.1 1889.32H162.967C108.116 1889.32 80.6899 1889.32 59.7395 1878.64C41.311 1869.26 26.3282 1854.27 16.9384 1835.84C6.26367 1814.89 6.26367 1787.47 6.26367 1732.62V159.55Z" fill="url(#paint0_linear)"/>
<path d="M6.83309 159.55C6.83309 133.709 6.83353 114.363 8.08796 99.0098C9.34185 83.6629 11.8458 72.3553 16.8252 62.5828C25.6144 45.3329 39.6391 31.3083 56.889 22.519C66.6615 17.5397 77.9691 15.0357 93.316 13.7818C108.669 12.5274 128.016 12.5269 153.856 12.5269H716.211C742.051 12.5269 761.397 12.5274 776.751 13.7818C792.098 15.0357 803.405 17.5397 813.178 22.519C830.428 31.3083 844.452 45.3329 853.242 62.5828C858.221 72.3553 860.725 83.6629 861.979 99.0098C863.233 114.363 863.234 133.709 863.234 159.55V1732.62C863.234 1760.05 863.233 1780.59 861.901 1796.9C860.57 1813.19 857.911 1825.2 852.621 1835.59C843.286 1853.91 828.39 1868.8 810.069 1878.14C799.687 1883.43 787.676 1886.09 771.38 1887.42C755.077 1888.75 734.535 1888.75 707.1 1888.75H162.967C135.532 1888.75 114.99 1888.75 98.6867 1887.42C82.3903 1886.09 70.3796 1883.43 59.998 1878.14C41.6767 1868.8 26.781 1853.91 17.4458 1835.59C12.1561 1825.2 9.49701 1813.19 8.16554 1796.9C6.83353 1780.59 6.83309 1760.05 6.83309 1732.62V159.55Z" stroke="url(#paint1_angular)" stroke-width="1.13883"/>
<path d="M6.83309 159.55C6.83309 133.709 6.83353 114.363 8.08796 99.0098C9.34185 83.6629 11.8458 72.3553 16.8252 62.5828C25.6144 45.3329 39.6391 31.3083 56.889 22.519C66.6615 17.5397 77.9691 15.0357 93.316 13.7818C108.669 12.5274 128.016 12.5269 153.856 12.5269H716.211C742.051 12.5269 761.397 12.5274 776.751 13.7818C792.098 15.0357 803.405 17.5397 813.178 22.519C830.428 31.3083 844.452 45.3329 853.242 62.5828C858.221 72.3553 860.725 83.6629 861.979 99.0098C863.233 114.363 863.234 133.709 863.234 159.55V1732.62C863.234 1760.05 863.233 1780.59 861.901 1796.9C860.57 1813.19 857.911 1825.2 852.621 1835.59C843.286 1853.91 828.39 1868.8 810.069 1878.14C799.687 1883.43 787.676 1886.09 771.38 1887.42C755.077 1888.75 734.535 1888.75 707.1 1888.75H162.967C135.532 1888.75 114.99 1888.75 98.6867 1887.42C82.3903 1886.09 70.3796 1883.43 59.998 1878.14C41.6767 1868.8 26.781 1853.91 17.4458 1835.59C12.1561 1825.2 9.49701 1813.19 8.16554 1796.9C6.83353 1780.59 6.83309 1760.05 6.83309 1732.62V159.55Z" stroke="url(#paint2_linear)" stroke-width="1.13883"/>
</g>
<circle cx="435.033" cy="72.885" r="22.7766" fill="#212022"/>
<g filter="url(#filter8_di)">
<circle cx="435.034" cy="72.8853" r="14.2354" fill="url(#paint3_angular)"/>
</g>
<g filter="url(#filter9_di)">
<circle cx="435.033" cy="72.885" r="8.54123" fill="url(#paint4_angular)"/>
</g>
<mask id="mask2" mask-type="alpha" maskUnits="userSpaceOnUse" x="426" y="64" width="18" height="18">
<circle cx="435.033" cy="72.885" r="8.54123" fill="white"/>
</mask>
<g mask="url(#mask2)">
<g filter="url(#filter10_f)">
<circle cx="435.034" cy="73.4544" r="9.11064" fill="#1A1719"/>
</g>
<g opacity="0.776204" filter="url(#filter11_f)">
<ellipse cx="435.034" cy="66.6216" rx="6.83298" ry="3.41649" fill="url(#paint5_radial)"/>
</g>
<g filter="url(#filter12_f)">
<ellipse cx="434.749" cy="81.7113" rx="4.27061" ry="2.56237" fill="url(#paint6_radial)"/>
</g>
</g>
<path fill-rule="evenodd" clip-rule="evenodd" d="M158.867 1889.32V1899H171.394V1889.32H158.867Z" fill="#F0F2F5" fill-opacity="0.15"/>
<path fill-rule="evenodd" clip-rule="evenodd" d="M698.672 1889.32V1899H711.2V1889.32H698.672Z" fill="#F0F2F5" fill-opacity="0.15"/>
<path fill-rule="evenodd" clip-rule="evenodd" d="M304.067 0V10.2495H316.595V0H304.067Z" fill="#F0F2F5" fill-opacity="0.15"/>
<mask id="mask3" mask-type="alpha" maskUnits="userSpaceOnUse" x="7" y="12" width="857" height="1878">
<path d="M7.40234 160.12C7.40234 108.458 7.40234 82.6265 17.4565 62.8941C26.3003 45.5371 40.4121 31.4253 57.7691 22.5815C77.5015 12.5273 103.333 12.5273 154.995 12.5273H716.21C767.873 12.5273 793.704 12.5273 813.436 22.5815C830.793 31.4253 844.905 45.5371 853.749 62.8941C863.803 82.6265 863.803 108.458 863.803 160.12V1732.62C863.803 1787.47 863.803 1814.89 853.128 1835.84C843.738 1854.27 828.756 1869.26 810.327 1878.65C789.377 1889.32 761.951 1889.32 707.1 1889.32H164.105C109.254 1889.32 81.8286 1889.32 60.8782 1878.65C42.4497 1869.26 27.4669 1854.27 18.0771 1835.84C7.40234 1814.89 7.40234 1787.47 7.40234 1732.62V160.12Z" fill="white"/>
</mask>
<g mask="url(#mask3)">
<path fill-rule="evenodd" clip-rule="evenodd" d="M63.7443 29C63.7443 29 55.2299 36.8616 53.0867 39.7588C40.8259 56.3323 34.6011 70.2186 29.3148 84.1024C29.3148 84.1024 25.511 107.109 25.4776 145.858L25.4771 1754.46C25.4771 1797.42 27.3063 1812.99 30.7411 1828.7C34.1759 1844.4 39.2164 1856.73 45.639 1865.13C51.9973 1873.44 58.3047 1877.91 75.4763 1878L76 1878H56.5235C38.9556 1878 32.5851 1873.53 26.1625 1865.13C19.7399 1856.73 14.6995 1844.4 11.2646 1828.7C7.8298 1812.99 6.00061 1797.42 6.00061 1754.46V147.064C6.00061 106.603 6.57138 91.2549 12.2086 77.1396C17.8458 63.0243 24.1796 53.9429 34.7005 45.4981C39.8847 41.337 44.651 37.2472 52.7494 33.2286C55.6078 31.8102 63.7443 29 63.7443 29Z" fill="url(#paint7_linear)"/>
</g>
<mask id="mask4" mask-type="alpha" maskUnits="userSpaceOnUse" x="7" y="13" width="856" height="1876">
<path d="M862.664 160.689C862.664 109.027 862.664 83.1958 852.61 63.4635C843.766 46.1064 829.654 31.9947 812.297 23.1508C792.565 13.0967 766.734 13.0967 715.072 13.0967H154.995C103.333 13.0967 77.5014 13.0967 57.7691 23.1508C40.412 31.9947 26.3003 46.1064 17.4564 63.4635C7.40228 83.1958 7.40228 109.027 7.40228 160.689V1731.48C7.40228 1786.33 7.40228 1813.76 18.077 1834.71C27.4668 1853.13 42.4496 1868.12 60.8781 1877.51C81.8286 1888.18 109.254 1888.18 164.105 1888.18H705.961C760.812 1888.18 788.238 1888.18 809.188 1877.51C827.617 1868.12 842.6 1853.13 851.989 1834.71C862.664 1813.76 862.664 1786.33 862.664 1731.48V160.689Z" fill="white"/>
</mask>
<g mask="url(#mask4)">
<path fill-rule="evenodd" clip-rule="evenodd" d="M806.256 24C806.256 24 814.77 31.8616 816.913 34.7588C829.174 51.3323 835.399 65.2186 840.685 79.1024C840.685 79.1024 844.489 102.109 844.522 140.858L844.523 1749.46C844.523 1792.42 842.694 1807.99 839.259 1823.7C835.824 1839.4 830.784 1851.73 824.361 1860.13C818.003 1868.44 811.695 1872.91 794.524 1873L794 1873H813.476C831.044 1873 837.415 1868.53 843.838 1860.13C850.26 1851.73 855.301 1839.4 858.735 1823.7C862.17 1807.99 863.999 1792.42 863.999 1749.46V142.064C863.999 101.603 863.429 86.2549 857.791 72.1396C852.154 58.0243 845.82 48.9429 835.299 40.4981C830.115 36.337 825.349 32.2472 817.251 28.2286C814.392 26.8102 806.256 24 806.256 24Z" fill="url(#paint8_linear)"/>
</g>
<path fill-rule="evenodd" clip-rule="evenodd" d="M34.1774 78.1597C25.0542 96.065 25.0542 119.504 25.0542 166.383V1717.01C25.0542 1765.17 25.0542 1789.25 34.4256 1807.64C42.669 1823.82 55.8225 1836.97 72.001 1845.21C90.3935 1854.59 114.471 1854.59 162.625 1854.59H707.441C755.596 1854.59 779.673 1854.59 798.065 1845.21C814.244 1836.97 827.397 1823.82 835.641 1807.64C845.012 1789.25 845.012 1765.17 845.012 1717.01V166.383C845.012 119.504 845.012 96.065 835.889 78.1597C827.864 62.4098 815.059 49.6047 799.309 41.5797C781.404 32.4565 757.964 32.4565 711.086 32.4565H158.981C112.102 32.4565 88.6627 32.4565 70.7574 41.5797C55.0075 49.6047 42.2024 62.4098 34.1774 78.1597ZM435.033 95.6618C447.612 95.6618 457.81 85.4643 457.81 72.8852C457.81 60.306 447.612 50.1085 435.033 50.1085C422.454 50.1085 412.257 60.306 412.257 72.8852C412.257 85.4643 422.454 95.6618 435.033 95.6618Z" fill="#58B5F0"/>

<defs>
<filter id="filter0_f" x="871.935" y="730.151" width="4.80391" height="152.282" filterUnits="userSpaceOnUse" color-interpolation-filters="sRGB">
<feFlood flood-opacity="0" result="BackgroundImageFix"/>
<feBlend mode="normal" in="SourceGraphic" in2="BackgroundImageFix" result="shape"/>
<feGaussianBlur stdDeviation="0.773916" result="effect1_foregroundBlur"/>
</filter>
<filter id="filter1_f" x="853.377" y="727.536" width="36.7953" height="28.254" filterUnits="userSpaceOnUse" color-interpolation-filters="sRGB">
<feFlood flood-opacity="0" result="BackgroundImageFix"/>
<feBlend mode="normal" in="SourceGraphic" in2="BackgroundImageFix" result="shape"/>
<feGaussianBlur stdDeviation="4.64349" result="effect1_foregroundBlur"/>
</filter>
<filter id="filter2_f" x="853.377" y="855.655" width="36.7953" height="28.254" filterUnits="userSpaceOnUse" color-interpolation-filters="sRGB">
<feFlood flood-opacity="0" result="BackgroundImageFix"/>
<feBlend mode="normal" in="SourceGraphic" in2="BackgroundImageFix" result="shape"/>
<feGaussianBlur stdDeviation="4.64349" result="effect1_foregroundBlur"/>
</filter>
<filter id="filter3_f" x="870.956" y="354.497" width="9.0384" height="287.112" filterUnits="userSpaceOnUse" color-interpolation-filters="sRGB">
<feFlood flood-opacity="0" result="BackgroundImageFix"/>
<feBlend mode="normal" in="SourceGraphic" in2="BackgroundImageFix" result="shape"/>
<feGaussianBlur stdDeviation="1.54783" result="effect1_foregroundBlur"/>
</filter>
<filter id="filter4_f" x="853.377" y="354.669" width="36.7953" height="36.7953" filterUnits="userSpaceOnUse" color-interpolation-filters="sRGB">
<feFlood flood-opacity="0" result="BackgroundImageFix"/>
<feBlend mode="normal" in="SourceGraphic" in2="BackgroundImageFix" result="shape"/>
<feGaussianBlur stdDeviation="4.64349" result="effect1_foregroundBlur"/>
</filter>
<filter id="filter5_f" x="853.377" y="604.073" width="36.7953" height="36.7953" filterUnits="userSpaceOnUse" color-interpolation-filters="sRGB">
<feFlood flood-opacity="0" result="BackgroundImageFix"/>
<feBlend mode="normal" in="SourceGraphic" in2="BackgroundImageFix" result="shape"/>
<feGaussianBlur stdDeviation="4.64349" result="effect1_foregroundBlur"/>
</filter>
<filter id="filter6_i" x="0" y="0" width="870.067" height="1899" filterUnits="userSpaceOnUse" color-interpolation-filters="sRGB">
<feFlood flood-opacity="0" result="BackgroundImageFix"/>
<feBlend mode="normal" in="SourceGraphic" in2="BackgroundImageFix" result="shape"/>
<feColorMatrix in="SourceAlpha" type="matrix" values="0 0 0 0 0 0 0 0 0 0 0 0 0 0 0 0 0 0 127 0" result="hardAlpha"/>
<feMorphology radius="1.13883" operator="erode" in="SourceAlpha" result="effect1_innerShadow"/>
<feOffset/>
<feGaussianBlur stdDeviation="1.70825"/>
<feComposite in2="hardAlpha" operator="arithmetic" k2="-1" k3="1"/>
<feColorMatrix type="matrix" values="0 0 0 0 0.287422 0 0 0 0 0.287422 0 0 0 0 0.297243 0 0 0 1 0"/>
<feBlend mode="normal" in2="shape" result="effect1_innerShadow"/>
</filter>
<filter id="filter7_d" x="3.98601" y="9.67986" width="862.095" height="1881.92" filterUnits="userSpaceOnUse" color-interpolation-filters="sRGB">
<feFlood flood-opacity="0" result="BackgroundImageFix"/>
<feColorMatrix in="SourceAlpha" type="matrix" values="0 0 0 0 0 0 0 0 0 0 0 0 0 0 0 0 0 0 127 0"/>
<feMorphology radius="1.70825" operator="dilate" in="SourceAlpha" result="effect1_dropShadow"/>
<feOffset/>
<feGaussianBlur stdDeviation="0.284708"/>
<feColorMatrix type="matrix" values="0 0 0 0 1 0 0 0 0 1 0 0 0 0 1 0 0 0 0.5 0"/>
<feBlend mode="normal" in2="BackgroundImageFix" result="effect1_dropShadow"/>
<feBlend mode="normal" in="SourceGraphic" in2="effect1_dropShadow" result="shape"/>
</filter>
<filter id="filter8_di" x="420.798" y="58.6499" width="28.4708" height="28.4708" filterUnits="userSpaceOnUse" color-interpolation-filters="sRGB">
<feFlood flood-opacity="0" result="BackgroundImageFix"/>
<feColorMatrix in="SourceAlpha" type="matrix" values="0 0 0 0 0 0 0 0 0 0 0 0 0 0 0 0 0 0 127 0"/>
<feMorphology radius="11.9577" operator="erode" in="SourceAlpha" result="effect1_dropShadow"/>
<feOffset/>
<feColorMatrix type="matrix" values="0 0 0 0 0 0 0 0 0 0 0 0 0 0 0 0 0 0 1 0"/>
<feBlend mode="normal" in2="BackgroundImageFix" result="effect1_dropShadow"/>
<feBlend mode="normal" in="SourceGraphic" in2="effect1_dropShadow" result="shape"/>
<feColorMatrix in="SourceAlpha" type="matrix" values="0 0 0 0 0 0 0 0 0 0 0 0 0 0 0 0 0 0 127 0" result="hardAlpha"/>
<feOffset dy="37.012"/>
<feGaussianBlur stdDeviation="0.854123"/>
<feComposite in2="hardAlpha" operator="arithmetic" k2="-1" k3="1"/>
<feColorMatrix type="matrix" values="0 0 0 0 0 0 0 0 0 0 0 0 0 0 0 0 0 0 0.5 0"/>
<feBlend mode="normal" in2="shape" result="effect2_innerShadow"/>
</filter>
<filter id="filter9_di" x="425.923" y="63.7743" width="18.2213" height="18.2213" filterUnits="userSpaceOnUse" color-interpolation-filters="sRGB">
<feFlood flood-opacity="0" result="BackgroundImageFix"/>
<feColorMatrix in="SourceAlpha" type="matrix" values="0 0 0 0 0 0 0 0 0 0 0 0 0 0 0 0 0 0 127 0"/>
<feMorphology radius="0.569415" operator="dilate" in="SourceAlpha" result="effect1_dropShadow"/>
<feOffset/>
<feColorMatrix type="matrix" values="0 0 0 0 0 0 0 0 0 0 0 0 0 0 0 0 0 0 0.5 0"/>
<feBlend mode="normal" in2="BackgroundImageFix" result="effect1_dropShadow"/>
<feBlend mode="normal" in="SourceGraphic" in2="effect1_dropShadow" result="shape"/>
<feColorMatrix in="SourceAlpha" type="matrix" values="0 0 0 0 0 0 0 0 0 0 0 0 0 0 0 0 0 0 127 0" result="hardAlpha"/>
<feMorphology radius="1.13883" operator="erode" in="SourceAlpha" result="effect2_innerShadow"/>
<feOffset dy="0.569415"/>
<feGaussianBlur stdDeviation="0.854123"/>
<feComposite in2="hardAlpha" operator="arithmetic" k2="-1" k3="1"/>
<feColorMatrix type="matrix" values="0 0 0 0 0 0 0 0 0 0 0 0 0 0 0 0 0 0 0.5 0"/>
<feBlend mode="normal" in2="shape" result="effect2_innerShadow"/>
</filter>
<filter id="filter10_f" x="422.982" y="61.4029" width="24.103" height="24.103" filterUnits="userSpaceOnUse" color-interpolation-filters="sRGB">
<feFlood flood-opacity="0" result="BackgroundImageFix"/>
<feBlend mode="normal" in="SourceGraphic" in2="BackgroundImageFix" result="shape"/>
<feGaussianBlur stdDeviation="1.47044" result="effect1_foregroundBlur"/>
</filter>
<filter id="filter11_f" x="423.557" y="58.5616" width="22.953" height="16.12" filterUnits="userSpaceOnUse" color-interpolation-filters="sRGB">
<feFlood flood-opacity="0" result="BackgroundImageFix"/>
<feBlend mode="normal" in="SourceGraphic" in2="BackgroundImageFix" result="shape"/>
<feGaussianBlur stdDeviation="2.32175" result="effect1_foregroundBlur"/>
</filter>
<filter id="filter12_f" x="427.537" y="76.208" width="14.423" height="11.0065" filterUnits="userSpaceOnUse" color-interpolation-filters="sRGB">
<feFlood flood-opacity="0" result="BackgroundImageFix"/>
<feBlend mode="normal" in="SourceGraphic" in2="BackgroundImageFix" result="shape"/>
<feGaussianBlur stdDeviation="1.47044" result="effect1_foregroundBlur"/>
</filter>
<linearGradient id="paint0_linear" x1="6.26367" y1="11.9575" x2="6.26367" y2="1889.32" gradientUnits="userSpaceOnUse">
<stop stop-color="#010101"/>
<stop offset="0.989632"/>
<stop offset="1" stop-color="#4A4A4A"/>
</linearGradient>
<radialGradient id="paint1_angular" cx="0" cy="0" r="1" gradientUnits="userSpaceOnUse" gradientTransform="translate(435.033 950.639) scale(428.77 938.681)">
<stop stop-color="#0C0C0C"/>
<stop offset="0.140563" stop-color="#0B0B0B"/>
<stop offset="0.232695" stop-color="#111111"/>
<stop offset="0.37144" stop-color="#1A1A1A"/>
<stop offset="0.66137" stop-color="#2E2E2E"/>
<stop offset="0.675413" stop-color="#020202"/>
<stop offset="0.710915" stop-color="#474747"/>
<stop offset="0.753225" stop-color="#2A2A2A"/>
<stop offset="0.78617" stop-color="#2B2B2B"/>
<stop offset="0.843604" stop-color="#060606"/>
<stop offset="0.898025" stop-color="#050505"/>
</radialGradient>
<linearGradient id="paint2_linear" x1="6.26367" y1="11.9575" x2="6.26367" y2="1889.32" gradientUnits="userSpaceOnUse">
<stop stop-color="white" stop-opacity="0.01"/>
<stop offset="0.0231241" stop-color="#FDFDFD" stop-opacity="0.01"/>
<stop offset="0.34104" stop-color="#959595" stop-opacity="0.01"/>
<stop offset="0.762428" stop-color="#121112" stop-opacity="0.01"/>
<stop offset="0.977144" stop-color="#0A0A0A"/>
<stop offset="1" stop-color="#48484B"/>
</linearGradient>
<radialGradient id="paint3_angular" cx="0" cy="0" r="1" gradientUnits="userSpaceOnUse" gradientTransform="translate(435.034 72.8853) scale(14.2354)">
<stop offset="0.239741" stop-color="#8F8F8F"/>
<stop offset="0.5" stop-color="#090A0F"/>
<stop offset="0.998025" stop-color="#090A0F"/>
</radialGradient>
<radialGradient id="paint4_angular" cx="0" cy="0" r="1" gradientUnits="userSpaceOnUse" gradientTransform="translate(435.033 72.885) scale(8.54123)">
<stop offset="0.0920066" stop-color="#242C33"/>
<stop offset="0.288974" stop-color="#1A1719"/>
<stop offset="1" stop-color="#1A1719"/>
</radialGradient>
<radialGradient id="paint5_radial" cx="0" cy="0" r="1" gradientUnits="userSpaceOnUse" gradientTransform="translate(435.034 66.743) rotate(90) scale(5.07849 10.157)">
<stop stop-color="#65BBFF"/>
<stop offset="0.581465" stop-color="#E0DDE7"/>
<stop offset="1" stop-color="#968BAC"/>
</radialGradient>
<radialGradient id="paint6_radial" cx="0" cy="0" r="1" gradientUnits="userSpaceOnUse" gradientTransform="translate(434.749 77.7587) rotate(90) scale(4.32822 7.2137)">
<stop stop-color="#88888A"/>
<stop offset="0.558353" stop-color="#8B8B8B"/>
<stop offset="1" stop-color="#505050"/>
</radialGradient>
<linearGradient id="paint7_linear" x1="6.51986" y1="1761.63" x2="31.216" y2="1761.63" gradientUnits="userSpaceOnUse">
<stop stop-color="white" stop-opacity="0.4"/>
<stop offset="1" stop-color="white" stop-opacity="0"/>
</linearGradient>
<linearGradient id="paint8_linear" x1="863.48" y1="1756.63" x2="838.784" y2="1756.63" gradientUnits="userSpaceOnUse">
<stop stop-color="white" stop-opacity="0.4"/>
<stop offset="1" stop-color="white" stop-opacity="0"/>
</linearGradient>
</defs>
</svg>
