<svg width="931" height="1861" viewBox="0 0 931 1861" fill="none" xmlns="http://www.w3.org/2000/svg">
<g clip-path="url(#clip0)">
<path fill-rule="evenodd" clip-rule="evenodd" d="M168.799 0H761.392C875.307 0 924.444 56.3207 924.444 163.053V1697.33C924.444 1800.47 871.715 1860.38 761.392 1860.38H168.799C54.8841 1860.38 5.74634 1804.06 5.74634 1697.33V163.053C5.74634 56.3207 54.8841 0 168.799 0Z" fill="black"/>
<g filter="url(#filter0_i)">
<path fill-rule="evenodd" clip-rule="evenodd" d="M168.799 4.30981C59.9665 4.30981 10.0562 55.9097 10.0562 163.053V1697.33C10.0562 1804.47 59.9665 1856.07 168.799 1856.07H761.392C866.676 1856.07 920.135 1800.83 920.135 1697.33V163.053C920.135 55.9097 870.224 4.30981 761.392 4.30981H168.799Z" fill="#C9C6C8"/>
<path fill-rule="evenodd" clip-rule="evenodd" d="M168.799 4.30981C59.9665 4.30981 10.0562 55.9097 10.0562 163.053V1697.33C10.0562 1804.47 59.9665 1856.07 168.799 1856.07H761.392C866.676 1856.07 920.135 1800.83 920.135 1697.33V163.053C920.135 55.9097 870.224 4.30981 761.392 4.30981H168.799Z" fill="url(#paint0_linear)"/>
</g>
<path fill-rule="evenodd" clip-rule="evenodd" d="M13.0934 117.697C25.3981 46.0027 75.4014 13.6475 168.799 13.6475H761.392C854.789 13.6475 904.792 46.0025 917.097 117.696C899.602 53.5517 850.168 20.1121 761.392 20.1121H168.799C80.023 20.1121 30.5885 53.5519 13.0934 117.697ZM12.4822 1738.94C23.6616 1813.26 73.7673 1846.73 168.799 1846.73H761.392C854.534 1846.73 907.115 1809.56 918.004 1735.02C900.9 1801.46 849.523 1838.83 761.392 1838.83H168.799C78.9661 1838.83 29.4171 1804.59 12.4822 1738.94Z" fill="url(#paint1_linear)"/>
<path fill-rule="evenodd" clip-rule="evenodd" d="M13.0934 117.697C25.3981 46.0027 75.4014 13.6475 168.799 13.6475H761.392C854.789 13.6475 904.792 46.0025 917.097 117.696C899.602 53.5517 850.168 20.1121 761.392 20.1121H168.799C80.023 20.1121 30.5885 53.5519 13.0934 117.697ZM12.4822 1738.94C23.6616 1813.26 73.7673 1846.73 168.799 1846.73H761.392C854.534 1846.73 907.115 1809.56 918.004 1735.02C900.9 1801.46 849.523 1838.83 761.392 1838.83H168.799C78.9661 1838.83 29.4171 1804.59 12.4822 1738.94Z" fill="url(#paint2_linear)"/>
<path fill-rule="evenodd" clip-rule="evenodd" d="M168.799 20.1123H761.392C875.307 20.1123 924.444 75.1718 924.444 179.514V1679.43C924.444 1780.26 871.715 1838.83 761.392 1838.83H168.799C54.8841 1838.83 5.74634 1783.77 5.74634 1679.43V179.514C5.74634 75.1718 54.8841 20.1123 168.799 20.1123Z" fill="url(#paint3_linear)"/>
<path fill-rule="evenodd" clip-rule="evenodd" d="M168.799 20.1123H761.392C875.307 20.1123 924.444 75.1718 924.444 179.514V1679.43C924.444 1780.26 871.715 1838.83 761.392 1838.83H168.799C54.8841 1838.83 5.74634 1783.77 5.74634 1679.43V179.514C5.74634 75.1718 54.8841 20.1123 168.799 20.1123Z" fill="url(#paint4_linear)"/>
<path d="M20.4714 163.053C20.4714 111.869 32.0383 74.8534 56.2262 50.6191C80.4137 26.3853 117.428 14.7249 168.799 14.7249H761.392C812.762 14.7249 849.777 26.3853 873.965 50.6191C898.152 74.8534 909.719 111.869 909.719 163.053V1697.33C909.719 1746.68 897.274 1783.71 872.625 1808.41C847.977 1833.11 810.947 1845.66 761.392 1845.66H168.799C117.428 1845.66 80.4137 1834 56.2262 1809.76C32.0383 1785.53 20.4714 1748.51 20.4714 1697.33V163.053Z" fill="url(#paint5_linear)" stroke="black" stroke-width="2.15488"/>
<path d="M168.799 36.6331C79.049 36.6331 43.0977 72.6004 43.0977 162.335V1696.61C43.0977 1786.34 79.049 1822.31 168.799 1822.31H761.392C847.551 1822.31 887.093 1782.75 887.093 1696.61V162.335C887.093 72.6004 851.142 36.6331 761.392 36.6331H168.799Z" fill="black"/>
</g>
<g clip-path="url(#clip1)">
<g filter="url(#filter1_i)">
<path fill-rule="evenodd" clip-rule="evenodd" d="M425.948 1857.51C445.342 1857.51 485.403 1857.51 504.961 1857.51C505.128 1857.51 505.294 1857.51 505.458 1857.51C510.21 1857.55 509.746 1860.38 504.993 1860.38H425.916C421.163 1860.38 420.699 1857.55 425.451 1857.51C425.615 1857.51 425.781 1857.51 425.948 1857.51Z" fill="#343434"/>
</g>
</g>
<g clip-path="url(#clip2)">
<g filter="url(#filter2_i)">
<path fill-rule="evenodd" clip-rule="evenodd" d="M93.3391 34.9478C48.8474 53.9893 28.7319 95.0853 28.7319 162.419V1697.72C28.7319 1761.04 49.5337 1802.61 91.8264 1823.03C91.8264 1820.76 44.5343 1789.33 44.5343 1704.91C44.5343 1664.06 44.5343 200.773 44.5343 155.094C44.5343 66.0395 93.3391 34.9478 93.3391 34.9478Z" fill="white" fill-opacity="0.599524"/>
</g>
<g filter="url(#filter3_i)">
<path fill-rule="evenodd" clip-rule="evenodd" d="M836.849 34.9478C881.34 53.9893 901.456 95.0853 901.456 162.419V1697.72C901.456 1761.04 880.654 1802.61 838.361 1823.03C838.361 1820.76 885.653 1789.33 885.653 1704.91C885.653 1664.06 885.653 200.773 885.653 155.094C885.653 66.0395 836.849 34.9478 836.849 34.9478Z" fill="white" fill-opacity="0.599524"/>
</g>
</g>
<rect opacity="0.602808" x="5.74634" y="178.137" width="15.8025" height="12.9293" fill="black"/>
<rect opacity="0.602808" x="908.642" y="178.137" width="15.8025" height="12.9293" fill="black"/>
<rect opacity="0.602808" x="733.378" y="15.8025" width="15.8025" height="12.9293" transform="rotate(-90 733.378 15.8025)" fill="black"/>
<rect opacity="0.602808" x="183.883" y="1860.38" width="15.8025" height="12.9293" transform="rotate(-90 183.883 1860.38)" fill="black"/>
<rect opacity="0.602808" x="5.74634" y="1669.32" width="15.8025" height="12.9293" fill="black"/>
<rect opacity="0.602808" x="908.642" y="1669.32" width="15.8025" height="12.9293" fill="black"/>
<g clip-path="url(#clip3)">
<g filter="url(#filter4_ii)">
<path fill-rule="evenodd" clip-rule="evenodd" d="M5.01441 251.403C2.24503 251.403 0 253.654 0 256.431V318.204C0 320.981 2.24503 323.232 5.01441 323.232H7.87978C7.87978 319.454 7.92805 255.096 7.87978 251.403H5.01441Z" fill="url(#paint6_linear)"/>
</g>
<g filter="url(#filter5_ii)">
<path fill-rule="evenodd" clip-rule="evenodd" d="M5.01441 382.851C3.38405 383.252 1.42902 384.28 0.3851 385.74C0.170079 386.041 0 386.992 0 387.267C0 401.073 0 443.122 0 513.416C0 513.71 0.239392 515.193 0.385971 515.553C1.23074 517.626 2.69853 518.128 5.01441 519.326H7.87978C7.87978 515.548 7.92805 386.544 7.87978 382.851H5.01441Z" fill="url(#paint7_linear)"/>
</g>
<g filter="url(#filter6_ii)">
<path fill-rule="evenodd" clip-rule="evenodd" d="M5.01441 553.086C3.38405 553.488 1.42902 554.516 0.3851 555.976C0.170079 556.277 0 557.228 0 557.503C0 571.309 0 613.358 0 683.652C0 683.945 0.239392 685.429 0.385971 685.789C1.23074 687.862 2.69853 688.364 5.01441 689.562H7.87978C7.87978 685.784 7.92805 556.78 7.87978 553.086H5.01441Z" fill="url(#paint8_linear)"/>
</g>
<g filter="url(#filter7_ii)">
<path fill-rule="evenodd" clip-rule="evenodd" d="M925.177 427.385C926.807 427.786 928.762 428.814 929.806 430.274C930.021 430.575 930.191 431.526 930.191 431.802C930.191 445.607 930.191 568.106 930.191 638.399C930.191 638.693 929.952 640.176 929.805 640.536C928.96 642.609 927.492 643.111 925.177 644.31H922.311C922.311 640.532 922.263 431.078 922.311 427.385H925.177Z" fill="url(#paint9_linear)"/>
<path fill-rule="evenodd" clip-rule="evenodd" d="M925.177 427.385C926.807 427.786 928.762 428.814 929.806 430.274C930.021 430.575 930.191 431.526 930.191 431.802C930.191 445.607 930.191 568.106 930.191 638.399C930.191 638.693 929.952 640.176 929.805 640.536C928.96 642.609 927.492 643.111 925.177 644.31H922.311C922.311 640.532 922.263 431.078 922.311 427.385H925.177Z" fill="url(#paint10_linear)"/>
</g>
</g>
<g opacity="0.801364" clip-path="url(#clip4)">
<rect x="409.428" y="66.8013" width="112.054" height="15.0842" rx="7.54209" fill="#1D1C1C"/>
<g opacity="0.244441" filter="url(#filter8_iii)">
<rect x="409.428" y="66.8013" width="112.054" height="15.0842" rx="7.54209" fill="black" fill-opacity="0.01"/>
</g>
</g>
<g clip-path="url(#clip5)">
<circle cx="563.861" cy="73.9843" r="13.6476" fill="url(#paint11_radial)"/>
<g opacity="0.387535" filter="url(#filter9_dd)">
<circle cx="563.861" cy="73.9842" r="7.18294" fill="url(#paint12_linear)"/>
</g>
<g filter="url(#filter10_f)">
<ellipse cx="569.607" cy="72.1885" rx="4.30976" ry="5.38721" fill="#1C5894"/>
</g>
</g>
<path fill-rule="evenodd" clip-rule="evenodd" d="M690.281 73.9842V74.7025C690.281 94.6668 675.048 119.955 640 119.955H290.909C255.861 119.955 240.629 94.6668 240.629 74.7025V73.9842C240.629 64.7506 240.629 55.3086 224.108 55.3086H154.433C96.2047 55.3086 61.0551 90.4583 61.0551 148.687V1711.69C61.0551 1769.92 96.2047 1805.07 154.433 1805.07H775.758C833.986 1805.07 869.136 1769.92 869.136 1711.69V148.687C869.136 90.4583 833.986 55.3086 775.758 55.3086H706.801C690.281 55.3086 690.281 64.7506 690.281 73.9842Z" fill="#58B5F0"/>

<defs>
<filter id="filter0_i" x="10.0562" y="4.30981" width="910.079" height="1851.76" filterUnits="userSpaceOnUse" color-interpolation-filters="sRGB">
<feFlood flood-opacity="0" result="BackgroundImageFix"/>
<feBlend mode="normal" in="SourceGraphic" in2="BackgroundImageFix" result="shape"/>
<feColorMatrix in="SourceAlpha" type="matrix" values="0 0 0 0 0 0 0 0 0 0 0 0 0 0 0 0 0 0 127 0" result="hardAlpha"/>
<feOffset/>
<feGaussianBlur stdDeviation="2.87318"/>
<feComposite in2="hardAlpha" operator="arithmetic" k2="-1" k3="1"/>
<feColorMatrix type="matrix" values="0 0 0 0 0 0 0 0 0 0 0 0 0 0 0 0 0 0 0.6 0"/>
<feBlend mode="normal" in2="shape" result="effect1_innerShadow"/>
</filter>
<filter id="filter1_i" x="422.111" y="1857.51" width="86.6876" height="3.59147" filterUnits="userSpaceOnUse" color-interpolation-filters="sRGB">
<feFlood flood-opacity="0" result="BackgroundImageFix"/>
<feBlend mode="normal" in="SourceGraphic" in2="BackgroundImageFix" result="shape"/>
<feColorMatrix in="SourceAlpha" type="matrix" values="0 0 0 0 0 0 0 0 0 0 0 0 0 0 0 0 0 0 127 0" result="hardAlpha"/>
<feOffset dy="0.718294"/>
<feGaussianBlur stdDeviation="0.718294"/>
<feComposite in2="hardAlpha" operator="arithmetic" k2="-1" k3="1"/>
<feColorMatrix type="matrix" values="0 0 0 0 0.592157 0 0 0 0 0.592157 0 0 0 0 0.592157 0 0 0 1 0"/>
<feBlend mode="normal" in2="shape" result="effect1_innerShadow"/>
</filter>
<filter id="filter2_i" x="28.7318" y="34.9478" width="72.5085" height="1788.08" filterUnits="userSpaceOnUse" color-interpolation-filters="sRGB">
<feFlood flood-opacity="0" result="BackgroundImageFix"/>
<feBlend mode="normal" in="SourceGraphic" in2="BackgroundImageFix" result="shape"/>
<feColorMatrix in="SourceAlpha" type="matrix" values="0 0 0 0 0 0 0 0 0 0 0 0 0 0 0 0 0 0 127 0" result="hardAlpha"/>
<feOffset dx="7.90123"/>
<feGaussianBlur stdDeviation="6.1055"/>
<feComposite in2="hardAlpha" operator="arithmetic" k2="-1" k3="1"/>
<feColorMatrix type="matrix" values="0 0 0 0 0 0 0 0 0 0 0 0 0 0 0 0 0 0 0.6 0"/>
<feBlend mode="normal" in2="shape" result="effect1_innerShadow"/>
</filter>
<filter id="filter3_i" x="836.849" y="34.9478" width="72.5085" height="1788.08" filterUnits="userSpaceOnUse" color-interpolation-filters="sRGB">
<feFlood flood-opacity="0" result="BackgroundImageFix"/>
<feBlend mode="normal" in="SourceGraphic" in2="BackgroundImageFix" result="shape"/>
<feColorMatrix in="SourceAlpha" type="matrix" values="0 0 0 0 0 0 0 0 0 0 0 0 0 0 0 0 0 0 127 0" result="hardAlpha"/>
<feOffset dx="7.90123"/>
<feGaussianBlur stdDeviation="6.1055"/>
<feComposite in2="hardAlpha" operator="arithmetic" k2="-1" k3="1"/>
<feColorMatrix type="matrix" values="0 0 0 0 0 0 0 0 0 0 0 0 0 0 0 0 0 0 0.6 0"/>
<feBlend mode="normal" in2="shape" result="effect1_innerShadow"/>
</filter>
<filter id="filter4_ii" x="0" y="249.248" width="7.90124" height="76.1392" filterUnits="userSpaceOnUse" color-interpolation-filters="sRGB">
<feFlood flood-opacity="0" result="BackgroundImageFix"/>
<feBlend mode="normal" in="SourceGraphic" in2="BackgroundImageFix" result="shape"/>
<feColorMatrix in="SourceAlpha" type="matrix" values="0 0 0 0 0 0 0 0 0 0 0 0 0 0 0 0 0 0 127 0" result="hardAlpha"/>
<feOffset dy="4.30976"/>
<feGaussianBlur stdDeviation="1.07744"/>
<feComposite in2="hardAlpha" operator="arithmetic" k2="-1" k3="1"/>
<feColorMatrix type="matrix" values="0 0 0 0 0 0 0 0 0 0 0 0 0 0 0 0 0 0 0.757614 0"/>
<feBlend mode="normal" in2="shape" result="effect1_innerShadow"/>
<feColorMatrix in="SourceAlpha" type="matrix" values="0 0 0 0 0 0 0 0 0 0 0 0 0 0 0 0 0 0 127 0" result="hardAlpha"/>
<feOffset dy="-4.30976"/>
<feGaussianBlur stdDeviation="1.07744"/>
<feComposite in2="hardAlpha" operator="arithmetic" k2="-1" k3="1"/>
<feColorMatrix type="matrix" values="0 0 0 0 0 0 0 0 0 0 0 0 0 0 0 0 0 0 0.757614 0"/>
<feBlend mode="normal" in2="effect1_innerShadow" result="effect2_innerShadow"/>
</filter>
<filter id="filter5_ii" x="0" y="380.696" width="7.90124" height="140.786" filterUnits="userSpaceOnUse" color-interpolation-filters="sRGB">
<feFlood flood-opacity="0" result="BackgroundImageFix"/>
<feBlend mode="normal" in="SourceGraphic" in2="BackgroundImageFix" result="shape"/>
<feColorMatrix in="SourceAlpha" type="matrix" values="0 0 0 0 0 0 0 0 0 0 0 0 0 0 0 0 0 0 127 0" result="hardAlpha"/>
<feOffset dy="4.30976"/>
<feGaussianBlur stdDeviation="1.07744"/>
<feComposite in2="hardAlpha" operator="arithmetic" k2="-1" k3="1"/>
<feColorMatrix type="matrix" values="0 0 0 0 0 0 0 0 0 0 0 0 0 0 0 0 0 0 0.757614 0"/>
<feBlend mode="normal" in2="shape" result="effect1_innerShadow"/>
<feColorMatrix in="SourceAlpha" type="matrix" values="0 0 0 0 0 0 0 0 0 0 0 0 0 0 0 0 0 0 127 0" result="hardAlpha"/>
<feOffset dy="-4.30976"/>
<feGaussianBlur stdDeviation="1.07744"/>
<feComposite in2="hardAlpha" operator="arithmetic" k2="-1" k3="1"/>
<feColorMatrix type="matrix" values="0 0 0 0 0 0 0 0 0 0 0 0 0 0 0 0 0 0 0.757614 0"/>
<feBlend mode="normal" in2="effect1_innerShadow" result="effect2_innerShadow"/>
</filter>
<filter id="filter6_ii" x="0" y="550.932" width="7.90124" height="140.786" filterUnits="userSpaceOnUse" color-interpolation-filters="sRGB">
<feFlood flood-opacity="0" result="BackgroundImageFix"/>
<feBlend mode="normal" in="SourceGraphic" in2="BackgroundImageFix" result="shape"/>
<feColorMatrix in="SourceAlpha" type="matrix" values="0 0 0 0 0 0 0 0 0 0 0 0 0 0 0 0 0 0 127 0" result="hardAlpha"/>
<feOffset dy="4.30976"/>
<feGaussianBlur stdDeviation="1.07744"/>
<feComposite in2="hardAlpha" operator="arithmetic" k2="-1" k3="1"/>
<feColorMatrix type="matrix" values="0 0 0 0 0 0 0 0 0 0 0 0 0 0 0 0 0 0 0.757614 0"/>
<feBlend mode="normal" in2="shape" result="effect1_innerShadow"/>
<feColorMatrix in="SourceAlpha" type="matrix" values="0 0 0 0 0 0 0 0 0 0 0 0 0 0 0 0 0 0 127 0" result="hardAlpha"/>
<feOffset dy="-4.30976"/>
<feGaussianBlur stdDeviation="1.07744"/>
<feComposite in2="hardAlpha" operator="arithmetic" k2="-1" k3="1"/>
<feColorMatrix type="matrix" values="0 0 0 0 0 0 0 0 0 0 0 0 0 0 0 0 0 0 0.757614 0"/>
<feBlend mode="normal" in2="effect1_innerShadow" result="effect2_innerShadow"/>
</filter>
<filter id="filter7_ii" x="922.29" y="425.23" width="7.90124" height="221.235" filterUnits="userSpaceOnUse" color-interpolation-filters="sRGB">
<feFlood flood-opacity="0" result="BackgroundImageFix"/>
<feBlend mode="normal" in="SourceGraphic" in2="BackgroundImageFix" result="shape"/>
<feColorMatrix in="SourceAlpha" type="matrix" values="0 0 0 0 0 0 0 0 0 0 0 0 0 0 0 0 0 0 127 0" result="hardAlpha"/>
<feOffset dy="4.30976"/>
<feGaussianBlur stdDeviation="1.07744"/>
<feComposite in2="hardAlpha" operator="arithmetic" k2="-1" k3="1"/>
<feColorMatrix type="matrix" values="0 0 0 0 0 0 0 0 0 0 0 0 0 0 0 0 0 0 0.757614 0"/>
<feBlend mode="normal" in2="shape" result="effect1_innerShadow"/>
<feColorMatrix in="SourceAlpha" type="matrix" values="0 0 0 0 0 0 0 0 0 0 0 0 0 0 0 0 0 0 127 0" result="hardAlpha"/>
<feOffset dy="-4.30976"/>
<feGaussianBlur stdDeviation="1.07744"/>
<feComposite in2="hardAlpha" operator="arithmetic" k2="-1" k3="1"/>
<feColorMatrix type="matrix" values="0 0 0 0 0 0 0 0 0 0 0 0 0 0 0 0 0 0 0.757614 0"/>
<feBlend mode="normal" in2="effect1_innerShadow" result="effect2_innerShadow"/>
</filter>
<filter id="filter8_iii" x="409.428" y="66.8013" width="112.054" height="15.0842" filterUnits="userSpaceOnUse" color-interpolation-filters="sRGB">
<feFlood flood-opacity="0" result="BackgroundImageFix"/>
<feBlend mode="normal" in="SourceGraphic" in2="BackgroundImageFix" result="shape"/>
<feColorMatrix in="SourceAlpha" type="matrix" values="0 0 0 0 0 0 0 0 0 0 0 0 0 0 0 0 0 0 127 0" result="hardAlpha"/>
<feMorphology radius="2.87318" operator="erode" in="SourceAlpha" result="effect1_innerShadow"/>
<feOffset/>
<feGaussianBlur stdDeviation="1.43659"/>
<feComposite in2="hardAlpha" operator="arithmetic" k2="-1" k3="1"/>
<feColorMatrix type="matrix" values="0 0 0 0 0 0 0 0 0 0 0 0 0 0 0 0 0 0 0.795035 0"/>
<feBlend mode="normal" in2="shape" result="effect1_innerShadow"/>
<feColorMatrix in="SourceAlpha" type="matrix" values="0 0 0 0 0 0 0 0 0 0 0 0 0 0 0 0 0 0 127 0" result="hardAlpha"/>
<feOffset dy="-2.87318"/>
<feComposite in2="hardAlpha" operator="arithmetic" k2="-1" k3="1"/>
<feColorMatrix type="matrix" values="0 0 0 0 0 0 0 0 0 0 0 0 0 0 0 0 0 0 0.80013 0"/>
<feBlend mode="normal" in2="effect1_innerShadow" result="effect2_innerShadow"/>
<feColorMatrix in="SourceAlpha" type="matrix" values="0 0 0 0 0 0 0 0 0 0 0 0 0 0 0 0 0 0 127 0" result="hardAlpha"/>
<feOffset dy="-1.43659"/>
<feComposite in2="hardAlpha" operator="arithmetic" k2="-1" k3="1"/>
<feColorMatrix type="matrix" values="0 0 0 0 1 0 0 0 0 1 0 0 0 0 1 0 0 0 0.197067 0"/>
<feBlend mode="normal" in2="effect2_innerShadow" result="effect3_innerShadow"/>
</filter>
<filter id="filter9_dd" x="549.495" y="59.6183" width="28.7318" height="28.7318" filterUnits="userSpaceOnUse" color-interpolation-filters="sRGB">
<feFlood flood-opacity="0" result="BackgroundImageFix"/>
<feColorMatrix in="SourceAlpha" type="matrix" values="0 0 0 0 0 0 0 0 0 0 0 0 0 0 0 0 0 0 127 0"/>
<feMorphology radius="3.59147" operator="dilate" in="SourceAlpha" result="effect1_dropShadow"/>
<feOffset/>
<feGaussianBlur stdDeviation="1.79574"/>
<feColorMatrix type="matrix" values="0 0 0 0 0 0 0 0 0 0 0 0 0 0 0 0 0 0 0.4 0"/>
<feBlend mode="normal" in2="BackgroundImageFix" result="effect1_dropShadow"/>
<feColorMatrix in="SourceAlpha" type="matrix" values="0 0 0 0 0 0 0 0 0 0 0 0 0 0 0 0 0 0 127 0"/>
<feMorphology radius="1.43659" operator="dilate" in="SourceAlpha" result="effect2_dropShadow"/>
<feOffset/>
<feColorMatrix type="matrix" values="0 0 0 0 0 0 0 0 0 0 0 0 0 0 0 0 0 0 1 0"/>
<feBlend mode="normal" in2="effect1_dropShadow" result="effect2_dropShadow"/>
<feBlend mode="normal" in="SourceGraphic" in2="effect2_dropShadow" result="shape"/>
</filter>
<filter id="filter10_f" x="561.393" y="62.8962" width="16.4296" height="18.5845" filterUnits="userSpaceOnUse" color-interpolation-filters="sRGB">
<feFlood flood-opacity="0" result="BackgroundImageFix"/>
<feBlend mode="normal" in="SourceGraphic" in2="BackgroundImageFix" result="shape"/>
<feGaussianBlur stdDeviation="1.95253" result="effect1_foregroundBlur"/>
</filter>
<linearGradient id="paint0_linear" x1="10.0562" y1="4.30981" x2="10.0562" y2="1856.07" gradientUnits="userSpaceOnUse">
<stop stop-color="#C9C6C8"/>
<stop offset="0.0168336" stop-color="#716D6D"/>
<stop offset="0.0782507" stop-color="#C9C6C8"/>
<stop offset="0.920557" stop-color="#C9C6C8"/>
<stop offset="0.980426" stop-color="#716D6D"/>
<stop offset="1" stop-color="#C9C6C8"/>
</linearGradient>
<linearGradient id="paint1_linear" x1="436.251" y1="13.6475" x2="436.251" y2="131.027" gradientUnits="userSpaceOnUse">
<stop stop-opacity="0.901495"/>
<stop offset="1" stop-opacity="0.01"/>
</linearGradient>
<linearGradient id="paint2_linear" x1="497.247" y1="1846.73" x2="497.247" y2="1717.16" gradientUnits="userSpaceOnUse">
<stop stop-opacity="0.9"/>
<stop offset="1" stop-opacity="0.01"/>
</linearGradient>
<linearGradient id="paint3_linear" x1="435.682" y1="20.1123" x2="435.682" y2="136.572" gradientUnits="userSpaceOnUse">
<stop stop-opacity="0.5"/>
<stop offset="1" stop-opacity="0.01"/>
</linearGradient>
<linearGradient id="paint4_linear" x1="497.565" y1="1838.83" x2="497.565" y2="1710.27" gradientUnits="userSpaceOnUse">
<stop stop-opacity="0.5"/>
<stop offset="1" stop-opacity="0.01"/>
</linearGradient>
<linearGradient id="paint5_linear" x1="19.3939" y1="13.6475" x2="19.3939" y2="1846.73" gradientUnits="userSpaceOnUse">
<stop stop-color="#5F5F5F"/>
<stop offset="0.0101238" stop-color="#222222"/>
<stop offset="1" stop-color="#252525"/>
</linearGradient>
<linearGradient id="paint6_linear" x1="2.14768" y1="293.587" x2="4.31952" y2="293.587" gradientUnits="userSpaceOnUse">
<stop stop-color="#A5A5A5"/>
<stop offset="0.00734796" stop-color="#E2E2E2"/>
<stop offset="0.994739" stop-color="#BEBEBE"/>
<stop offset="1" stop-color="#9D9D9D"/>
</linearGradient>
<linearGradient id="paint7_linear" x1="2.14768" y1="463" x2="4.31952" y2="463" gradientUnits="userSpaceOnUse">
<stop stop-color="#A5A5A5"/>
<stop offset="0.00734796" stop-color="#E2E2E2"/>
<stop offset="0.994739" stop-color="#BEBEBE"/>
<stop offset="1" stop-color="#9D9D9D"/>
</linearGradient>
<linearGradient id="paint8_linear" x1="2.14768" y1="633.236" x2="4.31952" y2="633.236" gradientUnits="userSpaceOnUse">
<stop stop-color="#A5A5A5"/>
<stop offset="0.00734796" stop-color="#E2E2E2"/>
<stop offset="0.994739" stop-color="#BEBEBE"/>
<stop offset="1" stop-color="#9D9D9D"/>
</linearGradient>
<linearGradient id="paint9_linear" x1="927.461" y1="526.642" x2="927.339" y2="526.642" gradientUnits="userSpaceOnUse">
<stop stop-color="#8E8E8E"/>
<stop offset="1" stop-color="#BCBCBC"/>
</linearGradient>
<linearGradient id="paint10_linear" x1="930.191" y1="427.385" x2="930.191" y2="644.31" gradientUnits="userSpaceOnUse">
<stop stop-opacity="0.996971"/>
<stop offset="0.0951211" stop-opacity="0.01"/>
<stop offset="0.895463" stop-opacity="0.01"/>
<stop offset="1" stop-opacity="0.881058"/>
</linearGradient>
<radialGradient id="paint11_radial" cx="0" cy="0" r="1" gradientUnits="userSpaceOnUse" gradientTransform="translate(583.256 96.9465) rotate(45.1938) scale(27.4757)">
<stop stop-color="#434343"/>
<stop offset="1" stop-color="#121212"/>
</radialGradient>
<linearGradient id="paint12_linear" x1="563.861" y1="52.4354" x2="563.861" y2="81.1672" gradientUnits="userSpaceOnUse">
<stop stop-color="#2A4893"/>
<stop offset="1" stop-color="#213054"/>
</linearGradient>
<clipPath id="clip0">
<rect width="918.698" height="1860.38" fill="white" transform="translate(5.74634)"/>
</clipPath>
<clipPath id="clip1">
<rect width="107.744" height="2.87318" fill="white" transform="translate(411.583 1857.51)"/>
</clipPath>
<clipPath id="clip2">
<rect width="872.727" height="1788.55" fill="white" transform="translate(28.7318 34.478)"/>
</clipPath>
<clipPath id="clip3">
<rect width="930.191" height="438.159" fill="white" transform="translate(0 251.403)"/>
</clipPath>
<clipPath id="clip4">
<rect width="112.054" height="15.0842" fill="white" transform="translate(409.428 66.8013)"/>
</clipPath>
<clipPath id="clip5">
<rect width="27.2952" height="27.2952" fill="white" transform="translate(550.213 60.3367)"/>
</clipPath>
</defs>
</svg>
