<svg width="2007" height="2911" viewBox="0 0 2007 2911" fill="none" xmlns="http://www.w3.org/2000/svg">
<g clip-path="url(#clip0)">
<g clip-path="url(#clip1)">
<g filter="url(#filter0_ii)">
<path fill-rule="evenodd" clip-rule="evenodd" d="M2006.95 2850.6L2006.95 2729.39C2006.95 2728.66 2006.35 2728.07 2005.62 2728.07L2005.62 182.932C2006.35 182.932 2006.95 182.338 2006.95 181.606L2006.95 60.7347C2006.95 27.1919 1979.75 -1.18859e-06 1946.21 -2.65485e-06L60.7356 -8.50715e-05C27.1915 -8.65378e-05 -0.0003674 27.1918 -0.000368866 60.7346L-0.000490779 2849.78C-0.000492251 2883.45 27.548 2911 61.218 2911L1946.55 2911C1979.91 2911 2006.95 2883.96 2006.95 2850.6Z" fill="url(#paint0_linear)"/>
<path fill-rule="evenodd" clip-rule="evenodd" d="M2006.95 2850.6L2006.95 2729.39C2006.95 2728.66 2006.35 2728.07 2005.62 2728.07L2005.62 182.932C2006.35 182.932 2006.95 182.338 2006.95 181.606L2006.95 60.7347C2006.95 27.1919 1979.75 -1.18859e-06 1946.21 -2.65485e-06L60.7356 -8.50715e-05C27.1915 -8.65378e-05 -0.0003674 27.1918 -0.000368866 60.7346L-0.000490779 2849.78C-0.000492251 2883.45 27.548 2911 61.218 2911L1946.55 2911C1979.91 2911 2006.95 2883.96 2006.95 2850.6Z" fill="url(#paint1_radial)" fill-opacity="0.9"/>
<path fill-rule="evenodd" clip-rule="evenodd" d="M2006.95 2850.6L2006.95 2729.39C2006.95 2728.66 2006.35 2728.07 2005.62 2728.07L2005.62 182.932C2006.35 182.932 2006.95 182.338 2006.95 181.606L2006.95 60.7347C2006.95 27.1919 1979.75 -1.18859e-06 1946.21 -2.65485e-06L60.7356 -8.50715e-05C27.1915 -8.65378e-05 -0.0003674 27.1918 -0.000368866 60.7346L-0.000490779 2849.78C-0.000492251 2883.45 27.548 2911 61.218 2911L1946.55 2911C1979.91 2911 2006.95 2883.96 2006.95 2850.6Z" fill="url(#paint2_radial)" fill-opacity="0.9"/>
<path fill-rule="evenodd" clip-rule="evenodd" d="M2006.95 2850.6L2006.95 2729.39C2006.95 2728.66 2006.35 2728.07 2005.62 2728.07L2005.62 182.932C2006.35 182.932 2006.95 182.338 2006.95 181.606L2006.95 60.7347C2006.95 27.1919 1979.75 -1.18859e-06 1946.21 -2.65485e-06L60.7356 -8.50715e-05C27.1915 -8.65378e-05 -0.0003674 27.1918 -0.000368866 60.7346L-0.000490779 2849.78C-0.000492251 2883.45 27.548 2911 61.218 2911L1946.55 2911C1979.91 2911 2006.95 2883.96 2006.95 2850.6Z" fill="url(#paint3_radial)" fill-opacity="0.7"/>
<path fill-rule="evenodd" clip-rule="evenodd" d="M2006.95 2850.6L2006.95 2729.39C2006.95 2728.66 2006.35 2728.07 2005.62 2728.07L2005.62 182.932C2006.35 182.932 2006.95 182.338 2006.95 181.606L2006.95 60.7347C2006.95 27.1919 1979.75 -1.18859e-06 1946.21 -2.65485e-06L60.7356 -8.50715e-05C27.1915 -8.65378e-05 -0.0003674 27.1918 -0.000368866 60.7346L-0.000490779 2849.78C-0.000492251 2883.45 27.548 2911 61.218 2911L1946.55 2911C1979.91 2911 2006.95 2883.96 2006.95 2850.6Z" fill="url(#paint4_radial)" fill-opacity="0.3"/>
<path fill-rule="evenodd" clip-rule="evenodd" d="M2006.95 2850.6L2006.95 2729.39C2006.95 2728.66 2006.35 2728.07 2005.62 2728.07L2005.62 182.932C2006.35 182.932 2006.95 182.338 2006.95 181.606L2006.95 60.7347C2006.95 27.1919 1979.75 -1.18859e-06 1946.21 -2.65485e-06L60.7356 -8.50715e-05C27.1915 -8.65378e-05 -0.0003674 27.1918 -0.000368866 60.7346L-0.000490779 2849.78C-0.000492251 2883.45 27.548 2911 61.218 2911L1946.55 2911C1979.91 2911 2006.95 2883.96 2006.95 2850.6Z" fill="url(#paint5_linear)" fill-opacity="0.4"/>
<path fill-rule="evenodd" clip-rule="evenodd" d="M2006.95 2850.6L2006.95 2729.39C2006.95 2728.66 2006.35 2728.07 2005.62 2728.07L2005.62 182.932C2006.35 182.932 2006.95 182.338 2006.95 181.606L2006.95 60.7347C2006.95 27.1919 1979.75 -1.18859e-06 1946.21 -2.65485e-06L60.7356 -8.50715e-05C27.1915 -8.65378e-05 -0.0003674 27.1918 -0.000368866 60.7346L-0.000490779 2849.78C-0.000492251 2883.45 27.548 2911 61.218 2911L1946.55 2911C1979.91 2911 2006.95 2883.96 2006.95 2850.6Z" fill="url(#paint6_linear)" fill-opacity="0.5" style="mix-blend-mode:multiply"/>
</g>
<mask id="mask0" mask-type="alpha" maskUnits="userSpaceOnUse" x="-1" y="0" width="2008" height="2911">
<path fill-rule="evenodd" clip-rule="evenodd" d="M2006.95 2850.6L2006.95 2729.39C2006.95 2728.66 2006.35 2728.07 2005.62 2728.07L2005.62 182.932C2006.35 182.932 2006.95 182.338 2006.95 181.606L2006.95 60.7347C2006.95 27.1919 1979.75 -1.18859e-06 1946.21 -2.65485e-06L60.7356 -8.50715e-05C27.1915 -8.65378e-05 -0.0003674 27.1918 -0.000368866 60.7346L-0.000490779 2849.78C-0.000492251 2883.45 27.548 2911 61.218 2911L1946.55 2911C1979.91 2911 2006.95 2883.96 2006.95 2850.6Z" fill="white"/>
</mask>
<g mask="url(#mask0)">
<rect width="271.746" height="145.815" transform="matrix(-0.5 -0.866025 -0.866025 0.5 2090.3 2950.46)" fill="url(#paint7_linear)" fill-opacity="0.4" style="mix-blend-mode:multiply"/>
<rect x="2090.3" y="-42.1113" width="271.746" height="145.815" transform="rotate(120 2090.3 -42.1113)" fill="url(#paint8_linear)" fill-opacity="0.4" style="mix-blend-mode:multiply"/>
<rect x="-5.92432" y="-140.647" width="271.746" height="145.815" transform="rotate(45 -5.92432 -140.647)" fill="url(#paint9_linear)" fill-opacity="0.4" style="mix-blend-mode:multiply"/>
<rect width="271.746" height="145.815" transform="matrix(0.707107 -0.707107 -0.707107 -0.707107 -5.92432 3049.71)" fill="url(#paint10_linear)" fill-opacity="0.4" style="mix-blend-mode:multiply"/>
<g opacity="0.4" filter="url(#filter1_ii)">
<rect x="2006.95" y="182.932" width="2545.14" height="13.2559" transform="rotate(90 2006.95 182.932)" fill="url(#paint11_radial)"/>
<rect x="2006.95" y="182.932" width="2545.14" height="13.2559" transform="rotate(90 2006.95 182.932)" fill="url(#paint12_radial)"/>
</g>
</g>
</g>
<g filter="url(#filter2_d)">
<mask id="path-8-outside-1" maskUnits="userSpaceOnUse" x="8.34094" y="8.60441" width="1990" height="2894" fill="black">
<rect fill="white" x="8.34094" y="8.60441" width="1990" height="2894"/>
<path fill-rule="evenodd" clip-rule="evenodd" d="M1849.65 2897.74L1602.19 2897.74C1599.61 2899.46 1596.55 2900.39 1593.4 2900.39L60.9766 2900.39C33.1577 2900.39 10.6041 2877.84 10.6041 2850.02L10.6042 60.9769C10.6042 33.158 33.1578 10.6044 60.9767 10.6044L1593.4 10.6045C1596.55 10.6045 1599.61 11.5396 1602.19 13.2553L1849.65 13.2553C1852.24 11.5396 1855.29 10.6045 1858.44 10.6045L1945.97 10.6045C1973.79 10.6045 1996.34 33.1581 1996.34 60.977L1996.34 2850.02C1996.34 2877.84 1973.79 2900.39 1945.97 2900.39L1858.44 2900.39C1855.29 2900.39 1852.23 2899.46 1849.65 2897.74Z"/>
</mask>
<path d="M1602.19 2897.74L1602.19 2896.42L1601.8 2896.42L1601.46 2896.64L1602.19 2897.74ZM1849.65 2897.74L1850.38 2896.64L1850.05 2896.42L1849.65 2896.42L1849.65 2897.74ZM1593.4 2900.39L1593.4 2901.72L1593.4 2900.39ZM60.9766 2900.39L60.9766 2899.07L60.9766 2900.39ZM60.9767 10.6044L60.9767 9.27882L60.9767 10.6044ZM1593.4 10.6045L1593.4 11.9301L1593.4 10.6045ZM1602.19 13.2553L1601.46 14.36L1601.79 14.5808L1602.19 14.5808L1602.19 13.2553ZM1849.65 13.2553L1849.65 14.5809L1850.05 14.5809L1850.38 14.36L1849.65 13.2553ZM1945.97 2900.39L1945.97 2899.07L1945.97 2900.39ZM1858.44 2900.39L1858.44 2901.72L1858.44 2900.39ZM1602.19 2899.07L1849.65 2899.07L1849.65 2896.42L1602.19 2896.42L1602.19 2899.07ZM1593.4 2901.72C1596.81 2901.72 1600.12 2900.71 1602.93 2898.85L1601.46 2896.64C1599.09 2898.21 1596.29 2899.07 1593.4 2899.07L1593.4 2901.72ZM60.9766 2901.72L1593.4 2901.72L1593.4 2899.07L60.9766 2899.07L60.9766 2901.72ZM9.27856 2850.02C9.27856 2878.57 32.4257 2901.72 60.9766 2901.72L60.9766 2899.07C33.8898 2899.07 11.9297 2877.11 11.9297 2850.02L9.27856 2850.02ZM9.27868 60.9769L9.27856 2850.02L11.9297 2850.02L11.9298 60.9769L9.27868 60.9769ZM60.9767 9.27882C32.4258 9.27881 9.27869 32.4259 9.27868 60.9769L11.9298 60.9769C11.9298 33.8901 33.8899 11.93 60.9767 11.93L60.9767 9.27882ZM1593.4 9.27888L60.9767 9.27882L60.9767 11.93L1593.4 11.9301L1593.4 9.27888ZM1602.92 12.1505C1600.12 10.292 1596.81 9.27888 1593.4 9.27888L1593.4 11.9301C1596.29 11.9301 1599.09 12.7872 1601.46 14.36L1602.92 12.1505ZM1849.65 11.9297L1602.19 11.9297L1602.19 14.5808L1849.65 14.5809L1849.65 11.9297ZM1858.44 9.27889C1855.03 9.27889 1851.72 10.292 1848.92 12.1506L1850.38 14.36C1852.75 12.7872 1855.55 11.9301 1858.44 11.9301L1858.44 9.27889ZM1945.97 9.2789L1858.44 9.27889L1858.44 11.9301L1945.97 11.9301L1945.97 9.2789ZM1997.67 60.977C1997.67 32.426 1974.52 9.2789 1945.97 9.2789L1945.97 11.9301C1973.06 11.9301 1995.02 33.8902 1995.02 60.977L1997.67 60.977ZM1997.67 2850.02L1997.67 60.977L1995.02 60.977L1995.02 2850.02L1997.67 2850.02ZM1945.97 2901.72C1974.52 2901.72 1997.67 2878.57 1997.67 2850.02L1995.02 2850.02C1995.02 2877.11 1973.06 2899.07 1945.97 2899.07L1945.97 2901.72ZM1858.44 2901.72L1945.97 2901.72L1945.97 2899.07L1858.44 2899.07L1858.44 2901.72ZM1848.91 2898.85C1851.72 2900.71 1855.03 2901.72 1858.44 2901.72L1858.44 2899.07C1855.55 2899.07 1852.75 2898.21 1850.38 2896.64L1848.91 2898.85Z" fill="url(#paint13_linear)" mask="url(#path-8-outside-1)"/>
</g>
<rect x="1862.46" y="13.2549" width="71.582" height="288.979" transform="rotate(90 1862.46 13.2549)" fill="#111111"/>
<rect x="1862.46" y="2826.16" width="71.582" height="288.979" transform="rotate(90 1862.46 2826.16)" fill="#111111"/>
<g filter="url(#filter3_dii)">
<path fill-rule="evenodd" clip-rule="evenodd" d="M1847.19 2895.74C1850.18 2898.72 1854.22 2900.39 1858.44 2900.39L1945.97 2900.39C1973.79 2900.39 1996.34 2877.84 1996.34 2850.02L1996.34 60.977C1996.34 33.1581 1973.79 10.6045 1945.97 10.6045L1858.44 10.6045C1854.22 10.6045 1850.18 12.2814 1847.19 15.2639L1836.63 25.8302C1833.64 28.8128 1829.6 30.4884 1825.38 30.4884L1626.46 30.4884C1622.24 30.4884 1618.2 28.8128 1615.21 25.8302L1604.65 15.2639C1601.67 12.2813 1597.62 10.6045 1593.4 10.6045L60.9767 10.6044C33.1578 10.6044 10.6042 33.158 10.6042 60.9769L10.6041 2850.02C10.6041 2877.84 33.1577 2900.39 60.9766 2900.39L1593.4 2900.39C1597.62 2900.39 1601.67 2898.72 1604.65 2895.74L1615.21 2885.17C1618.2 2882.19 1622.24 2880.51 1626.46 2880.51L1825.38 2880.51C1829.6 2880.51 1833.64 2882.19 1836.63 2885.17L1847.19 2895.74Z" fill="url(#paint14_linear)"/>
</g>
<rect x="1859.8" y="174.978" width="2561.04" height="1715.32" transform="rotate(90 1859.8 174.978)" fill="#2A2929"/>
<g clip-path="url(#clip2)">
<g opacity="0.5" clip-path="url(#clip3)">
<circle cx="1923.43" cy="1455.5" r="22.5351" transform="rotate(90 1923.43 1455.5)" fill="url(#paint15_radial)"/>
<g clip-path="url(#clip4)">
<g filter="url(#filter4_d)">
<circle cx="1923.43" cy="1455.5" r="10.6047" transform="rotate(90 1923.43 1455.5)" fill="url(#paint16_linear)"/>
</g>
<mask id="mask1" mask-type="alpha" maskUnits="userSpaceOnUse" x="1912" y="1444" width="23" height="23">
<circle cx="1923.43" cy="1455.5" r="10.6047" transform="rotate(90 1923.43 1455.5)" fill="white"/>
</mask>
<g mask="url(#mask1)">
<g filter="url(#filter5_f)">
<circle cx="1919.46" cy="1450.2" r="2.65118" transform="rotate(90 1919.46 1450.2)" fill="#4297D8"/>
</g>
<g filter="url(#filter6_f)">
<circle cx="1922.11" cy="1458.15" r="3.97678" transform="rotate(90 1922.11 1458.15)" fill="#17154B"/>
</g>
<g filter="url(#filter7_f)">
<circle cx="1928.74" cy="1463.45" r="2.65118" transform="rotate(90 1928.74 1463.45)" fill="#A3D1FA"/>
</g>
<g filter="url(#filter8_f)">
<ellipse cx="1927.69" cy="1452.3" rx="3.97678" ry="1.32559" transform="rotate(60 1927.69 1452.3)" fill="#2934CD"/>
</g>
</g>
</g>
</g>
<g filter="url(#filter9_ii)">
<circle cx="1922.77" cy="1525.09" r="9.94194" transform="rotate(90 1922.77 1525.09)" fill="#212121"/>
<circle cx="1922.77" cy="1525.09" r="9.94194" transform="rotate(90 1922.77 1525.09)" fill="url(#paint17_linear)" fill-opacity="0.2"/>
</g>
<g clip-path="url(#clip5)">
<circle opacity="0.2" cx="1923.43" cy="1580.1" r="7.95355" transform="rotate(90 1923.43 1580.1)" fill="url(#paint18_linear)"/>
<circle opacity="0.6" cx="1923.43" cy="1580.11" r="5.30237" transform="rotate(90 1923.43 1580.11)" fill="#0A0A0A"/>
</g>
</g>
<path fill-rule="evenodd" clip-rule="evenodd" d="M1029.93 2808.73C1031.87 2820.61 1033.56 2832.72 1035.25 2844.6L1034.77 2844.6L1003.82 2844.6C1003.82 2832.72 1003.58 2820.61 1003.58 2808.73L1029.93 2808.73ZM1025.82 2778.44C1027.27 2787.41 1028.48 2796.37 1029.45 2805.58L1003.58 2805.58C1003.58 2796.37 1003.34 2787.41 1003.34 2778.44L1025.82 2778.44ZM1000.68 2778.44C1000.68 2787.41 1000.44 2796.37 1000.68 2805.58L974.568 2805.58C975.777 2796.37 976.986 2787.41 978.195 2778.44L1000.68 2778.44ZM1000.44 2808.73L1000.44 2844.6L970.458 2844.6L969.008 2844.6C970.942 2832.72 972.392 2820.61 974.085 2808.73L1000.44 2808.73Z" fill="white"/>
<path fill-rule="evenodd" clip-rule="evenodd" d="M1029.93 2808.73C1031.87 2820.61 1033.56 2832.72 1035.25 2844.6L1034.77 2844.6L1003.82 2844.6C1003.82 2832.72 1003.58 2820.61 1003.58 2808.73L1029.93 2808.73ZM1025.82 2778.44C1027.27 2787.41 1028.48 2796.37 1029.45 2805.58L1003.58 2805.58C1003.58 2796.37 1003.34 2787.41 1003.34 2778.44L1025.82 2778.44ZM1000.68 2778.44C1000.68 2787.41 1000.44 2796.37 1000.68 2805.58L974.568 2805.58C975.777 2796.37 976.986 2787.41 978.195 2778.44L1000.68 2778.44ZM1000.44 2808.73L1000.44 2844.6L970.458 2844.6L969.008 2844.6C970.942 2832.72 972.392 2820.61 974.085 2808.73L1000.44 2808.73Z" fill="url(#paint19_linear)" fill-opacity="0.15"/>
</g>
<path d="M1851.85 182.932L1851.85 2728.07H155.094L155.094 182.932L1851.85 182.932Z" fill="#58B5F0"/>

<defs>
<filter id="filter0_ii" x="-0.000488281" y="0" width="2006.95" height="2912.33" filterUnits="userSpaceOnUse" color-interpolation-filters="sRGB">
<feFlood flood-opacity="0" result="BackgroundImageFix"/>
<feBlend mode="normal" in="SourceGraphic" in2="BackgroundImageFix" result="shape"/>
<feColorMatrix in="SourceAlpha" type="matrix" values="0 0 0 0 0 0 0 0 0 0 0 0 0 0 0 0 0 0 127 0" result="hardAlpha"/>
<feOffset dy="3.97678"/>
<feComposite in2="hardAlpha" operator="arithmetic" k2="-1" k3="1"/>
<feColorMatrix type="matrix" values="0 0 0 0 1 0 0 0 0 1 0 0 0 0 1 0 0 0 0.8 0"/>
<feBlend mode="normal" in2="shape" result="effect1_innerShadow"/>
<feColorMatrix in="SourceAlpha" type="matrix" values="0 0 0 0 0 0 0 0 0 0 0 0 0 0 0 0 0 0 127 0" result="hardAlpha"/>
<feOffset dy="1.32559"/>
<feGaussianBlur stdDeviation="1.32559"/>
<feComposite in2="hardAlpha" operator="arithmetic" k2="-1" k3="1"/>
<feColorMatrix type="matrix" values="0 0 0 0 0 0 0 0 0 0 0 0 0 0 0 0 0 0 0.2 0"/>
<feBlend mode="normal" in2="effect1_innerShadow" result="effect2_innerShadow"/>
</filter>
<filter id="filter1_ii" x="1992.36" y="182.932" width="15.9072" height="2545.14" filterUnits="userSpaceOnUse" color-interpolation-filters="sRGB">
<feFlood flood-opacity="0" result="BackgroundImageFix"/>
<feBlend mode="normal" in="SourceGraphic" in2="BackgroundImageFix" result="shape"/>
<feColorMatrix in="SourceAlpha" type="matrix" values="0 0 0 0 0 0 0 0 0 0 0 0 0 0 0 0 0 0 127 0" result="hardAlpha"/>
<feOffset dx="1.32559"/>
<feGaussianBlur stdDeviation="1.32559"/>
<feComposite in2="hardAlpha" operator="arithmetic" k2="-1" k3="1"/>
<feColorMatrix type="matrix" values="0 0 0 0 0 0 0 0 0 0 0 0 0 0 0 0 0 0 0.3 0"/>
<feBlend mode="normal" in2="shape" result="effect1_innerShadow"/>
<feColorMatrix in="SourceAlpha" type="matrix" values="0 0 0 0 0 0 0 0 0 0 0 0 0 0 0 0 0 0 127 0" result="hardAlpha"/>
<feOffset dx="-1.32559"/>
<feGaussianBlur stdDeviation="1.32559"/>
<feComposite in2="hardAlpha" operator="arithmetic" k2="-1" k3="1"/>
<feColorMatrix type="matrix" values="0 0 0 0 0 0 0 0 0 0 0 0 0 0 0 0 0 0 0.3 0"/>
<feBlend mode="normal" in2="effect1_innerShadow" result="effect2_innerShadow"/>
</filter>
<filter id="filter2_d" x="5.30179" y="5.30252" width="1996.34" height="2900.4" filterUnits="userSpaceOnUse" color-interpolation-filters="sRGB">
<feFlood flood-opacity="0" result="BackgroundImageFix"/>
<feColorMatrix in="SourceAlpha" type="matrix" values="0 0 0 0 0 0 0 0 0 0 0 0 0 0 0 0 0 0 127 0"/>
<feOffset/>
<feGaussianBlur stdDeviation="1.98839"/>
<feColorMatrix type="matrix" values="0 0 0 0 0 0 0 0 0 0 0 0 0 0 0 0 0 0 0.5 0"/>
<feBlend mode="normal" in2="BackgroundImageFix" result="effect1_dropShadow"/>
<feBlend mode="normal" in="SourceGraphic" in2="effect1_dropShadow" result="shape"/>
</filter>
<filter id="filter3_dii" x="9.27853" y="10.6045" width="1988.39" height="2892.44" filterUnits="userSpaceOnUse" color-interpolation-filters="sRGB">
<feFlood flood-opacity="0" result="BackgroundImageFix"/>
<feColorMatrix in="SourceAlpha" type="matrix" values="0 0 0 0 0 0 0 0 0 0 0 0 0 0 0 0 0 0 127 0"/>
<feOffset dy="1.32559"/>
<feGaussianBlur stdDeviation="0.662796"/>
<feColorMatrix type="matrix" values="0 0 0 0 0 0 0 0 0 0 0 0 0 0 0 0 0 0 1 0"/>
<feBlend mode="normal" in2="BackgroundImageFix" result="effect1_dropShadow"/>
<feBlend mode="normal" in="SourceGraphic" in2="effect1_dropShadow" result="shape"/>
<feColorMatrix in="SourceAlpha" type="matrix" values="0 0 0 0 0 0 0 0 0 0 0 0 0 0 0 0 0 0 127 0" result="hardAlpha"/>
<feOffset dx="2.65118"/>
<feGaussianBlur stdDeviation="0.662796"/>
<feComposite in2="hardAlpha" operator="arithmetic" k2="-1" k3="1"/>
<feColorMatrix type="matrix" values="0 0 0 0 1 0 0 0 0 1 0 0 0 0 1 0 0 0 0.1 0"/>
<feBlend mode="normal" in2="shape" result="effect2_innerShadow"/>
<feColorMatrix in="SourceAlpha" type="matrix" values="0 0 0 0 0 0 0 0 0 0 0 0 0 0 0 0 0 0 127 0" result="hardAlpha"/>
<feOffset dx="-2.65118"/>
<feGaussianBlur stdDeviation="0.662796"/>
<feComposite in2="hardAlpha" operator="arithmetic" k2="-1" k3="1"/>
<feColorMatrix type="matrix" values="0 0 0 0 1 0 0 0 0 1 0 0 0 0 1 0 0 0 0.1 0"/>
<feBlend mode="normal" in2="effect2_innerShadow" result="effect3_innerShadow"/>
</filter>
<filter id="filter4_d" x="1907.53" y="1439.59" width="31.8142" height="31.8142" filterUnits="userSpaceOnUse" color-interpolation-filters="sRGB">
<feFlood flood-opacity="0" result="BackgroundImageFix"/>
<feColorMatrix in="SourceAlpha" type="matrix" values="0 0 0 0 0 0 0 0 0 0 0 0 0 0 0 0 0 0 127 0"/>
<feMorphology radius="2.65118" operator="dilate" in="SourceAlpha" result="effect1_dropShadow"/>
<feOffset/>
<feGaussianBlur stdDeviation="1.32559"/>
<feColorMatrix type="matrix" values="0 0 0 0 0 0 0 0 0 0 0 0 0 0 0 0 0 0 0.5 0"/>
<feBlend mode="normal" in2="BackgroundImageFix" result="effect1_dropShadow"/>
<feBlend mode="normal" in="SourceGraphic" in2="effect1_dropShadow" result="shape"/>
</filter>
<filter id="filter5_f" x="1913.2" y="1443.94" width="12.509" height="12.509" filterUnits="userSpaceOnUse" color-interpolation-filters="sRGB">
<feFlood flood-opacity="0" result="BackgroundImageFix"/>
<feBlend mode="normal" in="SourceGraphic" in2="BackgroundImageFix" result="shape"/>
<feGaussianBlur stdDeviation="1.80167" result="effect1_foregroundBlur"/>
</filter>
<filter id="filter6_f" x="1914.53" y="1450.57" width="15.1602" height="15.1602" filterUnits="userSpaceOnUse" color-interpolation-filters="sRGB">
<feFlood flood-opacity="0" result="BackgroundImageFix"/>
<feBlend mode="normal" in="SourceGraphic" in2="BackgroundImageFix" result="shape"/>
<feGaussianBlur stdDeviation="1.80167" result="effect1_foregroundBlur"/>
</filter>
<filter id="filter7_f" x="1922.48" y="1457.2" width="12.509" height="12.509" filterUnits="userSpaceOnUse" color-interpolation-filters="sRGB">
<feFlood flood-opacity="0" result="BackgroundImageFix"/>
<feBlend mode="normal" in="SourceGraphic" in2="BackgroundImageFix" result="shape"/>
<feGaussianBlur stdDeviation="1.80167" result="effect1_foregroundBlur"/>
</filter>
<filter id="filter8_f" x="1921.79" y="1445.19" width="11.7994" height="14.2223" filterUnits="userSpaceOnUse" color-interpolation-filters="sRGB">
<feFlood flood-opacity="0" result="BackgroundImageFix"/>
<feBlend mode="normal" in="SourceGraphic" in2="BackgroundImageFix" result="shape"/>
<feGaussianBlur stdDeviation="1.80167" result="effect1_foregroundBlur"/>
</filter>
<filter id="filter9_ii" x="1912.83" y="1515.15" width="19.8839" height="21.2095" filterUnits="userSpaceOnUse" color-interpolation-filters="sRGB">
<feFlood flood-opacity="0" result="BackgroundImageFix"/>
<feBlend mode="normal" in="SourceGraphic" in2="BackgroundImageFix" result="shape"/>
<feColorMatrix in="SourceAlpha" type="matrix" values="0 0 0 0 0 0 0 0 0 0 0 0 0 0 0 0 0 0 127 0" result="hardAlpha"/>
<feOffset dy="1.32559"/>
<feGaussianBlur stdDeviation="0.662796"/>
<feComposite in2="hardAlpha" operator="arithmetic" k2="-1" k3="1"/>
<feColorMatrix type="matrix" values="0 0 0 0 0 0 0 0 0 0 0 0 0 0 0 0 0 0 1 0"/>
<feBlend mode="normal" in2="shape" result="effect1_innerShadow"/>
<feColorMatrix in="SourceAlpha" type="matrix" values="0 0 0 0 0 0 0 0 0 0 0 0 0 0 0 0 0 0 127 0" result="hardAlpha"/>
<feOffset dy="-1.32559"/>
<feComposite in2="hardAlpha" operator="arithmetic" k2="-1" k3="1"/>
<feColorMatrix type="matrix" values="0 0 0 0 1 0 0 0 0 1 0 0 0 0 1 0 0 0 0.05 0"/>
<feBlend mode="normal" in2="effect1_innerShadow" result="effect2_innerShadow"/>
</filter>
<linearGradient id="paint0_linear" x1="2006.95" y1="0" x2="-0.000366211" y2="-8.77264e-05" gradientUnits="userSpaceOnUse">
<stop stop-color="#C1C1C1"/>
<stop offset="1" stop-color="#909090"/>
</linearGradient>
<radialGradient id="paint1_radial" cx="0" cy="0" r="1" gradientUnits="userSpaceOnUse" gradientTransform="translate(2006.95) rotate(-180) scale(194.852 282.625)">
<stop stop-color="white"/>
<stop offset="1" stop-color="white" stop-opacity="0.01"/>
</radialGradient>
<radialGradient id="paint2_radial" cx="0" cy="0" r="1" gradientUnits="userSpaceOnUse" gradientTransform="translate(2006.95 2911) rotate(-180) scale(194.852 282.625)">
<stop stop-color="white"/>
<stop offset="1" stop-color="white" stop-opacity="0.01"/>
</radialGradient>
<radialGradient id="paint3_radial" cx="0" cy="0" r="1" gradientUnits="userSpaceOnUse" gradientTransform="translate(1003.47 1455.5) rotate(-180) scale(619.552 2826.61)">
<stop stop-color="white" stop-opacity="0.01"/>
<stop offset="1" stop-color="white" stop-opacity="0.5"/>
</radialGradient>
<radialGradient id="paint4_radial" cx="0" cy="0" r="1" gradientUnits="userSpaceOnUse" gradientTransform="translate(-0.000428513 1425.3) rotate(-180) scale(661.139 2517.05)">
<stop/>
<stop offset="1" stop-opacity="0.01"/>
</radialGradient>
<linearGradient id="paint5_linear" x1="64.6843" y1="1408.59" x2="-0.000427782" y2="1408.59" gradientUnits="userSpaceOnUse">
<stop stop-color="white" stop-opacity="0.5"/>
<stop offset="1" stop-opacity="0.5"/>
</linearGradient>
<linearGradient id="paint6_linear" x1="2006.95" y1="0" x2="-0.000366211" y2="-8.77264e-05" gradientUnits="userSpaceOnUse">
<stop stop-color="white" stop-opacity="0.5"/>
<stop offset="0.0254035" stop-color="white" stop-opacity="0.5"/>
<stop offset="0.045714" stop-opacity="0.5"/>
<stop offset="0.0983374" stop-opacity="0.5"/>
<stop offset="0.16883" stop-color="#7A7777" stop-opacity="0.5"/>
<stop offset="0.191128" stop-opacity="0.5"/>
<stop offset="0.341913" stop-color="white" stop-opacity="0.5"/>
<stop offset="1" stop-color="white" stop-opacity="0.5"/>
</linearGradient>
<linearGradient id="paint7_linear" x1="0" y1="0" x2="0" y2="145.815" gradientUnits="userSpaceOnUse">
<stop stop-color="white"/>
<stop offset="0.401915" stop-color="white"/>
<stop offset="0.466575"/>
<stop offset="1" stop-color="white"/>
</linearGradient>
<linearGradient id="paint8_linear" x1="2090.3" y1="-42.1113" x2="2090.3" y2="103.704" gradientUnits="userSpaceOnUse">
<stop stop-color="white"/>
<stop offset="0.401915" stop-color="white"/>
<stop offset="0.466575"/>
<stop offset="1" stop-color="white"/>
</linearGradient>
<linearGradient id="paint9_linear" x1="-5.92432" y1="-140.647" x2="-5.92432" y2="5.16766" gradientUnits="userSpaceOnUse">
<stop stop-color="white"/>
<stop offset="0.401915" stop-color="white"/>
<stop offset="0.466575"/>
<stop offset="1" stop-color="white"/>
</linearGradient>
<linearGradient id="paint10_linear" x1="0" y1="0" x2="0" y2="145.815" gradientUnits="userSpaceOnUse">
<stop stop-color="white"/>
<stop offset="0.401915" stop-color="white"/>
<stop offset="0.466575"/>
<stop offset="1" stop-color="white"/>
</linearGradient>
<radialGradient id="paint11_radial" cx="0" cy="0" r="1" gradientUnits="userSpaceOnUse" gradientTransform="translate(2008.62 198.799) rotate(90) scale(12.4015 2381.09)">
<stop/>
<stop offset="1" stop-opacity="0.01"/>
</radialGradient>
<radialGradient id="paint12_radial" cx="0" cy="0" r="1" gradientUnits="userSpaceOnUse" gradientTransform="translate(4552.08 198.28) rotate(90) scale(12.4015 2381.09)">
<stop/>
<stop offset="1" stop-opacity="0.01"/>
</radialGradient>
<linearGradient id="paint13_linear" x1="1996.34" y1="10.6045" x2="10.6042" y2="10.6044" gradientUnits="userSpaceOnUse">
<stop stop-color="white" stop-opacity="0.3"/>
<stop offset="1" stop-color="white" stop-opacity="0.01"/>
</linearGradient>
<linearGradient id="paint14_linear" x1="1996.34" y1="10.6045" x2="10.6042" y2="10.6044" gradientUnits="userSpaceOnUse">
<stop stop-color="#212121"/>
<stop offset="0.218653" stop-color="#0C0C0C"/>
<stop offset="1" stop-color="#151514"/>
</linearGradient>
<radialGradient id="paint15_radial" cx="0" cy="0" r="1" gradientUnits="userSpaceOnUse" gradientTransform="translate(1944.19 1493.66) rotate(49.5605) scale(37.5684)">
<stop stop-color="#E3E0E0"/>
<stop offset="1" stop-color="#252728"/>
</radialGradient>
<linearGradient id="paint16_linear" x1="1912.83" y1="1444.9" x2="1912.83" y2="1466.1" gradientUnits="userSpaceOnUse">
<stop stop-color="#3343AC"/>
<stop offset="1" stop-color="#1E2462"/>
</linearGradient>
<linearGradient id="paint17_linear" x1="1910.18" y1="1518.8" x2="1917.47" y2="1538.68" gradientUnits="userSpaceOnUse">
<stop stop-color="white" stop-opacity="0.5"/>
<stop offset="1" stop-opacity="0.01"/>
</linearGradient>
<linearGradient id="paint18_linear" x1="1911.83" y1="1576.29" x2="1920.12" y2="1592.2" gradientUnits="userSpaceOnUse">
<stop/>
<stop offset="1" stop-color="#111111"/>
</linearGradient>
<linearGradient id="paint19_linear" x1="1035.25" y1="2778.44" x2="969.008" y2="2778.44" gradientUnits="userSpaceOnUse">
<stop stop-color="white" stop-opacity="0.5"/>
<stop offset="1" stop-opacity="0.5"/>
</linearGradient>
<clipPath id="clip0">
<rect width="2911" height="2006.95" fill="white" transform="translate(2006.95) rotate(90)"/>
</clipPath>
<clipPath id="clip1">
<rect width="2911" height="2006.95" fill="white" transform="translate(2006.95) rotate(90)"/>
</clipPath>
<clipPath id="clip2">
<rect width="155.094" height="45.0701" fill="white" transform="translate(1945.97 1432.96) rotate(90)"/>
</clipPath>
<clipPath id="clip3">
<rect width="45.0701" height="45.0701" fill="white" transform="translate(1945.97 1432.96) rotate(90)"/>
</clipPath>
<clipPath id="clip4">
<rect width="21.2095" height="21.2095" fill="white" transform="translate(1934.04 1444.9) rotate(90)"/>
</clipPath>
<clipPath id="clip5">
<rect width="15.9071" height="15.9071" fill="white" transform="translate(1931.39 1572.15) rotate(90)"/>
</clipPath>
</defs>
</svg>
