<svg width="853" height="1854" viewBox="0 0 853 1854" fill="none" xmlns="http://www.w3.org/2000/svg">
<g clip-path="url(#clip0)">
<g clip-path="url(#clip1)">
<g filter="url(#filter0_ii)">
<rect y="312.656" width="14.4388" height="259.898" rx="4.44271" fill="url(#paint0_linear)"/>
</g>
<g filter="url(#filter1_ii)">
<rect y="676.958" width="14.4388" height="123.84" rx="4.44271" fill="url(#paint1_linear)"/>
</g>
<g filter="url(#filter2_ii)">
<rect width="14.4388" height="123.84" rx="4.44271" transform="matrix(-1 0 0 1 853 574.22)" fill="url(#paint2_linear)"/>
</g>
</g>
<path fill-rule="evenodd" clip-rule="evenodd" d="M7.21948 155.495C7.21948 48.3175 34.9864 0 167.157 0H685.843C818.014 0 845.781 48.3145 845.781 155.495V1683.79C845.781 1790.97 818.014 1839.28 685.843 1839.28H250.591C247.461 1837.65 239.878 1836.5 231.021 1836.5C222.164 1836.5 214.581 1837.65 211.451 1839.28H167.157C34.9864 1839.28 7.21948 1790.97 7.21948 1683.79V155.495Z" fill="black"/>
<g filter="url(#filter3_f)">
<path fill-rule="evenodd" clip-rule="evenodd" d="M162.664 5.55371H690.337C758.476 5.55371 792.994 16.9939 816.595 45.6811C836.351 69.6932 844.115 104.544 844.115 165.757V1680.19C844.115 1708.43 842.361 1729.41 838.431 1746.98C833.91 1767.19 826.392 1782.96 815.219 1795.41C789.343 1824.23 755.126 1834.84 679.259 1834.84H173.741C97.874 1834.84 63.6574 1824.23 37.7811 1795.41C26.6085 1782.96 19.0903 1767.19 14.5696 1746.98C10.6391 1729.41 8.8855 1708.43 8.8855 1680.19V165.757C8.8855 104.545 16.6497 69.6946 36.4047 45.6822C48.556 30.9123 61.5693 21.532 79.8208 15.3062C99.3481 8.64511 125.417 5.55371 162.664 5.55371Z" fill="url(#paint3_linear)"/>
</g>
<g filter="url(#filter4_f)">
<path fill-rule="evenodd" clip-rule="evenodd" d="M690.337 5.55371H162.664C125.417 5.55371 99.3481 8.64511 79.8208 15.3062C61.5693 21.532 48.556 30.9123 36.4047 45.6822C16.6497 69.6946 8.8855 104.545 8.8855 165.757V1680.19C8.8855 1708.43 10.6391 1729.41 14.5696 1746.98C19.0903 1767.19 26.6085 1782.96 37.7811 1795.41C63.6574 1824.23 97.874 1834.84 173.741 1834.84H679.259C755.126 1834.84 789.343 1824.23 815.219 1795.41C826.392 1782.96 833.91 1767.19 838.431 1746.98C842.361 1729.41 844.115 1708.43 844.115 1680.19V165.757C844.115 104.544 836.351 69.6932 816.595 45.6811C792.994 16.9939 758.476 5.55371 690.337 5.55371ZM38.12 47.0932C60.1152 20.358 87.7245 7.77475 162.663 7.77475H690.336C760.833 7.77475 792.885 20.3574 814.88 47.092C834.624 71.0914 841.893 106.307 841.893 165.756V1680.19C841.893 1707.74 840.224 1728.79 836.263 1746.5C831.859 1766.18 824.559 1781.68 813.566 1793.92C790.023 1820.15 759.31 1832.62 679.259 1832.62H173.741C93.6896 1832.62 62.9771 1820.15 39.434 1793.92C28.4408 1781.68 21.1409 1766.18 16.7373 1746.5C12.776 1728.79 11.1067 1707.74 11.1067 1680.19V165.756C11.1067 106.309 18.3754 71.0928 38.12 47.0932Z" fill="url(#paint4_linear)"/>
</g>
<path fill-rule="evenodd" clip-rule="evenodd" d="M154.021 18.3262C37.3952 18.3262 12.7727 65.6809 12.7727 167.946V1671.34C12.7727 1773.6 29.0947 1819.84 162.306 1819.84H690.694C823.905 1819.84 840.227 1773.6 840.227 1671.34V167.946C840.227 65.6778 815.605 18.3262 698.979 18.3262H154.021Z" fill="black"/>
<path fill-rule="evenodd" clip-rule="evenodd" d="M698.979 16.6602H154.021C95.9515 16.6602 59.7534 28.3414 38.3878 53.7135C18.725 77.0634 11.1067 111.775 11.1067 167.946V1671.34C11.1067 1700.05 12.4247 1720.67 15.7686 1738C19.5854 1757.78 26.1245 1773.05 36.3168 1785.02C57.7869 1810.23 96.3091 1821.51 162.306 1821.51H690.694C756.691 1821.51 795.213 1810.23 816.683 1785.02C826.875 1773.05 833.414 1757.78 837.231 1738C840.575 1720.67 841.893 1700.05 841.893 1671.34V167.946C841.893 111.773 834.275 77.062 814.612 53.7123C793.247 28.3409 757.049 16.6602 698.979 16.6602ZM12.7728 167.945C12.7728 65.6807 37.3953 18.326 154.021 18.326H698.979C815.605 18.326 840.227 65.6777 840.227 167.945V1671.34C840.227 1773.6 823.905 1819.84 690.694 1819.84H162.306C29.0949 1819.84 12.7728 1773.6 12.7728 1671.34V167.945Z" fill="url(#paint5_linear)"/>
<rect opacity="0.904835" x="133.836" y="1826.51" width="1.11068" height="7.77474" fill="black"/>
<rect opacity="0.288496" x="134.947" y="1826.51" width="1.11068" height="7.77474" fill="black"/>
<rect opacity="0.904835" x="114.4" y="1825.95" width="1.11068" height="7.77474" fill="black"/>
<rect opacity="0.288496" x="115.51" y="1825.95" width="1.11068" height="7.77474" fill="black"/>
<rect opacity="0.904835" width="1.11068" height="7.77474" transform="matrix(-1 0 0 1 738.045 1827.06)" fill="black"/>
<rect opacity="0.288496" width="1.11068" height="7.77474" transform="matrix(-1 0 0 1 736.934 1827.06)" fill="black"/>
<rect opacity="0.904835" width="1.11068" height="7.77474" transform="matrix(-1 0 0 1 718.608 1826.51)" fill="black"/>
<rect opacity="0.288496" width="1.11068" height="7.77474" transform="matrix(-1 0 0 1 717.497 1826.51)" fill="black"/>
<rect opacity="0.904835" x="116.066" y="5.55322" width="1.11068" height="7.77474" fill="black"/>
<rect opacity="0.288496" x="117.176" y="5.55273" width="1.11068" height="7.77474" fill="black"/>
<rect opacity="0.904835" x="96.6289" y="8.88574" width="1.11068" height="7.77474" fill="black"/>
<rect opacity="0.288496" x="97.7395" y="8.88477" width="1.11068" height="7.77474" fill="black"/>
<rect opacity="0.904835" width="1.11068" height="7.77474" transform="matrix(-1 0 0 1 755.815 9.99707)" fill="black"/>
<rect opacity="0.288496" width="1.11068" height="7.77474" transform="matrix(-1 0 0 1 754.705 9.99609)" fill="black"/>
<rect opacity="0.904835" width="1.11068" height="7.77474" transform="matrix(-1 0 0 1 736.379 7.21973)" fill="black"/>
<rect opacity="0.288496" width="1.11068" height="7.77474" transform="matrix(-1 0 0 1 735.268 7.21924)" fill="black"/>
<circle cx="294.329" cy="67.1953" r="9.44075" fill="#13132F" stroke="url(#paint6_linear)" stroke-width="1.11068"/>
<g filter="url(#filter5_d)">
<circle cx="294.329" cy="67.1953" r="4.99805" fill="#00000C"/>
</g>
<g filter="url(#filter6_f)">
<ellipse cx="292.663" cy="66.3625" rx="1.11068" ry="1.38835" fill="white" fill-opacity="0.2"/>
</g>
<circle cx="253.234" cy="66.6401" r="11.1068" fill="#15152D" stroke="url(#paint7_linear)" stroke-width="1.11068"/>
<g filter="url(#filter7_d)">
<circle cx="253.234" cy="66.6405" r="7.77474" fill="#020315"/>
</g>
<g clip-path="url(#clip2)">
<g filter="url(#filter8_i)">
<circle cx="189.926" cy="63.3081" r="18.3262" fill="#161638"/>
</g>
<mask id="mask0" mask-type="alpha" maskUnits="userSpaceOnUse" x="171" y="44" width="38" height="38">
<circle cx="189.926" cy="63.3081" r="18.3262" fill="white"/>
</mask>
<g mask="url(#mask0)">
<rect x="188.815" y="47.2036" width="2.22135" height="33.3203" fill="#252549"/>
<rect x="183.262" y="47.2036" width="2.22135" height="33.3203" fill="#252549" fill-opacity="0.75"/>
<rect x="177.708" y="47.2036" width="2.22135" height="33.3203" fill="#252549" fill-opacity="0.5"/>
<rect x="194.924" y="47.2036" width="2.22135" height="33.3203" fill="#252549" fill-opacity="0.75"/>
<rect x="199.922" y="47.2036" width="2.22135" height="33.3203" fill="#252549" fill-opacity="0.75"/>
<g filter="url(#filter9_f)">
<ellipse cx="202.557" cy="70.2903" rx="14.3885" ry="3.73302" transform="rotate(122 202.557 70.2903)" fill="#83A7FF" fill-opacity="0.5"/>
</g>
<g filter="url(#filter10_dd)">
<path fill-rule="evenodd" clip-rule="evenodd" d="M171.6 63.3081C171.6 73.4294 179.805 81.6343 189.926 81.6343C200.047 81.6343 208.252 73.4294 208.252 63.3081C208.252 53.1868 200.047 44.9819 189.926 44.9819C179.805 44.9819 171.6 53.1868 171.6 63.3081ZM206.031 63.3082C206.031 72.2027 198.82 79.413 189.926 79.413C181.031 79.413 173.821 72.2027 173.821 63.3082C173.821 54.4138 181.031 47.2034 189.926 47.2034C198.82 47.2034 206.031 54.4138 206.031 63.3082Z" fill="url(#paint8_linear)"/>
</g>
</g>
</g>
<circle cx="138.835" cy="64.4188" r="8.88542" fill="url(#paint9_linear)" stroke="url(#paint10_linear)" stroke-width="1.11068"/>
<g clip-path="url(#clip3)">
<g filter="url(#filter11_i)">
<circle cx="590.325" cy="63.8633" r="19.9922" fill="#151517"/>
</g>
<path fill-rule="evenodd" clip-rule="evenodd" d="M575.886 63.8626C575.886 71.837 582.35 78.3014 590.325 78.3014C598.299 78.3014 604.763 71.837 604.763 63.8626C604.763 55.8883 598.299 49.4238 590.325 49.4238C582.35 49.4238 575.886 55.8883 575.886 63.8626ZM603.653 63.863C603.653 71.2239 597.685 77.1911 590.324 77.1911C582.964 77.1911 576.996 71.2239 576.996 63.863C576.996 56.5021 582.964 50.5348 590.324 50.5348C597.685 50.5348 603.653 56.5021 603.653 63.863Z" fill="url(#paint11_linear)"/>
<path fill-rule="evenodd" clip-rule="evenodd" d="M590.325 77.1909C597.686 77.1909 603.653 71.2237 603.653 63.8628C603.653 56.5019 597.686 50.5347 590.325 50.5347C582.964 50.5347 576.997 56.5019 576.997 63.8628C576.997 71.2237 582.964 77.1909 590.325 77.1909Z" fill="black"/>
<path d="M598.655 63.5854C598.655 68.3394 594.801 72.1932 590.047 72.1932C585.293 72.1932 581.439 68.3394 581.439 63.5854C581.439 58.8315 585.293 54.9777 590.047 54.9777C594.801 54.9777 598.655 58.8315 598.655 63.5854Z" fill="url(#paint12_radial)" stroke="url(#paint13_linear)" stroke-width="1.11068"/>
<g filter="url(#filter12_f)">
<ellipse cx="585.604" cy="61.6416" rx="1.38835" ry="3.33203" transform="rotate(19 585.604 61.6416)" fill="white" fill-opacity="0.5"/>
</g>
<g filter="url(#filter13_f)">
<ellipse cx="594.212" cy="66.0843" rx="1.11068" ry="2.22135" transform="rotate(29 594.212 66.0843)" fill="white" fill-opacity="0.5"/>
</g>
</g>
<circle cx="661.408" cy="65.5293" r="12.2174" fill="#030A1A" stroke="url(#paint14_linear)" stroke-width="2.22135"/>
<g filter="url(#filter14_f)">
<ellipse cx="658.909" cy="64.6967" rx="4.16504" ry="6.38639" transform="rotate(16 658.909 64.6967)" fill="#00236A"/>
</g>
<g filter="url(#filter15_f)">
<ellipse cx="665.851" cy="67.1956" rx="2.77669" ry="4.44271" transform="rotate(16 665.851 67.1956)" fill="#002A7E"/>
</g>
<g filter="url(#filter16_f)">
<ellipse cx="656.688" cy="64.4188" rx="1.38835" ry="3.88737" transform="rotate(22 656.688 64.4188)" fill="white" fill-opacity="0.8"/>
</g>
<g filter="url(#filter17_f)">
<ellipse cx="665.851" cy="69.1391" rx="1.11068" ry="1.94368" transform="rotate(22 665.851 69.1391)" fill="#153EB1" fill-opacity="0.8"/>
</g>
<g filter="url(#filter18_f)">
<ellipse cx="655.855" cy="66.3628" rx="1.11068" ry="1.94368" transform="rotate(22 655.855 66.3628)" fill="#153EB1" fill-opacity="0.6"/>
</g>
<g filter="url(#filter19_f)">
<ellipse cx="655.855" cy="66.3628" rx="1.11068" ry="1.94368" transform="rotate(22 655.855 66.3628)" fill="#153EB1" fill-opacity="0.6"/>
</g>
<g filter="url(#filter20_iiii)">
<rect x="374.298" y="57.1992" width="108.846" height="14.4388" rx="7.2194" fill="url(#paint15_linear)"/>
</g>
<rect x="373.743" y="56.6439" width="109.957" height="15.5495" rx="7.77474" stroke="url(#paint16_linear)" stroke-width="1.11068"/>
</g>
<g clip-path="url(#clip4)">
<path d="M96.0736 103.848C56.5086 103.848 26.6562 138.699 26.6562 178.264V1673.23C26.6562 1712.8 56.5086 1747.65 96.0736 1747.65H756.926C796.491 1747.65 826.344 1712.8 826.344 1673.23V178.264C826.344 138.699 796.491 103.848 756.926 103.848H96.0736Z" fill="#FF0000"/>
</g>
<path opacity="0.5" fill-rule="evenodd" clip-rule="evenodd" d="M157.367 27.2114C28.6974 27.2114 18.3262 74.0847 18.3262 172.505V1660.67C18.3262 1759.09 28.6974 1811.51 157.367 1811.51H695.633C824.303 1811.51 834.674 1759.09 834.674 1660.67V172.505C834.674 74.0817 824.303 27.2114 695.633 27.2114H157.367Z" fill="url(#paint17_linear)"/>
<text fill="black" xml:space="preserve" style="white-space: pre" font-family="Roboto" font-size="20" letter-spacing="0em"><tspan x="77" y="176.336">name: Samsung Galaxy S8&#10;</tspan><tspan x="77" y="199.336">density: 4&#10;</tspan><tspan x="77" y="222.336">screen_size: 360x740&#10;</tspan><tspan x="77" y="245.336">safe_areas: 0,24,0,0|0,24,0,0</tspan></text>
<defs>
<filter id="filter0_ii" x="0" y="312.656" width="14.4388" height="259.898" filterUnits="userSpaceOnUse" color-interpolation-filters="sRGB">
<feFlood flood-opacity="0" result="BackgroundImageFix"/>
<feBlend mode="normal" in="SourceGraphic" in2="BackgroundImageFix" result="shape"/>
<feColorMatrix in="SourceAlpha" type="matrix" values="0 0 0 0 0 0 0 0 0 0 0 0 0 0 0 0 0 0 127 0" result="hardAlpha"/>
<feMorphology radius="2.22135" operator="erode" in="SourceAlpha" result="effect1_innerShadow"/>
<feOffset/>
<feGaussianBlur stdDeviation="0.555339"/>
<feComposite in2="hardAlpha" operator="arithmetic" k2="-1" k3="1"/>
<feColorMatrix type="matrix" values="0 0 0 0 1 0 0 0 0 1 0 0 0 0 1 0 0 0 0.5 0"/>
<feBlend mode="normal" in2="shape" result="effect1_innerShadow"/>
<feColorMatrix in="SourceAlpha" type="matrix" values="0 0 0 0 0 0 0 0 0 0 0 0 0 0 0 0 0 0 127 0" result="hardAlpha"/>
<feMorphology radius="1.11068" operator="erode" in="SourceAlpha" result="effect2_innerShadow"/>
<feOffset/>
<feComposite in2="hardAlpha" operator="arithmetic" k2="-1" k3="1"/>
<feColorMatrix type="matrix" values="0 0 0 0 0 0 0 0 0 0 0 0 0 0 0 0 0 0 0.896513 0"/>
<feBlend mode="normal" in2="effect1_innerShadow" result="effect2_innerShadow"/>
</filter>
<filter id="filter1_ii" x="0" y="676.958" width="14.4388" height="123.84" filterUnits="userSpaceOnUse" color-interpolation-filters="sRGB">
<feFlood flood-opacity="0" result="BackgroundImageFix"/>
<feBlend mode="normal" in="SourceGraphic" in2="BackgroundImageFix" result="shape"/>
<feColorMatrix in="SourceAlpha" type="matrix" values="0 0 0 0 0 0 0 0 0 0 0 0 0 0 0 0 0 0 127 0" result="hardAlpha"/>
<feMorphology radius="2.22135" operator="erode" in="SourceAlpha" result="effect1_innerShadow"/>
<feOffset/>
<feGaussianBlur stdDeviation="0.555339"/>
<feComposite in2="hardAlpha" operator="arithmetic" k2="-1" k3="1"/>
<feColorMatrix type="matrix" values="0 0 0 0 1 0 0 0 0 1 0 0 0 0 1 0 0 0 0.5 0"/>
<feBlend mode="normal" in2="shape" result="effect1_innerShadow"/>
<feColorMatrix in="SourceAlpha" type="matrix" values="0 0 0 0 0 0 0 0 0 0 0 0 0 0 0 0 0 0 127 0" result="hardAlpha"/>
<feMorphology radius="1.11068" operator="erode" in="SourceAlpha" result="effect2_innerShadow"/>
<feOffset/>
<feComposite in2="hardAlpha" operator="arithmetic" k2="-1" k3="1"/>
<feColorMatrix type="matrix" values="0 0 0 0 0 0 0 0 0 0 0 0 0 0 0 0 0 0 0.896513 0"/>
<feBlend mode="normal" in2="effect1_innerShadow" result="effect2_innerShadow"/>
</filter>
<filter id="filter2_ii" x="838.561" y="574.22" width="14.4388" height="123.84" filterUnits="userSpaceOnUse" color-interpolation-filters="sRGB">
<feFlood flood-opacity="0" result="BackgroundImageFix"/>
<feBlend mode="normal" in="SourceGraphic" in2="BackgroundImageFix" result="shape"/>
<feColorMatrix in="SourceAlpha" type="matrix" values="0 0 0 0 0 0 0 0 0 0 0 0 0 0 0 0 0 0 127 0" result="hardAlpha"/>
<feMorphology radius="2.22135" operator="erode" in="SourceAlpha" result="effect1_innerShadow"/>
<feOffset/>
<feGaussianBlur stdDeviation="0.555339"/>
<feComposite in2="hardAlpha" operator="arithmetic" k2="-1" k3="1"/>
<feColorMatrix type="matrix" values="0 0 0 0 1 0 0 0 0 1 0 0 0 0 1 0 0 0 0.5 0"/>
<feBlend mode="normal" in2="shape" result="effect1_innerShadow"/>
<feColorMatrix in="SourceAlpha" type="matrix" values="0 0 0 0 0 0 0 0 0 0 0 0 0 0 0 0 0 0 127 0" result="hardAlpha"/>
<feMorphology radius="1.11068" operator="erode" in="SourceAlpha" result="effect2_innerShadow"/>
<feOffset/>
<feComposite in2="hardAlpha" operator="arithmetic" k2="-1" k3="1"/>
<feColorMatrix type="matrix" values="0 0 0 0 0 0 0 0 0 0 0 0 0 0 0 0 0 0 0.896513 0"/>
<feBlend mode="normal" in2="effect1_innerShadow" result="effect2_innerShadow"/>
</filter>
<filter id="filter3_f" x="7.37593" y="4.04414" width="838.248" height="1832.3" filterUnits="userSpaceOnUse" color-interpolation-filters="sRGB">
<feFlood flood-opacity="0" result="BackgroundImageFix"/>
<feBlend mode="normal" in="SourceGraphic" in2="BackgroundImageFix" result="shape"/>
<feGaussianBlur stdDeviation="0.754783" result="effect1_foregroundBlur"/>
</filter>
<filter id="filter4_f" x="7.37593" y="4.04414" width="838.248" height="1832.3" filterUnits="userSpaceOnUse" color-interpolation-filters="sRGB">
<feFlood flood-opacity="0" result="BackgroundImageFix"/>
<feBlend mode="normal" in="SourceGraphic" in2="BackgroundImageFix" result="shape"/>
<feGaussianBlur stdDeviation="0.754783" result="effect1_foregroundBlur"/>
</filter>
<filter id="filter5_d" x="288.776" y="61.6419" width="12.2174" height="12.2174" filterUnits="userSpaceOnUse" color-interpolation-filters="sRGB">
<feFlood flood-opacity="0" result="BackgroundImageFix"/>
<feColorMatrix in="SourceAlpha" type="matrix" values="0 0 0 0 0 0 0 0 0 0 0 0 0 0 0 0 0 0 127 0"/>
<feOffset dx="0.555339" dy="0.555339"/>
<feGaussianBlur stdDeviation="0.555339"/>
<feColorMatrix type="matrix" values="0 0 0 0 1 0 0 0 0 1 0 0 0 0 1 0 0 0 0.102129 0"/>
<feBlend mode="normal" in2="BackgroundImageFix" result="effect1_dropShadow"/>
<feBlend mode="normal" in="SourceGraphic" in2="effect1_dropShadow" result="shape"/>
</filter>
<filter id="filter6_f" x="290.043" y="63.4646" width="5.24049" height="5.79583" filterUnits="userSpaceOnUse" color-interpolation-filters="sRGB">
<feFlood flood-opacity="0" result="BackgroundImageFix"/>
<feBlend mode="normal" in="SourceGraphic" in2="BackgroundImageFix" result="shape"/>
<feGaussianBlur stdDeviation="0.754783" result="effect1_foregroundBlur"/>
</filter>
<filter id="filter7_d" x="245.46" y="58.8657" width="16.6602" height="16.6602" filterUnits="userSpaceOnUse" color-interpolation-filters="sRGB">
<feFlood flood-opacity="0" result="BackgroundImageFix"/>
<feColorMatrix in="SourceAlpha" type="matrix" values="0 0 0 0 0 0 0 0 0 0 0 0 0 0 0 0 0 0 127 0"/>
<feOffset dx="0.555339" dy="0.555339"/>
<feGaussianBlur stdDeviation="0.277669"/>
<feColorMatrix type="matrix" values="0 0 0 0 1 0 0 0 0 1 0 0 0 0 1 0 0 0 0.1 0"/>
<feBlend mode="normal" in2="BackgroundImageFix" result="effect1_dropShadow"/>
<feBlend mode="normal" in="SourceGraphic" in2="effect1_dropShadow" result="shape"/>
</filter>
<filter id="filter8_i" x="171.6" y="44.9819" width="36.6523" height="36.6523" filterUnits="userSpaceOnUse" color-interpolation-filters="sRGB">
<feFlood flood-opacity="0" result="BackgroundImageFix"/>
<feBlend mode="normal" in="SourceGraphic" in2="BackgroundImageFix" result="shape"/>
<feColorMatrix in="SourceAlpha" type="matrix" values="0 0 0 0 0 0 0 0 0 0 0 0 0 0 0 0 0 0 127 0" result="hardAlpha"/>
<feMorphology radius="2.77669" operator="erode" in="SourceAlpha" result="effect1_innerShadow"/>
<feOffset/>
<feGaussianBlur stdDeviation="5.55339"/>
<feComposite in2="hardAlpha" operator="arithmetic" k2="-1" k3="1"/>
<feColorMatrix type="matrix" values="0 0 0 0 0.0327275 0 0 0 0 0.0327275 0 0 0 0 0.0817389 0 0 0 1 0"/>
<feBlend mode="normal" in2="shape" result="effect1_innerShadow"/>
</filter>
<filter id="filter9_f" x="191.279" y="54.9081" width="22.5542" height="30.7648" filterUnits="userSpaceOnUse" color-interpolation-filters="sRGB">
<feFlood flood-opacity="0" result="BackgroundImageFix"/>
<feBlend mode="normal" in="SourceGraphic" in2="BackgroundImageFix" result="shape"/>
<feGaussianBlur stdDeviation="1.50957" result="effect1_foregroundBlur"/>
</filter>
<filter id="filter10_dd" x="166.046" y="39.4285" width="46.6484" height="46.6484" filterUnits="userSpaceOnUse" color-interpolation-filters="sRGB">
<feFlood flood-opacity="0" result="BackgroundImageFix"/>
<feColorMatrix in="SourceAlpha" type="matrix" values="0 0 0 0 0 0 0 0 0 0 0 0 0 0 0 0 0 0 127 0"/>
<feOffset/>
<feGaussianBlur stdDeviation="2.22135"/>
<feColorMatrix type="matrix" values="0 0 0 0 0 0 0 0 0 0 0 0 0 0 0 0 0 0 0.5 0"/>
<feBlend mode="normal" in2="BackgroundImageFix" result="effect1_dropShadow"/>
<feColorMatrix in="SourceAlpha" type="matrix" values="0 0 0 0 0 0 0 0 0 0 0 0 0 0 0 0 0 0 127 0"/>
<feOffset dx="-1.11068" dy="-1.11068"/>
<feGaussianBlur stdDeviation="2.22135"/>
<feColorMatrix type="matrix" values="0 0 0 0 0.262745 0 0 0 0 0.443137 0 0 0 0 0.894118 0 0 0 0.5 0"/>
<feBlend mode="normal" in2="effect1_dropShadow" result="effect2_dropShadow"/>
<feBlend mode="normal" in="SourceGraphic" in2="effect2_dropShadow" result="shape"/>
</filter>
<filter id="filter11_i" x="570.333" y="43.8711" width="39.9844" height="39.9844" filterUnits="userSpaceOnUse" color-interpolation-filters="sRGB">
<feFlood flood-opacity="0" result="BackgroundImageFix"/>
<feBlend mode="normal" in="SourceGraphic" in2="BackgroundImageFix" result="shape"/>
<feColorMatrix in="SourceAlpha" type="matrix" values="0 0 0 0 0 0 0 0 0 0 0 0 0 0 0 0 0 0 127 0" result="hardAlpha"/>
<feOffset/>
<feGaussianBlur stdDeviation="2.22135"/>
<feComposite in2="hardAlpha" operator="arithmetic" k2="-1" k3="1"/>
<feColorMatrix type="matrix" values="0 0 0 0 1 0 0 0 0 1 0 0 0 0 1 0 0 0 0.05 0"/>
<feBlend mode="normal" in2="shape" result="effect1_innerShadow"/>
</filter>
<filter id="filter12_f" x="582.392" y="56.9489" width="6.4251" height="9.38546" filterUnits="userSpaceOnUse" color-interpolation-filters="sRGB">
<feFlood flood-opacity="0" result="BackgroundImageFix"/>
<feBlend mode="normal" in="SourceGraphic" in2="BackgroundImageFix" result="shape"/>
<feGaussianBlur stdDeviation="0.754783" result="effect1_foregroundBlur"/>
</filter>
<filter id="filter13_f" x="591.252" y="62.5583" width="5.91981" height="7.05231" filterUnits="userSpaceOnUse" color-interpolation-filters="sRGB">
<feFlood flood-opacity="0" result="BackgroundImageFix"/>
<feBlend mode="normal" in="SourceGraphic" in2="BackgroundImageFix" result="shape"/>
<feGaussianBlur stdDeviation="0.754783" result="effect1_foregroundBlur"/>
</filter>
<filter id="filter14_f" x="650.006" y="53.9215" width="17.8068" height="21.5505" filterUnits="userSpaceOnUse" color-interpolation-filters="sRGB">
<feFlood flood-opacity="0" result="BackgroundImageFix"/>
<feBlend mode="normal" in="SourceGraphic" in2="BackgroundImageFix" result="shape"/>
<feGaussianBlur stdDeviation="2.26435" result="effect1_foregroundBlur"/>
</filter>
<filter id="filter15_f" x="658.385" y="58.3277" width="14.9321" height="17.7362" filterUnits="userSpaceOnUse" color-interpolation-filters="sRGB">
<feFlood flood-opacity="0" result="BackgroundImageFix"/>
<feBlend mode="normal" in="SourceGraphic" in2="BackgroundImageFix" result="shape"/>
<feGaussianBlur stdDeviation="2.26435" result="effect1_foregroundBlur"/>
</filter>
<filter id="filter16_f" x="653.235" y="59.2673" width="6.90641" height="10.3033" filterUnits="userSpaceOnUse" color-interpolation-filters="sRGB">
<feFlood flood-opacity="0" result="BackgroundImageFix"/>
<feBlend mode="normal" in="SourceGraphic" in2="BackgroundImageFix" result="shape"/>
<feGaussianBlur stdDeviation="0.754783" result="effect1_foregroundBlur"/>
</filter>
<filter id="filter17_f" x="663.08" y="65.7795" width="5.54176" height="6.71907" filterUnits="userSpaceOnUse" color-interpolation-filters="sRGB">
<feFlood flood-opacity="0" result="BackgroundImageFix"/>
<feBlend mode="normal" in="SourceGraphic" in2="BackgroundImageFix" result="shape"/>
<feGaussianBlur stdDeviation="0.754783" result="effect1_foregroundBlur"/>
</filter>
<filter id="filter18_f" x="653.084" y="63.0031" width="5.54176" height="6.71907" filterUnits="userSpaceOnUse" color-interpolation-filters="sRGB">
<feFlood flood-opacity="0" result="BackgroundImageFix"/>
<feBlend mode="normal" in="SourceGraphic" in2="BackgroundImageFix" result="shape"/>
<feGaussianBlur stdDeviation="0.754783" result="effect1_foregroundBlur"/>
</filter>
<filter id="filter19_f" x="653.084" y="63.0031" width="5.54176" height="6.71907" filterUnits="userSpaceOnUse" color-interpolation-filters="sRGB">
<feFlood flood-opacity="0" result="BackgroundImageFix"/>
<feBlend mode="normal" in="SourceGraphic" in2="BackgroundImageFix" result="shape"/>
<feGaussianBlur stdDeviation="0.754783" result="effect1_foregroundBlur"/>
</filter>
<filter id="filter20_iiii" x="373.188" y="56.0884" width="111.068" height="18.8815" filterUnits="userSpaceOnUse" color-interpolation-filters="sRGB">
<feFlood flood-opacity="0" result="BackgroundImageFix"/>
<feBlend mode="normal" in="SourceGraphic" in2="BackgroundImageFix" result="shape"/>
<feColorMatrix in="SourceAlpha" type="matrix" values="0 0 0 0 0 0 0 0 0 0 0 0 0 0 0 0 0 0 127 0" result="hardAlpha"/>
<feMorphology radius="2.77669" operator="erode" in="SourceAlpha" result="effect1_innerShadow"/>
<feOffset/>
<feGaussianBlur stdDeviation="0.277669"/>
<feComposite in2="hardAlpha" operator="arithmetic" k2="-1" k3="1"/>
<feColorMatrix type="matrix" values="0 0 0 0 0 0 0 0 0 0 0 0 0 0 0 0 0 0 0.776693 0"/>
<feBlend mode="normal" in2="shape" result="effect1_innerShadow"/>
<feColorMatrix in="SourceAlpha" type="matrix" values="0 0 0 0 0 0 0 0 0 0 0 0 0 0 0 0 0 0 127 0" result="hardAlpha"/>
<feMorphology radius="1.11068" operator="erode" in="SourceAlpha" result="effect2_innerShadow"/>
<feOffset dy="0.555339"/>
<feComposite in2="hardAlpha" operator="arithmetic" k2="-1" k3="1"/>
<feColorMatrix type="matrix" values="0 0 0 0 0 0 0 0 0 0 0 0 0 0 0 0 0 0 0.1 0"/>
<feBlend mode="normal" in2="effect1_innerShadow" result="effect2_innerShadow"/>
<feColorMatrix in="SourceAlpha" type="matrix" values="0 0 0 0 0 0 0 0 0 0 0 0 0 0 0 0 0 0 127 0" result="hardAlpha"/>
<feMorphology radius="1.11068" operator="erode" in="SourceAlpha" result="effect3_innerShadow"/>
<feOffset dy="2.22135"/>
<feGaussianBlur stdDeviation="1.38835"/>
<feComposite in2="hardAlpha" operator="arithmetic" k2="-1" k3="1"/>
<feColorMatrix type="matrix" values="0 0 0 0 0 0 0 0 0 0 0 0 0 0 0 0 0 0 0.5 0"/>
<feBlend mode="normal" in2="effect2_innerShadow" result="effect3_innerShadow"/>
<feColorMatrix in="SourceAlpha" type="matrix" values="0 0 0 0 0 0 0 0 0 0 0 0 0 0 0 0 0 0 127 0" result="hardAlpha"/>
<feMorphology radius="1.11068" operator="erode" in="SourceAlpha" result="effect4_innerShadow"/>
<feOffset dy="1.11068"/>
<feComposite in2="hardAlpha" operator="arithmetic" k2="-1" k3="1"/>
<feColorMatrix type="matrix" values="0 0 0 0 0.779656 0 0 0 0 0.779656 0 0 0 0 0.779656 0 0 0 0.15 0"/>
<feBlend mode="normal" in2="effect3_innerShadow" result="effect4_innerShadow"/>
</filter>
<linearGradient id="paint0_linear" x1="2.50011" y1="412.801" x2="3.05545" y2="412.801" gradientUnits="userSpaceOnUse">
<stop stop-color="#C0C0C0"/>
<stop offset="1" stop-color="#1C1C1C"/>
</linearGradient>
<linearGradient id="paint1_linear" x1="2.50011" y1="724.677" x2="3.05545" y2="724.677" gradientUnits="userSpaceOnUse">
<stop stop-color="#C0C0C0"/>
<stop offset="1" stop-color="#1C1C1C"/>
</linearGradient>
<linearGradient id="paint2_linear" x1="2.50011" y1="47.7187" x2="3.05545" y2="47.7187" gradientUnits="userSpaceOnUse">
<stop stop-color="#C0C0C0"/>
<stop offset="1" stop-color="#1C1C1C"/>
</linearGradient>
<linearGradient id="paint3_linear" x1="8.8855" y1="5.55371" x2="8.8855" y2="1834.84" gradientUnits="userSpaceOnUse">
<stop stop-color="#C8C8C8"/>
<stop offset="0.00362579"/>
<stop offset="0.997156"/>
<stop offset="1" stop-color="#BCBCBC"/>
</linearGradient>
<linearGradient id="paint4_linear" x1="8.8855" y1="5.55371" x2="8.8855" y2="1834.84" gradientUnits="userSpaceOnUse">
<stop stop-color="#C8C8C8"/>
<stop offset="0.0245902"/>
<stop offset="0.0962569" stop-color="#5C5C5C"/>
<stop offset="0.915723" stop-color="#5C5C5C"/>
<stop offset="0.938902" stop-color="#D4D4D4"/>
<stop offset="0.985563"/>
<stop offset="1" stop-color="#E3E3E3"/>
</linearGradient>
<linearGradient id="paint5_linear" x1="11.1067" y1="16.6602" x2="11.1067" y2="1821.51" gradientUnits="userSpaceOnUse">
<stop stop-color="#252525"/>
<stop offset="0.0469231" stop-color="#C9C9C9"/>
<stop offset="0.0718413" stop-color="#393939"/>
<stop offset="0.931019" stop-color="#070707"/>
<stop offset="1" stop-color="#252525"/>
</linearGradient>
<linearGradient id="paint6_linear" x1="274.337" y1="67.1953" x2="294.329" y2="87.1875" gradientUnits="userSpaceOnUse">
<stop stop-color="#03030B"/>
<stop offset="1" stop-color="#1E2034"/>
</linearGradient>
<linearGradient id="paint7_linear" x1="229.91" y1="66.6401" x2="253.234" y2="89.9644" gradientUnits="userSpaceOnUse">
<stop stop-color="#080819"/>
<stop offset="0.568545" stop-color="#121223"/>
<stop offset="1" stop-color="#222335"/>
</linearGradient>
<linearGradient id="paint8_linear" x1="161.464" y1="62.7083" x2="189.606" y2="92.2736" gradientUnits="userSpaceOnUse">
<stop stop-color="#232338"/>
<stop offset="0.250148" stop-color="#232337"/>
<stop offset="0.639078" stop-color="#0C0B2C"/>
<stop offset="0.805268" stop-color="#1C264A"/>
<stop offset="1" stop-color="#8EA2C3"/>
</linearGradient>
<linearGradient id="paint9_linear" x1="119.953" y1="64.4188" x2="138.835" y2="83.3003" gradientUnits="userSpaceOnUse">
<stop stop-color="#0E0E11"/>
<stop offset="1" stop-color="#222026"/>
</linearGradient>
<linearGradient id="paint10_linear" x1="134.114" y1="69.1392" x2="143.555" y2="78.5799" gradientUnits="userSpaceOnUse">
<stop stop-color="#151516"/>
<stop offset="1" stop-color="#37353C"/>
</linearGradient>
<linearGradient id="paint11_linear" x1="568.432" y1="62.3859" x2="590.2" y2="86.9857" gradientUnits="userSpaceOnUse">
<stop stop-color="#181818"/>
<stop offset="0.733299"/>
<stop offset="1" stop-color="#585858"/>
</linearGradient>
<radialGradient id="paint12_radial" cx="0" cy="0" r="1" gradientUnits="userSpaceOnUse" gradientTransform="translate(590.047 54.4224) rotate(90) scale(18.3262)">
<stop stop-color="#190E22"/>
<stop offset="1"/>
</radialGradient>
<linearGradient id="paint13_linear" x1="572.5" y1="69.9409" x2="596.927" y2="81.6714" gradientUnits="userSpaceOnUse">
<stop stop-color="#D4D4D4"/>
<stop offset="0.200013" stop-color="#0A0A0A"/>
<stop offset="0.699547" stop-color="#080808"/>
<stop offset="1" stop-color="#979797"/>
</linearGradient>
<linearGradient id="paint14_linear" x1="636.022" y1="64.2407" x2="660.101" y2="88.3563" gradientUnits="userSpaceOnUse">
<stop stop-color="#24272C"/>
<stop offset="0.403886" stop-color="#29292B"/>
<stop offset="0.792142" stop-color="#272629"/>
<stop offset="1" stop-color="#94929A"/>
</linearGradient>
<linearGradient id="paint15_linear" x1="374.298" y1="57.1992" x2="374.298" y2="71.638" gradientUnits="userSpaceOnUse">
<stop stop-color="#2B2B2B"/>
<stop offset="1" stop-color="#323030"/>
</linearGradient>
<linearGradient id="paint16_linear" x1="473.438" y1="71.0274" x2="473.438" y2="57.1992" gradientUnits="userSpaceOnUse">
<stop stop-color="#1B1B1B"/>
<stop offset="1"/>
</linearGradient>
<linearGradient id="paint17_linear" x1="834.674" y1="116.853" x2="18.3262" y2="116.853" gradientUnits="userSpaceOnUse">
<stop stop-color="white"/>
<stop offset="0.047619" stop-color="white" stop-opacity="0.01"/>
<stop offset="0.952381" stop-color="white" stop-opacity="0.01"/>
<stop offset="1" stop-color="white"/>
</linearGradient>
<clipPath id="clip0">
<rect width="853" height="1839.28" fill="white"/>
</clipPath>
<clipPath id="clip1">
<rect width="853" height="488.143" fill="white" transform="translate(0 312.656)"/>
</clipPath>
<clipPath id="clip2">
<rect width="36.6523" height="36.6523" fill="white" transform="translate(171.6 44.9819)"/>
</clipPath>
<clipPath id="clip3">
<rect width="39.9844" height="39.9844" fill="white" transform="translate(570.333 43.8711)"/>
</clipPath>
<clipPath id="clip4">
<rect width="799.688" height="1643.8" fill="white" transform="translate(26.6562 103.848)"/>
</clipPath>
</defs>
</svg>
