<svg width="1854" height="2722" viewBox="0 0 1854 2722" fill="none" xmlns="http://www.w3.org/2000/svg">
<g clip-path="url(#clip0_82:253)">
<g clip-path="url(#clip1_82:253)">
<path fill-rule="evenodd" clip-rule="evenodd" d="M15.8191 78.5893C15.8191 35.1856 51.0048 0 94.4085 0H1759.59C1803 0 1838.18 35.1857 1838.18 78.5894V91.4466V2628.59C1838.18 2671.99 1803 2707.18 1759.59 2707.18H94.4084C51.0047 2707.18 15.8191 2671.99 15.8191 2628.59V78.5893Z" fill="#090909"/>
<g clip-path="url(#clip2_82:253)">
<circle cx="927" cy="149.755" r="14.7645" fill="#595959"/>
<circle cx="927" cy="149.755" r="14.7645" fill="black" fill-opacity="0.01"/>
<circle cx="927.527" cy="150.283" r="7.90956" fill="black" fill-opacity="0.01"/>
<circle cx="928.055" cy="149.754" r="5.27304" fill="black"/>
<circle cx="927" cy="149.755" r="14.7645" fill="black" fill-opacity="0.01"/>
</g>
<g clip-path="url(#clip3_82:253)">
<path fill-rule="evenodd" clip-rule="evenodd" d="M661.239 2690.3H1190.65C1190.65 2690.3 1184.83 2678.7 1179.02 2678.7C1173.2 2678.7 684.51 2678.7 672.874 2678.7C665.457 2678.7 661.239 2690.3 661.239 2690.3Z" fill="#242424"/>
<g clip-path="url(#clip4_82:253)">
<path d="M559.997 2692.41C559.997 2692.41 653.857 2692.41 657.02 2692.41C660.184 2692.41 661.239 2689.25 662.294 2687.14C665.457 2681.87 666.512 2676.59 671.785 2676.59C704.478 2676.59 935.44 2677.65 935.44 2677.65C916.454 2677.65 1147.42 2676.59 1180.11 2676.59C1185.38 2676.59 1186.44 2681.87 1189.6 2687.14C1190.66 2689.25 1191.71 2692.41 1194.87 2692.41C1198.04 2692.41 1330.91 2692.41 1330.91 2692.41" stroke="url(#paint0_radial_82:253)" stroke-width="1.05461"/>
<path opacity="0.8" d="M559.997 2693.47C559.997 2693.47 653.857 2693.47 657.02 2693.47C660.184 2693.47 661.239 2690.3 662.294 2688.19C665.457 2682.92 666.512 2677.65 671.785 2677.65C704.478 2677.65 935.44 2678.7 935.44 2678.7C916.454 2678.7 1147.42 2677.65 1180.11 2677.65C1185.38 2677.65 1186.44 2682.92 1189.6 2688.19C1190.66 2690.3 1191.71 2693.47 1194.87 2693.47C1198.04 2693.47 1330.91 2693.47 1330.91 2693.47" stroke="url(#paint1_linear_82:253)" stroke-width="1.05461"/>
<path opacity="0.8" d="M559.997 2693.47C559.997 2693.47 653.857 2693.47 657.02 2693.47C660.184 2693.47 661.239 2690.3 662.294 2688.19C665.457 2682.92 666.512 2677.65 671.785 2677.65C704.478 2677.65 935.44 2678.7 935.44 2678.7C916.454 2678.7 1147.42 2677.65 1180.11 2677.65C1185.38 2677.65 1186.44 2682.92 1189.6 2688.19C1190.66 2690.3 1191.71 2693.47 1194.87 2693.47C1198.04 2693.47 1330.91 2693.47 1330.91 2693.47" stroke="url(#paint2_radial_82:253)" stroke-width="1.05461"/>
<path d="M558.942 2690.3C558.942 2690.3 652.802 2690.3 655.966 2690.3C659.13 2690.3 660.184 2687.14 661.239 2685.03C664.403 2679.76 665.457 2674.48 670.73 2674.48C703.423 2674.48 934.386 2675.54 934.386 2675.54C915.399 2675.54 1148.47 2674.48 1181.16 2674.48C1186.44 2674.48 1187.49 2679.76 1190.66 2685.03C1191.71 2687.14 1192.76 2690.3 1195.93 2690.3C1199.09 2690.3 1329.86 2690.3 1329.86 2690.3" stroke="black" stroke-width="3.16382"/>
</g>
</g>
<g clip-path="url(#clip5_82:253)">
<path fill-rule="evenodd" clip-rule="evenodd" d="M661.239 17.9277H1190.65C1190.65 17.9277 1184.83 29.5284 1179.02 29.5284C1173.2 29.5284 684.51 29.5284 672.874 29.5284C665.457 29.5284 661.239 17.9277 661.239 17.9277Z" fill="#242424"/>
<g clip-path="url(#clip6_82:253)">
<g clip-path="url(#clip7_82:253)">
<path d="M559.997 15.8193C559.997 15.8193 653.857 15.8193 657.02 15.8193C660.184 15.8193 661.239 18.9832 662.294 21.0924C665.457 26.3654 666.512 31.6384 671.785 31.6384C704.478 31.6384 935.44 30.5838 935.44 30.5838C916.454 30.5838 1147.42 31.6384 1180.11 31.6384C1185.38 31.6384 1186.44 26.3654 1189.6 21.0924C1190.66 18.9832 1191.71 15.8193 1194.87 15.8193C1198.04 15.8193 1330.91 15.8193 1330.91 15.8193" stroke="url(#paint3_radial_82:253)" stroke-width="1.05461"/>
<path opacity="0.8" d="M559.997 14.7646C559.997 14.7646 653.857 14.7646 657.02 14.7646C660.184 14.7646 661.239 17.9285 662.294 20.0377C665.457 25.3107 666.512 30.5838 671.785 30.5838C704.478 30.5838 935.44 29.5292 935.44 29.5292C916.454 29.5292 1147.42 30.5838 1180.11 30.5838C1185.38 30.5838 1186.44 25.3107 1189.6 20.0377C1190.66 17.9285 1191.71 14.7646 1194.87 14.7646C1198.04 14.7646 1330.91 14.7646 1330.91 14.7646" stroke="url(#paint4_linear_82:253)" stroke-width="1.05461"/>
<path opacity="0.8" d="M559.997 14.7646C559.997 14.7646 653.857 14.7646 657.02 14.7646C660.184 14.7646 661.239 17.9285 662.294 20.0377C665.457 25.3107 666.512 30.5838 671.785 30.5838C704.478 30.5838 935.44 29.5292 935.44 29.5292C916.454 29.5292 1147.42 30.5838 1180.11 30.5838C1185.38 30.5838 1186.44 25.3107 1189.6 20.0377C1190.66 17.9285 1191.71 14.7646 1194.87 14.7646C1198.04 14.7646 1330.91 14.7646 1330.91 14.7646" stroke="url(#paint5_radial_82:253)" stroke-width="1.05461"/>
<path d="M558.942 17.9277C558.942 17.9277 652.802 17.9277 655.966 17.9277C659.13 17.9277 660.184 21.0916 661.239 23.2008C664.403 28.4738 665.457 33.7468 670.73 33.7468C703.423 33.7468 934.386 32.6922 934.386 32.6922C915.399 32.6922 1148.47 33.7468 1181.16 33.7468C1186.44 33.7468 1187.49 28.4738 1190.66 23.2008C1191.71 21.0916 1192.76 17.9277 1195.93 17.9277C1199.09 17.9277 1329.86 17.9277 1329.86 17.9277" stroke="black" stroke-width="3.16382"/>
</g>
<g opacity="0.1" clip-path="url(#clip8_82:253)">
<path d="M559.997 15.8193C559.997 15.8193 653.857 15.8193 657.02 15.8193C660.184 15.8193 661.239 18.9832 662.294 21.0924C665.457 26.3654 666.512 31.6384 671.785 31.6384C704.478 31.6384 935.44 30.5838 935.44 30.5838C916.454 30.5838 1147.42 31.6384 1180.11 31.6384C1185.38 31.6384 1186.44 26.3654 1189.6 21.0924C1190.66 18.9832 1191.71 15.8193 1194.87 15.8193C1198.04 15.8193 1330.91 15.8193 1330.91 15.8193" stroke="url(#paint6_radial_82:253)" stroke-width="1.05461"/>
<path opacity="0.8" d="M559.997 14.7646C559.997 14.7646 653.857 14.7646 657.02 14.7646C660.184 14.7646 661.239 17.9285 662.294 20.0377C665.457 25.3107 666.512 30.5838 671.785 30.5838C704.478 30.5838 935.44 29.5292 935.44 29.5292C916.454 29.5292 1147.42 30.5838 1180.11 30.5838C1185.38 30.5838 1186.44 25.3107 1189.6 20.0377C1190.66 17.9285 1191.71 14.7646 1194.87 14.7646C1198.04 14.7646 1330.91 14.7646 1330.91 14.7646" stroke="url(#paint7_linear_82:253)" stroke-width="1.05461"/>
<path opacity="0.8" d="M559.997 14.7646C559.997 14.7646 653.857 14.7646 657.02 14.7646C660.184 14.7646 661.239 17.9285 662.294 20.0377C665.457 25.3107 666.512 30.5838 671.785 30.5838C704.478 30.5838 935.44 29.5292 935.44 29.5292C916.454 29.5292 1147.42 30.5838 1180.11 30.5838C1185.38 30.5838 1186.44 25.3107 1189.6 20.0377C1190.66 17.9285 1191.71 14.7646 1194.87 14.7646C1198.04 14.7646 1330.91 14.7646 1330.91 14.7646" stroke="url(#paint8_radial_82:253)" stroke-width="1.05461"/>
<path d="M558.942 17.9277C558.942 17.9277 652.802 17.9277 655.966 17.9277C659.13 17.9277 660.184 21.0916 661.239 23.2008C664.403 28.4738 665.457 33.7468 670.73 33.7468C703.423 33.7468 934.386 32.6922 934.386 32.6922C915.399 32.6922 1148.47 33.7468 1181.16 33.7468C1186.44 33.7468 1187.49 28.4738 1190.66 23.2008C1191.71 21.0916 1192.76 17.9277 1195.93 17.9277C1199.09 17.9277 1329.86 17.9277 1329.86 17.9277" stroke="black" stroke-width="3.16382"/>
<path opacity="0.8" d="M559.997 14.7646C559.997 14.7646 653.857 14.7646 657.02 14.7646C660.184 14.7646 661.239 17.9285 662.294 20.0377C665.457 25.3107 666.512 30.5838 671.785 30.5838C704.478 30.5838 935.44 29.5292 935.44 29.5292C916.454 29.5292 1147.42 30.5838 1180.11 30.5838C1185.38 30.5838 1186.44 25.3107 1189.6 20.0377C1190.66 17.9285 1191.71 14.7646 1194.87 14.7646C1198.04 14.7646 1330.91 14.7646 1330.91 14.7646" stroke="url(#paint9_linear_82:253)" stroke-width="1.05461"/>
</g>
</g>
</g>
<g clip-path="url(#clip9_82:253)">
<path fill-rule="evenodd" clip-rule="evenodd" d="M1826.54 37.4059C1812.7 14.9628 1787.89 0 1759.58 0H94.4159C50.9991 0 15.8191 35.1901 15.8191 78.5993V2628.58C15.8191 2671.99 51.0081 2707.18 94.4159 2707.18H1759.58C1803 2707.18 1838.18 2671.99 1838.18 2628.58V91.4466V78.5868C1838.18 63.4878 1833.92 49.3819 1826.54 37.4059C1826.54 74.511 1826.54 132.942 1826.54 169.259V2628.58C1826.54 2665.56 1796.56 2695.53 1759.6 2695.53H94.4017C57.4328 2695.53 27.4636 2665.56 27.4636 2628.58V78.5942C27.4636 41.6185 57.4444 11.6438 94.4017 11.6438H1759.6C1796.57 11.6438 1826.54 41.6119 1826.54 78.5875V37.4059V37.4059Z" fill="url(#paint10_linear_82:253)"/>
<path d="M41.1247 20.7532C50.1297 16.2463 60.2925 13.7101 71.0476 13.7101H1759.52C1796.49 13.7101 1826.46 43.6831 1826.46 80.6566V2601.23C1833.85 2589.25 1838.11 2575.14 1838.11 2560.04V78.5893C1838.11 35.1856 1802.92 0 1759.52 0H94.335C73.8099 0 55.1225 7.86834 41.1247 20.7532Z" fill="url(#paint11_linear_82:253)" fill-opacity="0.9"/>
<path d="M41.1315 20.7532C50.1365 16.2463 60.2992 13.7101 71.0543 13.7101H1759.52C1796.5 13.7101 1826.47 43.6831 1826.47 80.6566V2601.23C1833.85 2589.25 1838.11 2575.14 1838.11 2560.04V78.5893C1838.11 35.1856 1802.93 0 1759.52 0H94.3417C73.8166 0 55.1293 7.86832 41.1315 20.7532Z" fill="url(#paint12_linear_82:253)" fill-opacity="0.5"/>
<path fill-rule="evenodd" clip-rule="evenodd" d="M15.8191 74.8772C15.8191 33.5237 49.3428 0 90.6962 0H1763.3C1804.66 0 1838.18 33.5236 1838.18 74.8771V91.4466V2632.3C1838.18 2673.65 1804.66 2707.18 1763.3 2707.18H90.6962C49.3427 2707.18 15.8191 2673.65 15.8191 2632.3V74.8772Z" fill="black" fill-opacity="0.01"/>
<path fill-rule="evenodd" clip-rule="evenodd" d="M15.8191 78.5893C15.8191 35.1856 51.0048 0 94.4085 0H1759.59C1803 0 1838.18 35.1857 1838.18 78.5894V91.4466V2628.59C1838.18 2671.99 1803 2707.18 1759.59 2707.18H94.4084C51.0047 2707.18 15.8191 2671.99 15.8191 2628.59V78.5893Z" fill="black" fill-opacity="0.01"/>
</g>
<g clip-path="url(#clip10_82:253)">
<circle cx="927" cy="149.755" r="14.7645" fill="#111111"/>
<path fill-rule="evenodd" clip-rule="evenodd" d="M927 164.519C935.154 164.519 941.764 157.909 941.764 149.755C941.764 141.601 935.154 134.99 927 134.99C918.846 134.99 912.235 141.601 912.235 149.755C912.235 157.909 918.846 164.519 927 164.519ZM927 156.082C930.495 156.082 933.328 153.249 933.328 149.755C933.328 146.26 930.495 143.427 927 143.427C923.505 143.427 920.672 146.26 920.672 149.755C920.672 153.249 923.505 156.082 927 156.082Z" fill="url(#paint13_radial_82:253)" fill-opacity="0.4" style="mix-blend-mode:screen"/>
<circle cx="927" cy="149.754" r="6.32765" fill="url(#paint14_radial_82:253)"/>
</g>
<rect x="114.952" y="272.089" width="1624.1" height="2164.05" rx="2.10922" fill="#121212"/>
</g>
<path d="M117.061 276.197C117.061 275.093 117.957 274.197 119.061 274.197H1734.94C1736.04 274.197 1736.94 275.093 1736.94 276.197V2432.03C1736.94 2433.14 1736.04 2434.03 1734.94 2434.03H119.061C117.957 2434.03 117.061 2433.14 117.061 2432.03V276.197Z" fill="#FF0000"/>
<text fill="black" xml:space="preserve" style="white-space: pre" font-family="Roboto" font-size="20" letter-spacing="0em"><tspan x="148" y="330.336">name: Nexus 9&#10;</tspan><tspan x="148" y="353.336">density: 2&#10;</tspan><tspan x="148" y="376.336">screen_size: 768x1024&#10;</tspan><tspan x="148" y="399.336">safe_areas: 0,20,0,0|0,20,0,0</tspan></text>
</g>
<defs>
<radialGradient id="paint0_radial_82:253" cx="0" cy="0" r="1" gradientUnits="userSpaceOnUse" gradientTransform="translate(675.685 2680.19) rotate(180) scale(149.261 1.36511)">
<stop stop-color="white"/>
<stop offset="0.885634" stop-color="#B6B0B0" stop-opacity="0.26"/>
<stop offset="1" stop-color="#9F9F9F" stop-opacity="0.01"/>
</radialGradient>
<linearGradient id="paint1_linear_82:253" x1="1268.02" y1="2651.64" x2="1267.51" y2="2680.17" gradientUnits="userSpaceOnUse">
<stop stop-color="white"/>
<stop offset="0.885634" stop-color="white" stop-opacity="0.26"/>
<stop offset="1" stop-color="#9F9F9F" stop-opacity="0.01"/>
</linearGradient>
<radialGradient id="paint2_radial_82:253" cx="0" cy="0" r="1" gradientUnits="userSpaceOnUse" gradientTransform="translate(994.052 2671.33) rotate(-178.137) scale(242.734 7.78797)">
<stop stop-color="white" stop-opacity="0.3"/>
<stop offset="0.885634" stop-color="white" stop-opacity="0.26"/>
<stop offset="1" stop-color="#9F9F9F" stop-opacity="0.01"/>
</radialGradient>
<radialGradient id="paint3_radial_82:253" cx="0" cy="0" r="1" gradientUnits="userSpaceOnUse" gradientTransform="translate(675.685 28.044) rotate(180) scale(149.261 1.36511)">
<stop stop-color="white"/>
<stop offset="0.885634" stop-color="#B6B0B0" stop-opacity="0.26"/>
<stop offset="1" stop-color="#9F9F9F" stop-opacity="0.01"/>
</radialGradient>
<linearGradient id="paint4_linear_82:253" x1="1268.02" y1="56.597" x2="1267.51" y2="28.0647" gradientUnits="userSpaceOnUse">
<stop stop-color="white"/>
<stop offset="0.885634" stop-color="white" stop-opacity="0.26"/>
<stop offset="1" stop-color="#9F9F9F" stop-opacity="0.01"/>
</linearGradient>
<radialGradient id="paint5_radial_82:253" cx="0" cy="0" r="1" gradientUnits="userSpaceOnUse" gradientTransform="translate(994.052 36.9065) rotate(178.137) scale(242.734 7.78797)">
<stop stop-color="white" stop-opacity="0.3"/>
<stop offset="0.885634" stop-color="white" stop-opacity="0.26"/>
<stop offset="1" stop-color="#9F9F9F" stop-opacity="0.01"/>
</radialGradient>
<radialGradient id="paint6_radial_82:253" cx="0" cy="0" r="1" gradientUnits="userSpaceOnUse" gradientTransform="translate(675.685 28.044) rotate(180) scale(149.261 1.36511)">
<stop stop-color="white"/>
<stop offset="0.885634" stop-color="#B6B0B0" stop-opacity="0.26"/>
<stop offset="1" stop-color="#9F9F9F" stop-opacity="0.01"/>
</radialGradient>
<linearGradient id="paint7_linear_82:253" x1="1268.02" y1="56.597" x2="1267.51" y2="28.0647" gradientUnits="userSpaceOnUse">
<stop stop-color="white"/>
<stop offset="0.885634" stop-color="white" stop-opacity="0.26"/>
<stop offset="1" stop-color="#9F9F9F" stop-opacity="0.01"/>
</linearGradient>
<radialGradient id="paint8_radial_82:253" cx="0" cy="0" r="1" gradientUnits="userSpaceOnUse" gradientTransform="translate(994.052 36.9065) rotate(178.137) scale(242.734 7.78797)">
<stop stop-color="white" stop-opacity="0.3"/>
<stop offset="0.885634" stop-color="white" stop-opacity="0.26"/>
<stop offset="1" stop-color="#9F9F9F" stop-opacity="0.01"/>
</radialGradient>
<linearGradient id="paint9_linear_82:253" x1="1268.02" y1="56.597" x2="1267.51" y2="28.0647" gradientUnits="userSpaceOnUse">
<stop stop-color="white"/>
<stop offset="0.885634" stop-color="white" stop-opacity="0.26"/>
<stop offset="1" stop-color="#9F9F9F" stop-opacity="0.01"/>
</linearGradient>
<linearGradient id="paint10_linear_82:253" x1="853.016" y1="-1483.11" x2="-1722.65" y2="593.878" gradientUnits="userSpaceOnUse">
<stop stop-color="white"/>
<stop offset="1" stop-color="#B7B7B7"/>
</linearGradient>
<linearGradient id="paint11_linear_82:253" x1="1377.21" y1="-486.664" x2="870.121" y2="-248.026" gradientUnits="userSpaceOnUse">
<stop stop-color="white"/>
<stop offset="1" stop-color="#B0B0B0" stop-opacity="0.0960994"/>
</linearGradient>
<linearGradient id="paint12_linear_82:253" x1="1772.78" y1="-164.207" x2="1527.11" y2="-36.5514" gradientUnits="userSpaceOnUse">
<stop stop-color="white" stop-opacity="0.401042"/>
<stop offset="0.211765" stop-color="#777777" stop-opacity="0.785185"/>
<stop offset="1" stop-color="white" stop-opacity="0.01"/>
</linearGradient>
<radialGradient id="paint13_radial_82:253" cx="0" cy="0" r="1" gradientUnits="userSpaceOnUse" gradientTransform="translate(919.636 160.098) rotate(41.5652) scale(17.1697 9.69274)">
<stop stop-color="white"/>
<stop offset="0.479691" stop-color="#DEDEDE" stop-opacity="0.698182"/>
<stop offset="1" stop-color="#929292" stop-opacity="0.01"/>
</radialGradient>
<radialGradient id="paint14_radial_82:253" cx="0" cy="0" r="1" gradientUnits="userSpaceOnUse" gradientTransform="translate(927 149.754) rotate(90) scale(16.2386)">
<stop stop-color="#252B60"/>
<stop offset="1" stop-color="#292942"/>
</radialGradient>
<clipPath id="clip0_82:253">
<rect width="1854" height="2721.94" fill="white"/>
</clipPath>
<clipPath id="clip1_82:253">
<rect width="1822.36" height="2707.18" fill="white" transform="translate(15.8191)"/>
</clipPath>
<clipPath id="clip2_82:253">
<rect width="29.529" height="29.529" fill="white" transform="translate(912.235 134.99)"/>
</clipPath>
<clipPath id="clip3_82:253">
<rect width="771.973" height="18.9829" fill="white" transform="matrix(1 0 0 -1 558.942 2693.47)"/>
</clipPath>
<clipPath id="clip4_82:253">
<rect width="771.973" height="18.9829" fill="white" transform="matrix(1 0 0 -1 558.942 2693.47)"/>
</clipPath>
<clipPath id="clip5_82:253">
<rect width="771.973" height="18.9829" fill="white" transform="translate(558.942 14.7646)"/>
</clipPath>
<clipPath id="clip6_82:253">
<rect width="771.973" height="18.9829" fill="white" transform="translate(558.942 14.7646)"/>
</clipPath>
<clipPath id="clip7_82:253">
<rect width="771.973" height="18.9829" fill="white" transform="translate(558.942 14.7646)"/>
</clipPath>
<clipPath id="clip8_82:253">
<rect width="771.973" height="18.9829" fill="white" transform="translate(558.942 14.7646)"/>
</clipPath>
<clipPath id="clip9_82:253">
<rect width="1822.36" height="2707.18" fill="white" transform="translate(15.8191)"/>
</clipPath>
<clipPath id="clip10_82:253">
<rect width="29.529" height="29.529" fill="white" transform="translate(912.235 134.99)"/>
</clipPath>
</defs>
</svg>
