<svg width="864" height="1833" viewBox="0 0 864 1833" fill="none" xmlns="http://www.w3.org/2000/svg">
<path d="M746.321 0H110.994C62.663 0 0 30.92 0 111.792V1723.34C0 1760.03 20.7496 1832 104.566 1832H381.214C383.101 1830.98 385.42 1830.1 387.813 1830.1H470.47C472.577 1830.1 474.697 1830.98 476.449 1832H746.321C830.882 1832 855.353 1763.31 855.353 1727.85V108.538C855.353 63.3058 828.618 0 746.321 0Z" fill="url(#paint0_radial_2:553)"/>
<path fill-rule="evenodd" clip-rule="evenodd" d="M110.894 8.66895C140.017 8.66895 356.562 8.66895 744.208 8.66895C826.059 8.66895 849.588 69.6694 849.588 114.527C849.588 143.417 849.588 692.472 849.588 1728.06C849.588 1763.22 827.415 1825.5 744.208 1825.5C726.781 1825.5 505.339 1825.5 110.894 1825.5C28.4185 1825.5 7.92651 1759.7 7.92651 1723.32C7.92651 712.25 7.92651 166.123 7.92651 114.527C7.92651 34.3255 63.3366 8.66895 110.894 8.66895Z" fill="black"/>
<mask id="mask0_2:553" style="mask-type:alpha" maskUnits="userSpaceOnUse" x="0" y="25" width="138" height="1783">
<rect y="25.2212" width="137.635" height="1782.05" fill="url(#paint1_linear_2:553)"/>
</mask>
<g mask="url(#mask0_2:553)">
<path fill-rule="evenodd" clip-rule="evenodd" d="M64.3856 1807.17C64.3856 1807.17 58.432 1801.54 51.4314 1796.91C38.3503 1788.27 34.957 1778.39 32.0771 1774.29C25.4453 1764.85 20.5953 1751.29 19.7544 1736.96C18.9135 1722.64 19.7544 136.855 19.7544 136.855C19.7544 136.855 19.7544 99.2412 21.3397 89.4763C22.9251 79.7114 23.9687 75.4691 29.8868 63.5154C35.8048 51.5617 41.802 45.1711 47.3057 40.3071C53.9025 34.4772 72.3947 25.3657 72.3947 25.3657C72.3947 25.3657 53.6282 32.0324 44.9764 38.7784C38.0538 44.176 27.5529 57.5575 21.3397 74.447C17.7675 84.1575 16.101 96.9432 16.101 106.877C16.101 134.088 15.0026 1719.39 16.101 1734.38C17.1994 1749.37 20.2357 1759.27 26.2246 1768.88C29.4689 1774.09 32.9063 1784.08 42.2922 1792.23C50.2322 1799.12 64.3856 1807.17 64.3856 1807.17Z" fill="url(#paint2_linear_2:553)"/>
</g>
<path d="M855.353 397.771H859.677C862.064 397.771 864 399.707 864 402.095V520.994C864 523.382 862.064 525.318 859.677 525.318H855.353V397.771Z" fill="url(#paint3_linear_2:553)"/>
<path d="M855.353 646.379H859.676C862.064 646.379 864 648.315 864 650.703V896.427C864 898.815 862.064 900.751 859.676 900.751H855.353V646.379Z" fill="url(#paint4_linear_2:553)"/>
<rect x="330.035" y="54.0449" width="199.606" height="23.7798" rx="11.8899" fill="url(#paint5_linear_2:553)"/>
<rect x="330.035" y="1753.94" width="199.606" height="23.7798" rx="11.8899" fill="url(#paint6_linear_2:553)"/>
<path fill-rule="evenodd" clip-rule="evenodd" d="M266.262 113.134C277.604 113.134 286.799 103.94 286.799 92.5972C286.799 81.2548 277.604 72.0601 266.262 72.0601C254.92 72.0601 245.725 81.2548 245.725 92.5972C245.725 103.94 254.92 113.134 266.262 113.134ZM266.262 109.531C275.614 109.531 283.196 101.95 283.196 92.5973C283.196 83.2449 275.614 75.6632 266.262 75.6632C256.909 75.6632 249.328 83.2449 249.328 92.5973C249.328 101.95 256.909 109.531 266.262 109.531Z" fill="url(#paint7_linear_2:553)"/>
<path fill-rule="evenodd" clip-rule="evenodd" d="M161.054 105.928C168.417 105.928 174.385 99.9593 174.385 92.5967C174.385 85.2342 168.417 79.2656 161.054 79.2656C153.691 79.2656 147.723 85.2342 147.723 92.5967C147.723 99.9593 153.691 105.928 161.054 105.928ZM161.054 103.589C167.125 103.589 172.046 98.6677 172.046 92.5968C172.046 86.5259 167.125 81.6045 161.054 81.6045C154.983 81.6045 150.062 86.5259 150.062 92.5968C150.062 98.6677 154.983 103.589 161.054 103.589Z" fill="url(#paint8_linear_2:553)"/>
<rect x="39.6331" y="143.399" width="778.249" height="1556.5" rx="32.427" fill="#FF0000"/>
<text fill="black" xml:space="preserve" style="white-space: pre" font-family="Roboto" font-size="20" letter-spacing="0em"><tspan x="77" y="198.336">name: Pixel 3&#10;</tspan><tspan x="77" y="221.336">density: 2&#10;</tspan><tspan x="77" y="244.336">screen_size: 540x1080&#10;</tspan><tspan x="77" y="267.336">safe_areas: 0,24,0,0|0,24,0,0</tspan></text>
<defs>
<radialGradient id="paint0_radial_2:553" cx="0" cy="0" r="1" gradientUnits="userSpaceOnUse" gradientTransform="translate(447.106 916.001) rotate(90) scale(1054.9 492.525)">
<stop stop-color="#1E1E1E"/>
<stop offset="1" stop-color="#0A0A0A"/>
</radialGradient>
<linearGradient id="paint1_linear_2:553" x1="17.6937" y1="1362.39" x2="86.6098" y2="1362.39" gradientUnits="userSpaceOnUse">
<stop stop-color="#EEEEEE" stop-opacity="0.855101"/>
<stop offset="1" stop-color="#D8D8D8" stop-opacity="0.01"/>
</linearGradient>
<linearGradient id="paint2_linear_2:553" x1="15.6128" y1="25.3657" x2="15.6128" y2="1807.17" gradientUnits="userSpaceOnUse">
<stop stop-color="#686868"/>
<stop offset="0.019851" stop-color="#C6C6C6"/>
<stop offset="0.0526644" stop-color="#E4E4E4"/>
<stop offset="0.787327" stop-color="#D0D0D0"/>
<stop offset="0.939455" stop-color="#C5C5C5"/>
<stop offset="0.954674" stop-color="white"/>
<stop offset="0.98365" stop-color="#ADADAD"/>
<stop offset="1" stop-color="#D8D8D8"/>
</linearGradient>
<linearGradient id="paint3_linear_2:553" x1="855.353" y1="397.771" x2="855.353" y2="525.318" gradientUnits="userSpaceOnUse">
<stop stop-color="#373737"/>
<stop offset="0.0307924" stop-color="#4C4C4C"/>
<stop offset="0.0685746" stop-color="#363636"/>
<stop offset="0.916235" stop-color="#3D3D3D"/>
<stop offset="0.971221" stop-color="#202020"/>
<stop offset="1" stop-color="#767676"/>
</linearGradient>
<linearGradient id="paint4_linear_2:553" x1="855.353" y1="646.379" x2="855.353" y2="900.751" gradientUnits="userSpaceOnUse">
<stop stop-color="#505050"/>
<stop offset="0.0134163" stop-color="#B3B3B3"/>
<stop offset="0.0412327" stop-color="#212121"/>
<stop offset="0.110692" stop-color="#242424"/>
<stop offset="0.876962" stop-color="#191919"/>
<stop offset="0.957457" stop-color="#2A2A2A"/>
<stop offset="1" stop-color="#212121"/>
</linearGradient>
<linearGradient id="paint5_linear_2:553" x1="529.641" y1="77.8247" x2="529.641" y2="54.0449" gradientUnits="userSpaceOnUse">
<stop stop-color="#313131"/>
<stop offset="0.521857" stop-color="#2E2E2E"/>
<stop offset="1" stop-color="#282727"/>
</linearGradient>
<linearGradient id="paint6_linear_2:553" x1="529.641" y1="1777.72" x2="529.641" y2="1753.94" gradientUnits="userSpaceOnUse">
<stop stop-color="#313131"/>
<stop offset="0.521857" stop-color="#2E2E2E"/>
<stop offset="1" stop-color="#282727"/>
</linearGradient>
<linearGradient id="paint7_linear_2:553" x1="245.725" y1="92.5972" x2="322" y2="90" gradientUnits="userSpaceOnUse">
<stop offset="0.147774" stop-color="#231E1B"/>
<stop offset="0.379161" stop-color="#5F5F5F" stop-opacity="0.210456"/>
<stop offset="0.62265" stop-opacity="0.280797"/>
<stop offset="0.882483" stop-opacity="0.374321"/>
</linearGradient>
<linearGradient id="paint8_linear_2:553" x1="147.723" y1="92.5967" x2="198" y2="93" gradientUnits="userSpaceOnUse">
<stop offset="0.147774" stop-color="#231E1B"/>
<stop offset="0.379161" stop-color="#5F5F5F" stop-opacity="0.210456"/>
<stop offset="0.62265" stop-opacity="0.280797"/>
<stop offset="1" stop-opacity="0.374321"/>
</linearGradient>
</defs>
</svg>
