<svg width="458" height="855" viewBox="0 0 458 855" fill="none" xmlns="http://www.w3.org/2000/svg">
<g filter="url(#filter0_i)">
<path fill-rule="evenodd" clip-rule="evenodd" d="M394.933 0H58.7348C33.1596 0 0 16.362 0 59.157V796.855C0 816.266 10.9801 854.354 55.3336 854.354H199.778C200.84 853.567 202.731 852.417 204.719 852.417H248.459C250.21 852.417 251.977 853.567 252.981 854.354H394.933C439.68 854.354 452.629 818.002 452.629 799.238V57.4356C452.629 33.4997 438.482 0 394.933 0Z" fill="url(#paint0_radial)"/>
</g>
<g filter="url(#filter1_iiii)">
<path fill-rule="evenodd" clip-rule="evenodd" d="M58.6818 4.58643C74.0933 4.58643 188.683 4.58643 393.815 4.58643C437.128 4.58643 449.579 36.8662 449.579 60.6038C449.579 75.8917 449.579 253.397 449.579 801.401C449.579 820.009 437.846 852.965 393.815 852.965C384.593 852.965 267.411 852.965 58.6818 852.965C15.0383 852.965 4.19446 818.145 4.19446 798.894C4.19446 263.863 4.19446 87.9068 4.19446 60.6038C4.19446 18.1632 33.516 4.58643 58.6818 4.58643Z" fill="black"/>
</g>
<mask id="mask0" mask-type="alpha" maskUnits="userSpaceOnUse" x="0" y="13" width="73" height="824">
<rect y="13.3457" width="72.8325" height="823.572" fill="url(#paint1_linear)"/>
</mask>
<g mask="url(#mask0)">
<g filter="url(#filter2_f)">
<path fill-rule="evenodd" clip-rule="evenodd" d="M34.0711 836.873C34.0711 836.873 30.9206 834.27 27.2161 832.133C20.2939 828.139 18.4983 823.572 16.9743 821.677C13.4649 817.315 10.8985 811.048 10.4535 804.427C10.0085 797.806 10.4535 64.9374 10.4535 64.9374C10.4535 64.9374 10.4535 47.5541 11.2924 43.0413C12.1313 38.5285 12.6836 36.5679 15.8153 31.0435C18.9469 25.519 22.1205 22.5656 25.0329 20.3178C28.5237 17.6234 38.3093 13.4126 38.3093 13.4126C38.3093 13.4126 28.3786 16.4936 23.8002 19.6113C20.137 22.1058 14.5802 28.29 11.2924 36.0955C9.40206 40.5832 8.52017 46.4921 8.52017 51.083C8.52017 63.6587 7.93892 796.304 8.52017 803.234C9.10142 810.163 10.7082 814.736 13.8773 819.178C15.5941 821.585 17.4131 826.202 22.3799 829.967C26.5815 833.152 34.0711 836.873 34.0711 836.873Z" fill="url(#paint2_linear)"/>
</g>
</g>
<mask id="mask1" mask-type="alpha" maskUnits="userSpaceOnUse" x="391" y="11" width="56" height="842">
<path d="M391.337 11.6235H446.873V852.417H391.337V11.6235Z" fill="url(#paint3_linear)"/>
</mask>
<g mask="url(#mask1)">
<g filter="url(#filter3_f)">
<path fill-rule="evenodd" clip-rule="evenodd" d="M410.71 11.6235C410.71 11.6235 418.917 14.8485 422.073 16.5741C427.478 19.5303 431.034 22.7328 432.232 23.8853C435.078 26.6233 438.923 31.4834 441.116 37.2971C442.978 42.236 443.103 48.0099 443.103 54.3014C443.103 67.9987 443.103 793.122 443.103 793.122C443.103 793.122 443.929 809.617 439.56 818.002C437.218 822.497 437.576 823.709 433.756 827.781C429.616 832.195 425.135 836.918 425.135 836.918C425.135 836.918 435.743 828.717 437.292 826.536C438.499 824.837 441.56 819.405 443.372 815C445.626 809.523 445.582 802.336 445.582 799.216C445.582 793.587 445.002 51.5604 445.002 45.6049C445.002 39.6493 440.27 29.933 436.052 25.4689C431.833 21.0047 426.709 16.6533 422.073 14.5712C417.436 12.4891 410.71 11.6235 410.71 11.6235Z" fill="url(#paint4_linear)"/>
</g>
</g>
<g filter="url(#filter4_iii)">
<path d="M452.63 151.079H454.917C456.181 151.079 457.205 152.103 457.205 153.367V216.285C457.205 217.549 456.181 218.573 454.917 218.573H452.63V151.079Z" fill="url(#paint5_linear)"/>
</g>
<g filter="url(#filter5_ii)">
<path d="M452.63 241.306H454.917C456.181 241.306 457.205 242.33 457.205 243.594V373.625C457.205 374.889 456.181 375.913 454.917 375.913H452.63V241.306Z" fill="url(#paint6_linear)"/>
</g>
<g filter="url(#filter6_diii)">
<rect width="76.2407" height="9.08283" rx="4.54141" transform="matrix(1 0 0 -1 187.759 45.7041)" fill="url(#paint7_linear)"/>
</g>
<g filter="url(#filter7_diii)">
<rect x="195.023" y="824.002" width="61.994" height="9.04079" rx="4.38518" fill="url(#paint8_linear)"/>
</g>
<g filter="url(#filter8_f)">
<path fill-rule="evenodd" clip-rule="evenodd" d="M169.127 47.8773C169.127 47.8773 168.575 43.3566 170.254 42.0254C171.933 40.6943 175.905 42.0254 175.905 42.0254C175.905 42.0254 174.198 44.5675 172.899 45.7479C171.6 46.9282 169.127 47.8773 169.127 47.8773Z" fill="url(#paint9_angular)"/>
</g>
<g filter="url(#filter9_f)">
<ellipse cx="172.695" cy="45.0888" rx="1.491" ry="1.43746" fill="url(#paint10_radial)" fill-opacity="0.2"/>
</g>
<g filter="url(#filter10_f)">
<path fill-rule="evenodd" clip-rule="evenodd" d="M168.99 35.2115C168.99 35.2115 167.258 36.0614 166.356 36.8101C165.454 37.5588 164.551 38.8257 164.551 38.8257C164.551 38.8257 164.881 37.2047 165.698 36.4512C166.515 35.6976 168.99 35.2115 168.99 35.2115Z" fill="#D8D8D8" fill-opacity="0.5"/>
</g>
<g filter="url(#filter11_d)">
<path fill-rule="evenodd" clip-rule="evenodd" d="M169.606 48C173.477 48 176.615 44.8619 176.615 40.9907C176.615 37.1196 173.477 33.9814 169.606 33.9814C165.734 33.9814 162.596 37.1196 162.596 40.9907C162.596 44.8619 165.734 48 169.606 48ZM169.606 46.7704C172.797 46.7704 175.385 44.1828 175.385 40.9908C175.385 37.7989 172.797 35.2113 169.606 35.2113C166.414 35.2113 163.826 37.7989 163.826 40.9908C163.826 44.1828 166.414 46.7704 169.606 46.7704Z" fill="url(#paint11_angular)"/>
</g>
<g filter="url(#filter12_f)">
<ellipse cx="168.18" cy="38.5492" rx="1.15712" ry="1.12485" fill="white"/>
</g>
<rect x="23" y="70" width="411" height="731" rx="16" fill="#FF0000"/>
<text fill="black" xml:space="preserve" style="white-space: pre" font-family="Roboto" font-size="14.128" letter-spacing="0em"><tspan x="46.6433" y="106.901">name: Medium Phone&#10;</tspan><tspan x="46.6433" y="123.901">density: 2&#10;</tspan><tspan x="46.6433" y="140.901">screen_size: 411x731&#10;</tspan><tspan x="46.6433" y="157.901">safe_areas: 0,24,0,0|0,24,0,0</tspan></text>
<defs>
<filter id="filter0_i" x="0" y="0" width="452.629" height="854.354" filterUnits="userSpaceOnUse" color-interpolation-filters="sRGB">
<feFlood flood-opacity="0" result="BackgroundImageFix"/>
<feBlend mode="normal" in="SourceGraphic" in2="BackgroundImageFix" result="shape"/>
<feColorMatrix in="SourceAlpha" type="matrix" values="0 0 0 0 0 0 0 0 0 0 0 0 0 0 0 0 0 0 127 0" result="hardAlpha"/>
<feOffset/>
<feGaussianBlur stdDeviation="0.381322"/>
<feComposite in2="hardAlpha" operator="arithmetic" k2="-1" k3="1"/>
<feColorMatrix type="matrix" values="0 0 0 0 1 0 0 0 0 1 0 0 0 0 1 0 0 0 0.3 0"/>
<feBlend mode="normal" in2="shape" result="effect1_innerShadow"/>
</filter>
<filter id="filter1_iiii" x="4.19446" y="4.58643" width="445.384" height="848.76" filterUnits="userSpaceOnUse" color-interpolation-filters="sRGB">
<feFlood flood-opacity="0" result="BackgroundImageFix"/>
<feBlend mode="normal" in="SourceGraphic" in2="BackgroundImageFix" result="shape"/>
<feColorMatrix in="SourceAlpha" type="matrix" values="0 0 0 0 0 0 0 0 0 0 0 0 0 0 0 0 0 0 127 0" result="hardAlpha"/>
<feOffset/>
<feGaussianBlur stdDeviation="0.381322"/>
<feComposite in2="hardAlpha" operator="arithmetic" k2="-1" k3="1"/>
<feColorMatrix type="matrix" values="0 0 0 0 0.921569 0 0 0 0 0.921569 0 0 0 0 0.921569 0 0 0 0.35 0"/>
<feBlend mode="normal" in2="shape" result="effect1_innerShadow"/>
<feColorMatrix in="SourceAlpha" type="matrix" values="0 0 0 0 0 0 0 0 0 0 0 0 0 0 0 0 0 0 127 0" result="hardAlpha"/>
<feOffset/>
<feGaussianBlur stdDeviation="0.571983"/>
<feComposite in2="hardAlpha" operator="arithmetic" k2="-1" k3="1"/>
<feColorMatrix type="matrix" values="0 0 0 0 0.921569 0 0 0 0 0.921569 0 0 0 0 0.921569 0 0 0 0.1 0"/>
<feBlend mode="normal" in2="effect1_innerShadow" result="effect2_innerShadow"/>
<feColorMatrix in="SourceAlpha" type="matrix" values="0 0 0 0 0 0 0 0 0 0 0 0 0 0 0 0 0 0 127 0" result="hardAlpha"/>
<feOffset dy="0.381322"/>
<feGaussianBlur stdDeviation="0.190661"/>
<feComposite in2="hardAlpha" operator="arithmetic" k2="-1" k3="1"/>
<feColorMatrix type="matrix" values="0 0 0 0 0 0 0 0 0 0 0 0 0 0 0 0 0 0 0.5 0"/>
<feBlend mode="normal" in2="effect2_innerShadow" result="effect3_innerShadow"/>
<feColorMatrix in="SourceAlpha" type="matrix" values="0 0 0 0 0 0 0 0 0 0 0 0 0 0 0 0 0 0 127 0" result="hardAlpha"/>
<feOffset dy="0.381322"/>
<feGaussianBlur stdDeviation="0.571983"/>
<feComposite in2="hardAlpha" operator="arithmetic" k2="-1" k3="1"/>
<feColorMatrix type="matrix" values="0 0 0 0 0 0 0 0 0 0 0 0 0 0 0 0 0 0 0.5 0"/>
<feBlend mode="normal" in2="effect3_innerShadow" result="effect4_innerShadow"/>
</filter>
<filter id="filter2_f" x="7.2253" y="12.3761" width="32.1205" height="825.533" filterUnits="userSpaceOnUse" color-interpolation-filters="sRGB">
<feFlood flood-opacity="0" result="BackgroundImageFix"/>
<feBlend mode="normal" in="SourceGraphic" in2="BackgroundImageFix" result="shape"/>
<feGaussianBlur stdDeviation="0.518271" result="effect1_foregroundBlur"/>
</filter>
<filter id="filter3_f" x="409.674" y="10.587" width="36.9447" height="827.368" filterUnits="userSpaceOnUse" color-interpolation-filters="sRGB">
<feFlood flood-opacity="0" result="BackgroundImageFix"/>
<feBlend mode="normal" in="SourceGraphic" in2="BackgroundImageFix" result="shape"/>
<feGaussianBlur stdDeviation="0.518271" result="effect1_foregroundBlur"/>
</filter>
<filter id="filter4_iii" x="452.248" y="151.079" width="7.24512" height="67.494" filterUnits="userSpaceOnUse" color-interpolation-filters="sRGB">
<feFlood flood-opacity="0" result="BackgroundImageFix"/>
<feBlend mode="normal" in="SourceGraphic" in2="BackgroundImageFix" result="shape"/>
<feColorMatrix in="SourceAlpha" type="matrix" values="0 0 0 0 0 0 0 0 0 0 0 0 0 0 0 0 0 0 127 0" result="hardAlpha"/>
<feMorphology radius="0.762644" operator="erode" in="SourceAlpha" result="effect1_innerShadow"/>
<feOffset dx="1.14397"/>
<feGaussianBlur stdDeviation="0.190661"/>
<feComposite in2="hardAlpha" operator="arithmetic" k2="-1" k3="1"/>
<feColorMatrix type="matrix" values="0 0 0 0 0 0 0 0 0 0 0 0 0 0 0 0 0 0 0.24 0"/>
<feBlend mode="normal" in2="shape" result="effect1_innerShadow"/>
<feColorMatrix in="SourceAlpha" type="matrix" values="0 0 0 0 0 0 0 0 0 0 0 0 0 0 0 0 0 0 127 0" result="hardAlpha"/>
<feMorphology radius="0.762644" operator="erode" in="SourceAlpha" result="effect2_innerShadow"/>
<feOffset dx="3.05058"/>
<feGaussianBlur stdDeviation="0.762644"/>
<feComposite in2="hardAlpha" operator="arithmetic" k2="-1" k3="1"/>
<feColorMatrix type="matrix" values="0 0 0 0 1 0 0 0 0 1 0 0 0 0 1 0 0 0 0.24 0"/>
<feBlend mode="normal" in2="effect1_innerShadow" result="effect2_innerShadow"/>
<feColorMatrix in="SourceAlpha" type="matrix" values="0 0 0 0 0 0 0 0 0 0 0 0 0 0 0 0 0 0 127 0" result="hardAlpha"/>
<feOffset dx="-0.762644"/>
<feGaussianBlur stdDeviation="0.190661"/>
<feComposite in2="hardAlpha" operator="arithmetic" k2="-1" k3="1"/>
<feColorMatrix type="matrix" values="0 0 0 0 0 0 0 0 0 0 0 0 0 0 0 0 0 0 0.12 0"/>
<feBlend mode="normal" in2="effect2_innerShadow" result="effect3_innerShadow"/>
</filter>
<filter id="filter5_ii" x="452.248" y="241.306" width="5.71983" height="134.607" filterUnits="userSpaceOnUse" color-interpolation-filters="sRGB">
<feFlood flood-opacity="0" result="BackgroundImageFix"/>
<feBlend mode="normal" in="SourceGraphic" in2="BackgroundImageFix" result="shape"/>
<feColorMatrix in="SourceAlpha" type="matrix" values="0 0 0 0 0 0 0 0 0 0 0 0 0 0 0 0 0 0 127 0" result="hardAlpha"/>
<feOffset dx="2.28793"/>
<feGaussianBlur stdDeviation="0.381322"/>
<feComposite in2="hardAlpha" operator="arithmetic" k2="-1" k3="1"/>
<feColorMatrix type="matrix" values="0 0 0 0 0 0 0 0 0 0 0 0 0 0 0 0 0 0 0.1 0"/>
<feBlend mode="normal" in2="shape" result="effect1_innerShadow"/>
<feColorMatrix in="SourceAlpha" type="matrix" values="0 0 0 0 0 0 0 0 0 0 0 0 0 0 0 0 0 0 127 0" result="hardAlpha"/>
<feOffset dx="-1.14397"/>
<feGaussianBlur stdDeviation="0.190661"/>
<feComposite in2="hardAlpha" operator="arithmetic" k2="-1" k3="1"/>
<feColorMatrix type="matrix" values="0 0 0 0 1 0 0 0 0 1 0 0 0 0 1 0 0 0 0.4 0"/>
<feBlend mode="normal" in2="effect1_innerShadow" result="effect2_innerShadow"/>
</filter>
<filter id="filter6_diii" x="187.759" y="36.3459" width="76.2407" height="9.6333" filterUnits="userSpaceOnUse" color-interpolation-filters="sRGB">
<feFlood flood-opacity="0" result="BackgroundImageFix"/>
<feColorMatrix in="SourceAlpha" type="matrix" values="0 0 0 0 0 0 0 0 0 0 0 0 0 0 0 0 0 0 127 0"/>
<feOffset dy="-0.275237"/>
<feColorMatrix type="matrix" values="0 0 0 0 1 0 0 0 0 1 0 0 0 0 1 0 0 0 0.1 0"/>
<feBlend mode="normal" in2="BackgroundImageFix" result="effect1_dropShadow"/>
<feBlend mode="normal" in="SourceGraphic" in2="effect1_dropShadow" result="shape"/>
<feColorMatrix in="SourceAlpha" type="matrix" values="0 0 0 0 0 0 0 0 0 0 0 0 0 0 0 0 0 0 127 0" result="hardAlpha"/>
<feMorphology radius="0.550474" operator="erode" in="SourceAlpha" result="effect2_innerShadow"/>
<feOffset dy="-0.275237"/>
<feGaussianBlur stdDeviation="0.412856"/>
<feComposite in2="hardAlpha" operator="arithmetic" k2="-1" k3="1"/>
<feColorMatrix type="matrix" values="0 0 0 0 1 0 0 0 0 1 0 0 0 0 1 0 0 0 0.3 0"/>
<feBlend mode="normal" in2="shape" result="effect2_innerShadow"/>
<feColorMatrix in="SourceAlpha" type="matrix" values="0 0 0 0 0 0 0 0 0 0 0 0 0 0 0 0 0 0 127 0" result="hardAlpha"/>
<feMorphology radius="0.275237" operator="erode" in="SourceAlpha" result="effect3_innerShadow"/>
<feOffset/>
<feGaussianBlur stdDeviation="0.275237"/>
<feComposite in2="hardAlpha" operator="arithmetic" k2="-1" k3="1"/>
<feColorMatrix type="matrix" values="0 0 0 0 0 0 0 0 0 0 0 0 0 0 0 0 0 0 0.8 0"/>
<feBlend mode="normal" in2="effect2_innerShadow" result="effect3_innerShadow"/>
<feColorMatrix in="SourceAlpha" type="matrix" values="0 0 0 0 0 0 0 0 0 0 0 0 0 0 0 0 0 0 127 0" result="hardAlpha"/>
<feOffset dy="0.275237"/>
<feGaussianBlur stdDeviation="0.412856"/>
<feComposite in2="hardAlpha" operator="arithmetic" k2="-1" k3="1"/>
<feColorMatrix type="matrix" values="0 0 0 0 0 0 0 0 0 0 0 0 0 0 0 0 0 0 0.5 0"/>
<feBlend mode="normal" in2="effect3_innerShadow" result="effect4_innerShadow"/>
</filter>
<filter id="filter7_diii" x="195.023" y="823.737" width="61.994" height="9.83809" filterUnits="userSpaceOnUse" color-interpolation-filters="sRGB">
<feFlood flood-opacity="0" result="BackgroundImageFix"/>
<feColorMatrix in="SourceAlpha" type="matrix" values="0 0 0 0 0 0 0 0 0 0 0 0 0 0 0 0 0 0 127 0"/>
<feOffset dy="-0.265768"/>
<feColorMatrix type="matrix" values="0 0 0 0 1 0 0 0 0 1 0 0 0 0 1 0 0 0 0.1 0"/>
<feBlend mode="normal" in2="BackgroundImageFix" result="effect1_dropShadow"/>
<feBlend mode="normal" in="SourceGraphic" in2="effect1_dropShadow" result="shape"/>
<feColorMatrix in="SourceAlpha" type="matrix" values="0 0 0 0 0 0 0 0 0 0 0 0 0 0 0 0 0 0 127 0" result="hardAlpha"/>
<feMorphology radius="0.265768" operator="erode" in="SourceAlpha" result="effect2_innerShadow"/>
<feOffset dy="0.531537"/>
<feGaussianBlur stdDeviation="0.398652"/>
<feComposite in2="hardAlpha" operator="arithmetic" k2="-1" k3="1"/>
<feColorMatrix type="matrix" values="0 0 0 0 1 0 0 0 0 1 0 0 0 0 1 0 0 0 0.3 0"/>
<feBlend mode="normal" in2="shape" result="effect2_innerShadow"/>
<feColorMatrix in="SourceAlpha" type="matrix" values="0 0 0 0 0 0 0 0 0 0 0 0 0 0 0 0 0 0 127 0" result="hardAlpha"/>
<feMorphology radius="0.265768" operator="erode" in="SourceAlpha" result="effect3_innerShadow"/>
<feOffset/>
<feGaussianBlur stdDeviation="0.265768"/>
<feComposite in2="hardAlpha" operator="arithmetic" k2="-1" k3="1"/>
<feColorMatrix type="matrix" values="0 0 0 0 0 0 0 0 0 0 0 0 0 0 0 0 0 0 0.8 0"/>
<feBlend mode="normal" in2="effect2_innerShadow" result="effect3_innerShadow"/>
<feColorMatrix in="SourceAlpha" type="matrix" values="0 0 0 0 0 0 0 0 0 0 0 0 0 0 0 0 0 0 127 0" result="hardAlpha"/>
<feOffset dy="0.265768"/>
<feGaussianBlur stdDeviation="0.398652"/>
<feComposite in2="hardAlpha" operator="arithmetic" k2="-1" k3="1"/>
<feColorMatrix type="matrix" values="0 0 0 0 0 0 0 0 0 0 0 0 0 0 0 0 0 0 0.5 0"/>
<feBlend mode="normal" in2="effect3_innerShadow" result="effect4_innerShadow"/>
</filter>
<filter id="filter8_f" x="166.366" y="38.7595" width="12.2127" height="11.7917" filterUnits="userSpaceOnUse" color-interpolation-filters="sRGB">
<feFlood flood-opacity="0" result="BackgroundImageFix"/>
<feBlend mode="normal" in="SourceGraphic" in2="BackgroundImageFix" result="shape"/>
<feGaussianBlur stdDeviation="1.33707" result="effect1_foregroundBlur"/>
</filter>
<filter id="filter9_f" x="170.535" y="42.9828" width="4.31907" height="4.212" filterUnits="userSpaceOnUse" color-interpolation-filters="sRGB">
<feFlood flood-opacity="0" result="BackgroundImageFix"/>
<feBlend mode="normal" in="SourceGraphic" in2="BackgroundImageFix" result="shape"/>
<feGaussianBlur stdDeviation="0.334267" result="effect1_foregroundBlur"/>
</filter>
<filter id="filter10_f" x="163.882" y="34.5429" width="5.77671" height="4.9513" filterUnits="userSpaceOnUse" color-interpolation-filters="sRGB">
<feFlood flood-opacity="0" result="BackgroundImageFix"/>
<feBlend mode="normal" in="SourceGraphic" in2="BackgroundImageFix" result="shape"/>
<feGaussianBlur stdDeviation="0.334267" result="effect1_foregroundBlur"/>
</filter>
<filter id="filter11_d" x="162.35" y="33.7355" width="14.5105" height="14.5105" filterUnits="userSpaceOnUse" color-interpolation-filters="sRGB">
<feFlood flood-opacity="0" result="BackgroundImageFix"/>
<feColorMatrix in="SourceAlpha" type="matrix" values="0 0 0 0 0 0 0 0 0 0 0 0 0 0 0 0 0 0 127 0"/>
<feOffset/>
<feGaussianBlur stdDeviation="0.12297"/>
<feColorMatrix type="matrix" values="0 0 0 0 0 0 0 0 0 0 0 0 0 0 0 0 0 0 0.8 0"/>
<feBlend mode="normal" in2="BackgroundImageFix" result="effect1_dropShadow"/>
<feBlend mode="normal" in="SourceGraphic" in2="effect1_dropShadow" result="shape"/>
</filter>
<filter id="filter12_f" x="165.686" y="36.0872" width="4.98838" height="4.92384" filterUnits="userSpaceOnUse" color-interpolation-filters="sRGB">
<feFlood flood-opacity="0" result="BackgroundImageFix"/>
<feBlend mode="normal" in="SourceGraphic" in2="BackgroundImageFix" result="shape"/>
<feGaussianBlur stdDeviation="0.668534" result="effect1_foregroundBlur"/>
</filter>
<radialGradient id="paint0_radial" cx="0" cy="0" r="1" gradientUnits="userSpaceOnUse" gradientTransform="translate(236.596 427.177) rotate(90) scale(491.95 260.631)">
<stop stop-color="#1E1E1E"/>
<stop offset="1" stop-color="#0A0A0A"/>
</radialGradient>
<linearGradient id="paint1_linear" x1="9.36302" y1="631.32" x2="45.8316" y2="631.32" gradientUnits="userSpaceOnUse">
<stop stop-color="#EEEEEE" stop-opacity="0.855101"/>
<stop offset="1" stop-color="#D8D8D8" stop-opacity="0.01"/>
</linearGradient>
<linearGradient id="paint2_linear" x1="8.26184" y1="13.4126" x2="8.26184" y2="836.873" gradientUnits="userSpaceOnUse">
<stop stop-color="#686868"/>
<stop offset="0.019851" stop-color="#C6C6C6"/>
<stop offset="0.0526644" stop-color="#E4E4E4"/>
<stop offset="0.787327" stop-color="#D0D0D0"/>
<stop offset="0.939455" stop-color="#C5C5C5"/>
<stop offset="0.954674" stop-color="white"/>
<stop offset="0.98365" stop-color="#ADADAD"/>
<stop offset="1" stop-color="#D8D8D8"/>
</linearGradient>
<linearGradient id="paint3_linear" x1="412.841" y1="522.707" x2="448.058" y2="522.707" gradientUnits="userSpaceOnUse">
<stop stop-color="#EEEEEE" stop-opacity="0.01"/>
<stop offset="0.794113" stop-color="#E0E0E0" stop-opacity="0.525957"/>
<stop offset="0.833895" stop-color="#E1E1E1" stop-opacity="0.508693"/>
<stop offset="1" stop-color="#D8D8D8"/>
</linearGradient>
<linearGradient id="paint4_linear" x1="416.905" y1="11.6235" x2="416.905" y2="836.918" gradientUnits="userSpaceOnUse">
<stop stop-color="#8C8A8D"/>
<stop offset="0.0244456" stop-color="#747474"/>
<stop offset="0.0611492" stop-color="#949494"/>
<stop offset="0.0915986" stop-color="#BFBFBF"/>
<stop offset="0.14244" stop-color="#ADADAD"/>
<stop offset="0.348646" stop-color="#8B8B8B"/>
<stop offset="0.402614" stop-color="#595F58"/>
<stop offset="0.55256" stop-color="#6D6F6F"/>
<stop offset="0.736922" stop-color="#606660"/>
<stop offset="0.88443" stop-color="#EAEAEA"/>
<stop offset="0.944479" stop-color="#B5B5B5"/>
<stop offset="0.988288" stop-color="#6B6B6B"/>
<stop offset="1" stop-color="#4F4D4D"/>
</linearGradient>
<linearGradient id="paint5_linear" x1="452.63" y1="151.079" x2="452.63" y2="218.573" gradientUnits="userSpaceOnUse">
<stop stop-color="#373737"/>
<stop offset="0.0307924" stop-color="#4C4C4C"/>
<stop offset="0.0685746" stop-color="#363636"/>
<stop offset="0.916235" stop-color="#3D3D3D"/>
<stop offset="0.971221" stop-color="#202020"/>
<stop offset="1" stop-color="#767676"/>
</linearGradient>
<linearGradient id="paint6_linear" x1="452.63" y1="241.306" x2="452.63" y2="375.913" gradientUnits="userSpaceOnUse">
<stop stop-color="#505050"/>
<stop offset="0.0134163" stop-color="#B3B3B3"/>
<stop offset="0.0412327" stop-color="#212121"/>
<stop offset="0.110692" stop-color="#242424"/>
<stop offset="0.876962" stop-color="#191919"/>
<stop offset="0.957457" stop-color="#2A2A2A"/>
<stop offset="1" stop-color="#212121"/>
</linearGradient>
<linearGradient id="paint7_linear" x1="76.2407" y1="9.08283" x2="76.2407" y2="0" gradientUnits="userSpaceOnUse">
<stop stop-color="#313131"/>
<stop offset="0.521857" stop-color="#2E2E2E"/>
<stop offset="1" stop-color="#282727"/>
</linearGradient>
<linearGradient id="paint8_linear" x1="257.017" y1="833.043" x2="257.017" y2="824.002" gradientUnits="userSpaceOnUse">
<stop stop-color="#313131"/>
<stop offset="0.521857" stop-color="#2E2E2E"/>
<stop offset="1" stop-color="#282727"/>
</linearGradient>
<radialGradient id="paint9_angular" cx="0" cy="0" r="1" gradientUnits="userSpaceOnUse" gradientTransform="translate(172.448 44.6186) scale(3.45705 3.2587)">
<stop stop-color="#394B90"/>
<stop offset="0.154352" stop-color="#414A7C"/>
<stop offset="0.377408" stop-color="#293A81"/>
<stop offset="0.646932" stop-color="#37498E"/>
<stop offset="0.900234" stop-color="#24357E"/>
<stop offset="1" stop-color="#485491"/>
</radialGradient>
<radialGradient id="paint10_radial" cx="0" cy="0" r="1" gradientUnits="userSpaceOnUse" gradientTransform="translate(172.695 45.0888) rotate(90) scale(2.45356 2.54494)">
<stop stop-color="#EEEEEE"/>
<stop offset="0.268157" stop-color="#E8E8E8" stop-opacity="0.573454"/>
<stop offset="1" stop-color="#D8D8D8" stop-opacity="0.122877"/>
</radialGradient>
<radialGradient id="paint11_angular" cx="0" cy="0" r="1" gradientUnits="userSpaceOnUse" gradientTransform="translate(169.606 40.9907) scale(7.00929)">
<stop offset="0.147774" stop-color="#231E1B"/>
<stop offset="0.379161" stop-color="#5F5F5F" stop-opacity="0.210456"/>
<stop offset="0.62265" stop-opacity="0.280797"/>
<stop offset="0.882483" stop-opacity="0.374321"/>
</radialGradient>
</defs>
</svg>
