<svg width="354" height="662" viewBox="0 0 354 662" fill="none" xmlns="http://www.w3.org/2000/svg">
<path d="M305.784 0H45.4765C25.6744 0 0 12.6686 0 45.8035V616.98C0 632.01 8.50159 661.5 42.8431 661.5H154.682C155.505 660.89 156.969 660 158.508 660H192.374C193.729 660 195.097 660.89 195.875 661.5H305.784C340.431 661.5 350.457 633.353 350.457 618.825V44.4706C350.457 25.9378 339.503 0 305.784 0Z" fill="url(#paint0_radial_133:0)"/>
<path fill-rule="evenodd" clip-rule="evenodd" d="M45.4355 3.55127C57.3681 3.55127 146.091 3.55127 304.919 3.55127C338.455 3.55127 348.095 28.5445 348.095 46.9238C348.095 58.7607 348.095 196.197 348.095 620.5C348.095 634.908 339.01 660.424 304.919 660.424C297.778 660.424 207.048 660.424 45.4355 660.424C11.6437 660.424 3.24765 633.464 3.24765 618.559C3.24765 204.301 3.24765 68.0637 3.24765 46.9238C3.24765 14.0633 25.9504 3.55127 45.4355 3.55127Z" fill="black"/>
<mask id="mask0_133:0" style="mask-type:alpha" maskUnits="userSpaceOnUse" x="0" y="10" width="57" height="638">
<rect y="10.3335" width="56.392" height="637.667" fill="url(#paint1_linear_133:0)"/>
</mask>
<g mask="url(#mask0_133:0)">
<path fill-rule="evenodd" clip-rule="evenodd" d="M26.3801 647.965C26.3801 647.965 23.9408 645.95 21.0725 644.295C15.7129 641.202 14.3226 637.666 13.1426 636.199C10.4254 632.822 8.4383 627.969 8.09375 622.843C7.74921 617.717 8.09375 50.2793 8.09375 50.2793C8.09375 50.2793 8.09375 36.82 8.74331 33.3258C9.39286 29.8317 9.82047 28.3137 12.2452 24.0363C14.67 19.7589 17.1272 17.4722 19.3821 15.7317C22.085 13.6456 29.6616 10.3853 29.6616 10.3853C29.6616 10.3853 21.9726 12.7708 18.4278 15.1847C15.5914 17.1161 11.289 21.9044 8.74331 27.9479C7.27969 31.4226 6.59687 35.9977 6.59687 39.5523C6.59687 49.2892 6.14683 616.554 6.59687 621.919C7.04691 627.285 8.29097 630.825 10.7447 634.265C12.074 636.128 13.4824 639.703 17.328 642.618C20.5812 645.084 26.3801 647.965 26.3801 647.965Z" fill="url(#paint2_linear_133:0)"/>
</g>
<path d="M350.457 116.976H352.228C353.207 116.976 354 117.769 354 118.748V167.463C354 168.441 353.207 169.235 352.228 169.235H350.457V116.976Z" fill="url(#paint3_linear_133:0)"/>
<path d="M350.457 186.836H352.228C353.207 186.836 354 187.629 354 188.607V289.286C354 290.265 353.207 291.058 352.228 291.058H350.457V186.836Z" fill="url(#paint4_linear_133:0)"/>
<rect x="134" y="27.0005" width="81.7831" height="9.74312" rx="4.87156" fill="url(#paint5_linear_133:0)"/>
<rect x="151" y="638" width="48" height="7" rx="3.39531" fill="url(#paint6_linear_133:0)"/>
<path fill-rule="evenodd" clip-rule="evenodd" d="M112.738 38.4761C116.459 38.4761 119.476 35.4595 119.476 31.7383C119.476 28.0171 116.459 25.0005 112.738 25.0005C109.017 25.0005 106 28.0171 106 31.7383C106 35.4595 109.017 38.4761 112.738 38.4761ZM112.738 37.2943C115.806 37.2943 118.293 34.8069 118.293 31.7385C118.293 28.6702 115.806 26.1828 112.738 26.1828C109.669 26.1828 107.182 28.6702 107.182 31.7385C107.182 34.8069 109.669 37.2943 112.738 37.2943Z" fill="url(#paint7_linear_133:0)"/>
<rect x="15.6769" y="52.4312" width="320" height="569" rx="8" fill="#FF0000"/>
<text fill="black" xml:space="preserve" style="white-space: pre" font-family="Roboto" font-size="10.9388" letter-spacing="0em"><tspan x="36.1146" y="82.6886">name: Small Phone&#10;</tspan><tspan x="36.1146" y="95.6886">density: 2&#10;</tspan><tspan x="36.1146" y="108.689">screen_size: 320x569&#10;</tspan><tspan x="36.1146" y="121.689">safe_areas: 0,24,0,0|0,24,0,0</tspan></text>
<defs>
<radialGradient id="paint0_radial_133:0" cx="0" cy="0" r="1" gradientUnits="userSpaceOnUse" gradientTransform="translate(183.189 330.75) rotate(90) scale(380.902 201.799)">
<stop stop-color="#1E1E1E"/>
<stop offset="1" stop-color="#0A0A0A"/>
</radialGradient>
<linearGradient id="paint1_linear_133:0" x1="7.2495" y1="488.812" x2="35.486" y2="488.812" gradientUnits="userSpaceOnUse">
<stop stop-color="#EEEEEE" stop-opacity="0.855101"/>
<stop offset="1" stop-color="#D8D8D8" stop-opacity="0.01"/>
</linearGradient>
<linearGradient id="paint2_linear_133:0" x1="6.39685" y1="10.3853" x2="6.39685" y2="647.965" gradientUnits="userSpaceOnUse">
<stop stop-color="#686868"/>
<stop offset="0.019851" stop-color="#C6C6C6"/>
<stop offset="0.0526644" stop-color="#E4E4E4"/>
<stop offset="0.787327" stop-color="#D0D0D0"/>
<stop offset="0.939455" stop-color="#C5C5C5"/>
<stop offset="0.954674" stop-color="white"/>
<stop offset="0.98365" stop-color="#ADADAD"/>
<stop offset="1" stop-color="#D8D8D8"/>
</linearGradient>
<linearGradient id="paint3_linear_133:0" x1="350.457" y1="116.976" x2="350.457" y2="169.235" gradientUnits="userSpaceOnUse">
<stop stop-color="#373737"/>
<stop offset="0.0307924" stop-color="#4C4C4C"/>
<stop offset="0.0685746" stop-color="#363636"/>
<stop offset="0.916235" stop-color="#3D3D3D"/>
<stop offset="0.971221" stop-color="#202020"/>
<stop offset="1" stop-color="#767676"/>
</linearGradient>
<linearGradient id="paint4_linear_133:0" x1="350.457" y1="186.836" x2="350.457" y2="291.058" gradientUnits="userSpaceOnUse">
<stop stop-color="#505050"/>
<stop offset="0.0134163" stop-color="#B3B3B3"/>
<stop offset="0.0412327" stop-color="#212121"/>
<stop offset="0.110692" stop-color="#242424"/>
<stop offset="0.876962" stop-color="#191919"/>
<stop offset="0.957457" stop-color="#2A2A2A"/>
<stop offset="1" stop-color="#212121"/>
</linearGradient>
<linearGradient id="paint5_linear_133:0" x1="215.783" y1="36.7436" x2="215.783" y2="27.0005" gradientUnits="userSpaceOnUse">
<stop stop-color="#313131"/>
<stop offset="0.521857" stop-color="#2E2E2E"/>
<stop offset="1" stop-color="#282727"/>
</linearGradient>
<linearGradient id="paint6_linear_133:0" x1="199" y1="645" x2="199" y2="638" gradientUnits="userSpaceOnUse">
<stop stop-color="#313131"/>
<stop offset="0.521857" stop-color="#2E2E2E"/>
<stop offset="1" stop-color="#282727"/>
</linearGradient>
<linearGradient id="paint7_linear_133:0" x1="106" y1="31.7383" x2="119.476" y2="31.7383" gradientUnits="userSpaceOnUse">
<stop offset="0.147774" stop-color="#231E1B"/>
<stop offset="0.379161" stop-color="#5F5F5F" stop-opacity="0.210456"/>
<stop offset="0.62265" stop-opacity="0.280797"/>
<stop offset="0.882483" stop-opacity="0.374321"/>
</linearGradient>
</defs>
</svg>
