<svg width="876" height="1899" viewBox="0 0 876 1899" fill="none" xmlns="http://www.w3.org/2000/svg">
<path opacity="0.27474" d="M867.219 741.948V741.948C871.622 741.948 875.191 745.517 875.191 749.92V861.525C875.191 865.928 871.622 869.497 867.219 869.497V869.497V741.948Z" fill="#AFAFAF"/>
<path d="M867.219 741.948H869.497C872.642 741.948 875.191 744.498 875.191 747.642V863.803C875.191 866.948 872.642 869.497 869.497 869.497H867.219V741.948Z" fill="#BBBCBF"/>
<path opacity="0.27474" d="M867.219 377.052V377.052C871.622 377.052 875.191 380.621 875.191 385.024V609.943C875.191 614.346 871.622 617.915 867.219 617.915V617.915V377.052Z" fill="#AFAFAF"/>
<path d="M867.219 377.052H869.497C872.642 377.052 875.191 379.602 875.191 382.746V612.221C875.191 615.366 872.642 617.915 869.497 617.915H867.219V377.052Z" fill="#BBBCBF"/>
<path d="M0 167.636C0 108.958 0 79.6188 11.4195 57.2067C21.4644 37.4925 37.4925 21.4644 57.2067 11.4195C79.6188 0 108.958 0 167.636 0H702.431C761.109 0 790.448 0 812.86 11.4195C832.574 21.4644 848.602 37.4925 858.647 57.2067C870.067 79.6188 870.067 108.958 870.067 167.636V1732.28C870.067 1790.63 870.067 1819.81 858.709 1842.1C848.719 1861.71 832.778 1877.65 813.171 1887.64C790.881 1899 761.701 1899 703.342 1899H166.725C108.366 1899 79.1861 1899 56.8958 1887.64C37.2888 1877.65 21.3477 1861.71 11.3574 1842.1C0 1819.81 0 1790.63 0 1732.28V167.636Z" fill="#6D6C72"/>
<path d="M153.856 12.5269H716.211C742.051 12.5269 761.397 12.5274 776.751 13.7818C792.098 15.0357 803.405 17.5397 813.178 22.519C830.428 31.3083 844.452 45.3329 853.242 62.5828C858.221 72.3554 860.725 83.6629 861.979 99.0098C863.233 114.363 863.234 133.709 863.234 159.55V1732.62C863.234 1760.05 863.233 1780.59 861.901 1796.9C860.57 1813.19 857.911 1825.2 852.621 1835.59C843.286 1853.91 828.39 1868.8 810.069 1878.14C799.687 1883.43 787.676 1886.09 771.38 1887.42C755.077 1888.75 734.535 1888.75 707.1 1888.75H162.967C135.532 1888.75 114.99 1888.75 98.6867 1887.42C82.3903 1886.09 70.3796 1883.43 59.998 1878.14C41.6767 1868.8 26.781 1853.91 17.4458 1835.59C12.1561 1825.2 9.49701 1813.19 8.16554 1796.9C6.83353 1780.59 6.83309 1760.05 6.83309 1732.62V159.55C6.83309 133.709 6.83353 114.363 8.08796 99.0098C9.34185 83.6629 11.8458 72.3554 16.8252 62.5828C25.6144 45.3329 39.6391 31.3083 56.889 22.519C66.6615 17.5397 77.9691 15.0357 93.316 13.7818C108.669 12.5274 128.016 12.5269 153.856 12.5269Z" fill="url(#paint0_linear_123:61)"/>
<path d="M153.856 12.5269H716.211C742.051 12.5269 761.397 12.5274 776.751 13.7818C792.098 15.0357 803.405 17.5397 813.178 22.519C830.428 31.3083 844.452 45.3329 853.242 62.5828C858.221 72.3554 860.725 83.6629 861.979 99.0098C863.233 114.363 863.234 133.709 863.234 159.55V1732.62C863.234 1760.05 863.233 1780.59 861.901 1796.9C860.57 1813.19 857.911 1825.2 852.621 1835.59C843.286 1853.91 828.39 1868.8 810.069 1878.14C799.687 1883.43 787.676 1886.09 771.38 1887.42C755.077 1888.75 734.535 1888.75 707.1 1888.75H162.967C135.532 1888.75 114.99 1888.75 98.6867 1887.42C82.3903 1886.09 70.3796 1883.43 59.998 1878.14C41.6767 1868.8 26.781 1853.91 17.4458 1835.59C12.1561 1825.2 9.49701 1813.19 8.16554 1796.9C6.83353 1780.59 6.83309 1760.05 6.83309 1732.62V159.55C6.83309 133.709 6.83353 114.363 8.08796 99.0098C9.34185 83.6629 11.8458 72.3554 16.8252 62.5828C25.6144 45.3329 39.6391 31.3083 56.889 22.519C66.6615 17.5397 77.9691 15.0357 93.316 13.7818C108.669 12.5274 128.016 12.5269 153.856 12.5269Z" stroke="url(#paint1_radial_123:61)" stroke-width="1.13883"/>
<path d="M153.856 12.5269H716.211C742.051 12.5269 761.397 12.5274 776.751 13.7818C792.098 15.0357 803.405 17.5397 813.178 22.519C830.428 31.3083 844.452 45.3329 853.242 62.5828C858.221 72.3554 860.725 83.6629 861.979 99.0098C863.233 114.363 863.234 133.709 863.234 159.55V1732.62C863.234 1760.05 863.233 1780.59 861.901 1796.9C860.57 1813.19 857.911 1825.2 852.621 1835.59C843.286 1853.91 828.39 1868.8 810.069 1878.14C799.687 1883.43 787.676 1886.09 771.38 1887.42C755.077 1888.75 734.535 1888.75 707.1 1888.75H162.967C135.532 1888.75 114.99 1888.75 98.6867 1887.42C82.3903 1886.09 70.3796 1883.43 59.998 1878.14C41.6767 1868.8 26.781 1853.91 17.4458 1835.59C12.1561 1825.2 9.49701 1813.19 8.16554 1796.9C6.83353 1780.59 6.83309 1760.05 6.83309 1732.62V159.55C6.83309 133.709 6.83353 114.363 8.08796 99.0098C9.34185 83.6629 11.8458 72.3554 16.8252 62.5828C25.6144 45.3329 39.6391 31.3083 56.889 22.519C66.6615 17.5397 77.9691 15.0357 93.316 13.7818C108.669 12.5274 128.016 12.5269 153.856 12.5269Z" stroke="url(#paint2_linear_123:61)" stroke-width="1.13883"/>
<circle cx="435.033" cy="72.885" r="22.7766" fill="#212022"/>
<circle cx="435.034" cy="72.8853" r="14.2354" fill="url(#paint3_radial_123:61)"/>
<circle cx="435.033" cy="72.885" r="8.54123" fill="url(#paint4_angular_123:61)"/>
<path fill-rule="evenodd" clip-rule="evenodd" d="M158.867 1889.32V1899H171.394V1889.32H158.867Z" fill="#F0F2F5" fill-opacity="0.15"/>
<path fill-rule="evenodd" clip-rule="evenodd" d="M698.672 1889.32V1899H711.2V1889.32H698.672Z" fill="#F0F2F5" fill-opacity="0.15"/>
<path fill-rule="evenodd" clip-rule="evenodd" d="M304.067 0V10.2495H316.595V0H304.067Z" fill="#F0F2F5" fill-opacity="0.15"/>
<path fill-rule="evenodd" clip-rule="evenodd" d="M34.1774 78.1597C25.0542 96.065 25.0542 119.504 25.0542 166.383V1717.01C25.0542 1765.17 25.0542 1789.25 34.4256 1807.64C42.669 1823.82 55.8225 1836.97 72.001 1845.21C90.3935 1854.59 114.471 1854.59 162.625 1854.59H707.441C755.596 1854.59 779.673 1854.59 798.065 1845.21C814.244 1836.97 827.397 1823.82 835.641 1807.64C845.012 1789.25 845.012 1765.17 845.012 1717.01V166.383C845.012 119.504 845.012 96.065 835.889 78.1597C827.864 62.4098 815.059 49.6047 799.309 41.5797C781.404 32.4565 757.964 32.4565 711.086 32.4565H158.981C112.102 32.4565 88.6627 32.4565 70.7574 41.5797C55.0075 49.6047 42.2024 62.4098 34.1774 78.1597ZM435.033 95.6618C447.612 95.6618 457.81 85.4643 457.81 72.8852C457.81 60.306 447.612 50.1085 435.033 50.1085C422.454 50.1085 412.257 60.306 412.257 72.8852C412.257 85.4643 422.454 95.6618 435.033 95.6618Z" fill="#FF0000"/>
<text fill="black" xml:space="preserve" style="white-space: pre" font-family="Roboto" font-size="20" letter-spacing="0em"><tspan x="80" y="161.336">name: Samsung Galaxy S20&#10;</tspan><tspan x="80" y="184.336">density: 4&#10;</tspan><tspan x="80" y="207.336">screen_size: 360x800&#10;</tspan><tspan x="80" y="230.336">safe_areas: 0,48,0,0|48,24,48,0</tspan></text>
<defs>
<linearGradient id="paint0_linear_123:61" x1="6.26367" y1="11.9575" x2="6.26367" y2="1889.32" gradientUnits="userSpaceOnUse">
<stop stop-color="#010101"/>
<stop offset="0.989632"/>
<stop offset="1" stop-color="#4A4A4A"/>
</linearGradient>
<radialGradient id="paint1_radial_123:61" cx="0" cy="0" r="1" gradientUnits="userSpaceOnUse" gradientTransform="translate(435.033 950.639) scale(428.77 938.681)">
<stop stop-color="#0C0C0C"/>
<stop offset="0.140563" stop-color="#0B0B0B"/>
<stop offset="0.232695" stop-color="#111111"/>
<stop offset="0.37144" stop-color="#1A1A1A"/>
<stop offset="0.66137" stop-color="#2E2E2E"/>
<stop offset="0.675413" stop-color="#020202"/>
<stop offset="0.710915" stop-color="#474747"/>
<stop offset="0.753225" stop-color="#2A2A2A"/>
<stop offset="0.78617" stop-color="#2B2B2B"/>
<stop offset="0.843604" stop-color="#060606"/>
<stop offset="0.898025" stop-color="#050505"/>
</radialGradient>
<linearGradient id="paint2_linear_123:61" x1="6.26367" y1="11.9575" x2="6.26367" y2="1889.32" gradientUnits="userSpaceOnUse">
<stop stop-color="white" stop-opacity="0.01"/>
<stop offset="0.0231241" stop-color="#FDFDFD" stop-opacity="0.01"/>
<stop offset="0.34104" stop-color="#959595" stop-opacity="0.01"/>
<stop offset="0.762428" stop-color="#121112" stop-opacity="0.01"/>
<stop offset="0.977144" stop-color="#0A0A0A"/>
<stop offset="1" stop-color="#48484B"/>
</linearGradient>
<radialGradient id="paint3_radial_123:61" cx="0" cy="0" r="1" gradientUnits="userSpaceOnUse" gradientTransform="translate(435.034 72.8853) scale(14.2354)">
<stop offset="0.239741" stop-color="#8F8F8F"/>
<stop offset="0.5" stop-color="#090A0F"/>
<stop offset="0.998025" stop-color="#090A0F"/>
</radialGradient>
<radialGradient id="paint4_angular_123:61" cx="0" cy="0" r="1" gradientUnits="userSpaceOnUse" gradientTransform="translate(435.033 72.885) scale(8.54123)">
<stop offset="0.0920066" stop-color="#242C33"/>
<stop offset="0.288974" stop-color="#1A1719"/>
<stop offset="1" stop-color="#1A1719"/>
</radialGradient>
</defs>
</svg>
