<svg width="892" height="1526" viewBox="0 0 892 1526" fill="none" xmlns="http://www.w3.org/2000/svg">
<g filter="url(#filter0_i)">
<path fill-rule="evenodd" clip-rule="evenodd" d="M773.099 0H114.976C64.9113 0 0 32.0294 0 115.803V1412.5C0 1450.5 21.4941 1525.06 108.318 1525.06H386.163C387.113 1524.21 392.077 1520 397.397 1520H483.02C487.703 1520 492.447 1524.21 493.358 1525.06H773.099C860.693 1525.06 886.042 1453.89 886.042 1417.16V112.433C886.042 65.5772 858.349 0 773.099 0Z" fill="url(#paint0_radial)"/>
</g>
<g filter="url(#filter1_iiii)">
<path fill-rule="evenodd" clip-rule="evenodd" d="M114.872 8.97803C145.041 8.97803 369.355 8.97803 770.91 8.97803C855.697 8.97803 880.07 72.1671 880.07 118.635C880.07 148.561 880.071 342.664 880.071 1415.41C880.071 1451.83 857.102 1516.35 770.91 1516.35C752.857 1516.35 523.47 1516.35 114.872 1516.35C29.4381 1516.35 8.21082 1448.18 8.21082 1410.5C8.21082 363.152 8.21082 172.081 8.21082 118.635C8.21082 35.5551 65.6089 8.97803 114.872 8.97803Z" fill="black"/>
</g>
<mask id="mask0" mask-type="alpha" maskUnits="userSpaceOnUse" x="0" y="31" width="143" height="1463">
<rect y="31.125" width="142.573" height="1462.88" fill="url(#paint1_linear)"/>
</mask>
<g mask="url(#mask0)">
<g filter="url(#filter2_f)">
<path fill-rule="evenodd" clip-rule="evenodd" d="M66.6956 1493.92C66.6956 1493.92 60.5284 1489.3 53.2766 1485.5C39.7262 1478.41 36.2112 1470.29 33.2279 1466.93C26.3581 1459.18 21.3341 1448.05 20.463 1436.29C19.5919 1424.53 20.463 122.765 20.463 122.765C20.463 122.765 20.463 91.8878 22.1053 83.8718C23.7475 75.8559 24.8286 72.3733 30.959 62.5606C37.0894 52.7478 43.3017 47.5018 49.0029 43.509C55.8363 38.7232 74.992 31.2437 74.992 31.2437C74.992 31.2437 55.5523 36.7163 46.59 42.2541C39.419 46.6849 28.5414 57.6698 22.1053 71.5343C18.4049 79.5056 16.6786 90.0014 16.6786 98.1559C16.6786 120.494 15.5407 1421.86 16.6786 1434.17C17.8164 1446.48 20.9617 1454.6 27.1654 1462.49C30.5261 1466.76 34.0868 1474.96 43.8095 1481.65C52.0344 1487.31 66.6956 1493.92 66.6956 1493.92Z" fill="url(#paint2_linear)"/>
</g>
</g>
<mask id="mask1" mask-type="alpha" maskUnits="userSpaceOnUse" x="766" y="27" width="109" height="1487">
<path d="M766.059 27.7539H874.774V1514H766.059V27.7539Z" fill="url(#paint3_linear)"/>
</mask>
<g mask="url(#mask1)">
<g filter="url(#filter3_f)">
<path fill-rule="evenodd" clip-rule="evenodd" d="M803.983 27.7539C803.983 27.7539 820.05 33.4546 826.226 36.5049C836.808 41.7305 843.769 47.3914 846.114 49.4287C851.685 54.2685 859.211 62.8596 863.504 73.1363C867.15 81.8667 867.395 92.0731 867.395 103.194C867.395 127.407 867.395 1409.19 867.395 1409.19C867.395 1409.19 869.011 1438.34 860.459 1453.17C855.874 1461.11 856.574 1463.25 849.097 1470.45C840.992 1478.25 832.221 1486.6 832.221 1486.6C832.221 1486.6 852.986 1472.11 856.018 1468.25C858.381 1465.25 864.374 1455.65 867.921 1447.86C872.332 1438.18 872.246 1425.47 872.246 1419.96C872.246 1410.01 871.111 98.3492 871.111 87.8217C871.111 77.2942 861.848 60.119 853.59 52.2279C845.333 44.3368 835.303 36.6448 826.226 32.9644C817.15 29.2839 803.983 27.7539 803.983 27.7539Z" fill="url(#paint4_linear)"/>
</g>
</g>
<g filter="url(#filter4_iii)">
<path d="M886.002 217H889.001C890.657 217 892 218.343 892 219.999V302.48C892 304.136 890.657 305.479 889.001 305.479H886.002V217Z" fill="url(#paint5_linear)"/>
</g>
<g filter="url(#filter5_ii)">
<path d="M886 335.28H888.999C890.656 335.28 891.999 336.623 891.999 338.279V508.739C891.999 510.395 890.656 511.738 888.999 511.738H886V335.28Z" fill="url(#paint6_linear)"/>
</g>
<g filter="url(#filter6_diii)">
<rect width="149.245" height="17.78" rx="8.89002" transform="matrix(1 0 0 -1 367.547 89.4678)" fill="url(#paint7_linear)"/>
</g>
<g filter="url(#filter7_diii)">
<rect x="382" y="1459" width="121.356" height="17.6977" rx="8.58418" fill="url(#paint8_linear)"/>
</g>
<g filter="url(#filter8_f)">
<path fill-rule="evenodd" clip-rule="evenodd" d="M331.716 90.5464C331.716 90.5464 330.98 84.5127 333.221 82.736C335.462 80.9593 340.763 82.736 340.763 82.736C340.763 82.736 338.485 86.1289 336.751 87.7043C335.018 89.2797 331.716 90.5464 331.716 90.5464Z" fill="url(#paint9_angular)"/>
</g>
<g filter="url(#filter9_f)">
<ellipse cx="336.479" cy="86.8253" rx="1.99004" ry="1.91858" fill="url(#paint10_radial)" fill-opacity="0.2"/>
</g>
<g filter="url(#filter10_f)">
<path fill-rule="evenodd" clip-rule="evenodd" d="M331.534 73.6419C331.534 73.6419 329.222 74.7763 328.018 75.7756C326.815 76.7749 325.609 78.4658 325.609 78.4658C325.609 78.4658 326.05 76.3023 327.14 75.2966C328.23 74.2908 331.534 73.6419 331.534 73.6419Z" fill="#D8D8D8" fill-opacity="0.5"/>
</g>
<g filter="url(#filter11_d)">
<path fill-rule="evenodd" clip-rule="evenodd" d="M332.355 90.7106C337.522 90.7106 341.711 86.5221 341.711 81.3553C341.711 76.1885 337.522 72 332.355 72C327.189 72 323 76.1885 323 81.3553C323 86.5221 327.189 90.7106 332.355 90.7106ZM332.355 89.0696C336.616 89.0696 340.069 85.616 340.069 81.3556C340.069 77.0953 336.616 73.6416 332.355 73.6416C328.095 73.6416 324.641 77.0953 324.641 81.3556C324.641 85.616 328.095 89.0696 332.355 89.0696Z" fill="url(#paint11_angular)"/>
</g>
<g filter="url(#filter12_f)">
<ellipse cx="330.453" cy="78.0965" rx="1.54441" ry="1.50134" fill="white"/>
</g>
<rect x="45.0234" y="137.028" width="800" height="1280" rx="12" fill="#FF0000"/>
<text fill="black" xml:space="preserve" style="white-space: pre" font-family="Roboto" font-size="27.6561" letter-spacing="0em"><tspan x="91.3064" y="208.624">name: Large Phone&#10;</tspan><tspan x="91.3064" y="240.624">density: 3&#10;</tspan><tspan x="91.3064" y="272.624">screen_size: 800x1280&#10;</tspan><tspan x="91.3064" y="304.624">safe_areas: 0,24,0,0|0,24,0,0</tspan></text>
<defs>
<filter id="filter0_i" x="0" y="0" width="886.042" height="1525.06" filterUnits="userSpaceOnUse" color-interpolation-filters="sRGB">
<feFlood flood-opacity="0" result="BackgroundImageFix"/>
<feBlend mode="normal" in="SourceGraphic" in2="BackgroundImageFix" result="shape"/>
<feColorMatrix in="SourceAlpha" type="matrix" values="0 0 0 0 0 0 0 0 0 0 0 0 0 0 0 0 0 0 127 0" result="hardAlpha"/>
<feOffset/>
<feGaussianBlur stdDeviation="0.746455"/>
<feComposite in2="hardAlpha" operator="arithmetic" k2="-1" k3="1"/>
<feColorMatrix type="matrix" values="0 0 0 0 1 0 0 0 0 1 0 0 0 0 1 0 0 0 0.3 0"/>
<feBlend mode="normal" in2="shape" result="effect1_innerShadow"/>
</filter>
<filter id="filter1_iiii" x="8.21082" y="8.97803" width="871.86" height="1508.11" filterUnits="userSpaceOnUse" color-interpolation-filters="sRGB">
<feFlood flood-opacity="0" result="BackgroundImageFix"/>
<feBlend mode="normal" in="SourceGraphic" in2="BackgroundImageFix" result="shape"/>
<feColorMatrix in="SourceAlpha" type="matrix" values="0 0 0 0 0 0 0 0 0 0 0 0 0 0 0 0 0 0 127 0" result="hardAlpha"/>
<feOffset/>
<feGaussianBlur stdDeviation="0.746455"/>
<feComposite in2="hardAlpha" operator="arithmetic" k2="-1" k3="1"/>
<feColorMatrix type="matrix" values="0 0 0 0 0.921569 0 0 0 0 0.921569 0 0 0 0 0.921569 0 0 0 0.35 0"/>
<feBlend mode="normal" in2="shape" result="effect1_innerShadow"/>
<feColorMatrix in="SourceAlpha" type="matrix" values="0 0 0 0 0 0 0 0 0 0 0 0 0 0 0 0 0 0 127 0" result="hardAlpha"/>
<feOffset/>
<feGaussianBlur stdDeviation="1.11968"/>
<feComposite in2="hardAlpha" operator="arithmetic" k2="-1" k3="1"/>
<feColorMatrix type="matrix" values="0 0 0 0 0.921569 0 0 0 0 0.921569 0 0 0 0 0.921569 0 0 0 0.1 0"/>
<feBlend mode="normal" in2="effect1_innerShadow" result="effect2_innerShadow"/>
<feColorMatrix in="SourceAlpha" type="matrix" values="0 0 0 0 0 0 0 0 0 0 0 0 0 0 0 0 0 0 127 0" result="hardAlpha"/>
<feOffset dy="0.746455"/>
<feGaussianBlur stdDeviation="0.373228"/>
<feComposite in2="hardAlpha" operator="arithmetic" k2="-1" k3="1"/>
<feColorMatrix type="matrix" values="0 0 0 0 0 0 0 0 0 0 0 0 0 0 0 0 0 0 0.5 0"/>
<feBlend mode="normal" in2="effect2_innerShadow" result="effect3_innerShadow"/>
<feColorMatrix in="SourceAlpha" type="matrix" values="0 0 0 0 0 0 0 0 0 0 0 0 0 0 0 0 0 0 127 0" result="hardAlpha"/>
<feOffset dy="0.746455"/>
<feGaussianBlur stdDeviation="1.11968"/>
<feComposite in2="hardAlpha" operator="arithmetic" k2="-1" k3="1"/>
<feColorMatrix type="matrix" values="0 0 0 0 0 0 0 0 0 0 0 0 0 0 0 0 0 0 0.5 0"/>
<feBlend mode="normal" in2="effect3_innerShadow" result="effect4_innerShadow"/>
</filter>
<filter id="filter2_f" x="14.1438" y="29.2146" width="62.8773" height="1466.73" filterUnits="userSpaceOnUse" color-interpolation-filters="sRGB">
<feFlood flood-opacity="0" result="BackgroundImageFix"/>
<feBlend mode="normal" in="SourceGraphic" in2="BackgroundImageFix" result="shape"/>
<feGaussianBlur stdDeviation="1.01454" result="effect1_foregroundBlur"/>
</filter>
<filter id="filter3_f" x="801.954" y="25.7248" width="72.3209" height="1462.91" filterUnits="userSpaceOnUse" color-interpolation-filters="sRGB">
<feFlood flood-opacity="0" result="BackgroundImageFix"/>
<feBlend mode="normal" in="SourceGraphic" in2="BackgroundImageFix" result="shape"/>
<feGaussianBlur stdDeviation="1.01454" result="effect1_foregroundBlur"/>
</filter>
<filter id="filter4_iii" x="885.502" y="217" width="9.49777" height="88.4792" filterUnits="userSpaceOnUse" color-interpolation-filters="sRGB">
<feFlood flood-opacity="0" result="BackgroundImageFix"/>
<feBlend mode="normal" in="SourceGraphic" in2="BackgroundImageFix" result="shape"/>
<feColorMatrix in="SourceAlpha" type="matrix" values="0 0 0 0 0 0 0 0 0 0 0 0 0 0 0 0 0 0 127 0" result="hardAlpha"/>
<feMorphology radius="0.999765" operator="erode" in="SourceAlpha" result="effect1_innerShadow"/>
<feOffset dx="1.49965"/>
<feGaussianBlur stdDeviation="0.249941"/>
<feComposite in2="hardAlpha" operator="arithmetic" k2="-1" k3="1"/>
<feColorMatrix type="matrix" values="0 0 0 0 0 0 0 0 0 0 0 0 0 0 0 0 0 0 0.24 0"/>
<feBlend mode="normal" in2="shape" result="effect1_innerShadow"/>
<feColorMatrix in="SourceAlpha" type="matrix" values="0 0 0 0 0 0 0 0 0 0 0 0 0 0 0 0 0 0 127 0" result="hardAlpha"/>
<feMorphology radius="0.999765" operator="erode" in="SourceAlpha" result="effect2_innerShadow"/>
<feOffset dx="3.99906"/>
<feGaussianBlur stdDeviation="0.999765"/>
<feComposite in2="hardAlpha" operator="arithmetic" k2="-1" k3="1"/>
<feColorMatrix type="matrix" values="0 0 0 0 1 0 0 0 0 1 0 0 0 0 1 0 0 0 0.24 0"/>
<feBlend mode="normal" in2="effect1_innerShadow" result="effect2_innerShadow"/>
<feColorMatrix in="SourceAlpha" type="matrix" values="0 0 0 0 0 0 0 0 0 0 0 0 0 0 0 0 0 0 127 0" result="hardAlpha"/>
<feOffset dx="-0.999765"/>
<feGaussianBlur stdDeviation="0.249941"/>
<feComposite in2="hardAlpha" operator="arithmetic" k2="-1" k3="1"/>
<feColorMatrix type="matrix" values="0 0 0 0 0 0 0 0 0 0 0 0 0 0 0 0 0 0 0.12 0"/>
<feBlend mode="normal" in2="effect2_innerShadow" result="effect3_innerShadow"/>
</filter>
<filter id="filter5_ii" x="885.5" y="335.28" width="7.49824" height="176.459" filterUnits="userSpaceOnUse" color-interpolation-filters="sRGB">
<feFlood flood-opacity="0" result="BackgroundImageFix"/>
<feBlend mode="normal" in="SourceGraphic" in2="BackgroundImageFix" result="shape"/>
<feColorMatrix in="SourceAlpha" type="matrix" values="0 0 0 0 0 0 0 0 0 0 0 0 0 0 0 0 0 0 127 0" result="hardAlpha"/>
<feOffset dx="2.99929"/>
<feGaussianBlur stdDeviation="0.499882"/>
<feComposite in2="hardAlpha" operator="arithmetic" k2="-1" k3="1"/>
<feColorMatrix type="matrix" values="0 0 0 0 0 0 0 0 0 0 0 0 0 0 0 0 0 0 0.1 0"/>
<feBlend mode="normal" in2="shape" result="effect1_innerShadow"/>
<feColorMatrix in="SourceAlpha" type="matrix" values="0 0 0 0 0 0 0 0 0 0 0 0 0 0 0 0 0 0 127 0" result="hardAlpha"/>
<feOffset dx="-1.49965"/>
<feGaussianBlur stdDeviation="0.249941"/>
<feComposite in2="hardAlpha" operator="arithmetic" k2="-1" k3="1"/>
<feColorMatrix type="matrix" values="0 0 0 0 1 0 0 0 0 1 0 0 0 0 1 0 0 0 0.4 0"/>
<feBlend mode="normal" in2="effect1_innerShadow" result="effect2_innerShadow"/>
</filter>
<filter id="filter6_diii" x="367.547" y="71.1487" width="149.245" height="18.8576" filterUnits="userSpaceOnUse" color-interpolation-filters="sRGB">
<feFlood flood-opacity="0" result="BackgroundImageFix"/>
<feColorMatrix in="SourceAlpha" type="matrix" values="0 0 0 0 0 0 0 0 0 0 0 0 0 0 0 0 0 0 127 0"/>
<feOffset dy="-0.538789"/>
<feColorMatrix type="matrix" values="0 0 0 0 1 0 0 0 0 1 0 0 0 0 1 0 0 0 0.1 0"/>
<feBlend mode="normal" in2="BackgroundImageFix" result="effect1_dropShadow"/>
<feBlend mode="normal" in="SourceGraphic" in2="effect1_dropShadow" result="shape"/>
<feColorMatrix in="SourceAlpha" type="matrix" values="0 0 0 0 0 0 0 0 0 0 0 0 0 0 0 0 0 0 127 0" result="hardAlpha"/>
<feMorphology radius="1.07758" operator="erode" in="SourceAlpha" result="effect2_innerShadow"/>
<feOffset dy="-0.538789"/>
<feGaussianBlur stdDeviation="0.808183"/>
<feComposite in2="hardAlpha" operator="arithmetic" k2="-1" k3="1"/>
<feColorMatrix type="matrix" values="0 0 0 0 1 0 0 0 0 1 0 0 0 0 1 0 0 0 0.3 0"/>
<feBlend mode="normal" in2="shape" result="effect2_innerShadow"/>
<feColorMatrix in="SourceAlpha" type="matrix" values="0 0 0 0 0 0 0 0 0 0 0 0 0 0 0 0 0 0 127 0" result="hardAlpha"/>
<feMorphology radius="0.538789" operator="erode" in="SourceAlpha" result="effect3_innerShadow"/>
<feOffset/>
<feGaussianBlur stdDeviation="0.538789"/>
<feComposite in2="hardAlpha" operator="arithmetic" k2="-1" k3="1"/>
<feColorMatrix type="matrix" values="0 0 0 0 0 0 0 0 0 0 0 0 0 0 0 0 0 0 0.8 0"/>
<feBlend mode="normal" in2="effect2_innerShadow" result="effect3_innerShadow"/>
<feColorMatrix in="SourceAlpha" type="matrix" values="0 0 0 0 0 0 0 0 0 0 0 0 0 0 0 0 0 0 127 0" result="hardAlpha"/>
<feOffset dy="0.538789"/>
<feGaussianBlur stdDeviation="0.808183"/>
<feComposite in2="hardAlpha" operator="arithmetic" k2="-1" k3="1"/>
<feColorMatrix type="matrix" values="0 0 0 0 0 0 0 0 0 0 0 0 0 0 0 0 0 0 0.5 0"/>
<feBlend mode="normal" in2="effect3_innerShadow" result="effect4_innerShadow"/>
</filter>
<filter id="filter7_diii" x="382" y="1458.48" width="121.356" height="19.2585" filterUnits="userSpaceOnUse" color-interpolation-filters="sRGB">
<feFlood flood-opacity="0" result="BackgroundImageFix"/>
<feColorMatrix in="SourceAlpha" type="matrix" values="0 0 0 0 0 0 0 0 0 0 0 0 0 0 0 0 0 0 127 0"/>
<feOffset dy="-0.520253"/>
<feColorMatrix type="matrix" values="0 0 0 0 1 0 0 0 0 1 0 0 0 0 1 0 0 0 0.1 0"/>
<feBlend mode="normal" in2="BackgroundImageFix" result="effect1_dropShadow"/>
<feBlend mode="normal" in="SourceGraphic" in2="effect1_dropShadow" result="shape"/>
<feColorMatrix in="SourceAlpha" type="matrix" values="0 0 0 0 0 0 0 0 0 0 0 0 0 0 0 0 0 0 127 0" result="hardAlpha"/>
<feMorphology radius="0.520253" operator="erode" in="SourceAlpha" result="effect2_innerShadow"/>
<feOffset dy="1.04051"/>
<feGaussianBlur stdDeviation="0.78038"/>
<feComposite in2="hardAlpha" operator="arithmetic" k2="-1" k3="1"/>
<feColorMatrix type="matrix" values="0 0 0 0 1 0 0 0 0 1 0 0 0 0 1 0 0 0 0.3 0"/>
<feBlend mode="normal" in2="shape" result="effect2_innerShadow"/>
<feColorMatrix in="SourceAlpha" type="matrix" values="0 0 0 0 0 0 0 0 0 0 0 0 0 0 0 0 0 0 127 0" result="hardAlpha"/>
<feMorphology radius="0.520253" operator="erode" in="SourceAlpha" result="effect3_innerShadow"/>
<feOffset/>
<feGaussianBlur stdDeviation="0.520253"/>
<feComposite in2="hardAlpha" operator="arithmetic" k2="-1" k3="1"/>
<feColorMatrix type="matrix" values="0 0 0 0 0 0 0 0 0 0 0 0 0 0 0 0 0 0 0.8 0"/>
<feBlend mode="normal" in2="effect2_innerShadow" result="effect3_innerShadow"/>
<feColorMatrix in="SourceAlpha" type="matrix" values="0 0 0 0 0 0 0 0 0 0 0 0 0 0 0 0 0 0 127 0" result="hardAlpha"/>
<feOffset dy="0.520253"/>
<feGaussianBlur stdDeviation="0.78038"/>
<feComposite in2="hardAlpha" operator="arithmetic" k2="-1" k3="1"/>
<feColorMatrix type="matrix" values="0 0 0 0 0 0 0 0 0 0 0 0 0 0 0 0 0 0 0.5 0"/>
<feBlend mode="normal" in2="effect3_innerShadow" result="effect4_innerShadow"/>
</filter>
<filter id="filter8_f" x="328.031" y="78.3771" width="16.3003" height="15.7384" filterUnits="userSpaceOnUse" color-interpolation-filters="sRGB">
<feFlood flood-opacity="0" result="BackgroundImageFix"/>
<feBlend mode="normal" in="SourceGraphic" in2="BackgroundImageFix" result="shape"/>
<feGaussianBlur stdDeviation="1.78458" result="effect1_foregroundBlur"/>
</filter>
<filter id="filter9_f" x="333.596" y="84.0144" width="5.76466" height="5.62174" filterUnits="userSpaceOnUse" color-interpolation-filters="sRGB">
<feFlood flood-opacity="0" result="BackgroundImageFix"/>
<feBlend mode="normal" in="SourceGraphic" in2="BackgroundImageFix" result="shape"/>
<feGaussianBlur stdDeviation="0.446146" result="effect1_foregroundBlur"/>
</filter>
<filter id="filter10_f" x="324.716" y="72.7498" width="7.71016" height="6.60849" filterUnits="userSpaceOnUse" color-interpolation-filters="sRGB">
<feFlood flood-opacity="0" result="BackgroundImageFix"/>
<feBlend mode="normal" in="SourceGraphic" in2="BackgroundImageFix" result="shape"/>
<feGaussianBlur stdDeviation="0.446146" result="effect1_foregroundBlur"/>
</filter>
<filter id="filter11_d" x="322.672" y="71.6717" width="19.3671" height="19.3671" filterUnits="userSpaceOnUse" color-interpolation-filters="sRGB">
<feFlood flood-opacity="0" result="BackgroundImageFix"/>
<feColorMatrix in="SourceAlpha" type="matrix" values="0 0 0 0 0 0 0 0 0 0 0 0 0 0 0 0 0 0 127 0"/>
<feOffset/>
<feGaussianBlur stdDeviation="0.164128"/>
<feColorMatrix type="matrix" values="0 0 0 0 0 0 0 0 0 0 0 0 0 0 0 0 0 0 0.8 0"/>
<feBlend mode="normal" in2="BackgroundImageFix" result="effect1_dropShadow"/>
<feBlend mode="normal" in="SourceGraphic" in2="effect1_dropShadow" result="shape"/>
</filter>
<filter id="filter12_f" x="327.124" y="74.8106" width="6.65798" height="6.57183" filterUnits="userSpaceOnUse" color-interpolation-filters="sRGB">
<feFlood flood-opacity="0" result="BackgroundImageFix"/>
<feBlend mode="normal" in="SourceGraphic" in2="BackgroundImageFix" result="shape"/>
<feGaussianBlur stdDeviation="0.892291" result="effect1_foregroundBlur"/>
</filter>
<radialGradient id="paint0_radial" cx="0" cy="0" r="1" gradientUnits="userSpaceOnUse" gradientTransform="translate(463.147 762.529) rotate(90) scale(878.152 510.197)">
<stop stop-color="#1E1E1E"/>
<stop offset="1" stop-color="#0A0A0A"/>
</radialGradient>
<linearGradient id="paint1_linear" x1="18.3285" y1="1128.81" x2="89.7173" y2="1128.81" gradientUnits="userSpaceOnUse">
<stop stop-color="#EEEEEE" stop-opacity="0.855101"/>
<stop offset="1" stop-color="#D8D8D8" stop-opacity="0.01"/>
</linearGradient>
<linearGradient id="paint2_linear" x1="16.1729" y1="31.2437" x2="16.1729" y2="1493.92" gradientUnits="userSpaceOnUse">
<stop stop-color="#686868"/>
<stop offset="0.019851" stop-color="#C6C6C6"/>
<stop offset="0.0526644" stop-color="#E4E4E4"/>
<stop offset="0.787327" stop-color="#D0D0D0"/>
<stop offset="0.939455" stop-color="#C5C5C5"/>
<stop offset="0.954674" stop-color="white"/>
<stop offset="0.98365" stop-color="#ADADAD"/>
<stop offset="1" stop-color="#D8D8D8"/>
</linearGradient>
<linearGradient id="paint3_linear" x1="808.154" y1="931.182" x2="877.094" y2="931.182" gradientUnits="userSpaceOnUse">
<stop stop-color="#EEEEEE" stop-opacity="0.01"/>
<stop offset="0.794113" stop-color="#E0E0E0" stop-opacity="0.525957"/>
<stop offset="0.833895" stop-color="#E1E1E1" stop-opacity="0.508693"/>
<stop offset="1" stop-color="#D8D8D8"/>
</linearGradient>
<linearGradient id="paint4_linear" x1="816.111" y1="27.7539" x2="816.111" y2="1486.6" gradientUnits="userSpaceOnUse">
<stop stop-color="#8C8A8D"/>
<stop offset="0.0244456" stop-color="#747474"/>
<stop offset="0.0611492" stop-color="#949494"/>
<stop offset="0.0915986" stop-color="#BFBFBF"/>
<stop offset="0.14244" stop-color="#ADADAD"/>
<stop offset="0.348646" stop-color="#8B8B8B"/>
<stop offset="0.402614" stop-color="#595F58"/>
<stop offset="0.55256" stop-color="#6D6F6F"/>
<stop offset="0.736922" stop-color="#606660"/>
<stop offset="0.88443" stop-color="#EAEAEA"/>
<stop offset="0.944479" stop-color="#B5B5B5"/>
<stop offset="0.988288" stop-color="#6B6B6B"/>
<stop offset="1" stop-color="#4F4D4D"/>
</linearGradient>
<linearGradient id="paint5_linear" x1="886.002" y1="217" x2="886.002" y2="305.479" gradientUnits="userSpaceOnUse">
<stop stop-color="#373737"/>
<stop offset="0.0307924" stop-color="#4C4C4C"/>
<stop offset="0.0685746" stop-color="#363636"/>
<stop offset="0.916235" stop-color="#3D3D3D"/>
<stop offset="0.971221" stop-color="#202020"/>
<stop offset="1" stop-color="#767676"/>
</linearGradient>
<linearGradient id="paint6_linear" x1="886" y1="335.28" x2="886" y2="511.738" gradientUnits="userSpaceOnUse">
<stop stop-color="#505050"/>
<stop offset="0.0134163" stop-color="#B3B3B3"/>
<stop offset="0.0412327" stop-color="#212121"/>
<stop offset="0.110692" stop-color="#242424"/>
<stop offset="0.876962" stop-color="#191919"/>
<stop offset="0.957457" stop-color="#2A2A2A"/>
<stop offset="1" stop-color="#212121"/>
</linearGradient>
<linearGradient id="paint7_linear" x1="149.245" y1="17.78" x2="149.245" y2="0" gradientUnits="userSpaceOnUse">
<stop stop-color="#313131"/>
<stop offset="0.521857" stop-color="#2E2E2E"/>
<stop offset="1" stop-color="#282727"/>
</linearGradient>
<linearGradient id="paint8_linear" x1="503.356" y1="1476.7" x2="503.356" y2="1459" gradientUnits="userSpaceOnUse">
<stop stop-color="#313131"/>
<stop offset="0.521857" stop-color="#2E2E2E"/>
<stop offset="1" stop-color="#282727"/>
</linearGradient>
<radialGradient id="paint9_angular" cx="0" cy="0" r="1" gradientUnits="userSpaceOnUse" gradientTransform="translate(336.148 86.197) scale(4.61412 4.34939)">
<stop stop-color="#394B90"/>
<stop offset="0.154352" stop-color="#414A7C"/>
<stop offset="0.377408" stop-color="#293A81"/>
<stop offset="0.646932" stop-color="#37498E"/>
<stop offset="0.900234" stop-color="#24357E"/>
<stop offset="1" stop-color="#485491"/>
</radialGradient>
<radialGradient id="paint10_radial" cx="0" cy="0" r="1" gradientUnits="userSpaceOnUse" gradientTransform="translate(336.479 86.8253) rotate(90) scale(3.27476 3.39673)">
<stop stop-color="#EEEEEE"/>
<stop offset="0.268157" stop-color="#E8E8E8" stop-opacity="0.573454"/>
<stop offset="1" stop-color="#D8D8D8" stop-opacity="0.122877"/>
</radialGradient>
<radialGradient id="paint11_angular" cx="0" cy="0" r="1" gradientUnits="userSpaceOnUse" gradientTransform="translate(332.355 81.3553) scale(9.35529)">
<stop offset="0.147774" stop-color="#231E1B"/>
<stop offset="0.379161" stop-color="#5F5F5F" stop-opacity="0.210456"/>
<stop offset="0.62265" stop-opacity="0.280797"/>
<stop offset="0.882483" stop-opacity="0.374321"/>
</radialGradient>
</defs>
</svg>
