<svg width="918" height="1848" viewBox="0 0 918 1848" fill="none" xmlns="http://www.w3.org/2000/svg">
<path fill-rule="evenodd" clip-rule="evenodd" d="M151.961 0H763.751C802.321 0 823.787 4.16193 846.177 16.1359C867.387 27.4794 884.336 44.4284 895.68 65.6389C907.654 88.0283 911.816 109.494 911.816 148.064V1698.95C911.816 1737.52 907.654 1758.98 895.68 1781.37C884.336 1802.58 867.387 1819.53 846.177 1830.88C823.787 1842.85 802.321 1847.01 763.751 1847.01H151.961C113.391 1847.01 91.9251 1842.85 69.5356 1830.88C48.3251 1819.53 31.3761 1802.58 20.0326 1781.37C8.05866 1758.98 3.89673 1737.52 3.89673 1698.95V148.064C3.89673 109.494 8.05866 88.0283 20.0326 65.6389C31.3761 44.4284 48.3251 27.4794 69.5356 16.1359C91.9251 4.16193 113.391 0 151.961 0Z" fill="black"/>
<path fill-rule="evenodd" clip-rule="evenodd" d="M153.26 5.19556H765.05C802.794 5.19556 823.467 9.18762 845.025 20.7174C865.331 31.5767 881.538 47.7841 892.397 68.0892C903.927 89.648 907.919 110.321 907.919 148.064V1698.95C907.919 1736.69 903.927 1757.36 892.397 1778.92C881.538 1799.23 865.331 1815.43 845.025 1826.29C823.467 1837.82 802.794 1841.82 765.05 1841.82H153.26C115.516 1841.82 94.8436 1837.82 73.2847 1826.29C52.9796 1815.43 36.7723 1799.23 25.913 1778.92C14.3832 1757.36 10.3911 1736.69 10.3911 1698.95V148.064C10.3911 110.321 14.3832 89.648 25.913 68.0892C36.7723 47.7841 52.9796 31.5767 73.2847 20.7174C94.8436 9.18762 115.516 5.19556 153.26 5.19556Z" fill="url(#paint0_linear_77:291)"/>
<path d="M151.312 14.6123H766.999C803.391 14.6123 822.565 18.3421 842.533 29.0213C861.197 39.0029 876.06 53.866 886.042 72.53C896.721 92.4982 900.451 111.672 900.451 148.064V1698.95C900.451 1735.34 896.721 1754.51 886.042 1774.48C876.06 1793.15 861.197 1808.01 842.533 1817.99C822.565 1828.67 803.391 1832.4 766.999 1832.4H151.312C114.919 1832.4 95.7456 1828.67 75.7774 1817.99C57.1133 1808.01 42.2502 1793.15 32.2686 1774.48C21.5895 1754.51 17.8597 1735.34 17.8597 1698.95V148.064C17.8597 111.672 21.5895 92.4982 32.2686 72.53C42.2502 53.866 57.1133 39.0029 75.7774 29.0213C95.7456 18.3421 114.919 14.6123 151.312 14.6123Z" fill="url(#paint1_linear_77:291)" stroke="black" stroke-width="1.94832"/>
<path fill-rule="evenodd" clip-rule="evenodd" d="M151.876 23.3799H766.434C801.191 23.3799 819.262 26.6931 838.157 36.7526C855.371 45.9171 869.044 59.5287 878.25 76.6648C888.355 95.4745 891.683 113.464 891.683 148.064V1698.95C891.683 1733.55 888.355 1751.54 878.25 1770.35C869.044 1787.48 855.371 1801.09 838.157 1810.26C819.262 1820.32 801.191 1823.63 766.434 1823.63H151.876C117.119 1823.63 99.0481 1820.32 80.1533 1810.26C62.9396 1801.09 49.2664 1787.48 40.0604 1770.35C29.9554 1751.54 26.6272 1733.55 26.6272 1698.95V148.064C26.6272 113.464 29.9554 95.4745 40.0604 76.6648C49.2664 59.5287 62.9396 45.9171 80.1533 36.7526C99.0481 26.6931 117.119 23.3799 151.876 23.3799Z" fill="url(#paint2_linear_77:291)"/>
<path fill-rule="evenodd" clip-rule="evenodd" d="M151.876 23.3799H766.434C801.191 23.3799 819.262 26.6931 838.157 36.7526C855.371 45.9171 869.044 59.5287 878.25 76.6648C888.355 95.4745 891.683 113.464 891.683 148.064V1698.95C891.683 1733.55 888.355 1751.54 878.25 1770.35C869.044 1787.48 855.371 1801.09 838.157 1810.26C819.262 1820.32 801.191 1823.63 766.434 1823.63H151.876C117.119 1823.63 99.0481 1820.32 80.1533 1810.26C62.9396 1801.09 49.2664 1787.48 40.0604 1770.35C29.9554 1751.54 26.6272 1733.55 26.6272 1698.95V148.064C26.6272 113.464 29.9554 95.4745 40.0604 76.6648C49.2664 59.5287 62.9396 45.9171 80.1533 36.7526C99.0481 26.6931 117.119 23.3799 151.876 23.3799Z" fill="url(#paint3_radial_77:291)"/>
<path d="M153.26 35.0698H765.05C798.284 35.0698 814.298 38.1622 830.937 47.0609C846.036 55.1359 857.979 67.0789 866.054 82.1778C874.952 98.8171 878.045 114.831 878.045 148.064V1698.95C878.045 1732.18 874.952 1748.19 866.054 1764.83C857.979 1779.93 846.036 1791.88 830.937 1799.95C814.298 1808.85 798.284 1811.94 765.05 1811.94H153.26C120.026 1811.94 104.013 1808.85 87.3734 1799.95C72.2744 1791.88 60.3315 1779.93 52.2565 1764.83C43.3577 1748.19 40.2654 1732.18 40.2654 1698.95V148.064C40.2654 114.831 43.3577 98.8171 52.2565 82.1778C60.3315 67.0789 72.2744 55.1359 87.3734 47.0609C104.013 38.1622 120.026 35.0698 153.26 35.0698Z" fill="black"/>
<g clip-path="url(#clip0_77:291)">
<path fill-rule="evenodd" clip-rule="evenodd" d="M416.119 1844.41C433.42 1844.41 482.146 1844.41 499.593 1844.41V1844.41C501.913 1844.41 501.288 1847.01 498.969 1847.01H416.743C414.424 1847.01 413.799 1844.41 416.119 1844.41V1844.41Z" fill="#191919"/>
</g>
<rect opacity="0.602808" x="3.89673" y="163.01" width="14.9372" height="11.0405" fill="black"/>
<rect opacity="0.602808" x="899.476" y="163.01" width="12.3394" height="11.0405" fill="black"/>
<rect opacity="0.602808" x="3.89673" y="1672.96" width="14.9372" height="11.0405" fill="black"/>
<rect opacity="0.602808" x="899.476" y="1672.96" width="12.3394" height="11.0405" fill="black"/>
<rect opacity="0.602808" x="740.363" y="14.9373" width="14.9372" height="11.0405" transform="rotate(-90 740.363 14.9373)" fill="black"/>
<rect opacity="0.602808" x="166.906" y="1847.01" width="14.9372" height="11.0405" transform="rotate(-90 166.906 1847.01)" fill="black"/>
<g clip-path="url(#clip1_77:291)">
<path fill-rule="evenodd" clip-rule="evenodd" d="M4.53375 228.603C2.02983 228.603 0 230.639 0 233.149V289.001C0 291.512 2.02983 293.547 4.53375 293.547H7.12446C7.12446 290.131 7.1681 231.942 7.12446 228.603H4.53375Z" fill="url(#paint4_linear_77:291)"/>
<path fill-rule="evenodd" clip-rule="evenodd" d="M4.53375 347.451C3.05967 347.814 1.29204 348.743 0.348186 350.063C0.153776 350.335 0 351.196 0 351.444C0 363.927 0 401.945 0 465.501C0 465.766 0.216445 467.108 0.348973 467.433C1.11276 469.308 2.43986 469.761 4.53375 470.845H7.12446C7.12446 467.429 7.1681 350.79 7.12446 347.451H4.53375Z" fill="url(#paint5_linear_77:291)"/>
<path fill-rule="evenodd" clip-rule="evenodd" d="M4.53375 501.369C3.05967 501.732 1.29204 502.661 0.348186 503.981C0.153776 504.253 0 505.113 0 505.362C0 517.844 0 555.863 0 619.419C0 619.684 0.216445 621.025 0.348973 621.351C1.11276 623.225 2.43986 623.679 4.53375 624.762H7.12446C7.12446 621.347 7.1681 504.708 7.12446 501.369H4.53375Z" fill="url(#paint6_linear_77:291)"/>
<path fill-rule="evenodd" clip-rule="evenodd" d="M913.127 387.716C914.601 388.079 916.369 389.009 917.312 390.329C917.507 390.601 917.661 391.461 917.661 391.71C917.661 404.192 917.661 514.948 917.661 578.504C917.661 578.769 917.444 580.11 917.312 580.436C916.548 582.31 915.221 582.764 913.127 583.848H910.536C910.536 580.432 910.493 391.055 910.536 387.716H913.127Z" fill="url(#paint7_linear_77:291)"/>
<path fill-rule="evenodd" clip-rule="evenodd" d="M913.127 387.716C914.601 388.079 916.369 389.009 917.312 390.329C917.507 390.601 917.661 391.461 917.661 391.71C917.661 404.192 917.661 514.948 917.661 578.504C917.661 578.769 917.444 580.11 917.312 580.436C916.548 582.31 915.221 582.764 913.127 583.848H910.536C910.536 580.432 910.493 391.055 910.536 387.716H913.127Z" fill="url(#paint8_linear_77:291)"/>
</g>
<g opacity="0.801364" clip-path="url(#clip2_77:291)">
<rect x="408.499" y="63.6453" width="101.313" height="15.5866" rx="7.7933" fill="#1D1C1C"/>
<rect opacity="0.244441" x="408.499" y="63.6453" width="101.313" height="15.5866" rx="7.7933" fill="black" fill-opacity="0.01"/>
</g>
<g clip-path="url(#clip3_77:291)">
<circle cx="548.778" cy="70.1397" r="13.6383" fill="url(#paint9_radial_77:291)"/>
<circle opacity="0.387535" cx="548.778" cy="70.1397" r="7.14385" fill="url(#paint10_linear_77:291)"/>
</g>
<path fill-rule="evenodd" clip-rule="evenodd" d="M64.1336 92.1448C55.8518 108.399 55.8518 129.677 55.8518 172.232V1674.78C55.8518 1717.33 55.8518 1738.61 64.1336 1754.87C71.4185 1769.16 83.0427 1780.79 97.3401 1788.07C113.594 1796.35 134.872 1796.35 177.427 1796.35H740.883C783.438 1796.35 804.716 1796.35 820.97 1788.07C835.267 1780.79 846.891 1769.16 854.176 1754.87C862.458 1738.61 862.458 1717.33 862.458 1674.78V172.232C862.458 129.677 862.458 108.399 854.176 92.1448C846.891 77.8474 835.267 66.2232 820.97 58.9383C804.716 50.6565 783.438 50.6565 740.882 50.6565H177.427C134.872 50.6565 113.594 50.6565 97.3401 58.9383C83.0427 66.2232 71.4185 77.8474 64.1336 92.1448ZM663.729 62.3465C663.914 55.8904 668.963 50.6565 675.419 50.6565H242.891C249.347 50.6565 254.405 55.8904 254.581 62.3465C254.933 75.2887 256.903 82.1153 260.306 88.4774C264.042 95.4625 269.523 100.944 276.509 104.68C283.494 108.416 291.008 110.405 306.6 110.405H611.71C627.302 110.405 634.816 108.416 641.801 104.68C648.786 100.944 654.268 95.4625 658.004 88.4774C661.408 82.1121 663.356 75.3083 663.729 62.3465Z" fill="#FF0000"/>
<text fill="black" xml:space="preserve" style="white-space: pre" font-family="Roboto" font-size="20" letter-spacing="0em"><tspan x="113" y="168.336">name: iPhone 11 Pro Max&#10;</tspan><tspan x="113" y="191.336">density: 3&#10;</tspan><tspan x="113" y="214.336">screen_size: 414x896&#10;</tspan><tspan x="113" y="237.336">safe_areas: 0,44,0,34|44,0,44,21&#10;</tspan><tspan x="113" y="260.336">device_type: phone</tspan></text>
<defs>
<linearGradient id="paint0_linear_77:291" x1="10.3911" y1="5.19556" x2="10.3911" y2="1841.82" gradientUnits="userSpaceOnUse">
<stop stop-color="#C9C6C8"/>
<stop offset="0.0168336" stop-color="#2C2A2A"/>
<stop offset="0.0782507" stop-color="#C9C6C8"/>
<stop offset="0.920557" stop-color="#C9C6C8"/>
<stop offset="0.980426" stop-color="#2C2A2A"/>
<stop offset="1" stop-color="#C9C6C8"/>
</linearGradient>
<linearGradient id="paint1_linear_77:291" x1="16.8855" y1="13.6382" x2="16.8855" y2="1833.37" gradientUnits="userSpaceOnUse">
<stop stop-color="#5F5F5F"/>
<stop offset="0.0101238" stop-color="#222222"/>
<stop offset="1" stop-color="#252525"/>
</linearGradient>
<linearGradient id="paint2_linear_77:291" x1="26.6272" y1="23.3799" x2="26.6272" y2="1823.63" gradientUnits="userSpaceOnUse">
<stop stop-color="#6D6D6D"/>
<stop offset="0.0161168"/>
<stop offset="0.984697"/>
<stop offset="1" stop-color="#5C5C5C"/>
</linearGradient>
<radialGradient id="paint3_radial_77:291" cx="0" cy="0" r="1" gradientUnits="userSpaceOnUse" gradientTransform="translate(438.808 1805.5) rotate(90) scale(521.289 182.868)">
<stop stop-color="white" stop-opacity="0.151268"/>
<stop offset="1" stop-color="white" stop-opacity="0.01"/>
</radialGradient>
<linearGradient id="paint4_linear_77:291" x1="1.94181" y1="266.744" x2="3.90546" y2="266.744" gradientUnits="userSpaceOnUse">
<stop stop-color="#A5A5A5"/>
<stop offset="0.00734796" stop-color="#E2E2E2"/>
<stop offset="0.994739" stop-color="#BEBEBE"/>
<stop offset="1" stop-color="#9D9D9D"/>
</linearGradient>
<linearGradient id="paint5_linear_77:291" x1="1.94181" y1="419.918" x2="3.90546" y2="419.918" gradientUnits="userSpaceOnUse">
<stop stop-color="#A5A5A5"/>
<stop offset="0.00734796" stop-color="#E2E2E2"/>
<stop offset="0.994739" stop-color="#BEBEBE"/>
<stop offset="1" stop-color="#9D9D9D"/>
</linearGradient>
<linearGradient id="paint6_linear_77:291" x1="1.94181" y1="573.835" x2="3.90546" y2="573.835" gradientUnits="userSpaceOnUse">
<stop stop-color="#A5A5A5"/>
<stop offset="0.00734796" stop-color="#E2E2E2"/>
<stop offset="0.994739" stop-color="#BEBEBE"/>
<stop offset="1" stop-color="#9D9D9D"/>
</linearGradient>
<linearGradient id="paint7_linear_77:291" x1="915.192" y1="477.459" x2="915.082" y2="477.459" gradientUnits="userSpaceOnUse">
<stop stop-color="#8E8E8E"/>
<stop offset="1" stop-color="#BCBCBC"/>
</linearGradient>
<linearGradient id="paint8_linear_77:291" x1="917.661" y1="387.716" x2="917.661" y2="583.848" gradientUnits="userSpaceOnUse">
<stop stop-opacity="0.996971"/>
<stop offset="0.0951211" stop-opacity="0.01"/>
<stop offset="0.895463" stop-opacity="0.01"/>
<stop offset="1" stop-opacity="0.881058"/>
</linearGradient>
<radialGradient id="paint9_radial_77:291" cx="0" cy="0" r="1" gradientUnits="userSpaceOnUse" gradientTransform="translate(568.16 93.0863) rotate(45.1938) scale(27.4569)">
<stop stop-color="#434343"/>
<stop offset="1" stop-color="#121212"/>
</radialGradient>
<linearGradient id="paint10_linear_77:291" x1="548.778" y1="48.7081" x2="548.778" y2="77.2836" gradientUnits="userSpaceOnUse">
<stop stop-color="#2A4893"/>
<stop offset="1" stop-color="#213054"/>
</linearGradient>
<clipPath id="clip0_77:291">
<rect width="96.1173" height="2.59777" fill="white" transform="translate(409.797 1844.41)"/>
</clipPath>
<clipPath id="clip1_77:291">
<rect width="917.661" height="396.159" fill="white" transform="translate(0 228.603)"/>
</clipPath>
<clipPath id="clip2_77:291">
<rect width="101.313" height="15.5866" fill="white" transform="translate(408.499 63.6453)"/>
</clipPath>
<clipPath id="clip3_77:291">
<rect width="27.2765" height="27.2765" fill="white" transform="translate(535.14 56.5015)"/>
</clipPath>
</defs>
</svg>
