<svg width="934" height="1860" viewBox="0 0 934 1860" fill="none" xmlns="http://www.w3.org/2000/svg">
<path d="M173.029 0L759.833 0C802.232 0 826.945 4.77246 852.76 18.5783C877.464 31.79 897.256 51.5825 910.468 76.2861C924.274 102.101 929.046 126.815 929.046 169.213V1675.52C929.046 1717.92 924.274 1742.64 910.468 1768.45C897.256 1793.16 877.464 1812.95 852.76 1826.16C826.945 1839.97 802.232 1844.74 759.833 1844.74H173.029C130.63 1844.74 105.916 1839.97 80.1016 1826.16C55.3979 1812.95 35.6054 1793.16 22.3937 1768.45C8.58789 1742.64 3.81543 1717.92 3.81543 1675.52V169.213C3.81543 126.815 8.58789 102.101 22.3937 76.2861C35.6054 51.5825 55.3979 31.79 80.1016 18.5783C105.916 4.77246 130.63 0 173.029 0Z" fill="black"/>
<path d="M173.029 0L759.833 0C802.232 0 826.945 4.77246 852.76 18.5783C877.464 31.79 897.256 51.5825 910.468 76.2861C924.274 102.101 929.046 126.815 929.046 169.213V1675.52C929.046 1717.92 924.274 1742.64 910.468 1768.45C897.256 1793.16 877.464 1812.95 852.76 1826.16C826.945 1839.97 802.232 1844.74 759.833 1844.74H173.029C130.63 1844.74 105.916 1839.97 80.1016 1826.16C55.3979 1812.95 35.6054 1793.16 22.3937 1768.45C8.58789 1742.64 3.81543 1717.92 3.81543 1675.52V169.213C3.81543 126.815 8.58789 102.101 22.3937 76.2861C35.6054 51.5825 55.3979 31.79 80.1016 18.5783C105.916 4.77246 130.63 0 173.029 0Z" fill="#58575C"/>
<path d="M173.029 19.0769L759.833 19.0769C799.274 19.0769 821.043 23.2494 843.763 35.4006C865.143 46.8343 882.212 63.9036 893.646 85.2828C905.797 108.004 909.969 129.772 909.969 169.213V1675.52C909.969 1714.97 905.797 1736.73 893.646 1759.46C882.212 1780.83 865.143 1797.9 843.763 1809.34C821.043 1821.49 799.274 1825.66 759.833 1825.66H173.029C133.587 1825.66 111.819 1821.49 89.0982 1809.34C67.719 1797.9 50.6497 1780.83 39.216 1759.46C27.0648 1736.73 22.8923 1714.97 22.8923 1675.52V169.213C22.8923 129.772 27.0648 108.004 39.216 85.2828C50.6497 63.9036 67.719 46.8343 89.0982 35.4006C111.819 23.2494 133.587 19.0769 173.029 19.0769Z" fill="#2A2A2C"/>
<path d="M173.029 28.6155L759.833 28.6155C797.911 28.6155 818.163 32.5261 839.265 43.8118C858.982 54.3565 874.69 70.0643 885.234 89.7812C896.52 110.884 900.431 131.135 900.431 169.214V1675.53C900.431 1713.6 896.52 1733.86 885.234 1754.96C874.69 1774.67 858.982 1790.38 839.265 1800.93C818.163 1812.21 797.911 1816.12 759.833 1816.12H173.029C134.95 1816.12 114.699 1812.21 93.5964 1800.93C73.8795 1790.38 58.1717 1774.67 47.627 1754.96C36.3413 1733.86 32.4307 1713.6 32.4307 1675.53V169.214C32.4307 131.135 36.3413 110.884 47.627 89.7812C58.1717 70.0643 73.8795 54.3565 93.5964 43.8118C114.699 32.5261 134.95 28.6155 173.029 28.6155Z" fill="black"/>
<g opacity="0.602808">
<path d="M3.81543 181.231H22.8924V199.354H3.81543V181.231Z" fill="#1C1C1D"/>
<path d="M909.969 181.231H929.046V199.354H909.969V181.231Z" fill="#1C1C1D"/>
<path d="M3.81543 1645.38H22.8924V1663.51H3.81543V1645.38Z" fill="#1C1C1D"/>
<path d="M909.969 1645.38H929.046V1663.51H909.969V1645.38Z" fill="#1C1C1D"/>
</g>
<path fill-rule="evenodd" clip-rule="evenodd" d="M4.84276 251.815C2.16818 251.815 0 253.998 0 256.69V316.572C0 319.264 2.16818 321.446 4.84276 321.446H7.61005C7.61005 317.784 7.65667 255.396 7.61005 251.815H4.84276Z" fill="#111114"/>
<path fill-rule="evenodd" clip-rule="evenodd" d="M4.84276 376.769C3.26821 377.151 1.3801 378.128 0.371918 379.516C0.164257 379.802 0 380.706 0 380.967C0 394.09 0 434.059 0 500.874C0 501.153 0.231198 502.564 0.372759 502.906C1.18861 504.876 2.60616 505.353 4.84276 506.492H7.61005C7.61005 502.901 7.65667 380.28 7.61005 376.769H4.84276Z" fill="#111114"/>
<path fill-rule="evenodd" clip-rule="evenodd" d="M4.84276 537.015C3.26821 537.397 1.3801 538.374 0.371918 539.762C0.164257 540.048 0 540.952 0 541.214C0 554.336 0 594.305 0 661.12C0 661.4 0.231198 662.81 0.372759 663.152C1.18861 665.122 2.60616 665.599 4.84276 666.738H7.61005C7.61005 663.147 7.65667 540.526 7.61005 537.015H4.84276Z" fill="#111114"/>
<path fill-rule="evenodd" clip-rule="evenodd" d="M928.973 420.646C930.547 421.024 932.435 421.991 933.444 423.365C933.651 423.648 933.815 424.543 933.815 424.802C933.815 437.793 933.815 553.062 933.815 619.208C933.815 619.484 933.584 620.88 933.443 621.218C932.627 623.169 931.209 623.641 928.973 624.769H926.205C926.205 621.214 926.159 424.121 926.205 420.646H928.973Z" fill="#111114"/>
<rect x="413.015" y="73.4463" width="106.831" height="17.1692" rx="8.58462" fill="#1D1C1C"/>
<circle cx="558.477" cy="81.5539" r="11.9231" fill="#161616"/>
<circle opacity="0.387535" cx="558.477" cy="81.554" r="7.15385" fill="#2A4893"/>
<path fill-rule="evenodd" clip-rule="evenodd" d="M234.646 67.7231C241.495 67.7231 247.046 73.2748 247.046 80.1231C247.687 91.7244 249.955 99.0797 253.544 105.791C257.783 113.718 264.005 119.94 271.933 124.179C279.86 128.419 288.764 130.677 304.207 130.677H628.655C644.098 130.677 653.002 128.419 660.929 124.179C668.857 119.94 675.078 113.718 679.318 105.791C682.906 99.081 685.094 91.6474 685.815 80.1231C685.815 73.2748 691.367 67.7231 698.215 67.7231L759.833 67.7231C795.123 67.7231 807.92 71.3976 820.822 78.2975C833.724 85.1974 843.849 95.3227 850.749 108.224C857.649 121.126 861.323 133.923 861.323 169.214V1675.53C861.323 1710.82 857.649 1723.61 850.749 1736.51C843.849 1749.42 833.724 1759.54 820.822 1766.44C807.92 1773.34 795.123 1777.02 759.833 1777.02H173.029C137.739 1777.02 124.941 1773.34 112.04 1766.44C99.1381 1759.54 89.0128 1749.42 82.1129 1736.51C75.213 1723.61 71.5386 1710.82 71.5386 1675.53V169.214C71.5386 133.923 75.213 121.126 82.1129 108.224C89.0128 95.3227 99.1381 85.1974 112.04 78.2975C124.941 71.3976 137.739 67.7231 173.029 67.7231H234.646Z" fill="#FF0000"/>
<text fill="black" xml:space="preserve" style="white-space: pre" font-family="Roboto" font-size="20" letter-spacing="0em"><tspan x="113" y="168.336">name: iPhone 11&#10;</tspan><tspan x="113" y="191.336">density: 2&#10;</tspan><tspan x="113" y="214.336">screen_size: 414x896&#10;</tspan><tspan x="113" y="237.336">safe_areas: 0,44,0,34|44,0,44,21&#10;</tspan><tspan x="113" y="260.336">device_type: phone</tspan></text>
</svg>
