<svg width="918" height="1848" viewBox="0 0 918 1848" fill="none" xmlns="http://www.w3.org/2000/svg">
<path fill-rule="evenodd" clip-rule="evenodd" d="M151.961 0H763.751C802.321 0 823.787 4.16193 846.177 16.1359C867.387 27.4794 884.336 44.4284 895.68 65.6389C907.654 88.0283 911.816 109.494 911.816 148.064V1698.95C911.816 1737.52 907.654 1758.98 895.68 1781.37C884.336 1802.58 867.387 1819.53 846.177 1830.88C823.787 1842.85 802.321 1847.01 763.751 1847.01H151.961C113.391 1847.01 91.925 1842.85 69.5356 1830.88C48.3251 1819.53 31.3761 1802.58 20.0326 1781.37C8.05866 1758.98 3.89673 1737.52 3.89673 1698.95V148.064C3.89673 109.494 8.05866 88.0283 20.0326 65.6389C31.3761 44.4284 48.3251 27.4794 69.5356 16.1359C91.925 4.16193 113.391 0 151.961 0Z" fill="black"/>
<g filter="url(#filter0_i)">
<path fill-rule="evenodd" clip-rule="evenodd" d="M153.26 5.19556H765.05C802.794 5.19556 823.467 9.18762 845.025 20.7174C865.331 31.5767 881.538 47.7841 892.397 68.0891C903.927 89.648 907.919 110.321 907.919 148.064V1698.95C907.919 1736.69 903.927 1757.36 892.397 1778.92C881.538 1799.23 865.331 1815.43 845.025 1826.29C823.467 1837.82 802.794 1841.82 765.05 1841.82H153.26C115.516 1841.82 94.8436 1837.82 73.2847 1826.29C52.9796 1815.43 36.7723 1799.23 25.913 1778.92C14.3832 1757.36 10.3911 1736.69 10.3911 1698.95V148.064C10.3911 110.321 14.3832 89.648 25.913 68.0891C36.7723 47.7841 52.9796 31.5767 73.2847 20.7174C94.8436 9.18762 115.516 5.19556 153.26 5.19556Z" fill="url(#paint0_linear)"/>
</g>
<path fill-rule="evenodd" clip-rule="evenodd" d="M150.604 13.6382H767.706C805.778 13.6382 826.63 17.5879 848.376 28.9954C868.857 39.7395 885.205 55.7749 896.159 75.8646C907.789 97.1947 911.816 117.648 911.816 154.991V1689.42C911.816 1726.77 907.789 1747.22 896.159 1768.55C885.205 1788.64 868.857 1804.67 848.376 1815.42C826.63 1826.83 805.778 1830.77 767.706 1830.77H150.604C112.532 1830.77 91.6801 1826.83 69.9341 1815.42C49.4527 1804.67 33.1046 1788.64 22.151 1768.55C10.5211 1747.22 6.49438 1726.77 6.49438 1689.42V154.991C6.49438 117.648 10.5211 97.1947 22.151 75.8646C33.1046 55.7749 49.4527 39.7395 69.9341 28.9954C91.6801 17.5879 112.532 13.6382 150.604 13.6382Z" fill="url(#paint1_linear)"/>
<path fill-rule="evenodd" clip-rule="evenodd" d="M150.604 13.6382H767.706C805.778 13.6382 826.63 17.5879 848.376 28.9954C868.857 39.7395 885.205 55.7749 896.159 75.8646C907.789 97.1947 911.816 117.648 911.816 154.991V1689.42C911.816 1726.77 907.789 1747.22 896.159 1768.55C885.205 1788.64 868.857 1804.67 848.376 1815.42C826.63 1826.83 805.778 1830.77 767.706 1830.77H150.604C112.532 1830.77 91.6801 1826.83 69.9341 1815.42C49.4527 1804.67 33.1046 1788.64 22.151 1768.55C10.5211 1747.22 6.49438 1726.77 6.49438 1689.42V154.991C6.49438 117.648 10.5211 97.1947 22.151 75.8646C33.1046 55.7749 49.4527 39.7395 69.9341 28.9954C91.6801 17.5879 112.532 13.6382 150.604 13.6382Z" fill="url(#paint2_linear)"/>
<g opacity="0.500781">
<path fill-rule="evenodd" clip-rule="evenodd" d="M160.372 10.3911H755.34C792.046 10.3911 812.151 14.3606 833.117 25.8252C852.863 36.623 868.625 52.7387 879.186 72.9289C890.399 94.3658 894.281 114.921 894.281 152.452V1694.56C894.281 1732.09 890.399 1752.65 879.186 1774.08C868.625 1794.27 852.863 1810.39 833.117 1821.19C812.151 1832.65 792.046 1836.62 755.34 1836.62H160.372C123.666 1836.62 103.562 1832.65 82.5959 1821.19C62.8491 1810.39 47.0874 1794.27 36.5267 1774.08C25.3139 1752.65 21.4316 1732.09 21.4316 1694.56V152.452C21.4316 114.921 25.3139 94.3658 36.5267 72.9289C47.0874 52.7387 62.8491 36.623 82.5959 25.8252C103.562 14.3606 123.666 10.3911 160.372 10.3911Z" fill="url(#paint3_linear)"/>
<path fill-rule="evenodd" clip-rule="evenodd" d="M160.372 10.3911H755.34C792.046 10.3911 812.151 14.3606 833.117 25.8252C852.863 36.623 868.625 52.7387 879.186 72.9289C890.399 94.3658 894.281 114.921 894.281 152.452V1694.56C894.281 1732.09 890.399 1752.65 879.186 1774.08C868.625 1794.27 852.863 1810.39 833.117 1821.19C812.151 1832.65 792.046 1836.62 755.34 1836.62H160.372C123.666 1836.62 103.562 1832.65 82.5959 1821.19C62.8491 1810.39 47.0874 1794.27 36.5267 1774.08C25.3139 1752.65 21.4316 1732.09 21.4316 1694.56V152.452C21.4316 114.921 25.3139 94.3658 36.5267 72.9289C47.0874 52.7387 62.8491 36.623 82.5959 25.8252C103.562 14.3606 123.666 10.3911 160.372 10.3911Z" fill="url(#paint4_linear)"/>
</g>
<path d="M151.312 14.6123H766.999C803.391 14.6123 822.565 18.3421 842.533 29.0213C861.197 39.0029 876.06 53.866 886.042 72.53C896.721 92.4982 900.45 111.671 900.45 148.064V1698.95C900.45 1735.34 896.721 1754.51 886.042 1774.48C876.06 1793.15 861.197 1808.01 842.533 1817.99C822.565 1828.67 803.391 1832.4 766.999 1832.4H151.312C114.919 1832.4 95.7456 1828.67 75.7774 1817.99C57.1133 1808.01 42.2502 1793.15 32.2686 1774.48C21.5895 1754.51 17.8597 1735.34 17.8597 1698.95V148.064C17.8597 111.671 21.5895 92.4982 32.2686 72.53C42.2502 53.866 57.1133 39.0029 75.7774 29.0213C95.7456 18.3421 114.919 14.6123 151.312 14.6123Z" fill="url(#paint5_linear)" stroke="black" stroke-width="1.94832"/>
<path fill-rule="evenodd" clip-rule="evenodd" d="M151.876 23.3799H766.434C801.191 23.3799 819.262 26.6931 838.157 36.7526C855.371 45.9171 869.044 59.5287 878.25 76.6648C888.355 95.4745 891.683 113.464 891.683 148.064V1698.95C891.683 1733.55 888.355 1751.54 878.25 1770.35C869.044 1787.48 855.371 1801.09 838.157 1810.26C819.262 1820.32 801.191 1823.63 766.434 1823.63H151.876C117.119 1823.63 99.0481 1820.32 80.1533 1810.26C62.9396 1801.09 49.2664 1787.48 40.0604 1770.35C29.9554 1751.54 26.6272 1733.55 26.6272 1698.95V148.064C26.6272 113.464 29.9554 95.4745 40.0604 76.6648C49.2664 59.5287 62.9396 45.9171 80.1533 36.7526C99.0481 26.6931 117.119 23.3799 151.876 23.3799Z" fill="url(#paint6_linear)"/>
<path fill-rule="evenodd" clip-rule="evenodd" d="M151.876 23.3799H766.434C801.191 23.3799 819.262 26.6931 838.157 36.7526C855.371 45.9171 869.044 59.5287 878.25 76.6648C888.355 95.4745 891.683 113.464 891.683 148.064V1698.95C891.683 1733.55 888.355 1751.54 878.25 1770.35C869.044 1787.48 855.371 1801.09 838.157 1810.26C819.262 1820.32 801.191 1823.63 766.434 1823.63H151.876C117.119 1823.63 99.0481 1820.32 80.1533 1810.26C62.9396 1801.09 49.2664 1787.48 40.0604 1770.35C29.9554 1751.54 26.6272 1733.55 26.6272 1698.95V148.064C26.6272 113.464 29.9554 95.4745 40.0604 76.6648C49.2664 59.5287 62.9396 45.9171 80.1533 36.7526C99.0481 26.6931 117.119 23.3799 151.876 23.3799Z" fill="url(#paint7_radial)"/>
<path d="M153.26 35.0698H765.05C798.284 35.0698 814.297 38.1622 830.937 47.0609C846.036 55.1359 857.979 67.0789 866.054 82.1778C874.952 98.8171 878.045 114.831 878.045 148.064V1698.95C878.045 1732.18 874.952 1748.19 866.054 1764.83C857.979 1779.93 846.036 1791.88 830.937 1799.95C814.297 1808.85 798.284 1811.94 765.05 1811.94H153.26C120.026 1811.94 104.013 1808.85 87.3734 1799.95C72.2744 1791.88 60.3315 1779.93 52.2565 1764.83C43.3577 1748.19 40.2654 1732.18 40.2654 1698.95V148.064C40.2654 114.831 43.3577 98.8171 52.2565 82.1778C60.3315 67.0789 72.2744 55.1359 87.3734 47.0609C104.013 38.1622 120.026 35.0698 153.26 35.0698Z" fill="black"/>
<g clip-path="url(#clip0)">
<g filter="url(#filter1_i)">
<path fill-rule="evenodd" clip-rule="evenodd" d="M416.119 1844.41C433.42 1844.41 482.146 1844.41 499.593 1844.41C501.913 1844.41 501.288 1847.01 498.969 1847.01H416.743C414.424 1847.01 413.799 1844.41 416.119 1844.41Z" fill="#191919"/>
</g>
</g>
<g filter="url(#filter2_i)">
<path fill-rule="evenodd" clip-rule="evenodd" d="M80.1533 1810.6C62.9396 1801.43 49.2664 1787.82 40.0604 1770.68C29.9554 1751.87 26.6272 1733.88 26.6272 1699.28V148.401C26.6272 113.801 29.9554 95.8112 40.0604 77.0015C49.2664 59.8653 62.9396 46.2537 80.1533 37.0892C82.9144 35.6192 39.411 56.4765 39.411 141.907C39.411 415.877 39.411 1272.3 39.411 1705.78C39.411 1787.89 81.4395 1811.28 80.1533 1810.6Z" fill="white" fill-opacity="0.599524"/>
</g>
<g filter="url(#filter3_i)">
<path fill-rule="evenodd" clip-rule="evenodd" d="M838.159 1810.6C855.373 1801.43 869.046 1787.82 878.252 1770.68C888.357 1751.87 891.685 1733.88 891.685 1699.28V148.401C891.685 113.801 888.357 95.8112 878.252 77.0015C869.046 59.8653 855.373 46.2537 838.159 37.0892C835.398 35.6192 878.901 56.4765 878.901 141.907C878.901 415.877 878.901 1272.3 878.901 1705.78C878.901 1787.89 836.873 1811.28 838.159 1810.6Z" fill="white" fill-opacity="0.599524"/>
</g>
<rect opacity="0.602808" x="3.89673" y="163.01" width="14.9372" height="11.0405" fill="black"/>
<rect opacity="0.602808" x="899.476" y="163.01" width="12.3394" height="11.0405" fill="black"/>
<rect opacity="0.602808" x="3.89673" y="1672.96" width="14.9372" height="11.0405" fill="black"/>
<rect opacity="0.602808" x="899.476" y="1672.96" width="12.3394" height="11.0405" fill="black"/>
<rect opacity="0.602808" x="740.363" y="14.9373" width="14.9372" height="11.0405" transform="rotate(-90 740.363 14.9373)" fill="black"/>
<rect opacity="0.602808" x="166.906" y="1847.01" width="14.9372" height="11.0405" transform="rotate(-90 166.906 1847.01)" fill="black"/>
<g clip-path="url(#clip1)">
<g filter="url(#filter4_ii)">
<path fill-rule="evenodd" clip-rule="evenodd" d="M4.53375 228.603C2.02983 228.603 0 230.639 0 233.149V289.001C0 291.512 2.02983 293.547 4.53375 293.547H7.12446C7.12446 290.131 7.1681 231.942 7.12446 228.603H4.53375Z" fill="url(#paint8_linear)"/>
</g>
<g filter="url(#filter5_ii)">
<path fill-rule="evenodd" clip-rule="evenodd" d="M4.53375 347.451C3.05967 347.814 1.29204 348.743 0.348186 350.063C0.153776 350.335 0 351.196 0 351.444C0 363.927 0 401.945 0 465.501C0 465.766 0.216445 467.108 0.348973 467.433C1.11276 469.308 2.43986 469.761 4.53375 470.845H7.12446C7.12446 467.429 7.1681 350.79 7.12446 347.451H4.53375Z" fill="url(#paint9_linear)"/>
</g>
<g filter="url(#filter6_ii)">
<path fill-rule="evenodd" clip-rule="evenodd" d="M4.53375 501.369C3.05967 501.732 1.29204 502.661 0.348186 503.981C0.153776 504.253 0 505.113 0 505.362C0 517.844 0 555.863 0 619.419C0 619.684 0.216445 621.025 0.348973 621.351C1.11276 623.225 2.43986 623.679 4.53375 624.762H7.12446C7.12446 621.347 7.1681 504.708 7.12446 501.369H4.53375Z" fill="url(#paint10_linear)"/>
</g>
<g filter="url(#filter7_ii)">
<path fill-rule="evenodd" clip-rule="evenodd" d="M913.127 387.716C914.601 388.079 916.369 389.009 917.312 390.329C917.507 390.601 917.661 391.461 917.661 391.71C917.661 404.192 917.661 514.948 917.661 578.504C917.661 578.769 917.444 580.11 917.312 580.436C916.548 582.31 915.221 582.764 913.127 583.848H910.536C910.536 580.432 910.493 391.055 910.536 387.716H913.127Z" fill="url(#paint11_linear)"/>
<path fill-rule="evenodd" clip-rule="evenodd" d="M913.127 387.716C914.601 388.079 916.369 389.009 917.312 390.329C917.507 390.601 917.661 391.461 917.661 391.71C917.661 404.192 917.661 514.948 917.661 578.504C917.661 578.769 917.444 580.11 917.312 580.436C916.548 582.31 915.221 582.764 913.127 583.848H910.536C910.536 580.432 910.493 391.055 910.536 387.716H913.127Z" fill="url(#paint12_linear)"/>
</g>
</g>
<g opacity="0.801364" clip-path="url(#clip2)">
<rect x="408.499" y="63.6453" width="101.313" height="15.5866" rx="7.7933" fill="#1D1C1C"/>
<mask id="mask0" mask-type="alpha" maskUnits="userSpaceOnUse" x="408" y="63" width="102" height="17">
<rect x="408.499" y="63.6453" width="101.313" height="15.5866" rx="7.7933" fill="white"/>
</mask>
<g mask="url(#mask0)">
<path fill-rule="evenodd" clip-rule="evenodd" d="M408.499 63.6453H509.811V64.7818H408.499V63.6453ZM408.499 67.0548H509.811V68.1913H408.499V67.0548ZM509.811 69.8961H408.499V71.0326H509.811V69.8961ZM408.499 73.3057H509.811V74.4422H408.499V73.3057ZM509.811 76.147H408.499V77.2835H509.811V76.147Z" fill="black" fill-opacity="0.15"/>
<path fill-rule="evenodd" clip-rule="evenodd" d="M408.499 66.2429H509.811V67.3794H408.499V66.2429ZM408.499 69.6525H509.811V70.789H408.499V69.6525ZM509.811 72.4938H408.499V73.6303H509.811V72.4938ZM408.499 75.9033H509.811V77.0399H408.499V75.9033ZM509.811 78.7446H408.499V79.8812H509.811V78.7446Z" fill="white" fill-opacity="0.03"/>
<path fill-rule="evenodd" clip-rule="evenodd" d="M414.227 63.6453H415.379V79.2319H414.227V63.6453ZM410.771 63.6453H411.923V79.2319H410.771V63.6453ZM418.259 63.6453H417.107V79.2319H418.259V63.6453ZM420.563 63.6453H421.715V79.2319H420.563V63.6453ZM424.595 63.6453H423.443V79.2319H424.595V63.6453ZM426.899 63.6453H428.051V79.2319H426.899V63.6453ZM430.931 63.6453H429.779V79.2319H430.931V63.6453ZM433.235 63.6453H434.387V79.2319H433.235V63.6453ZM437.267 63.6453H436.115V79.2319H437.267V63.6453ZM439.571 63.6453H440.723V79.2319H439.571V63.6453ZM443.603 63.6453H442.451V79.2319H443.603V63.6453ZM445.907 63.6453H447.059V79.2319H445.907V63.6453ZM449.939 63.6453H448.787V79.2319H449.939V63.6453ZM452.243 63.6453H453.395V79.2319H452.243V63.6453ZM456.851 63.6453H455.699V79.2319H456.851V63.6453ZM458.579 63.6453H459.731V79.2319H458.579V63.6453ZM463.187 63.6453H462.035V79.2319H463.187V63.6453ZM464.915 63.6453H466.067V79.2319H464.915V63.6453ZM469.523 63.6453H468.371V79.2319H469.523V63.6453ZM471.251 63.6453H472.403V79.2319H471.251V63.6453ZM475.859 63.6453H474.707V79.2319H475.859V63.6453ZM477.586 63.6453H478.738V79.2319H477.586V63.6453ZM482.194 63.6453H481.043V79.2319H482.194V63.6453ZM483.923 63.6453H485.074V79.2319H483.923V63.6453ZM488.53 63.6453H487.378V79.2319H488.53V63.6453ZM490.258 63.6453H491.41V79.2319H490.258V63.6453ZM494.866 63.6453H493.714V79.2319H494.866V63.6453ZM497.17 63.6453H498.322V79.2319H497.17V63.6453ZM501.202 63.6453H500.05V79.2319H501.202V63.6453ZM503.506 63.6453H504.658V79.2319H503.506V63.6453ZM507.538 63.6453H506.386V79.2319H507.538V63.6453Z" fill="black" fill-opacity="0.15"/>
<path fill-rule="evenodd" clip-rule="evenodd" d="M411.579 63.6453H412.731V79.2319H411.579V63.6453ZM408.123 63.6453H409.275V79.2319H408.123V63.6453ZM415.611 63.6453H414.459V79.2319H415.611V63.6453ZM417.915 63.6453H419.067V79.2319H417.915V63.6453ZM421.947 63.6453H420.795V79.2319H421.947V63.6453ZM424.251 63.6453H425.403V79.2319H424.251V63.6453ZM428.283 63.6453H427.131V79.2319H428.283V63.6453ZM430.587 63.6453H431.739V79.2319H430.587V63.6453ZM434.619 63.6453H433.467V79.2319H434.619V63.6453ZM436.923 63.6453H438.075V79.2319H436.923V63.6453ZM440.955 63.6453H439.803V79.2319H440.955V63.6453ZM443.258 63.6453H444.41V79.2319H443.258V63.6453ZM447.29 63.6453H446.138V79.2319H447.29V63.6453ZM449.594 63.6453H450.746V79.2319H449.594V63.6453ZM454.202 63.6453H453.05V79.2319H454.202V63.6453ZM455.93 63.6453H457.082V79.2319H455.93V63.6453ZM460.538 63.6453H459.386V79.2319H460.538V63.6453ZM462.266 63.6453H463.418V79.2319H462.266V63.6453ZM466.874 63.6453H465.722V79.2319H466.874V63.6453ZM468.602 63.6453H469.754V79.2319H468.602V63.6453ZM473.21 63.6453H472.058V79.2319H473.21V63.6453ZM474.938 63.6453H476.09V79.2319H474.938V63.6453ZM479.546 63.6453H478.394V79.2319H479.546V63.6453ZM481.274 63.6453H482.426V79.2319H481.274V63.6453ZM485.882 63.6453H484.73V79.2319H485.882V63.6453ZM487.61 63.6453H488.762V79.2319H487.61V63.6453ZM492.218 63.6453H491.066V79.2319H492.218V63.6453ZM494.522 63.6453H495.674V79.2319H494.522V63.6453ZM498.554 63.6453H497.402V79.2319H498.554V63.6453ZM500.858 63.6453H502.01V79.2319H500.858V63.6453ZM504.89 63.6453H503.738V79.2319H504.89V63.6453Z" fill="white" fill-opacity="0.03"/>
</g>
<g opacity="0.244441" filter="url(#filter8_iii)">
<rect x="408.499" y="63.6453" width="101.313" height="15.5866" rx="7.7933" fill="black" fill-opacity="0.01"/>
</g>
<mask id="mask1" mask-type="alpha" maskUnits="userSpaceOnUse" x="408" y="63" width="102" height="17">
<rect x="408.499" y="63.6453" width="101.313" height="15.5866" rx="7.7933" fill="white"/>
</mask>
<g mask="url(#mask1)">
</g>
</g>
<g clip-path="url(#clip3)">
<circle cx="548.778" cy="70.1397" r="13.6383" fill="url(#paint13_radial)"/>
<g opacity="0.387535" filter="url(#filter9_dd)">
<circle cx="548.778" cy="70.1397" r="7.14385" fill="url(#paint14_linear)"/>
</g>
<mask id="mask2" mask-type="alpha" maskUnits="userSpaceOnUse" x="541" y="62" width="15" height="16">
<circle cx="548.778" cy="70.1397" r="7.14385" fill="white"/>
</mask>
<g mask="url(#mask2)">
<g filter="url(#filter10_f)">
<ellipse cx="543.045" cy="68.5741" rx="5.92335" ry="1.98508" transform="rotate(-76 543.045 68.5741)" fill="#3E89CC"/>
</g>
<g filter="url(#filter11_f)">
<ellipse cx="554.298" cy="68.5161" rx="4.22137" ry="5.52025" fill="#1C5894"/>
</g>
<g filter="url(#filter12_f)">
<ellipse cx="550.222" cy="75.9072" rx="6.38706" ry="4.1683" transform="rotate(-16 550.222 75.9072)" fill="#0A152B"/>
</g>
</g>
</g>
<path fill-rule="evenodd" clip-rule="evenodd" d="M64.1336 92.1448C55.8518 108.399 55.8518 129.677 55.8518 172.232V1674.78C55.8518 1717.33 55.8518 1738.61 64.1336 1754.87C71.4185 1769.16 83.0427 1780.79 97.3401 1788.07C113.594 1796.35 134.872 1796.35 177.427 1796.35H740.883C783.438 1796.35 804.716 1796.35 820.97 1788.07C835.267 1780.79 846.891 1769.16 854.176 1754.87C862.458 1738.61 862.458 1717.33 862.458 1674.78V172.232C862.458 129.677 862.458 108.399 854.176 92.1448C846.891 77.8474 835.267 66.2232 820.97 58.9383C804.716 50.6565 783.438 50.6565 740.882 50.6565H177.427C134.872 50.6565 113.594 50.6565 97.3401 58.9383C83.0427 66.2232 71.4185 77.8474 64.1336 92.1448ZM663.729 62.3465C663.914 55.8904 668.963 50.6565 675.419 50.6565H242.891C249.347 50.6565 254.405 55.8904 254.581 62.3465C254.933 75.2887 256.903 82.1153 260.306 88.4774C264.042 95.4625 269.523 100.944 276.509 104.68C283.494 108.416 291.008 110.405 306.6 110.405H611.71C627.302 110.405 634.816 108.416 641.801 104.68C648.786 100.944 654.268 95.4625 658.004 88.4774C661.408 82.1121 663.356 75.3083 663.729 62.3465Z" fill="#FF0000"/>
<text fill="black" xml:space="preserve" style="white-space: pre" font-family="Roboto" font-size="20" letter-spacing="0em"><tspan x="113" y="168.336">name: iPhone 11 Pro Max&#10;</tspan><tspan x="113" y="191.336">density: 3&#10;</tspan><tspan x="113" y="214.336">screen_size: 414x896&#10;</tspan><tspan x="113" y="237.336">safe_areas: 0,44,0,34|44,0,44,21&#10;</tspan><tspan x="113" y="260.336">device_type: phone</tspan></text>
<defs>
<filter id="filter0_i" x="10.3911" y="5.19556" width="897.528" height="1836.62" filterUnits="userSpaceOnUse" color-interpolation-filters="sRGB">
<feFlood flood-opacity="0" result="BackgroundImageFix"/>
<feBlend mode="normal" in="SourceGraphic" in2="BackgroundImageFix" result="shape"/>
<feColorMatrix in="SourceAlpha" type="matrix" values="0 0 0 0 0 0 0 0 0 0 0 0 0 0 0 0 0 0 127 0" result="hardAlpha"/>
<feOffset/>
<feGaussianBlur stdDeviation="2.59777"/>
<feComposite in2="hardAlpha" operator="arithmetic" k2="-1" k3="1"/>
<feColorMatrix type="matrix" values="0 0 0 0 0 0 0 0 0 0 0 0 0 0 0 0 0 0 0.6 0"/>
<feBlend mode="normal" in2="shape" result="effect1_innerShadow"/>
</filter>
<filter id="filter1_i" x="414.66" y="1844.41" width="86.3914" height="3.24721" filterUnits="userSpaceOnUse" color-interpolation-filters="sRGB">
<feFlood flood-opacity="0" result="BackgroundImageFix"/>
<feBlend mode="normal" in="SourceGraphic" in2="BackgroundImageFix" result="shape"/>
<feColorMatrix in="SourceAlpha" type="matrix" values="0 0 0 0 0 0 0 0 0 0 0 0 0 0 0 0 0 0 127 0" result="hardAlpha"/>
<feOffset dy="0.649441"/>
<feGaussianBlur stdDeviation="0.974162"/>
<feComposite in2="hardAlpha" operator="arithmetic" k2="-1" k3="1"/>
<feColorMatrix type="matrix" values="0 0 0 0 0.299054 0 0 0 0 0.299054 0 0 0 0 0.299054 0 0 0 1 0"/>
<feBlend mode="normal" in2="shape" result="effect1_innerShadow"/>
</filter>
<filter id="filter2_i" x="19.4833" y="37.0181" width="60.796" height="1773.59" filterUnits="userSpaceOnUse" color-interpolation-filters="sRGB">
<feFlood flood-opacity="0" result="BackgroundImageFix"/>
<feBlend mode="normal" in="SourceGraphic" in2="BackgroundImageFix" result="shape"/>
<feColorMatrix in="SourceAlpha" type="matrix" values="0 0 0 0 0 0 0 0 0 0 0 0 0 0 0 0 0 0 127 0" result="hardAlpha"/>
<feOffset dx="-7.14386"/>
<feGaussianBlur stdDeviation="5.52025"/>
<feComposite in2="hardAlpha" operator="arithmetic" k2="-1" k3="1"/>
<feColorMatrix type="matrix" values="0 0 0 0 0 0 0 0 0 0 0 0 0 0 0 0 0 0 0.6 0"/>
<feBlend mode="normal" in2="shape" result="effect1_innerShadow"/>
</filter>
<filter id="filter3_i" x="830.889" y="37.0181" width="60.796" height="1773.59" filterUnits="userSpaceOnUse" color-interpolation-filters="sRGB">
<feFlood flood-opacity="0" result="BackgroundImageFix"/>
<feBlend mode="normal" in="SourceGraphic" in2="BackgroundImageFix" result="shape"/>
<feColorMatrix in="SourceAlpha" type="matrix" values="0 0 0 0 0 0 0 0 0 0 0 0 0 0 0 0 0 0 127 0" result="hardAlpha"/>
<feOffset dx="-7.14386"/>
<feGaussianBlur stdDeviation="5.52025"/>
<feComposite in2="hardAlpha" operator="arithmetic" k2="-1" k3="1"/>
<feColorMatrix type="matrix" values="0 0 0 0 0 0 0 0 0 0 0 0 0 0 0 0 0 0 0.6 0"/>
<feBlend mode="normal" in2="shape" result="effect1_innerShadow"/>
</filter>
<filter id="filter4_ii" x="0" y="226.655" width="7.14385" height="68.8408" filterUnits="userSpaceOnUse" color-interpolation-filters="sRGB">
<feFlood flood-opacity="0" result="BackgroundImageFix"/>
<feBlend mode="normal" in="SourceGraphic" in2="BackgroundImageFix" result="shape"/>
<feColorMatrix in="SourceAlpha" type="matrix" values="0 0 0 0 0 0 0 0 0 0 0 0 0 0 0 0 0 0 127 0" result="hardAlpha"/>
<feOffset dy="3.89665"/>
<feGaussianBlur stdDeviation="0.974162"/>
<feComposite in2="hardAlpha" operator="arithmetic" k2="-1" k3="1"/>
<feColorMatrix type="matrix" values="0 0 0 0 0 0 0 0 0 0 0 0 0 0 0 0 0 0 0.757614 0"/>
<feBlend mode="normal" in2="shape" result="effect1_innerShadow"/>
<feColorMatrix in="SourceAlpha" type="matrix" values="0 0 0 0 0 0 0 0 0 0 0 0 0 0 0 0 0 0 127 0" result="hardAlpha"/>
<feOffset dy="-3.89665"/>
<feGaussianBlur stdDeviation="0.974162"/>
<feComposite in2="hardAlpha" operator="arithmetic" k2="-1" k3="1"/>
<feColorMatrix type="matrix" values="0 0 0 0 0 0 0 0 0 0 0 0 0 0 0 0 0 0 0.757614 0"/>
<feBlend mode="normal" in2="effect1_innerShadow" result="effect2_innerShadow"/>
</filter>
<filter id="filter5_ii" x="0" y="345.503" width="7.14385" height="127.29" filterUnits="userSpaceOnUse" color-interpolation-filters="sRGB">
<feFlood flood-opacity="0" result="BackgroundImageFix"/>
<feBlend mode="normal" in="SourceGraphic" in2="BackgroundImageFix" result="shape"/>
<feColorMatrix in="SourceAlpha" type="matrix" values="0 0 0 0 0 0 0 0 0 0 0 0 0 0 0 0 0 0 127 0" result="hardAlpha"/>
<feOffset dy="3.89665"/>
<feGaussianBlur stdDeviation="0.974162"/>
<feComposite in2="hardAlpha" operator="arithmetic" k2="-1" k3="1"/>
<feColorMatrix type="matrix" values="0 0 0 0 0 0 0 0 0 0 0 0 0 0 0 0 0 0 0.757614 0"/>
<feBlend mode="normal" in2="shape" result="effect1_innerShadow"/>
<feColorMatrix in="SourceAlpha" type="matrix" values="0 0 0 0 0 0 0 0 0 0 0 0 0 0 0 0 0 0 127 0" result="hardAlpha"/>
<feOffset dy="-3.89665"/>
<feGaussianBlur stdDeviation="0.974162"/>
<feComposite in2="hardAlpha" operator="arithmetic" k2="-1" k3="1"/>
<feColorMatrix type="matrix" values="0 0 0 0 0 0 0 0 0 0 0 0 0 0 0 0 0 0 0.757614 0"/>
<feBlend mode="normal" in2="effect1_innerShadow" result="effect2_innerShadow"/>
</filter>
<filter id="filter6_ii" x="0" y="499.42" width="7.14385" height="127.29" filterUnits="userSpaceOnUse" color-interpolation-filters="sRGB">
<feFlood flood-opacity="0" result="BackgroundImageFix"/>
<feBlend mode="normal" in="SourceGraphic" in2="BackgroundImageFix" result="shape"/>
<feColorMatrix in="SourceAlpha" type="matrix" values="0 0 0 0 0 0 0 0 0 0 0 0 0 0 0 0 0 0 127 0" result="hardAlpha"/>
<feOffset dy="3.89665"/>
<feGaussianBlur stdDeviation="0.974162"/>
<feComposite in2="hardAlpha" operator="arithmetic" k2="-1" k3="1"/>
<feColorMatrix type="matrix" values="0 0 0 0 0 0 0 0 0 0 0 0 0 0 0 0 0 0 0.757614 0"/>
<feBlend mode="normal" in2="shape" result="effect1_innerShadow"/>
<feColorMatrix in="SourceAlpha" type="matrix" values="0 0 0 0 0 0 0 0 0 0 0 0 0 0 0 0 0 0 127 0" result="hardAlpha"/>
<feOffset dy="-3.89665"/>
<feGaussianBlur stdDeviation="0.974162"/>
<feComposite in2="hardAlpha" operator="arithmetic" k2="-1" k3="1"/>
<feColorMatrix type="matrix" values="0 0 0 0 0 0 0 0 0 0 0 0 0 0 0 0 0 0 0.757614 0"/>
<feBlend mode="normal" in2="effect1_innerShadow" result="effect2_innerShadow"/>
</filter>
<filter id="filter7_ii" x="910.517" y="385.768" width="7.14385" height="200.028" filterUnits="userSpaceOnUse" color-interpolation-filters="sRGB">
<feFlood flood-opacity="0" result="BackgroundImageFix"/>
<feBlend mode="normal" in="SourceGraphic" in2="BackgroundImageFix" result="shape"/>
<feColorMatrix in="SourceAlpha" type="matrix" values="0 0 0 0 0 0 0 0 0 0 0 0 0 0 0 0 0 0 127 0" result="hardAlpha"/>
<feOffset dy="3.89665"/>
<feGaussianBlur stdDeviation="0.974162"/>
<feComposite in2="hardAlpha" operator="arithmetic" k2="-1" k3="1"/>
<feColorMatrix type="matrix" values="0 0 0 0 0 0 0 0 0 0 0 0 0 0 0 0 0 0 0.757614 0"/>
<feBlend mode="normal" in2="shape" result="effect1_innerShadow"/>
<feColorMatrix in="SourceAlpha" type="matrix" values="0 0 0 0 0 0 0 0 0 0 0 0 0 0 0 0 0 0 127 0" result="hardAlpha"/>
<feOffset dy="-3.89665"/>
<feGaussianBlur stdDeviation="0.974162"/>
<feComposite in2="hardAlpha" operator="arithmetic" k2="-1" k3="1"/>
<feColorMatrix type="matrix" values="0 0 0 0 0 0 0 0 0 0 0 0 0 0 0 0 0 0 0.757614 0"/>
<feBlend mode="normal" in2="effect1_innerShadow" result="effect2_innerShadow"/>
</filter>
<filter id="filter8_iii" x="408.499" y="63.6453" width="101.313" height="15.5866" filterUnits="userSpaceOnUse" color-interpolation-filters="sRGB">
<feFlood flood-opacity="0" result="BackgroundImageFix"/>
<feBlend mode="normal" in="SourceGraphic" in2="BackgroundImageFix" result="shape"/>
<feColorMatrix in="SourceAlpha" type="matrix" values="0 0 0 0 0 0 0 0 0 0 0 0 0 0 0 0 0 0 127 0" result="hardAlpha"/>
<feMorphology radius="2.59777" operator="erode" in="SourceAlpha" result="effect1_innerShadow"/>
<feOffset/>
<feGaussianBlur stdDeviation="1.29888"/>
<feComposite in2="hardAlpha" operator="arithmetic" k2="-1" k3="1"/>
<feColorMatrix type="matrix" values="0 0 0 0 0 0 0 0 0 0 0 0 0 0 0 0 0 0 0.795035 0"/>
<feBlend mode="normal" in2="shape" result="effect1_innerShadow"/>
<feColorMatrix in="SourceAlpha" type="matrix" values="0 0 0 0 0 0 0 0 0 0 0 0 0 0 0 0 0 0 127 0" result="hardAlpha"/>
<feOffset dy="-2.59777"/>
<feComposite in2="hardAlpha" operator="arithmetic" k2="-1" k3="1"/>
<feColorMatrix type="matrix" values="0 0 0 0 0 0 0 0 0 0 0 0 0 0 0 0 0 0 0.80013 0"/>
<feBlend mode="normal" in2="effect1_innerShadow" result="effect2_innerShadow"/>
<feColorMatrix in="SourceAlpha" type="matrix" values="0 0 0 0 0 0 0 0 0 0 0 0 0 0 0 0 0 0 127 0" result="hardAlpha"/>
<feOffset dy="-1.29888"/>
<feComposite in2="hardAlpha" operator="arithmetic" k2="-1" k3="1"/>
<feColorMatrix type="matrix" values="0 0 0 0 1 0 0 0 0 1 0 0 0 0 1 0 0 0 0.197067 0"/>
<feBlend mode="normal" in2="effect2_innerShadow" result="effect3_innerShadow"/>
</filter>
<filter id="filter9_dd" x="533.841" y="55.2026" width="29.8743" height="29.8743" filterUnits="userSpaceOnUse" color-interpolation-filters="sRGB">
<feFlood flood-opacity="0" result="BackgroundImageFix"/>
<feColorMatrix in="SourceAlpha" type="matrix" values="0 0 0 0 0 0 0 0 0 0 0 0 0 0 0 0 0 0 127 0"/>
<feMorphology radius="3.89665" operator="dilate" in="SourceAlpha" result="effect1_dropShadow"/>
<feOffset/>
<feGaussianBlur stdDeviation="1.94832"/>
<feColorMatrix type="matrix" values="0 0 0 0 0 0 0 0 0 0 0 0 0 0 0 0 0 0 0.4 0"/>
<feBlend mode="normal" in2="BackgroundImageFix" result="effect1_dropShadow"/>
<feColorMatrix in="SourceAlpha" type="matrix" values="0 0 0 0 0 0 0 0 0 0 0 0 0 0 0 0 0 0 127 0"/>
<feMorphology radius="1.29888" operator="dilate" in="SourceAlpha" result="effect2_dropShadow"/>
<feOffset/>
<feColorMatrix type="matrix" values="0 0 0 0 0 0 0 0 0 0 0 0 0 0 0 0 0 0 1 0"/>
<feBlend mode="normal" in2="effect1_dropShadow" result="effect2_dropShadow"/>
<feBlend mode="normal" in="SourceGraphic" in2="effect2_dropShadow" result="shape"/>
</filter>
<filter id="filter10_f" x="536.746" y="58.9092" width="12.5961" height="19.3299" filterUnits="userSpaceOnUse" color-interpolation-filters="sRGB">
<feFlood flood-opacity="0" result="BackgroundImageFix"/>
<feBlend mode="normal" in="SourceGraphic" in2="BackgroundImageFix" result="shape"/>
<feGaussianBlur stdDeviation="1.94859" result="effect1_foregroundBlur"/>
</filter>
<filter id="filter11_f" x="546.179" y="59.0987" width="16.2371" height="18.8349" filterUnits="userSpaceOnUse" color-interpolation-filters="sRGB">
<feFlood flood-opacity="0" result="BackgroundImageFix"/>
<feBlend mode="normal" in="SourceGraphic" in2="BackgroundImageFix" result="shape"/>
<feGaussianBlur stdDeviation="1.94859" result="effect1_foregroundBlur"/>
</filter>
<filter id="filter12_f" x="541.048" y="68.6036" width="18.3466" height="14.6071" filterUnits="userSpaceOnUse" color-interpolation-filters="sRGB">
<feFlood flood-opacity="0" result="BackgroundImageFix"/>
<feBlend mode="normal" in="SourceGraphic" in2="BackgroundImageFix" result="shape"/>
<feGaussianBlur stdDeviation="1.46297" result="effect1_foregroundBlur"/>
</filter>
<linearGradient id="paint0_linear" x1="10.3911" y1="5.19556" x2="10.3911" y2="1841.82" gradientUnits="userSpaceOnUse">
<stop stop-color="#C9C6C8"/>
<stop offset="0.0168336" stop-color="#2C2A2A"/>
<stop offset="0.0782507" stop-color="#C9C6C8"/>
<stop offset="0.920557" stop-color="#C9C6C8"/>
<stop offset="0.980426" stop-color="#2C2A2A"/>
<stop offset="1" stop-color="#C9C6C8"/>
</linearGradient>
<linearGradient id="paint1_linear" x1="430.169" y1="13.6382" x2="430.169" y2="129.996" gradientUnits="userSpaceOnUse">
<stop stop-color="white" stop-opacity="0.7"/>
<stop offset="1" stop-opacity="0.01"/>
</linearGradient>
<linearGradient id="paint2_linear" x1="491.152" y1="1830.78" x2="491.152" y2="1702.33" gradientUnits="userSpaceOnUse">
<stop stop-color="white" stop-opacity="0.7"/>
<stop offset="1" stop-opacity="0.01"/>
</linearGradient>
<linearGradient id="paint3_linear" x1="462.898" y1="1836.62" x2="462.898" y2="1815.52" gradientUnits="userSpaceOnUse">
<stop stop-color="white" stop-opacity="0.75"/>
<stop offset="1" stop-color="white" stop-opacity="0.01"/>
</linearGradient>
<linearGradient id="paint4_linear" x1="454.758" y1="10.7559" x2="454.758" y2="23.7205" gradientUnits="userSpaceOnUse">
<stop stop-color="white" stop-opacity="0.75"/>
<stop offset="1" stop-color="white" stop-opacity="0.01"/>
</linearGradient>
<linearGradient id="paint5_linear" x1="16.8855" y1="13.6382" x2="16.8855" y2="1833.37" gradientUnits="userSpaceOnUse">
<stop stop-color="#5F5F5F"/>
<stop offset="0.0101238" stop-color="#222222"/>
<stop offset="1" stop-color="#252525"/>
</linearGradient>
<linearGradient id="paint6_linear" x1="26.6272" y1="23.3799" x2="26.6272" y2="1823.63" gradientUnits="userSpaceOnUse">
<stop stop-color="#6D6D6D"/>
<stop offset="0.0161168"/>
<stop offset="0.984697"/>
<stop offset="1" stop-color="#5C5C5C"/>
</linearGradient>
<radialGradient id="paint7_radial" cx="0" cy="0" r="1" gradientUnits="userSpaceOnUse" gradientTransform="translate(438.808 1805.5) rotate(90) scale(521.289 182.868)">
<stop stop-color="white" stop-opacity="0.151268"/>
<stop offset="1" stop-color="white" stop-opacity="0.01"/>
</radialGradient>
<linearGradient id="paint8_linear" x1="1.94181" y1="266.744" x2="3.90546" y2="266.744" gradientUnits="userSpaceOnUse">
<stop stop-color="#A5A5A5"/>
<stop offset="0.00734796" stop-color="#E2E2E2"/>
<stop offset="0.994739" stop-color="#BEBEBE"/>
<stop offset="1" stop-color="#9D9D9D"/>
</linearGradient>
<linearGradient id="paint9_linear" x1="1.94181" y1="419.918" x2="3.90546" y2="419.918" gradientUnits="userSpaceOnUse">
<stop stop-color="#A5A5A5"/>
<stop offset="0.00734796" stop-color="#E2E2E2"/>
<stop offset="0.994739" stop-color="#BEBEBE"/>
<stop offset="1" stop-color="#9D9D9D"/>
</linearGradient>
<linearGradient id="paint10_linear" x1="1.94181" y1="573.835" x2="3.90546" y2="573.835" gradientUnits="userSpaceOnUse">
<stop stop-color="#A5A5A5"/>
<stop offset="0.00734796" stop-color="#E2E2E2"/>
<stop offset="0.994739" stop-color="#BEBEBE"/>
<stop offset="1" stop-color="#9D9D9D"/>
</linearGradient>
<linearGradient id="paint11_linear" x1="915.192" y1="477.459" x2="915.082" y2="477.459" gradientUnits="userSpaceOnUse">
<stop stop-color="#8E8E8E"/>
<stop offset="1" stop-color="#BCBCBC"/>
</linearGradient>
<linearGradient id="paint12_linear" x1="917.661" y1="387.716" x2="917.661" y2="583.848" gradientUnits="userSpaceOnUse">
<stop stop-opacity="0.996971"/>
<stop offset="0.0951211" stop-opacity="0.01"/>
<stop offset="0.895463" stop-opacity="0.01"/>
<stop offset="1" stop-opacity="0.881058"/>
</linearGradient>
<radialGradient id="paint13_radial" cx="0" cy="0" r="1" gradientUnits="userSpaceOnUse" gradientTransform="translate(568.16 93.0863) rotate(45.1938) scale(27.4569)">
<stop stop-color="#434343"/>
<stop offset="1" stop-color="#121212"/>
</radialGradient>
<linearGradient id="paint14_linear" x1="548.778" y1="48.7081" x2="548.778" y2="77.2836" gradientUnits="userSpaceOnUse">
<stop stop-color="#2A4893"/>
<stop offset="1" stop-color="#213054"/>
</linearGradient>
<clipPath id="clip0">
<rect width="96.1173" height="2.59777" fill="white" transform="translate(409.797 1844.41)"/>
</clipPath>
<clipPath id="clip1">
<rect width="917.661" height="396.159" fill="white" transform="translate(0 228.603)"/>
</clipPath>
<clipPath id="clip2">
<rect width="101.313" height="15.5866" fill="white" transform="translate(408.499 63.6453)"/>
</clipPath>
<clipPath id="clip3">
<rect width="27.2765" height="27.2765" fill="white" transform="translate(535.14 56.5015)"/>
</clipPath>
</defs>
</svg>
