<svg width="931" height="1862" viewBox="0 0 931 1862" fill="none" xmlns="http://www.w3.org/2000/svg">
<g clip-path="url(#clip0_2:552)">
<path fill-rule="evenodd" clip-rule="evenodd" d="M168.799 0H761.392C875.307 0 924.444 56.3207 924.444 163.053V1697.33C924.444 1800.47 871.715 1860.38 761.392 1860.38H168.799C54.8841 1860.38 5.74634 1804.06 5.74634 1697.33V163.053C5.74634 56.3207 54.8841 0 168.799 0Z" fill="black"/>
<path fill-rule="evenodd" clip-rule="evenodd" d="M168.799 4.30981C59.9665 4.30981 10.0562 55.9097 10.0562 163.053V1697.33C10.0562 1804.47 59.9665 1856.07 168.799 1856.07H761.392C866.676 1856.07 920.135 1800.83 920.135 1697.33V163.053C920.135 55.9097 870.224 4.30981 761.392 4.30981H168.799Z" fill="#C9C6C8"/>
<path fill-rule="evenodd" clip-rule="evenodd" d="M168.799 4.30981C59.9665 4.30981 10.0562 55.9097 10.0562 163.053V1697.33C10.0562 1804.47 59.9665 1856.07 168.799 1856.07H761.392C866.676 1856.07 920.135 1800.83 920.135 1697.33V163.053C920.135 55.9097 870.224 4.30981 761.392 4.30981H168.799Z" fill="url(#paint0_linear_2:552)"/>
<path fill-rule="evenodd" clip-rule="evenodd" d="M168.799 20.1123H761.392C875.307 20.1123 924.444 75.1718 924.444 179.514V1679.43C924.444 1780.26 871.715 1838.83 761.392 1838.83H168.799C54.8841 1838.83 5.74634 1783.77 5.74634 1679.43V179.514C5.74634 75.1718 54.8841 20.1123 168.799 20.1123Z" fill="url(#paint1_linear_2:552)"/>
<path fill-rule="evenodd" clip-rule="evenodd" d="M168.799 20.1123H761.392C875.307 20.1123 924.444 75.1718 924.444 179.514V1679.43C924.444 1780.26 871.715 1838.83 761.392 1838.83H168.799C54.8841 1838.83 5.74634 1783.77 5.74634 1679.43V179.514C5.74634 75.1718 54.8841 20.1123 168.799 20.1123Z" fill="url(#paint2_linear_2:552)"/>
<path d="M20.4714 163.053C20.4714 111.869 32.0383 74.8534 56.2262 50.6191C80.4137 26.3853 117.428 14.7249 168.799 14.7249H761.392C812.762 14.7249 849.777 26.3853 873.964 50.6191C898.152 74.8534 909.719 111.869 909.719 163.053V1697.33C909.719 1746.68 897.274 1783.71 872.625 1808.41C847.977 1833.11 810.947 1845.66 761.392 1845.66H168.799C117.428 1845.66 80.4137 1834 56.2262 1809.76C32.0383 1785.53 20.4714 1748.51 20.4714 1697.33V163.053Z" fill="url(#paint3_linear_2:552)" stroke="black" stroke-width="2.15488"/>
<path d="M168.799 36.6331C79.0489 36.6331 43.0977 72.6004 43.0977 162.335V1696.61C43.0977 1786.34 79.0489 1822.31 168.799 1822.31H761.392C847.551 1822.31 887.093 1782.75 887.093 1696.61V162.335C887.093 72.6004 851.142 36.6331 761.392 36.6331H168.799Z" fill="black"/>
</g>
<g clip-path="url(#clip1_2:552)">
<path fill-rule="evenodd" clip-rule="evenodd" d="M425.948 1857.51C445.342 1857.51 485.403 1857.51 504.961 1857.51C505.128 1857.51 505.294 1857.51 505.458 1857.51C510.21 1857.55 509.746 1860.38 504.993 1860.38H425.916C421.163 1860.38 420.699 1857.55 425.451 1857.51C425.615 1857.51 425.781 1857.51 425.948 1857.51Z" fill="#343434"/>
</g>
<rect opacity="0.602808" x="5.74634" y="178.137" width="15.8025" height="12.9293" fill="black"/>
<rect opacity="0.602808" x="908.642" y="178.137" width="15.8025" height="12.9293" fill="black"/>
<rect opacity="0.602808" x="733.378" y="15.8025" width="15.8025" height="12.9293" transform="rotate(-90 733.378 15.8025)" fill="black"/>
<rect opacity="0.602808" x="183.883" y="1861.38" width="15.8025" height="12.9293" transform="rotate(-90 183.883 1861.38)" fill="black"/>
<rect opacity="0.602808" x="5.74634" y="1669.32" width="15.8025" height="12.9293" fill="black"/>
<rect opacity="0.602808" x="908.642" y="1669.32" width="15.8025" height="12.9293" fill="black"/>
<g clip-path="url(#clip2_2:552)">
<path fill-rule="evenodd" clip-rule="evenodd" d="M5.01441 251.403C2.24503 251.403 0 253.654 0 256.431V318.204C0 320.981 2.24503 323.232 5.01441 323.232H7.87978C7.87978 319.454 7.92805 255.096 7.87978 251.403H5.01441Z" fill="url(#paint4_linear_2:552)"/>
<path fill-rule="evenodd" clip-rule="evenodd" d="M5.01441 382.851C3.38405 383.252 1.42902 384.28 0.3851 385.74C0.170079 386.041 0 386.992 0 387.267C0 401.073 0 443.122 0 513.416C0 513.71 0.239392 515.193 0.385971 515.553C1.23074 517.626 2.69853 518.128 5.01441 519.326H7.87978C7.87978 515.548 7.92805 386.544 7.87978 382.851H5.01441Z" fill="url(#paint5_linear_2:552)"/>
<path fill-rule="evenodd" clip-rule="evenodd" d="M5.01441 553.086C3.38405 553.488 1.42902 554.516 0.3851 555.976C0.170079 556.277 0 557.228 0 557.503C0 571.309 0 613.358 0 683.652C0 683.945 0.239392 685.429 0.385971 685.789C1.23074 687.862 2.69853 688.364 5.01441 689.562H7.87978C7.87978 685.784 7.92805 556.78 7.87978 553.086H5.01441Z" fill="url(#paint6_linear_2:552)"/>
<path fill-rule="evenodd" clip-rule="evenodd" d="M925.177 427.385C926.807 427.786 928.762 428.814 929.806 430.274C930.021 430.575 930.191 431.526 930.191 431.802C930.191 445.607 930.191 568.106 930.191 638.399C930.191 638.693 929.952 640.176 929.805 640.536C928.96 642.609 927.492 643.111 925.177 644.31H922.311C922.311 640.532 922.263 431.078 922.311 427.385H925.177Z" fill="url(#paint7_linear_2:552)"/>
<path fill-rule="evenodd" clip-rule="evenodd" d="M925.177 427.385C926.807 427.786 928.762 428.814 929.806 430.274C930.021 430.575 930.191 431.526 930.191 431.802C930.191 445.607 930.191 568.106 930.191 638.399C930.191 638.693 929.952 640.176 929.805 640.536C928.96 642.609 927.492 643.111 925.177 644.31H922.311C922.311 640.532 922.263 431.078 922.311 427.385H925.177Z" fill="url(#paint8_linear_2:552)"/>
</g>
<g opacity="0.801364" clip-path="url(#clip3_2:552)">
<rect x="409.428" y="66.8013" width="112.054" height="15.0842" rx="7.54209" fill="#1D1C1C"/>
<rect opacity="0.244441" x="409.428" y="66.8013" width="112.054" height="15.0842" rx="7.54209" fill="black" fill-opacity="0.01"/>
</g>
<g clip-path="url(#clip4_2:552)">
<circle cx="563.861" cy="73.9843" r="13.6476" fill="url(#paint9_radial_2:552)"/>
<circle opacity="0.387535" cx="563.861" cy="73.9842" r="7.18294" fill="url(#paint10_linear_2:552)"/>
</g>
<path fill-rule="evenodd" clip-rule="evenodd" d="M690.281 73.9842V74.7025C690.281 94.6668 675.048 119.955 640 119.955H290.909C255.861 119.955 240.629 94.6668 240.629 74.7025V73.9842C240.629 64.7506 240.629 55.3086 224.108 55.3086H154.433C96.2047 55.3086 61.0551 90.4583 61.0551 148.687V1711.69C61.0551 1769.92 96.2047 1805.07 154.433 1805.07H775.758C833.986 1805.07 869.136 1769.92 869.136 1711.69V148.687C869.136 90.4583 833.986 55.3086 775.758 55.3086H706.801C690.281 55.3086 690.281 64.7506 690.281 73.9842Z" fill="#FF0000"/>
<text fill="black" xml:space="preserve" style="white-space: pre" font-family="Roboto" font-size="20" letter-spacing="0em"><tspan x="113" y="168.336">name: iPhone 11 Pro&#10;</tspan><tspan x="113" y="191.336">density: 3&#10;</tspan><tspan x="113" y="214.336">screen_size: 375x812&#10;</tspan><tspan x="113" y="237.336">safe_areas: 0,44,0,34|44,0,44,21&#10;</tspan><tspan x="113" y="260.336">device_type: phone</tspan></text>
<defs>
<linearGradient id="paint0_linear_2:552" x1="10.0562" y1="4.30981" x2="10.0562" y2="1856.07" gradientUnits="userSpaceOnUse">
<stop stop-color="#C9C6C8"/>
<stop offset="0.0168336" stop-color="#716D6D"/>
<stop offset="0.0782507" stop-color="#C9C6C8"/>
<stop offset="0.920557" stop-color="#C9C6C8"/>
<stop offset="0.980426" stop-color="#716D6D"/>
<stop offset="1" stop-color="#C9C6C8"/>
</linearGradient>
<linearGradient id="paint1_linear_2:552" x1="435.682" y1="20.1123" x2="435.682" y2="136.572" gradientUnits="userSpaceOnUse">
<stop stop-opacity="0.5"/>
<stop offset="1" stop-opacity="0.01"/>
</linearGradient>
<linearGradient id="paint2_linear_2:552" x1="497.565" y1="1838.83" x2="497.565" y2="1710.27" gradientUnits="userSpaceOnUse">
<stop stop-opacity="0.5"/>
<stop offset="1" stop-opacity="0.01"/>
</linearGradient>
<linearGradient id="paint3_linear_2:552" x1="19.3939" y1="13.6475" x2="19.3939" y2="1846.73" gradientUnits="userSpaceOnUse">
<stop stop-color="#5F5F5F"/>
<stop offset="0.0101238" stop-color="#222222"/>
<stop offset="1" stop-color="#252525"/>
</linearGradient>
<linearGradient id="paint4_linear_2:552" x1="2.14768" y1="293.587" x2="4.31952" y2="293.587" gradientUnits="userSpaceOnUse">
<stop stop-color="#A5A5A5"/>
<stop offset="0.00734796" stop-color="#E2E2E2"/>
<stop offset="0.994739" stop-color="#BEBEBE"/>
<stop offset="1" stop-color="#9D9D9D"/>
</linearGradient>
<linearGradient id="paint5_linear_2:552" x1="2.14768" y1="463" x2="4.31952" y2="463" gradientUnits="userSpaceOnUse">
<stop stop-color="#A5A5A5"/>
<stop offset="0.00734796" stop-color="#E2E2E2"/>
<stop offset="0.994739" stop-color="#BEBEBE"/>
<stop offset="1" stop-color="#9D9D9D"/>
</linearGradient>
<linearGradient id="paint6_linear_2:552" x1="2.14768" y1="633.236" x2="4.31952" y2="633.236" gradientUnits="userSpaceOnUse">
<stop stop-color="#A5A5A5"/>
<stop offset="0.00734796" stop-color="#E2E2E2"/>
<stop offset="0.994739" stop-color="#BEBEBE"/>
<stop offset="1" stop-color="#9D9D9D"/>
</linearGradient>
<linearGradient id="paint7_linear_2:552" x1="927.461" y1="526.642" x2="927.339" y2="526.642" gradientUnits="userSpaceOnUse">
<stop stop-color="#8E8E8E"/>
<stop offset="1" stop-color="#BCBCBC"/>
</linearGradient>
<linearGradient id="paint8_linear_2:552" x1="930.191" y1="427.385" x2="930.191" y2="644.31" gradientUnits="userSpaceOnUse">
<stop stop-opacity="0.996971"/>
<stop offset="0.0951211" stop-opacity="0.01"/>
<stop offset="0.895463" stop-opacity="0.01"/>
<stop offset="1" stop-opacity="0.881058"/>
</linearGradient>
<radialGradient id="paint9_radial_2:552" cx="0" cy="0" r="1" gradientUnits="userSpaceOnUse" gradientTransform="translate(583.256 96.9465) rotate(45.1938) scale(27.4757)">
<stop stop-color="#434343"/>
<stop offset="1" stop-color="#121212"/>
</radialGradient>
<linearGradient id="paint10_linear_2:552" x1="563.861" y1="52.4354" x2="563.861" y2="81.1672" gradientUnits="userSpaceOnUse">
<stop stop-color="#2A4893"/>
<stop offset="1" stop-color="#213054"/>
</linearGradient>
<clipPath id="clip0_2:552">
<rect width="918.698" height="1860.38" fill="white" transform="translate(5.74634)"/>
</clipPath>
<clipPath id="clip1_2:552">
<rect width="107.744" height="2.87318" fill="white" transform="translate(411.583 1857.51)"/>
</clipPath>
<clipPath id="clip2_2:552">
<rect width="930.191" height="438.159" fill="white" transform="translate(0 251.403)"/>
</clipPath>
<clipPath id="clip3_2:552">
<rect width="112.054" height="15.0842" fill="white" transform="translate(409.428 66.8013)"/>
</clipPath>
<clipPath id="clip4_2:552">
<rect width="27.2952" height="27.2952" fill="white" transform="translate(550.213 60.3367)"/>
</clipPath>
</defs>
</svg>
