<svg width="869" height="1839" viewBox="0 0 869 1839" fill="none" xmlns="http://www.w3.org/2000/svg">
<g clip-path="url(#clip0_79:0)">
<g clip-path="url(#clip1_79:0)">
<g clip-path="url(#clip2_79:0)">
<path fill-rule="evenodd" clip-rule="evenodd" d="M3.43027 580.858H10.2908V644.889H3.43027V580.858Z" fill="url(#paint0_linear_79:0)"/>
<path fill-rule="evenodd" clip-rule="evenodd" d="M0 584.999C0 584.544 0.180701 584.107 0.50235 583.786V583.786C1.58282 582.705 3.43026 583.471 3.43026 584.999V640.749C3.43026 642.277 1.58282 643.042 0.50235 641.962V641.962C0.180701 641.64 0 641.204 0 640.749V584.999Z" fill="url(#paint1_linear_79:0)"/>
</g>
<g clip-path="url(#clip3_79:0)">
<path fill-rule="evenodd" clip-rule="evenodd" d="M3.43027 431.07H10.2908V495.101H3.43027V431.07Z" fill="url(#paint2_linear_79:0)"/>
<path fill-rule="evenodd" clip-rule="evenodd" d="M0 435.211C0 434.756 0.180701 434.319 0.50235 433.998V433.998C1.58282 432.917 3.43026 433.682 3.43026 435.211V490.961C3.43026 492.489 1.58282 493.254 0.50235 492.173V492.173C0.180701 491.852 0 491.416 0 490.961V435.211Z" fill="url(#paint3_linear_79:0)"/>
</g>
<g clip-path="url(#clip4_79:0)">
<path fill-rule="evenodd" clip-rule="evenodd" d="M3.43027 259.557H10.2908V343.026H3.43027V259.557Z" fill="url(#paint4_linear_79:0)"/>
<path fill-rule="evenodd" clip-rule="evenodd" d="M0 263.697C0 263.242 0.180701 262.806 0.50235 262.485V262.485C1.58282 261.404 3.43026 262.169 3.43026 263.697V338.886C3.43026 340.414 1.58282 341.179 0.50235 340.098V340.098C0.180701 339.777 0 339.341 0 338.886V263.697Z" fill="url(#paint5_linear_79:0)"/>
</g>
<g clip-path="url(#clip5_79:0)">
<path fill-rule="evenodd" clip-rule="evenodd" d="M726.073 3.43018V10.2907L586.575 10.2907V3.43018L726.073 3.43018Z" fill="url(#paint6_linear_79:0)"/>
<path fill-rule="evenodd" clip-rule="evenodd" d="M721.932 0C722.387 0 722.823 0.180701 723.144 0.50235V0.50235C724.225 1.58282 723.46 3.43026 721.932 3.43026L590.716 3.43026C589.188 3.43026 588.422 1.58282 589.503 0.50235V0.50235C589.825 0.180701 590.261 0 590.716 0L721.932 0Z" fill="url(#paint7_linear_79:0)"/>
</g>
</g>
<g clip-path="url(#clip6_79:0)">
<rect x="10.2908" y="10.2908" width="858.709" height="1812.32" rx="125.776" fill="url(#paint8_linear_79:0)"/>
<rect x="10.2908" y="10.2908" width="858.709" height="1812.32" rx="125.776" fill="url(#paint9_linear_79:0)"/>
<rect x="10.2908" y="10.2908" width="858.709" height="1812.32" rx="125.776" fill="url(#paint10_radial_79:0)"/>
<rect x="10.2908" y="10.2908" width="858.709" height="1812.32" rx="125.776" fill="url(#paint11_radial_79:0)"/>
<rect x="10.2908" y="10.2908" width="858.709" height="1812.32" rx="125.776" fill="url(#paint12_radial_79:0)"/>
<rect x="10.2908" y="10.2908" width="858.709" height="1812.32" rx="125.776" fill="url(#paint13_radial_79:0)"/>
<rect x="10.2908" y="10.2908" width="858.709" height="1812.32" rx="125.776" fill="url(#paint14_radial_79:0)"/>
</g>
<g clip-path="url(#clip7_79:0)">
<path fill-rule="evenodd" clip-rule="evenodd" d="M137.211 20.5815C72.7981 20.5815 20.5816 72.7981 20.5816 137.21V1697.98C20.5816 1762.39 72.7983 1814.61 137.211 1814.61H742.08C806.493 1814.61 858.709 1762.39 858.709 1697.98V137.21C858.709 72.7981 806.493 20.5815 742.08 20.5815H137.211ZM137.211 24.0118C74.6926 24.0118 24.0119 74.6926 24.0119 137.21V1697.98C24.0119 1760.5 74.6926 1811.18 137.21 1811.18H742.08C804.598 1811.18 855.279 1760.5 855.279 1697.98V137.211C855.279 74.6926 804.598 24.0118 742.08 24.0118H137.211Z" fill="url(#paint15_linear_79:0)"/>
<path fill-rule="evenodd" clip-rule="evenodd" d="M137.211 20.5815C72.7981 20.5815 20.5816 72.7981 20.5816 137.21V1697.98C20.5816 1762.39 72.7983 1814.61 137.211 1814.61H742.08C806.493 1814.61 858.709 1762.39 858.709 1697.98V137.21C858.709 72.7981 806.493 20.5815 742.08 20.5815H137.211ZM137.211 24.0118C74.6926 24.0118 24.0119 74.6926 24.0119 137.21V1697.98C24.0119 1760.5 74.6926 1811.18 137.21 1811.18H742.08C804.598 1811.18 855.279 1760.5 855.279 1697.98V137.211C855.279 74.6926 804.598 24.0118 742.08 24.0118H137.211Z" fill="url(#paint16_radial_79:0)"/>
<path fill-rule="evenodd" clip-rule="evenodd" d="M137.211 20.5815C72.7981 20.5815 20.5816 72.7981 20.5816 137.21V1697.98C20.5816 1762.39 72.7983 1814.61 137.211 1814.61H742.08C806.493 1814.61 858.709 1762.39 858.709 1697.98V137.21C858.709 72.7981 806.493 20.5815 742.08 20.5815H137.211ZM137.211 24.0118C74.6926 24.0118 24.0119 74.6926 24.0119 137.21V1697.98C24.0119 1760.5 74.6926 1811.18 137.21 1811.18H742.08C804.598 1811.18 855.279 1760.5 855.279 1697.98V137.211C855.279 74.6926 804.598 24.0118 742.08 24.0118H137.211Z" fill="url(#paint17_radial_79:0)"/>
<path fill-rule="evenodd" clip-rule="evenodd" d="M137.211 20.5815C72.7981 20.5815 20.5816 72.7981 20.5816 137.21V1697.98C20.5816 1762.39 72.7983 1814.61 137.211 1814.61H742.08C806.493 1814.61 858.709 1762.39 858.709 1697.98V137.21C858.709 72.7981 806.493 20.5815 742.08 20.5815H137.211ZM137.211 24.0118C74.6926 24.0118 24.0119 74.6926 24.0119 137.21V1697.98C24.0119 1760.5 74.6926 1811.18 137.21 1811.18H742.08C804.598 1811.18 855.279 1760.5 855.279 1697.98V137.211C855.279 74.6926 804.598 24.0118 742.08 24.0118H137.211Z" fill="url(#paint18_radial_79:0)"/>
<path fill-rule="evenodd" clip-rule="evenodd" d="M137.211 20.5815C72.7981 20.5815 20.5816 72.7981 20.5816 137.21V1697.98C20.5816 1762.39 72.7983 1814.61 137.211 1814.61H742.08C806.493 1814.61 858.709 1762.39 858.709 1697.98V137.21C858.709 72.7981 806.493 20.5815 742.08 20.5815H137.211ZM137.211 24.0118C74.6926 24.0118 24.0119 74.6926 24.0119 137.21V1697.98C24.0119 1760.5 74.6926 1811.18 137.21 1811.18H742.08C804.598 1811.18 855.279 1760.5 855.279 1697.98V137.211C855.279 74.6926 804.598 24.0118 742.08 24.0118H137.211Z" fill="url(#paint19_radial_79:0)"/>
<rect x="24.5836" y="24.5837" width="830.124" height="1786.02" rx="112.627" fill="#020202" stroke="#0A0A10" stroke-width="1.14342"/>
</g>
<g clip-path="url(#clip8_79:0)">
<rect x="858.709" y="165.796" width="10.2908" height="13.7211" fill="#191B1E"/>
<rect x="855.279" y="165.796" width="3.43026" height="13.7211" fill="#313336"/>
<rect x="10.2908" y="165.796" width="10.2908" height="13.7211" fill="#191B1E"/>
<rect x="20.5816" y="165.796" width="3.43026" height="13.7211" fill="#313336"/>
<rect x="858.709" y="1655.67" width="10.2908" height="13.7211" fill="#191B1E"/>
<rect x="855.279" y="1655.67" width="3.43026" height="13.7211" fill="#313336"/>
<rect x="10.2908" y="1655.67" width="10.2908" height="13.7211" fill="#191B1E"/>
<rect x="20.5816" y="1655.67" width="3.43026" height="13.7211" fill="#313336"/>
</g>
<g clip-path="url(#clip9_79:0)">
<path fill-rule="evenodd" clip-rule="evenodd" d="M362.464 1693.41C362.464 1736.35 397.276 1771.16 440.217 1771.16C483.159 1771.16 517.97 1736.35 517.97 1693.41C517.97 1650.46 483.159 1615.65 440.217 1615.65C397.276 1615.65 362.464 1650.46 362.464 1693.41ZM509.966 1693.41C509.966 1731.93 478.738 1763.16 440.217 1763.16C401.696 1763.16 370.469 1731.93 370.469 1693.41C370.469 1654.89 401.696 1623.66 440.217 1623.66C478.738 1623.66 509.966 1654.89 509.966 1693.41Z" fill="url(#paint20_linear_79:0)"/>
<path opacity="0.02" d="M440.217 1763.73C479.054 1763.73 510.538 1732.24 510.538 1693.41C510.538 1654.57 479.054 1623.09 440.217 1623.09C401.38 1623.09 369.897 1654.57 369.897 1693.41C369.897 1732.24 401.38 1763.73 440.217 1763.73Z" stroke="black" stroke-width="1.14342"/>
<path opacity="0.08" d="M440.217 1770.59C397.591 1770.59 363.036 1736.03 363.036 1693.41C363.036 1650.78 397.591 1616.23 440.217 1616.23C482.843 1616.23 517.398 1650.78 517.398 1693.41C517.398 1736.03 482.843 1770.59 440.217 1770.59Z" stroke="black" stroke-width="1.14342"/>
</g>
<g opacity="0.5" clip-path="url(#clip10_79:0)">
<rect x="359.606" y="151.503" width="160.079" height="33.1592" rx="16.5796" fill="url(#paint21_radial_79:0)" stroke="url(#paint22_radial_79:0)" stroke-width="1.14342"/>
<rect x="367.038" y="158.936" width="145.214" height="18.2947" rx="9.14737" fill="black"/>
<rect x="367.038" y="158.936" width="145.214" height="18.2947" rx="9.14737" fill="#0C0C0C"/>
</g>
<g clip-path="url(#clip11_79:0)">
<circle cx="322.445" cy="168.083" r="11.4342" fill="url(#paint23_radial_79:0)"/>
</g>
<g clip-path="url(#clip12_79:0)">
<circle cx="439.645" cy="100.049" r="15.4362" fill="url(#paint24_radial_79:0)"/>
<circle cx="439.646" cy="100.049" r="7.43224" fill="url(#paint25_radial_79:0)"/>
</g>
<rect x="64.0316" y="261.844" width="750.084" height="1317.22" rx="6.86053" fill="#222222"/>
</g>
<rect x="73.179" y="270.991" width="731.789" height="1298.93" fill="#FF0000"/>
<text fill="black" xml:space="preserve" style="white-space: pre" font-family="Roboto" font-size="20" letter-spacing="0em"><tspan x="106" y="320.336">name: iPhone SE&#10;</tspan><tspan x="106" y="343.336">density: 2&#10;</tspan><tspan x="106" y="366.336">screen_size: 320x568&#10;</tspan><tspan x="106" y="389.336">safe_areas: 0,20,0,0|0,20,0,0&#10;</tspan><tspan x="106" y="412.336">device_type: phone</tspan></text>
<defs>
<linearGradient id="paint0_linear_79:0" x1="3.43027" y1="580.858" x2="3.43027" y2="644.889" gradientUnits="userSpaceOnUse">
<stop stop-color="#9A9B9F"/>
<stop offset="0.11806" stop-color="#45464C"/>
<stop offset="0.259588" stop-color="#7E808A"/>
<stop offset="0.397792" stop-color="#FEFFFF"/>
<stop offset="0.516061" stop-color="#E7E9EB"/>
<stop offset="0.670811" stop-color="#7D7E83"/>
<stop offset="0.82966" stop-color="#313236"/>
<stop offset="0.891209" stop-color="#4A4B4F"/>
<stop offset="1" stop-color="#B4B5B9"/>
</linearGradient>
<linearGradient id="paint1_linear_79:0" x1="0.0299216" y1="580.858" x2="0.0299216" y2="643.772" gradientUnits="userSpaceOnUse">
<stop stop-color="#DBDDE3"/>
<stop offset="0.138343" stop-color="#B8B9BD"/>
<stop offset="0.882256" stop-color="#A0A1A3"/>
<stop offset="1" stop-color="#EDEDED"/>
</linearGradient>
<linearGradient id="paint2_linear_79:0" x1="3.43027" y1="431.07" x2="3.43027" y2="495.101" gradientUnits="userSpaceOnUse">
<stop stop-color="#9A9B9F"/>
<stop offset="0.11806" stop-color="#45464C"/>
<stop offset="0.259588" stop-color="#7E808A"/>
<stop offset="0.397792" stop-color="#FEFFFF"/>
<stop offset="0.516061" stop-color="#E7E9EB"/>
<stop offset="0.670811" stop-color="#7D7E83"/>
<stop offset="0.82966" stop-color="#313236"/>
<stop offset="0.891209" stop-color="#4A4B4F"/>
<stop offset="1" stop-color="#B4B5B9"/>
</linearGradient>
<linearGradient id="paint3_linear_79:0" x1="0.0299216" y1="431.07" x2="0.0299216" y2="493.984" gradientUnits="userSpaceOnUse">
<stop stop-color="#DBDDE3"/>
<stop offset="0.138343" stop-color="#B8B9BD"/>
<stop offset="0.882256" stop-color="#A0A1A3"/>
<stop offset="1" stop-color="#EDEDED"/>
</linearGradient>
<linearGradient id="paint4_linear_79:0" x1="3.43027" y1="259.557" x2="3.43027" y2="343.026" gradientUnits="userSpaceOnUse">
<stop stop-color="#2C2D2F"/>
<stop offset="0.0451274" stop-color="#5F6062"/>
<stop offset="0.0948779" stop-color="#E1E2E8"/>
<stop offset="0.873977" stop-color="#E1E3E7"/>
<stop offset="0.942182" stop-color="#7C7D7F"/>
<stop offset="1" stop-color="#474548"/>
</linearGradient>
<linearGradient id="paint5_linear_79:0" x1="0.0299216" y1="259.557" x2="0.0299216" y2="341.57" gradientUnits="userSpaceOnUse">
<stop stop-color="#E7E7E7"/>
<stop offset="0.0899753" stop-color="#7F8085"/>
<stop offset="0.903858" stop-color="#88898E"/>
<stop offset="1" stop-color="#E1E0E2"/>
</linearGradient>
<linearGradient id="paint6_linear_79:0" x1="726.073" y1="3.43018" x2="586.575" y2="3.43018" gradientUnits="userSpaceOnUse">
<stop stop-color="#222325"/>
<stop offset="0.0323178" stop-color="#6E6F71"/>
<stop offset="0.0948779" stop-color="#D0D1D3"/>
<stop offset="0.211474" stop-color="#F7F8FD"/>
<stop offset="0.827861" stop-color="#F1F2F7"/>
<stop offset="0.929844" stop-color="#C0C1C6"/>
<stop offset="0.963537" stop-color="#828385"/>
<stop offset="1" stop-color="#565759"/>
</linearGradient>
<linearGradient id="paint7_linear_79:0" x1="726.072" y1="0.0299216" x2="589.009" y2="0.0299216" gradientUnits="userSpaceOnUse">
<stop stop-color="#D9DADC"/>
<stop offset="0.0741842" stop-color="#A5A3A6"/>
<stop offset="0.918838" stop-color="#ABA8A9"/>
<stop offset="1" stop-color="#CACACF"/>
</linearGradient>
<linearGradient id="paint8_linear_79:0" x1="10.2908" y1="10.2908" x2="10.2908" y2="1822.61" gradientUnits="userSpaceOnUse">
<stop stop-color="#BABBBF"/>
<stop offset="0.132633" stop-color="#9FA1A5"/>
<stop offset="0.646785" stop-color="#8F9195"/>
<stop offset="0.881802" stop-color="#4E4F53"/>
<stop offset="1" stop-color="#605F64"/>
</linearGradient>
<linearGradient id="paint9_linear_79:0" x1="39.8686" y1="96.1338" x2="106.549" y2="109.051" gradientUnits="userSpaceOnUse">
<stop stop-color="#48494C"/>
<stop offset="0.980808" stop-color="#48494C" stop-opacity="0.01"/>
</linearGradient>
<radialGradient id="paint10_radial_79:0" cx="0" cy="0" r="1" gradientUnits="userSpaceOnUse" gradientTransform="translate(869 200.237) rotate(7.37041) scale(135.3 800.797)">
<stop stop-color="#48494C"/>
<stop offset="1" stop-color="#48494C" stop-opacity="0.01"/>
</radialGradient>
<radialGradient id="paint11_radial_79:0" cx="0" cy="0" r="1" gradientUnits="userSpaceOnUse" gradientTransform="translate(733.746 -10.8804) rotate(7.08152) scale(129.885 248.667)">
<stop stop-color="#48494C"/>
<stop offset="1" stop-color="#48494C" stop-opacity="0.01"/>
</radialGradient>
<radialGradient id="paint12_radial_79:0" cx="0" cy="0" r="1" gradientUnits="userSpaceOnUse" gradientTransform="translate(816.97 1767.48) rotate(69.7499) scale(93.0155 82.9735)">
<stop stop-color="#48494C"/>
<stop offset="1" stop-color="#48494C" stop-opacity="0.01"/>
</radialGradient>
<radialGradient id="paint13_radial_79:0" cx="0" cy="0" r="1" gradientUnits="userSpaceOnUse" gradientTransform="translate(841.518 54.0668) rotate(8.41175) scale(105.368 304.986)">
<stop stop-color="#EBF0F0"/>
<stop offset="1" stop-color="#F4F7F7" stop-opacity="0.01"/>
</radialGradient>
<radialGradient id="paint14_radial_79:0" cx="0" cy="0" r="1" gradientUnits="userSpaceOnUse" gradientTransform="translate(38.8585 1745.54) rotate(5.1849) scale(131.271 292.51)">
<stop stop-color="#DEE5E5"/>
<stop offset="1" stop-color="#F4F7F7" stop-opacity="0.01"/>
</radialGradient>
<linearGradient id="paint15_linear_79:0" x1="20.5816" y1="20.5815" x2="20.5816" y2="1814.61" gradientUnits="userSpaceOnUse">
<stop stop-color="#DCDDE1"/>
<stop offset="0.0113028" stop-color="#8F9094"/>
<stop offset="0.0565559" stop-color="#BDBFC2"/>
<stop offset="0.68154" stop-color="#ABACB0"/>
<stop offset="0.922774" stop-color="#535458"/>
<stop offset="0.971438" stop-color="#BCBBC0"/>
<stop offset="1" stop-color="#8F8E93"/>
</linearGradient>
<radialGradient id="paint16_radial_79:0" cx="0" cy="0" r="1" gradientUnits="userSpaceOnUse" gradientTransform="translate(779.974 43.2177) rotate(85.0269) scale(138.496 98.1285)">
<stop stop-color="#B6B7B9"/>
<stop offset="1" stop-color="#BCBDBE" stop-opacity="0.01"/>
</radialGradient>
<radialGradient id="paint17_radial_79:0" cx="0" cy="0" r="1" gradientUnits="userSpaceOnUse" gradientTransform="translate(858.709 258.248) rotate(86.9131) scale(188.442 88.9502)">
<stop stop-color="#7C7D7F"/>
<stop offset="1" stop-color="#77787A" stop-opacity="0.01"/>
</radialGradient>
<radialGradient id="paint18_radial_79:0" cx="0" cy="0" r="1" gradientUnits="userSpaceOnUse" gradientTransform="translate(75.9705 46.3442) rotate(90) scale(124.633 58.2256)">
<stop stop-color="#737373" stop-opacity="0.804603"/>
<stop offset="1" stop-color="#787878" stop-opacity="0.01"/>
</radialGradient>
<radialGradient id="paint19_radial_79:0" cx="0" cy="0" r="1" gradientUnits="userSpaceOnUse" gradientTransform="translate(819.306 1780.54) rotate(100.055) scale(146.745 76.0403)">
<stop stop-color="#4F4F4F" stop-opacity="0.804603"/>
<stop offset="1" stop-color="#5D5D5D" stop-opacity="0.01"/>
</radialGradient>
<linearGradient id="paint20_linear_79:0" x1="362.464" y1="1693.41" x2="535.174" y2="1713.08" gradientUnits="userSpaceOnUse">
<stop offset="0.138428" stop-color="#67666C"/>
<stop offset="0.770833" stop-color="#100F14"/>
<stop offset="0.950315" stop-color="#5B5C62"/>
</linearGradient>
<radialGradient id="paint21_radial_79:0" cx="0" cy="0" r="1" gradientUnits="userSpaceOnUse" gradientTransform="translate(366.96 181.479) rotate(-7.43784) scale(154.339 725.393)">
<stop stop-color="#4F4F4F"/>
<stop offset="0.276042" stop-color="#7A7A7A"/>
<stop offset="1" stop-color="#343434"/>
</radialGradient>
<radialGradient id="paint22_radial_79:0" cx="0" cy="0" r="1" gradientUnits="userSpaceOnUse" gradientTransform="translate(439.645 150.932) rotate(90) scale(50.6126 237.879)">
<stop stop-color="#36393F"/>
<stop offset="1" stop-color="#27282B"/>
</radialGradient>
<radialGradient id="paint23_radial_79:0" cx="0" cy="0" r="1" gradientUnits="userSpaceOnUse" gradientTransform="translate(330.281 177.738) rotate(47.9737) scale(20.4444)">
<stop stop-color="#1A1C1E"/>
<stop offset="1"/>
</radialGradient>
<radialGradient id="paint24_radial_79:0" cx="0" cy="0" r="1" gradientUnits="userSpaceOnUse" gradientTransform="translate(445.045 105.703) rotate(44.2655) scale(14.0155)">
<stop stop-color="#444647"/>
<stop offset="1" stop-color="#1B1B1B"/>
</radialGradient>
<radialGradient id="paint25_radial_79:0" cx="0" cy="0" r="1" gradientUnits="userSpaceOnUse" gradientTransform="translate(439.646 100.049) scale(7.43224)">
<stop stop-color="#394348"/>
<stop offset="1" stop-color="#0A121B"/>
</radialGradient>
<clipPath id="clip0_79:0">
<rect width="869" height="1822.61" fill="white"/>
</clipPath>
<clipPath id="clip1_79:0">
<rect width="726.072" height="644.889" fill="white"/>
</clipPath>
<clipPath id="clip2_79:0">
<rect width="10.2908" height="64.0316" fill="white" transform="translate(0 580.858)"/>
</clipPath>
<clipPath id="clip3_79:0">
<rect width="10.2908" height="64.0316" fill="white" transform="translate(0 431.07)"/>
</clipPath>
<clipPath id="clip4_79:0">
<rect width="10.2908" height="83.4697" fill="white" transform="translate(0 259.557)"/>
</clipPath>
<clipPath id="clip5_79:0">
<rect width="10.2908" height="139.497" fill="white" transform="translate(726.072) rotate(90)"/>
</clipPath>
<clipPath id="clip6_79:0">
<rect width="858.709" height="1812.32" fill="white" transform="translate(10.2908 10.2908)"/>
</clipPath>
<clipPath id="clip7_79:0">
<rect width="838.128" height="1794.03" fill="white" transform="translate(20.5816 20.5815)"/>
</clipPath>
<clipPath id="clip8_79:0">
<rect width="858.709" height="1503.6" fill="white" transform="translate(10.2908 165.796)"/>
</clipPath>
<clipPath id="clip9_79:0">
<rect width="155.505" height="155.505" fill="white" transform="translate(362.464 1615.65)"/>
</clipPath>
<clipPath id="clip10_79:0">
<rect width="161.222" height="34.3026" fill="white" transform="translate(359.034 150.932)"/>
</clipPath>
<clipPath id="clip11_79:0">
<rect width="22.8684" height="24.0118" fill="white" transform="translate(311.01 156.649)"/>
</clipPath>
<clipPath id="clip12_79:0">
<rect width="30.8724" height="30.8724" fill="white" transform="translate(424.209 84.6133)"/>
</clipPath>
</defs>
</svg>
