<svg width="1471" height="1855" viewBox="0 0 1471 1855" fill="none" xmlns="http://www.w3.org/2000/svg">
<rect x="1254.18" width="78.4652" height="5.06227" rx="1.26557" fill="url(#paint0_linear_77:34)"/>
<rect x="1420.6" y="132.252" width="66.4423" height="5.06227" rx="1.26557" transform="rotate(90 1420.6 132.252)" fill="url(#paint1_linear_77:34)"/>
<rect x="1420.6" y="211.35" width="66.4423" height="5.06227" rx="1.26557" transform="rotate(90 1420.6 211.35)" fill="url(#paint2_linear_77:34)"/>
<path d="M94.6556 3.79675H1322.78C1343.11 3.79675 1360.62 6.85362 1373.7 13.8499C1387.79 21.3866 1399.85 33.4424 1407.38 47.5348C1414.38 60.6167 1417.44 78.1229 1417.44 98.4523V1759.4C1417.44 1779.73 1414.38 1797.24 1407.38 1810.32C1399.85 1824.41 1387.79 1836.47 1373.7 1844C1360.62 1851 1343.11 1854.06 1322.78 1854.06H94.6556C75.1485 1854.06 56.4246 1850.49 43.1053 1843.37C29.0129 1835.83 18.2226 1825.04 10.6859 1810.95C3.5627 1797.63 0 1778.91 0 1759.4V98.4523C0 78.1229 3.05687 60.6167 10.0532 47.5348C17.5899 33.4424 29.6457 21.3866 43.7381 13.8499C56.82 6.85362 74.3261 3.79675 94.6556 3.79675Z" fill="#3B3B3B"/>
<path d="M94.6557 10.7573C77.9818 10.7573 60.1717 12.9546 47.0208 19.9878C34.1414 26.8758 23.0792 37.938 16.1912 50.8174C9.158 63.9683 6.96069 81.7784 6.96069 98.4523V1759.4C6.96069 1776.07 9.79078 1794.52 16.824 1807.67C23.712 1820.55 33.5086 1830.34 46.388 1837.23C59.5389 1844.27 77.9818 1847.1 94.6557 1847.1H1322.78C1339.45 1847.1 1357.26 1844.9 1370.41 1837.86C1383.29 1830.98 1394.36 1819.91 1401.24 1807.04C1408.28 1793.88 1410.47 1776.07 1410.47 1759.4V98.4523C1410.47 81.7784 1408.28 63.9683 1401.24 50.8174C1394.36 37.938 1383.29 26.8758 1370.41 19.9878C1357.26 12.9546 1339.45 10.7573 1322.78 10.7573H94.6557Z" fill="#131313"/>
<path d="M88.3277 62.0128C79.2019 62.0128 74.9613 62.8317 70.5599 65.1856C66.6127 67.2966 63.4998 70.4095 61.3888 74.3567C59.035 78.758 58.2161 82.9986 58.2161 92.1245V1765.73C58.2161 1774.85 59.035 1779.09 61.3888 1783.5C63.4998 1787.44 66.6127 1790.56 70.5599 1792.67C74.9613 1795.02 79.2019 1795.84 88.3277 1795.84H1329.11C1338.23 1795.84 1342.47 1795.02 1346.88 1792.67C1350.82 1790.56 1353.94 1787.44 1356.05 1783.5C1358.4 1779.09 1359.22 1774.85 1359.22 1765.73V92.1245C1359.22 82.9986 1358.4 78.758 1356.05 74.3567C1353.94 70.4095 1350.82 67.2966 1346.88 65.1856C1342.47 62.8317 1338.23 62.0128 1329.11 62.0128H88.3277Z" fill="#1B1E1F"/>
<circle cx="620.128" cy="32.9047" r="10.1245" fill="#0A0A0A"/>
<circle cx="665.056" cy="32.9047" r="12.6557" fill="#0A0A0A"/>
<circle cx="798.573" cy="32.9047" r="12.6557" fill="#0A0A0A"/>
<circle cx="753.645" cy="32.9047" r="2.53113" fill="#0A0A0A"/>
<g clip-path="url(#clip0_77:34)">
<circle cx="712.831" cy="33.2212" r="7.90979" fill="url(#paint3_radial_77:34)"/>
<circle opacity="0.387535" cx="712.831" cy="33.2212" r="4.74588" fill="url(#paint4_linear_77:34)"/>
</g>
<path d="M60.7473 98.9674C60.7473 86.9181 60.7473 80.8934 63.0923 76.2911C65.155 72.2429 68.4463 68.9516 72.4945 66.8889C77.0967 64.5439 83.1214 64.5439 95.1707 64.5439H1322.26C1334.31 64.5439 1340.34 64.5439 1344.94 66.8889C1348.99 68.9516 1352.28 72.2429 1354.34 76.2911C1356.69 80.8934 1356.69 86.918 1356.69 98.9674V1758.89C1356.69 1770.93 1356.69 1776.96 1354.34 1781.56C1352.28 1785.61 1348.99 1788.9 1344.94 1790.96C1340.34 1793.31 1334.31 1793.31 1322.26 1793.31H95.1708C83.1214 1793.31 77.0967 1793.31 72.4945 1790.96C68.4463 1788.9 65.155 1785.61 63.0923 1781.56C60.7473 1776.96 60.7473 1770.93 60.7473 1758.89V98.9674Z" fill="#FF0000"/>
<path d="M1444.01 1502.04C1429.33 1502.04 1417.44 1490.14 1417.44 1475.46V515.531C1417.44 509.205 1421.32 488.113 1425.71 466.397C1425.72 466.349 1430.04 466.34 1430.04 466.34V464.135C1430.04 464.135 1426.18 464.183 1426.19 464.135C1429.96 445.596 1434.05 426.641 1436.25 416.795C1437.39 411.696 1439.55 408.778 1444.01 408.778C1448.47 408.778 1450.63 411.623 1451.78 416.808C1453.94 426.508 1458.04 445.573 1461.82 464.135C1461.82 464.153 1458.38 464.135 1458.38 464.135V466.34C1458.38 466.34 1462.29 466.319 1462.29 466.34C1466.69 488.068 1470.59 509.212 1470.59 515.531V1475.46C1470.59 1490.14 1458.69 1502.04 1444.01 1502.04Z" fill="url(#paint5_linear_77:34)"/>
<path d="M1444.01 1502.04C1429.33 1502.04 1417.44 1490.14 1417.44 1475.46V515.531C1417.44 509.205 1421.32 488.113 1425.71 466.397C1425.72 466.349 1430.04 466.34 1430.04 466.34V464.135C1430.04 464.135 1426.18 464.183 1426.19 464.135C1429.96 445.596 1434.05 426.641 1436.25 416.795C1437.39 411.696 1439.55 408.778 1444.01 408.778C1448.47 408.778 1450.63 411.623 1451.78 416.808C1453.94 426.508 1458.04 445.573 1461.82 464.135C1461.82 464.153 1458.38 464.135 1458.38 464.135V466.34C1458.38 466.34 1462.29 466.319 1462.29 466.34C1466.69 488.068 1470.59 509.212 1470.59 515.531V1475.46C1470.59 1490.14 1458.69 1502.04 1444.01 1502.04Z" fill="url(#paint6_radial_77:34)"/>
<path d="M1444.01 1502.04C1429.33 1502.04 1417.44 1490.14 1417.44 1475.46V515.531C1417.44 509.205 1421.32 488.113 1425.71 466.397C1425.72 466.349 1430.04 466.34 1430.04 466.34V464.135C1430.04 464.135 1426.18 464.183 1426.19 464.135C1429.96 445.596 1434.05 426.641 1436.25 416.795C1437.39 411.696 1439.55 408.778 1444.01 408.778C1448.47 408.778 1450.63 411.623 1451.78 416.808C1453.94 426.508 1458.04 445.573 1461.82 464.135C1461.82 464.153 1458.38 464.135 1458.38 464.135V466.34C1458.38 466.34 1462.29 466.319 1462.29 466.34C1466.69 488.068 1470.59 509.212 1470.59 515.531V1475.46C1470.59 1490.14 1458.69 1502.04 1444.01 1502.04Z" fill="url(#paint7_linear_77:34)"/>
<text fill="black" xml:space="preserve" style="white-space: pre" font-family="Roboto" font-size="20" letter-spacing="0em"><tspan x="85" y="109.336">name: iPad Pro (12.9-inch)&#10;</tspan><tspan x="85" y="132.336">density: 2&#10;</tspan><tspan x="85" y="155.336">screen_size: 1024x1366&#10;</tspan><tspan x="85" y="178.336">safe_areas: 0,24,0,20|0,24,0,20&#10;</tspan><tspan x="85" y="201.336">device_type: tablet</tspan></text>
<defs>
<linearGradient id="paint0_linear_77:34" x1="1254.18" y1="5.06227" x2="1332.64" y2="5.06227" gradientUnits="userSpaceOnUse">
<stop stop-color="#9E9E9E"/>
<stop offset="0.0278123" stop-color="#717173"/>
<stop offset="0.0507576" stop-color="#77787C"/>
<stop offset="0.0664693" stop-color="#909192"/>
<stop offset="0.102677" stop-color="#A1A5AC"/>
<stop offset="0.886742" stop-color="#A1A5AC"/>
<stop offset="0.917669" stop-color="#ACADAF"/>
<stop offset="0.94449" stop-color="#6B6C6E"/>
<stop offset="0.96308" stop-color="#656668"/>
<stop offset="1" stop-color="#AFAFAF"/>
</linearGradient>
<linearGradient id="paint1_linear_77:34" x1="1423.03" y1="137.221" x2="1487.04" y2="137.221" gradientUnits="userSpaceOnUse">
<stop stop-color="#9C9C9C"/>
<stop offset="0.0247813" stop-color="#717173"/>
<stop offset="0.0462707" stop-color="#595B5F"/>
<stop offset="0.0585311" stop-color="#909192"/>
<stop offset="0.0869519" stop-color="#A1A5AC"/>
<stop offset="0.886742" stop-color="#A1A5AC"/>
<stop offset="0.917669" stop-color="#ACADAF"/>
<stop offset="0.94449" stop-color="#6B6C6E"/>
<stop offset="0.96308" stop-color="#656668"/>
<stop offset="1" stop-color="#959595"/>
</linearGradient>
<linearGradient id="paint2_linear_77:34" x1="1423.03" y1="216.319" x2="1487.04" y2="216.319" gradientUnits="userSpaceOnUse">
<stop stop-color="#9C9C9C"/>
<stop offset="0.0247813" stop-color="#717173"/>
<stop offset="0.0462707" stop-color="#595B5F"/>
<stop offset="0.0585311" stop-color="#909192"/>
<stop offset="0.0869519" stop-color="#A1A5AC"/>
<stop offset="0.886742" stop-color="#A1A5AC"/>
<stop offset="0.917669" stop-color="#ACADAF"/>
<stop offset="0.94449" stop-color="#6B6C6E"/>
<stop offset="0.96308" stop-color="#656668"/>
<stop offset="1" stop-color="#959595"/>
</linearGradient>
<radialGradient id="paint3_radial_77:34" cx="0" cy="0" r="1" gradientUnits="userSpaceOnUse" gradientTransform="translate(724.072 46.5296) rotate(45.1938) scale(15.9242)">
<stop stop-color="#434343"/>
<stop offset="1" stop-color="#121212"/>
</radialGradient>
<linearGradient id="paint4_linear_77:34" x1="712.831" y1="18.9836" x2="712.831" y2="37.9671" gradientUnits="userSpaceOnUse">
<stop stop-color="#2A4893"/>
<stop offset="1" stop-color="#213054"/>
</linearGradient>
<linearGradient id="paint5_linear_77:34" x1="1419.25" y1="427.49" x2="1470.59" y2="427.49" gradientUnits="userSpaceOnUse">
<stop stop-color="#696969"/>
<stop offset="0.142499" stop-color="#8A8A8A"/>
<stop offset="0.199445" stop-color="#A6A6A6"/>
<stop offset="0.335644" stop-color="#D3D3D3"/>
<stop offset="0.3806" stop-color="#DFDEDE"/>
<stop offset="0.555816" stop-color="#F7F7F7"/>
<stop offset="0.647173" stop-color="white"/>
<stop offset="0.797417" stop-color="white"/>
<stop offset="1" stop-color="#F0F0F0"/>
</linearGradient>
<radialGradient id="paint6_radial_77:34" cx="0" cy="0" r="1" gradientUnits="userSpaceOnUse" gradientTransform="translate(1429.56 1521.18) rotate(-90) scale(39.2388 1.90777)">
<stop stop-opacity="0.376161"/>
<stop offset="1" stop-opacity="0.01"/>
</radialGradient>
<linearGradient id="paint7_linear_77:34" x1="1417.79" y1="1487.6" x2="1417.79" y2="408.778" gradientUnits="userSpaceOnUse">
<stop stop-opacity="0.01"/>
<stop offset="0.946386" stop-color="#0D0D0D" stop-opacity="0.01"/>
<stop offset="0.947792" stop-color="#0D0D0D" stop-opacity="0.297441"/>
<stop offset="0.948344" stop-color="#0D0D0D" stop-opacity="0.350515"/>
<stop offset="0.948616" stop-color="#0D0D0D" stop-opacity="0.01"/>
<stop offset="1" stop-opacity="0.01"/>
</linearGradient>
<clipPath id="clip0_77:34">
<rect width="15.8196" height="15.8196" fill="white" transform="translate(704.921 25.3114)"/>
</clipPath>
</defs>
</svg>
