<svg width="1281" height="1842" viewBox="0 0 1281 1842" fill="none" xmlns="http://www.w3.org/2000/svg">
<g filter="url(#filter0_i)">
<path d="M89.4138 0H1191.07C1217.65 0 1230.3 2.44148 1243.43 9.46444C1255.29 15.8106 1264.67 25.1866 1271.02 37.0528C1278.04 50.1846 1280.48 62.8276 1280.48 89.4138V1752.16C1280.48 1778.75 1278.04 1791.39 1271.02 1804.52C1264.67 1816.39 1255.29 1825.76 1243.43 1832.11C1230.3 1839.13 1217.65 1841.57 1191.07 1841.57H89.4138C62.8276 1841.57 50.1846 1839.13 37.0528 1832.11C25.1866 1825.76 15.8106 1816.39 9.46444 1804.52C2.44148 1791.39 0 1778.75 0 1752.16V89.4138C0 62.8276 2.44148 50.1846 9.46444 37.0528C15.8106 25.1866 25.1866 15.8106 37.0528 9.46444C50.1846 2.44148 62.8276 0 89.4138 0Z" fill="#9FA0A7"/>
<path d="M89.4138 0H1191.07C1217.65 0 1230.3 2.44148 1243.43 9.46444C1255.29 15.8106 1264.67 25.1866 1271.02 37.0528C1278.04 50.1846 1280.48 62.8276 1280.48 89.4138V1752.16C1280.48 1778.75 1278.04 1791.39 1271.02 1804.52C1264.67 1816.39 1255.29 1825.76 1243.43 1832.11C1230.3 1839.13 1217.65 1841.57 1191.07 1841.57H89.4138C62.8276 1841.57 50.1846 1839.13 37.0528 1832.11C25.1866 1825.76 15.8106 1816.39 9.46444 1804.52C2.44148 1791.39 0 1778.75 0 1752.16V89.4138C0 62.8276 2.44148 50.1846 9.46444 37.0528C15.8106 25.1866 25.1866 15.8106 37.0528 9.46444C50.1846 2.44148 62.8276 0 89.4138 0Z" fill="url(#paint0_linear)"/>
<path d="M89.4138 0H1191.07C1217.65 0 1230.3 2.44148 1243.43 9.46444C1255.29 15.8106 1264.67 25.1866 1271.02 37.0528C1278.04 50.1846 1280.48 62.8276 1280.48 89.4138V1752.16C1280.48 1778.75 1278.04 1791.39 1271.02 1804.52C1264.67 1816.39 1255.29 1825.76 1243.43 1832.11C1230.3 1839.13 1217.65 1841.57 1191.07 1841.57H89.4138C62.8276 1841.57 50.1846 1839.13 37.0528 1832.11C25.1866 1825.76 15.8106 1816.39 9.46444 1804.52C2.44148 1791.39 0 1778.75 0 1752.16V89.4138C0 62.8276 2.44148 50.1846 9.46444 37.0528C15.8106 25.1866 25.1866 15.8106 37.0528 9.46444C50.1846 2.44148 62.8276 0 89.4138 0Z" fill="url(#paint1_linear)"/>
</g>
<g filter="url(#filter1_d)">
<path d="M89.4138 10.6C62.0085 10.6 52.0707 13.4534 42.0517 18.8116C32.0328 24.1698 24.1698 32.0328 18.8116 42.0517C13.4534 52.0707 10.6 62.0085 10.6 89.4138V1752.16C10.6 1779.56 13.4534 1789.5 18.8116 1799.52C24.1698 1809.54 32.0328 1817.4 42.0517 1822.76C52.0707 1828.12 62.0085 1830.97 89.4138 1830.97H1191.07C1218.47 1830.97 1228.41 1828.12 1238.43 1822.76C1248.45 1817.4 1256.31 1809.54 1261.67 1799.52C1267.03 1789.5 1269.88 1779.56 1269.88 1752.16V89.4138C1269.88 62.0085 1267.03 52.0707 1261.67 42.0517C1256.31 32.0328 1248.45 24.1698 1238.43 18.8116C1228.41 13.4534 1218.47 10.6 1191.07 10.6H89.4138Z" fill="#0F0F0F"/>
</g>
<g filter="url(#filter2_i)">
<path fill-rule="evenodd" clip-rule="evenodd" d="M639.533 1805.53C660.999 1805.53 678.4 1788.13 678.4 1766.67C678.4 1745.2 660.999 1727.8 639.533 1727.8C618.068 1727.8 600.667 1745.2 600.667 1766.67C600.667 1788.13 618.068 1805.53 639.533 1805.53ZM639.533 1801.38C658.706 1801.38 674.248 1785.84 674.248 1766.67C674.248 1747.49 658.706 1731.95 639.533 1731.95C620.361 1731.95 604.818 1747.49 604.818 1766.67C604.818 1785.84 620.361 1801.38 639.533 1801.38Z" fill="url(#paint2_angular)"/>
</g>
<g filter="url(#filter3_d)">
<ellipse cx="633.447" cy="82.3733" rx="11.012" ry="11.0001" fill="url(#paint3_radial)"/>
</g>
<g filter="url(#filter4_d)">
<ellipse cx="633.447" cy="82.3733" rx="5.21621" ry="5.21055" fill="url(#paint4_linear)"/>
</g>
<mask id="mask0" mask-type="alpha" maskUnits="userSpaceOnUse" x="628" y="77" width="11" height="11">
<ellipse cx="633.447" cy="82.3733" rx="5.21621" ry="5.21055" fill="white"/>
</mask>
<g mask="url(#mask0)">
<g filter="url(#filter5_f)">
<circle cx="630.261" cy="83.801" r="0.579829" fill="#BEE5FF"/>
</g>
<g filter="url(#filter6_f)">
<circle cx="636.929" cy="80.0322" r="0.869744" fill="#75C8FF"/>
</g>
<g filter="url(#filter7_f)">
<path fill-rule="evenodd" clip-rule="evenodd" d="M632.422 80.6111C633.428 80.0534 634.05 79.2518 633.811 78.8206C633.572 78.3895 632.562 78.492 631.556 79.0497C630.55 79.6074 629.928 80.409 630.167 80.8402C630.406 81.2713 631.416 81.1688 632.422 80.6111V80.6111Z" fill="#3358B6"/>
</g>
<g filter="url(#filter8_f)">
<path fill-rule="evenodd" clip-rule="evenodd" d="M634.075 84.4035C635.181 84.0864 635.82 82.933 635.503 81.8272C635.186 80.7215 634.033 80.0821 632.927 80.3992C631.821 80.7163 631.182 81.8697 631.499 82.9754C631.816 84.0812 632.969 84.7205 634.075 84.4035V84.4035Z" fill="#00154F"/>
</g>
</g>
<rect x="63.6" y="154.76" width="1153.28" height="1534.88" rx="4.24" fill="#212121"/>
<rect x="67.84" y="159" width="1144.8" height="1526.4" fill="#FF0000"/>
<text fill="black" xml:space="preserve" style="white-space: pre" font-family="Roboto" font-size="20" letter-spacing="0em"><tspan x="97" y="209.336">name: iPad&#10;</tspan><tspan x="97" y="232.336">density: 2&#10;</tspan><tspan x="97" y="255.336">screen_size: 768x1024&#10;</tspan><tspan x="97" y="278.336">safe_areas: 0,20,0,0|0,20,0,0&#10;</tspan><tspan x="97" y="301.336">device_type: tablet</tspan></text>
<defs>
<filter id="filter0_i" x="0" y="0" width="1280.48" height="1841.57" filterUnits="userSpaceOnUse" color-interpolation-filters="sRGB">
<feFlood flood-opacity="0" result="BackgroundImageFix"/>
<feBlend mode="normal" in="SourceGraphic" in2="BackgroundImageFix" result="shape"/>
<feColorMatrix in="SourceAlpha" type="matrix" values="0 0 0 0 0 0 0 0 0 0 0 0 0 0 0 0 0 0 127 0" result="hardAlpha"/>
<feOffset/>
<feGaussianBlur stdDeviation="0.353333"/>
<feComposite in2="hardAlpha" operator="arithmetic" k2="-1" k3="1"/>
<feColorMatrix type="matrix" values="0 0 0 0 0 0 0 0 0 0 0 0 0 0 0 0 0 0 0.3 0"/>
<feBlend mode="normal" in2="shape" result="effect1_innerShadow"/>
</filter>
<filter id="filter1_d" x="9.89331" y="9.89331" width="1260.69" height="1821.79" filterUnits="userSpaceOnUse" color-interpolation-filters="sRGB">
<feFlood flood-opacity="0" result="BackgroundImageFix"/>
<feColorMatrix in="SourceAlpha" type="matrix" values="0 0 0 0 0 0 0 0 0 0 0 0 0 0 0 0 0 0 127 0"/>
<feOffset/>
<feGaussianBlur stdDeviation="0.353333"/>
<feColorMatrix type="matrix" values="0 0 0 0 0.557681 0 0 0 0 0.56321 0 0 0 0 0.585326 0 0 0 1 0"/>
<feBlend mode="normal" in2="BackgroundImageFix" result="effect1_dropShadow"/>
<feBlend mode="normal" in="SourceGraphic" in2="effect1_dropShadow" result="shape"/>
</filter>
<filter id="filter2_i" x="600.667" y="1727.8" width="78.44" height="77.7333" filterUnits="userSpaceOnUse" color-interpolation-filters="sRGB">
<feFlood flood-opacity="0" result="BackgroundImageFix"/>
<feBlend mode="normal" in="SourceGraphic" in2="BackgroundImageFix" result="shape"/>
<feColorMatrix in="SourceAlpha" type="matrix" values="0 0 0 0 0 0 0 0 0 0 0 0 0 0 0 0 0 0 127 0" result="hardAlpha"/>
<feOffset dx="0.706667"/>
<feGaussianBlur stdDeviation="0.353333"/>
<feComposite in2="hardAlpha" operator="arithmetic" k2="-1" k3="1"/>
<feColorMatrix type="matrix" values="0 0 0 0 0 0 0 0 0 0 0 0 0 0 0 0 0 0 0.112687 0"/>
<feBlend mode="normal" in2="shape" result="effect1_innerShadow"/>
</filter>
<filter id="filter3_d" x="622.435" y="71.3733" width="22.024" height="22.7068" filterUnits="userSpaceOnUse" color-interpolation-filters="sRGB">
<feFlood flood-opacity="0" result="BackgroundImageFix"/>
<feColorMatrix in="SourceAlpha" type="matrix" values="0 0 0 0 0 0 0 0 0 0 0 0 0 0 0 0 0 0 127 0"/>
<feOffset dy="0.706667"/>
<feColorMatrix type="matrix" values="0 0 0 0 0.133333 0 0 0 0 0.133333 0 0 0 0 0.133333 0 0 0 1 0"/>
<feBlend mode="normal" in2="BackgroundImageFix" result="effect1_dropShadow"/>
<feBlend mode="normal" in="SourceGraphic" in2="effect1_dropShadow" result="shape"/>
</filter>
<filter id="filter4_d" x="625.404" y="74.3361" width="16.0858" height="16.0744" filterUnits="userSpaceOnUse" color-interpolation-filters="sRGB">
<feFlood flood-opacity="0" result="BackgroundImageFix"/>
<feColorMatrix in="SourceAlpha" type="matrix" values="0 0 0 0 0 0 0 0 0 0 0 0 0 0 0 0 0 0 127 0"/>
<feMorphology radius="1.41333" operator="dilate" in="SourceAlpha" result="effect1_dropShadow"/>
<feOffset/>
<feGaussianBlur stdDeviation="0.706667"/>
<feColorMatrix type="matrix" values="0 0 0 0 0 0 0 0 0 0 0 0 0 0 0 0 0 0 0.4 0"/>
<feBlend mode="normal" in2="BackgroundImageFix" result="effect1_dropShadow"/>
<feBlend mode="normal" in="SourceGraphic" in2="effect1_dropShadow" result="shape"/>
</filter>
<filter id="filter5_f" x="627.76" y="81.3003" width="5.0015" height="5.0015" filterUnits="userSpaceOnUse" color-interpolation-filters="sRGB">
<feFlood flood-opacity="0" result="BackgroundImageFix"/>
<feBlend mode="normal" in="SourceGraphic" in2="BackgroundImageFix" result="shape"/>
<feGaussianBlur stdDeviation="0.96046" result="effect1_foregroundBlur"/>
</filter>
<filter id="filter6_f" x="634.139" y="77.2416" width="5.58133" height="5.58133" filterUnits="userSpaceOnUse" color-interpolation-filters="sRGB">
<feFlood flood-opacity="0" result="BackgroundImageFix"/>
<feBlend mode="normal" in="SourceGraphic" in2="BackgroundImageFix" result="shape"/>
<feGaussianBlur stdDeviation="0.96046" result="effect1_foregroundBlur"/>
</filter>
<filter id="filter7_f" x="628.195" y="76.633" width="7.58741" height="6.39471" filterUnits="userSpaceOnUse" color-interpolation-filters="sRGB">
<feFlood flood-opacity="0" result="BackgroundImageFix"/>
<feBlend mode="normal" in="SourceGraphic" in2="BackgroundImageFix" result="shape"/>
<feGaussianBlur stdDeviation="0.96046" result="effect1_foregroundBlur"/>
</filter>
<filter id="filter8_f" x="629.497" y="78.3971" width="8.00853" height="8.00853" filterUnits="userSpaceOnUse" color-interpolation-filters="sRGB">
<feFlood flood-opacity="0" result="BackgroundImageFix"/>
<feBlend mode="normal" in="SourceGraphic" in2="BackgroundImageFix" result="shape"/>
<feGaussianBlur stdDeviation="0.96046" result="effect1_foregroundBlur"/>
</filter>
<linearGradient id="paint0_linear" x1="13.7604" y1="39.5802" x2="13.7604" y2="1841.57" gradientUnits="userSpaceOnUse">
<stop stop-color="#4C4D50" stop-opacity="0.01"/>
<stop offset="0.0362117" stop-color="#4C4D50"/>
<stop offset="0.446329" stop-color="#4C4D50" stop-opacity="0.01"/>
<stop offset="0.941095" stop-color="#4C4D50" stop-opacity="0.907892"/>
<stop offset="1" stop-color="#4C4D50" stop-opacity="0.01"/>
</linearGradient>
<linearGradient id="paint1_linear" x1="1280.48" y1="-1.90395" x2="0" y2="-1.90395" gradientUnits="userSpaceOnUse">
<stop stop-color="#4C4D50" stop-opacity="0.01"/>
<stop offset="0.507121" stop-color="#4C4D50" stop-opacity="0.5"/>
<stop offset="1" stop-color="#4C4D50" stop-opacity="0.01"/>
</linearGradient>
<radialGradient id="paint2_angular" cx="0" cy="0" r="1" gradientUnits="userSpaceOnUse" gradientTransform="translate(639.533 1766.67) scale(38.8667)">
<stop offset="0.138428" stop-color="#67666C"/>
<stop offset="0.200569" stop-color="#090A10"/>
<stop offset="0.293609" stop-color="#1D1E23"/>
<stop offset="0.321076" stop-color="#4C4B50"/>
<stop offset="0.423219" stop-color="#7F7E84"/>
<stop offset="0.501325" stop-color="#B5B5B5"/>
<stop offset="0.524768" stop-color="#090A10"/>
<stop offset="0.71246" stop-color="#151419"/>
<stop offset="0.726278" stop-color="#4D4C51"/>
<stop offset="0.769684" stop-color="#504F54"/>
<stop offset="0.777708" stop-color="#3A393E"/>
<stop offset="0.879251" stop-color="#151519"/>
<stop offset="0.926482" stop-color="#100F14"/>
<stop offset="0.950315" stop-color="#5B5C62"/>
</radialGradient>
<radialGradient id="paint3_radial" cx="0" cy="0" r="1" gradientUnits="userSpaceOnUse" gradientTransform="translate(649.096 100.881) rotate(45.1627) scale(22.1576 22.1577)">
<stop stop-color="white"/>
<stop offset="1" stop-color="#252525"/>
</radialGradient>
<linearGradient id="paint4_linear" x1="633.447" y1="66.7416" x2="633.447" y2="87.5838" gradientUnits="userSpaceOnUse">
<stop stop-color="#2A4893"/>
<stop offset="1" stop-color="#213054"/>
</linearGradient>
</defs>
</svg>
