<svg width="934" height="1860" viewBox="0 0 934 1860" fill="none" xmlns="http://www.w3.org/2000/svg">
<path d="M173.029 0L759.833 0C802.232 0 826.945 4.77246 852.76 18.5783C877.464 31.79 897.256 51.5825 910.468 76.2861C924.274 102.101 929.046 126.815 929.046 169.213V1675.52C929.046 1717.92 924.274 1742.64 910.468 1768.45C897.256 1793.16 877.464 1812.95 852.76 1826.16C826.945 1839.97 802.232 1844.74 759.833 1844.74H173.029C130.63 1844.74 105.916 1839.97 80.1016 1826.16C55.3979 1812.95 35.6054 1793.16 22.3937 1768.45C8.58789 1742.64 3.81543 1717.92 3.81543 1675.52V169.213C3.81543 126.815 8.58789 102.101 22.3937 76.2861C35.6054 51.5825 55.3979 31.79 80.1016 18.5783C105.916 4.77246 130.63 0 173.029 0Z" fill="#58575C"/>
<mask id="mask0" mask-type="alpha" maskUnits="userSpaceOnUse" x="3" y="0" width="927" height="1845">
<path d="M173.029 0L759.833 0C802.232 0 826.945 4.77246 852.76 18.5783C877.464 31.79 897.256 51.5825 910.468 76.2861C924.274 102.101 929.046 126.815 929.046 169.213V1675.52C929.046 1717.92 924.274 1742.64 910.468 1768.45C897.256 1793.16 877.464 1812.95 852.76 1826.16C826.945 1839.97 802.232 1844.74 759.833 1844.74H173.029C130.63 1844.74 105.916 1839.97 80.1016 1826.16C55.3979 1812.95 35.6054 1793.16 22.3937 1768.45C8.58789 1742.64 3.81543 1717.92 3.81543 1675.52V169.213C3.81543 126.815 8.58789 102.101 22.3937 76.2861C35.6054 51.5825 55.3979 31.79 80.1016 18.5783C105.916 4.77246 130.63 0 173.029 0Z" fill="white"/>
</mask>
<g mask="url(#mask0)">
<g filter="url(#filter0_ii)">
<path d="M173.029 0L759.833 0C802.232 0 826.945 4.77246 852.76 18.5783C877.464 31.79 897.256 51.5825 910.468 76.2861C924.274 102.101 929.046 126.815 929.046 169.213V1675.52C929.046 1717.92 924.274 1742.64 910.468 1768.45C897.256 1793.16 877.464 1812.95 852.76 1826.16C826.945 1839.97 802.232 1844.74 759.833 1844.74H173.029C130.63 1844.74 105.916 1839.97 80.1016 1826.16C55.3979 1812.95 35.6054 1793.16 22.3937 1768.45C8.58789 1742.64 3.81543 1717.92 3.81543 1675.52V169.213C3.81543 126.815 8.58789 102.101 22.3937 76.2861C35.6054 51.5825 55.3979 31.79 80.1016 18.5783C105.916 4.77246 130.63 0 173.029 0Z" fill="#58575C"/>
</g>
<g filter="url(#filter1_d)">
<path d="M173.029 19.0769L759.833 19.0769C799.274 19.0769 821.043 23.2494 843.763 35.4006C865.143 46.8343 882.212 63.9036 893.646 85.2828C905.797 108.004 909.969 129.772 909.969 169.213V1675.52C909.969 1714.97 905.797 1736.73 893.646 1759.46C882.212 1780.83 865.143 1797.9 843.763 1809.34C821.043 1821.49 799.274 1825.66 759.833 1825.66H173.029C133.587 1825.66 111.819 1821.49 89.0982 1809.34C67.719 1797.9 50.6497 1780.83 39.216 1759.46C27.0648 1736.73 22.8923 1714.97 22.8923 1675.52V169.213C22.8923 129.772 27.0648 108.004 39.216 85.2828C50.6497 63.9036 67.719 46.8343 89.0982 35.4006C111.819 23.2494 133.587 19.0769 173.029 19.0769Z" fill="url(#paint0_linear)"/>
</g>
<path d="M173.029 28.6154L759.833 28.6154C797.912 28.6154 818.163 32.526 839.265 43.8117C858.982 54.3564 874.69 70.0642 885.234 89.7811C896.52 110.884 900.431 131.135 900.431 169.213V1675.52C900.431 1713.6 896.52 1733.85 885.234 1754.96C874.69 1774.67 858.982 1790.38 839.265 1800.93C818.163 1812.21 797.912 1816.12 759.833 1816.12H173.029C134.95 1816.12 114.699 1812.21 93.5965 1800.93C73.8796 1790.38 58.1719 1774.67 47.6271 1754.96C36.3414 1733.85 32.4308 1713.6 32.4308 1675.52V169.213C32.4308 131.135 36.3414 110.884 47.6271 89.7811C58.1719 70.0642 73.8796 54.3564 93.5965 43.8117C114.699 32.526 134.95 28.6154 173.029 28.6154Z" fill="url(#paint1_linear)"/>
<path d="M173.029 40.0615L759.833 40.0615C797.912 40.0615 818.163 43.9221 839.265 55.0633C858.982 65.4729 874.69 80.9795 885.234 100.444C896.52 121.276 900.431 141.268 900.431 178.859V1665.88C900.431 1703.47 896.52 1723.46 885.234 1744.29C874.69 1763.76 858.982 1779.27 839.265 1789.68C818.163 1800.82 797.912 1804.68 759.833 1804.68H173.029C134.95 1804.68 114.699 1800.82 93.5965 1789.68C73.8796 1779.27 58.1719 1763.76 47.6271 1744.29C36.3414 1723.46 32.4308 1703.47 32.4308 1665.88V178.859C32.4308 141.268 36.3414 121.276 47.6271 100.444C58.1719 80.9795 73.8796 65.4729 93.5965 55.0633C114.699 43.9221 134.95 40.0615 173.029 40.0615Z" fill="black"/>
</g>
<g clip-path="url(#clip0)">
<g filter="url(#filter2_i)">
<path fill-rule="evenodd" clip-rule="evenodd" d="M429.612 1841.88C448.155 1841.88 486.458 1841.88 505.157 1841.88C505.286 1841.88 505.414 1841.88 505.541 1841.88C510.224 1841.91 509.745 1844.74 505.061 1844.74H429.708C425.025 1844.74 424.545 1841.91 429.228 1841.88C429.355 1841.88 429.483 1841.88 429.612 1841.88Z" fill="#222222"/>
</g>
</g>
<g filter="url(#filter3_i)">
<path fill-rule="evenodd" clip-rule="evenodd" d="M93.5965 1800.93C73.8796 1790.38 58.1719 1774.67 47.6271 1754.96C36.3414 1733.85 32.4308 1713.6 32.4308 1675.52V169.213C32.4308 131.135 36.3414 110.883 47.6271 89.7811C55.0723 75.8599 65.0912 63.9373 77.2779 54.4195C78.0729 53.7986 45.63 78.7426 45.63 150.137C45.63 501.605 45.63 1678.92 45.63 1694.6C45.63 1779.36 97.1025 1802.8 93.5965 1800.93Z" fill="white" fill-opacity="0.8"/>
</g>
<g filter="url(#filter4_i)">
<path fill-rule="evenodd" clip-rule="evenodd" d="M839.27 1800.93C858.987 1790.38 874.694 1774.67 885.239 1754.96C896.525 1733.85 900.436 1713.6 900.436 1675.52V169.213C900.436 131.135 896.525 110.883 885.239 89.7811C877.794 75.8599 867.775 63.9373 855.588 54.4195C854.793 53.7986 887.236 78.7426 887.236 150.137C887.236 501.605 887.236 1678.92 887.236 1694.6C887.236 1779.36 835.764 1802.8 839.27 1800.93Z" fill="white" fill-opacity="0.8"/>
</g>
<rect opacity="0.602808" x="3.81543" y="181.231" width="19.0769" height="18.1231" fill="#1C1C1D"/>
<rect opacity="0.602808" x="909.969" y="181.231" width="19.0769" height="18.1231" fill="#1C1C1D"/>
<rect opacity="0.602808" x="3.81543" y="1645.38" width="19.0769" height="18.1231" fill="#1C1C1D"/>
<rect opacity="0.602808" x="909.969" y="1645.38" width="19.0769" height="18.1231" fill="#1C1C1D"/>
<g clip-path="url(#clip1)">
<g filter="url(#filter5_ii)">
<path fill-rule="evenodd" clip-rule="evenodd" d="M4.84276 251.815C2.16818 251.815 0 253.998 0 256.69V316.572C0 319.264 2.16818 321.446 4.84276 321.446H7.61005C7.61005 317.784 7.65667 255.396 7.61005 251.815H4.84276Z" fill="url(#paint2_linear)"/>
</g>
<g filter="url(#filter6_ii)">
<path fill-rule="evenodd" clip-rule="evenodd" d="M4.84276 376.769C3.26821 377.151 1.3801 378.128 0.371918 379.516C0.164257 379.802 0 380.706 0 380.967C0 394.09 0 434.059 0 500.874C0 501.153 0.231198 502.563 0.372759 502.905C1.18861 504.876 2.60616 505.353 4.84276 506.492H7.61005C7.61005 502.901 7.65667 380.28 7.61005 376.769H4.84276Z" fill="url(#paint3_linear)"/>
</g>
<g filter="url(#filter7_ii)">
<path fill-rule="evenodd" clip-rule="evenodd" d="M4.84276 537.015C3.26821 537.397 1.3801 538.374 0.371918 539.762C0.164257 540.048 0 540.952 0 541.214C0 554.336 0 594.305 0 661.12C0 661.4 0.231198 662.81 0.372759 663.152C1.18861 665.122 2.60616 665.599 4.84276 666.738H7.61005C7.61005 663.147 7.65667 540.526 7.61005 537.015H4.84276Z" fill="url(#paint4_linear)"/>
</g>
<g filter="url(#filter8_ii)">
<path fill-rule="evenodd" clip-rule="evenodd" d="M928.973 420.646C930.547 421.024 932.435 421.991 933.444 423.365C933.651 423.648 933.815 424.543 933.815 424.802C933.815 437.793 933.815 553.062 933.815 619.208C933.815 619.484 933.584 620.88 933.443 621.218C932.627 623.169 931.209 623.641 928.973 624.769H926.205C926.205 621.214 926.159 424.121 926.205 420.646H928.973Z" fill="url(#paint5_linear)"/>
<path fill-rule="evenodd" clip-rule="evenodd" d="M928.973 420.646C930.547 421.024 932.435 421.991 933.444 423.365C933.651 423.648 933.815 424.543 933.815 424.802C933.815 437.793 933.815 553.062 933.815 619.208C933.815 619.484 933.584 620.88 933.443 621.218C932.627 623.169 931.209 623.641 928.973 624.769H926.205C926.205 621.214 926.159 424.121 926.205 420.646H928.973Z" fill="url(#paint6_linear)" fill-opacity="0.4"/>
</g>
</g>
<g opacity="0.801364" clip-path="url(#clip2)">
<rect x="413.015" y="73.4462" width="106.831" height="17.1692" rx="8.58462" fill="#1D1C1C"/>
<mask id="mask1" mask-type="alpha" maskUnits="userSpaceOnUse" x="413" y="73" width="107" height="18">
<rect x="413.015" y="73.4462" width="106.831" height="17.1692" rx="8.58462" fill="white"/>
</mask>
<g mask="url(#mask1)">
<path fill-rule="evenodd" clip-rule="evenodd" d="M413.015 73.4462H519.846V74.3498H413.015V73.4462ZM413.015 77.0607H519.846V77.9643H413.015V77.0607ZM519.846 80.6753H413.015V81.579H519.846V80.6753ZM413.015 84.2899H519.846V85.1935H413.015V84.2899ZM519.846 87.9044H413.015V88.808H519.846V87.9044Z" fill="black" fill-opacity="0.15"/>
<path fill-rule="evenodd" clip-rule="evenodd" d="M413.015 76.1571H519.846V77.0607H413.015V76.1571ZM413.015 79.7717H519.846V80.6753H413.015V79.7717ZM519.846 83.3863H413.015V84.29H519.846V83.3863ZM413.015 87.0009H519.846V87.9045H413.015V87.0009ZM519.846 90.6154H413.015V91.519H519.846V90.6154Z" fill="white" fill-opacity="0.03"/>
<path fill-rule="evenodd" clip-rule="evenodd" d="M417.442 74.2415H418.358V90.7239H417.442V74.2415ZM413.78 74.2415H414.695V90.724H413.78V74.2415ZM422.021 74.2415H421.105V90.7239H422.021V74.2415ZM423.852 74.2415H424.768V90.7239H423.852V74.2415ZM428.431 74.2415H427.515V90.7239H428.431V74.2415ZM431.178 74.2415H432.093V90.7239H431.178V74.2415ZM435.756 74.2415H434.841V90.7239H435.756V74.2415ZM437.588 74.2415H438.503V90.7239H437.588V74.2415ZM442.166 74.2415H441.25V90.7239H442.166V74.2415ZM444.913 74.2415H445.829V90.7239H444.913V74.2415ZM449.492 74.2415H448.576V90.7239H449.492V74.2415ZM451.323 74.2415H452.239V90.7239H451.323V74.2415ZM455.901 74.2415H454.986V90.7239H455.901V74.2415ZM458.649 74.2415H459.564V90.7239H458.649V74.2415ZM463.227 74.2415H462.311V90.7239H463.227V74.2415ZM465.058 74.2415H465.974V90.7239H465.058V74.2415ZM469.637 74.2415H468.721V90.7239H469.637V74.2415ZM472.384 74.2415H473.299V90.7239H472.384V74.2415ZM476.962 74.2415H476.047V90.7239H476.962V74.2415ZM478.794 74.2415H479.709V90.7239H478.794V74.2415ZM483.372 74.2415H482.456V90.7239H483.372V74.2415ZM486.119 74.2415H487.035V90.7239H486.119V74.2415ZM490.698 74.2415H489.782V90.7239H490.698V74.2415ZM492.529 74.2415H493.445V90.7239H492.529V74.2415ZM497.107 74.2415H496.192V90.7239H497.107V74.2415ZM499.855 74.2415H500.77V90.7239H499.855V74.2415ZM504.433 74.2415H503.517V90.7239H504.433V74.2415ZM506.264 74.2415H507.18V90.7239H506.264V74.2415ZM510.843 74.2415H509.927V90.7239H510.843V74.2415ZM513.59 74.2415H514.506V90.7239H513.59V74.2415ZM518.168 74.2415H517.253V90.7239H518.168V74.2415Z" fill="black" fill-opacity="0.15"/>
<path fill-rule="evenodd" clip-rule="evenodd" d="M415.616 74.2415H416.532V90.7239H415.616V74.2415ZM411.953 74.2415H412.869V90.724H411.953V74.2415ZM420.195 74.2415H419.279V90.7239H420.195V74.2415ZM422.026 74.2415H422.942V90.7239H422.026V74.2415ZM426.605 74.2415H425.689V90.7239H426.605V74.2415ZM429.352 74.2415H430.267V90.7239H429.352V74.2415ZM433.93 74.2415H433.015V90.7239H433.93V74.2415ZM435.762 74.2415H436.677V90.7239H435.762V74.2415ZM440.34 74.2415H439.424V90.7239H440.34V74.2415ZM443.087 74.2415H444.003V90.7239H443.087V74.2415ZM447.666 74.2415H446.75V90.7239H447.666V74.2415ZM449.497 74.2415H450.413V90.7239H449.497V74.2415ZM454.075 74.2415H453.16V90.7239H454.075V74.2415ZM456.823 74.2415H457.738V90.7239H456.823V74.2415ZM461.401 74.2415H460.485V90.7239H461.401V74.2415ZM463.232 74.2415H464.148V90.7239H463.232V74.2415ZM467.811 74.2415H466.895V90.7239H467.811V74.2415ZM470.558 74.2415H471.474V90.7239H470.558V74.2415ZM475.136 74.2415H474.221V90.7239H475.136V74.2415ZM476.968 74.2415H477.883V90.7239H476.968V74.2415ZM481.546 74.2415H480.631V90.7239H481.546V74.2415ZM484.293 74.2415H485.209V90.7239H484.293V74.2415ZM488.872 74.2415H487.956V90.7239H488.872V74.2415ZM490.703 74.2415H491.619V90.7239H490.703V74.2415ZM495.282 74.2415H494.366V90.7239H495.282V74.2415ZM498.029 74.2415H498.944V90.7239H498.029V74.2415ZM502.607 74.2415H501.692V90.7239H502.607V74.2415ZM504.438 74.2415H505.354V90.7239H504.438V74.2415ZM509.017 74.2415H508.101V90.7239H509.017V74.2415ZM511.764 74.2415H512.68V90.7239H511.764V74.2415ZM516.343 74.2415H515.427V90.7239H516.343V74.2415Z" fill="white" fill-opacity="0.03"/>
</g>
<g opacity="0.244441" filter="url(#filter9_iii)">
<rect x="413.015" y="73.4462" width="106.831" height="17.1692" rx="8.58462" fill="black" fill-opacity="0.01"/>
</g>
<mask id="mask2" mask-type="alpha" maskUnits="userSpaceOnUse" x="413" y="73" width="107" height="18">
<rect x="413.015" y="73.4462" width="106.831" height="17.1692" rx="8.58462" fill="white"/>
</mask>
<g mask="url(#mask2)">
</g>
</g>
<g clip-path="url(#clip3)">
<circle cx="558.477" cy="81.5538" r="11.9231" fill="url(#paint7_radial)"/>
<g opacity="0.387535" filter="url(#filter10_dd)">
<circle cx="558.477" cy="81.5539" r="7.15385" fill="url(#paint8_radial)"/>
</g>
<mask id="mask3" mask-type="alpha" maskUnits="userSpaceOnUse" x="551" y="74" width="15" height="15">
<circle cx="558.477" cy="81.5539" r="7.15385" fill="white"/>
</mask>
<g mask="url(#mask3)">
<g filter="url(#filter11_f)">
<ellipse cx="552.768" cy="80.6149" rx="5.91126" ry="1.98102" transform="rotate(-76 552.768 80.6149)" fill="#3E89CC"/>
</g>
<g filter="url(#filter12_f)">
<ellipse cx="563.246" cy="79.6462" rx="4.29231" ry="5.24615" fill="#1C5894"/>
</g>
<g filter="url(#filter13_f)">
<ellipse cx="559.454" cy="86.8641" rx="6.25386" ry="4.22713" transform="rotate(-16 559.454 86.8641)" fill="#0A152B"/>
</g>
</g>
</g>
<path fill-rule="evenodd" clip-rule="evenodd" d="M234.646 67.723C241.494 67.723 247.046 73.2747 247.046 80.123C247.687 91.7243 249.955 99.0796 253.544 105.791C257.783 113.718 264.005 119.94 271.932 124.179C279.86 128.419 288.763 130.677 304.207 130.677H628.655C644.098 130.677 653.002 128.419 660.929 124.179C668.857 119.94 675.078 113.718 679.318 105.791C682.906 99.0809 685.094 91.6473 685.815 80.123C685.815 73.2747 691.367 67.723 698.215 67.723L759.833 67.723C795.123 67.723 807.92 71.3975 820.822 78.2974C833.724 85.1972 843.849 95.3225 850.749 108.224C857.649 121.126 861.323 133.923 861.323 169.213V1675.52C861.323 1710.82 857.649 1723.61 850.749 1736.51C843.849 1749.42 833.724 1759.54 820.822 1766.44C807.92 1773.34 795.123 1777.02 759.833 1777.02H173.029C137.738 1777.02 124.941 1773.34 112.04 1766.44C99.138 1759.54 89.0127 1749.42 82.1128 1736.51C75.2129 1723.61 71.5385 1710.82 71.5385 1675.52V169.213C71.5385 133.923 75.2129 121.126 82.1128 108.224C89.0127 95.3225 99.138 85.1972 112.04 78.2974C124.941 71.3975 137.738 67.723 173.029 67.723H234.646Z" fill="#FF0000"/>
<text fill="black" xml:space="preserve" style="white-space: pre" font-family="Roboto" font-size="20" letter-spacing="0em"><tspan x="113" y="168.336">name: iPhone 11&#10;</tspan><tspan x="113" y="191.336">density: 2&#10;</tspan><tspan x="113" y="214.336">screen_size: 414x896&#10;</tspan><tspan x="113" y="237.336">safe_areas: 0,50,0,100|100,0,100,0</tspan></text>
<defs>
<filter id="filter0_ii" x="3.81543" y="0" width="925.231" height="1844.74" filterUnits="userSpaceOnUse" color-interpolation-filters="sRGB">
<feFlood flood-opacity="0" result="BackgroundImageFix"/>
<feBlend mode="normal" in="SourceGraphic" in2="BackgroundImageFix" result="shape"/>
<feColorMatrix in="SourceAlpha" type="matrix" values="0 0 0 0 0 0 0 0 0 0 0 0 0 0 0 0 0 0 127 0" result="hardAlpha"/>
<feOffset/>
<feGaussianBlur stdDeviation="6.2"/>
<feComposite in2="hardAlpha" operator="arithmetic" k2="-1" k3="1"/>
<feColorMatrix type="matrix" values="0 0 0 0 0.109804 0 0 0 0 0.105882 0 0 0 0 0.129412 0 0 0 1 0"/>
<feBlend mode="normal" in2="shape" result="effect1_innerShadow"/>
<feColorMatrix in="SourceAlpha" type="matrix" values="0 0 0 0 0 0 0 0 0 0 0 0 0 0 0 0 0 0 127 0" result="hardAlpha"/>
<feOffset/>
<feGaussianBlur stdDeviation="3.81538"/>
<feComposite in2="hardAlpha" operator="arithmetic" k2="-1" k3="1"/>
<feColorMatrix type="matrix" values="0 0 0 0 0 0 0 0 0 0 0 0 0 0 0 0 0 0 0.752349 0"/>
<feBlend mode="normal" in2="effect1_innerShadow" result="effect2_innerShadow"/>
</filter>
<filter id="filter1_d" x="22.8923" y="19.0769" width="887.077" height="1806.58" filterUnits="userSpaceOnUse" color-interpolation-filters="sRGB">
<feFlood flood-opacity="0" result="BackgroundImageFix"/>
<feColorMatrix in="SourceAlpha" type="matrix" values="0 0 0 0 0 0 0 0 0 0 0 0 0 0 0 0 0 0 127 0"/>
<feOffset/>
<feColorMatrix type="matrix" values="0 0 0 0 0 0 0 0 0 0 0 0 0 0 0 0 0 0 0.250849 0"/>
<feBlend mode="normal" in2="BackgroundImageFix" result="effect1_dropShadow"/>
<feBlend mode="normal" in="SourceGraphic" in2="effect1_dropShadow" result="shape"/>
</filter>
<filter id="filter2_i" x="425.947" y="1841.88" width="82.8763" height="3.81538" filterUnits="userSpaceOnUse" color-interpolation-filters="sRGB">
<feFlood flood-opacity="0" result="BackgroundImageFix"/>
<feBlend mode="normal" in="SourceGraphic" in2="BackgroundImageFix" result="shape"/>
<feColorMatrix in="SourceAlpha" type="matrix" values="0 0 0 0 0 0 0 0 0 0 0 0 0 0 0 0 0 0 127 0" result="hardAlpha"/>
<feOffset dy="0.953846"/>
<feGaussianBlur stdDeviation="0.953846"/>
<feComposite in2="hardAlpha" operator="arithmetic" k2="-1" k3="1"/>
<feColorMatrix type="matrix" values="0 0 0 0 0.248432 0 0 0 0 0.248432 0 0 0 0 0.248432 0 0 0 1 0"/>
<feBlend mode="normal" in2="shape" result="effect1_innerShadow"/>
</filter>
<filter id="filter3_i" x="27.6616" y="54.4082" width="66.1063" height="1746.62" filterUnits="userSpaceOnUse" color-interpolation-filters="sRGB">
<feFlood flood-opacity="0" result="BackgroundImageFix"/>
<feBlend mode="normal" in="SourceGraphic" in2="BackgroundImageFix" result="shape"/>
<feColorMatrix in="SourceAlpha" type="matrix" values="0 0 0 0 0 0 0 0 0 0 0 0 0 0 0 0 0 0 127 0" result="hardAlpha"/>
<feOffset dx="-4.76923"/>
<feGaussianBlur stdDeviation="4.76923"/>
<feComposite in2="hardAlpha" operator="arithmetic" k2="-1" k3="1"/>
<feColorMatrix type="matrix" values="0 0 0 0 0 0 0 0 0 0 0 0 0 0 0 0 0 0 0.7012 0"/>
<feBlend mode="normal" in2="shape" result="effect1_innerShadow"/>
</filter>
<filter id="filter4_i" x="834.329" y="54.4082" width="66.1063" height="1746.62" filterUnits="userSpaceOnUse" color-interpolation-filters="sRGB">
<feFlood flood-opacity="0" result="BackgroundImageFix"/>
<feBlend mode="normal" in="SourceGraphic" in2="BackgroundImageFix" result="shape"/>
<feColorMatrix in="SourceAlpha" type="matrix" values="0 0 0 0 0 0 0 0 0 0 0 0 0 0 0 0 0 0 127 0" result="hardAlpha"/>
<feOffset dx="-4.76923"/>
<feGaussianBlur stdDeviation="4.76923"/>
<feComposite in2="hardAlpha" operator="arithmetic" k2="-1" k3="1"/>
<feColorMatrix type="matrix" values="0 0 0 0 0 0 0 0 0 0 0 0 0 0 0 0 0 0 0.7012 0"/>
<feBlend mode="normal" in2="shape" result="effect1_innerShadow"/>
</filter>
<filter id="filter5_ii" x="0" y="249.908" width="7.63077" height="73.4462" filterUnits="userSpaceOnUse" color-interpolation-filters="sRGB">
<feFlood flood-opacity="0" result="BackgroundImageFix"/>
<feBlend mode="normal" in="SourceGraphic" in2="BackgroundImageFix" result="shape"/>
<feColorMatrix in="SourceAlpha" type="matrix" values="0 0 0 0 0 0 0 0 0 0 0 0 0 0 0 0 0 0 127 0" result="hardAlpha"/>
<feOffset dy="4.76923"/>
<feGaussianBlur stdDeviation="0.953846"/>
<feComposite in2="hardAlpha" operator="arithmetic" k2="-1" k3="1"/>
<feColorMatrix type="matrix" values="0 0 0 0 0 0 0 0 0 0 0 0 0 0 0 0 0 0 0.65257 0"/>
<feBlend mode="normal" in2="shape" result="effect1_innerShadow"/>
<feColorMatrix in="SourceAlpha" type="matrix" values="0 0 0 0 0 0 0 0 0 0 0 0 0 0 0 0 0 0 127 0" result="hardAlpha"/>
<feOffset dy="-4.76923"/>
<feGaussianBlur stdDeviation="0.953846"/>
<feComposite in2="hardAlpha" operator="arithmetic" k2="-1" k3="1"/>
<feColorMatrix type="matrix" values="0 0 0 0 0 0 0 0 0 0 0 0 0 0 0 0 0 0 0.648749 0"/>
<feBlend mode="normal" in2="effect1_innerShadow" result="effect2_innerShadow"/>
</filter>
<filter id="filter6_ii" x="0" y="374.862" width="7.63077" height="133.538" filterUnits="userSpaceOnUse" color-interpolation-filters="sRGB">
<feFlood flood-opacity="0" result="BackgroundImageFix"/>
<feBlend mode="normal" in="SourceGraphic" in2="BackgroundImageFix" result="shape"/>
<feColorMatrix in="SourceAlpha" type="matrix" values="0 0 0 0 0 0 0 0 0 0 0 0 0 0 0 0 0 0 127 0" result="hardAlpha"/>
<feOffset dy="4.76923"/>
<feGaussianBlur stdDeviation="0.953846"/>
<feComposite in2="hardAlpha" operator="arithmetic" k2="-1" k3="1"/>
<feColorMatrix type="matrix" values="0 0 0 0 0 0 0 0 0 0 0 0 0 0 0 0 0 0 0.65257 0"/>
<feBlend mode="normal" in2="shape" result="effect1_innerShadow"/>
<feColorMatrix in="SourceAlpha" type="matrix" values="0 0 0 0 0 0 0 0 0 0 0 0 0 0 0 0 0 0 127 0" result="hardAlpha"/>
<feOffset dy="-4.76923"/>
<feGaussianBlur stdDeviation="0.953846"/>
<feComposite in2="hardAlpha" operator="arithmetic" k2="-1" k3="1"/>
<feColorMatrix type="matrix" values="0 0 0 0 0 0 0 0 0 0 0 0 0 0 0 0 0 0 0.648749 0"/>
<feBlend mode="normal" in2="effect1_innerShadow" result="effect2_innerShadow"/>
</filter>
<filter id="filter7_ii" x="0" y="535.108" width="7.63077" height="133.538" filterUnits="userSpaceOnUse" color-interpolation-filters="sRGB">
<feFlood flood-opacity="0" result="BackgroundImageFix"/>
<feBlend mode="normal" in="SourceGraphic" in2="BackgroundImageFix" result="shape"/>
<feColorMatrix in="SourceAlpha" type="matrix" values="0 0 0 0 0 0 0 0 0 0 0 0 0 0 0 0 0 0 127 0" result="hardAlpha"/>
<feOffset dy="4.76923"/>
<feGaussianBlur stdDeviation="0.953846"/>
<feComposite in2="hardAlpha" operator="arithmetic" k2="-1" k3="1"/>
<feColorMatrix type="matrix" values="0 0 0 0 0 0 0 0 0 0 0 0 0 0 0 0 0 0 0.65257 0"/>
<feBlend mode="normal" in2="shape" result="effect1_innerShadow"/>
<feColorMatrix in="SourceAlpha" type="matrix" values="0 0 0 0 0 0 0 0 0 0 0 0 0 0 0 0 0 0 127 0" result="hardAlpha"/>
<feOffset dy="-4.76923"/>
<feGaussianBlur stdDeviation="0.953846"/>
<feComposite in2="hardAlpha" operator="arithmetic" k2="-1" k3="1"/>
<feColorMatrix type="matrix" values="0 0 0 0 0 0 0 0 0 0 0 0 0 0 0 0 0 0 0.648749 0"/>
<feBlend mode="normal" in2="effect1_innerShadow" result="effect2_innerShadow"/>
</filter>
<filter id="filter8_ii" x="926.185" y="418.738" width="7.63077" height="207.938" filterUnits="userSpaceOnUse" color-interpolation-filters="sRGB">
<feFlood flood-opacity="0" result="BackgroundImageFix"/>
<feBlend mode="normal" in="SourceGraphic" in2="BackgroundImageFix" result="shape"/>
<feColorMatrix in="SourceAlpha" type="matrix" values="0 0 0 0 0 0 0 0 0 0 0 0 0 0 0 0 0 0 127 0" result="hardAlpha"/>
<feOffset dy="4.76923"/>
<feGaussianBlur stdDeviation="0.953846"/>
<feComposite in2="hardAlpha" operator="arithmetic" k2="-1" k3="1"/>
<feColorMatrix type="matrix" values="0 0 0 0 0 0 0 0 0 0 0 0 0 0 0 0 0 0 0.498953 0"/>
<feBlend mode="normal" in2="shape" result="effect1_innerShadow"/>
<feColorMatrix in="SourceAlpha" type="matrix" values="0 0 0 0 0 0 0 0 0 0 0 0 0 0 0 0 0 0 127 0" result="hardAlpha"/>
<feOffset dy="-4.76923"/>
<feGaussianBlur stdDeviation="0.953846"/>
<feComposite in2="hardAlpha" operator="arithmetic" k2="-1" k3="1"/>
<feColorMatrix type="matrix" values="0 0 0 0 0 0 0 0 0 0 0 0 0 0 0 0 0 0 0.497368 0"/>
<feBlend mode="normal" in2="effect1_innerShadow" result="effect2_innerShadow"/>
</filter>
<filter id="filter9_iii" x="413.015" y="73.4462" width="106.831" height="17.1692" filterUnits="userSpaceOnUse" color-interpolation-filters="sRGB">
<feFlood flood-opacity="0" result="BackgroundImageFix"/>
<feBlend mode="normal" in="SourceGraphic" in2="BackgroundImageFix" result="shape"/>
<feColorMatrix in="SourceAlpha" type="matrix" values="0 0 0 0 0 0 0 0 0 0 0 0 0 0 0 0 0 0 127 0" result="hardAlpha"/>
<feMorphology radius="2.86154" operator="erode" in="SourceAlpha" result="effect1_innerShadow"/>
<feOffset/>
<feGaussianBlur stdDeviation="1.43077"/>
<feComposite in2="hardAlpha" operator="arithmetic" k2="-1" k3="1"/>
<feColorMatrix type="matrix" values="0 0 0 0 0 0 0 0 0 0 0 0 0 0 0 0 0 0 0.795035 0"/>
<feBlend mode="normal" in2="shape" result="effect1_innerShadow"/>
<feColorMatrix in="SourceAlpha" type="matrix" values="0 0 0 0 0 0 0 0 0 0 0 0 0 0 0 0 0 0 127 0" result="hardAlpha"/>
<feOffset dy="-2.86154"/>
<feComposite in2="hardAlpha" operator="arithmetic" k2="-1" k3="1"/>
<feColorMatrix type="matrix" values="0 0 0 0 0 0 0 0 0 0 0 0 0 0 0 0 0 0 0.80013 0"/>
<feBlend mode="normal" in2="effect1_innerShadow" result="effect2_innerShadow"/>
<feColorMatrix in="SourceAlpha" type="matrix" values="0 0 0 0 0 0 0 0 0 0 0 0 0 0 0 0 0 0 127 0" result="hardAlpha"/>
<feOffset dy="-1.90769"/>
<feComposite in2="hardAlpha" operator="arithmetic" k2="-1" k3="1"/>
<feColorMatrix type="matrix" values="0 0 0 0 1 0 0 0 0 1 0 0 0 0 1 0 0 0 0.197067 0"/>
<feBlend mode="normal" in2="effect2_innerShadow" result="effect3_innerShadow"/>
</filter>
<filter id="filter10_dd" x="543.692" y="66.7693" width="29.5692" height="29.5692" filterUnits="userSpaceOnUse" color-interpolation-filters="sRGB">
<feFlood flood-opacity="0" result="BackgroundImageFix"/>
<feColorMatrix in="SourceAlpha" type="matrix" values="0 0 0 0 0 0 0 0 0 0 0 0 0 0 0 0 0 0 127 0"/>
<feMorphology radius="3.81538" operator="dilate" in="SourceAlpha" result="effect1_dropShadow"/>
<feOffset/>
<feGaussianBlur stdDeviation="1.90769"/>
<feColorMatrix type="matrix" values="0 0 0 0 0 0 0 0 0 0 0 0 0 0 0 0 0 0 0.4 0"/>
<feBlend mode="normal" in2="BackgroundImageFix" result="effect1_dropShadow"/>
<feColorMatrix in="SourceAlpha" type="matrix" values="0 0 0 0 0 0 0 0 0 0 0 0 0 0 0 0 0 0 127 0"/>
<feMorphology radius="1.90769" operator="dilate" in="SourceAlpha" result="effect2_dropShadow"/>
<feOffset/>
<feColorMatrix type="matrix" values="0 0 0 0 0 0 0 0 0 0 0 0 0 0 0 0 0 0 1 0"/>
<feBlend mode="normal" in2="effect1_dropShadow" result="effect2_dropShadow"/>
<feBlend mode="normal" in="SourceGraphic" in2="effect2_dropShadow" result="shape"/>
</filter>
<filter id="filter11_f" x="546.482" y="70.9697" width="12.5704" height="19.2904" filterUnits="userSpaceOnUse" color-interpolation-filters="sRGB">
<feFlood flood-opacity="0" result="BackgroundImageFix"/>
<feBlend mode="normal" in="SourceGraphic" in2="BackgroundImageFix" result="shape"/>
<feGaussianBlur stdDeviation="1.94462" result="effect1_foregroundBlur"/>
</filter>
<filter id="filter12_f" x="555.065" y="70.5108" width="16.3631" height="18.2708" filterUnits="userSpaceOnUse" color-interpolation-filters="sRGB">
<feFlood flood-opacity="0" result="BackgroundImageFix"/>
<feBlend mode="normal" in="SourceGraphic" in2="BackgroundImageFix" result="shape"/>
<feGaussianBlur stdDeviation="1.94462" result="effect1_foregroundBlur"/>
</filter>
<filter id="filter13_f" x="550.409" y="79.5291" width="18.0892" height="14.67" filterUnits="userSpaceOnUse" color-interpolation-filters="sRGB">
<feFlood flood-opacity="0" result="BackgroundImageFix"/>
<feBlend mode="normal" in="SourceGraphic" in2="BackgroundImageFix" result="shape"/>
<feGaussianBlur stdDeviation="1.45998" result="effect1_foregroundBlur"/>
</filter>
<linearGradient id="paint0_linear" x1="22.8923" y1="19.0769" x2="22.8923" y2="1825.66" gradientUnits="userSpaceOnUse">
<stop stop-color="#2A2A2C"/>
<stop offset="1" stop-color="#262627"/>
</linearGradient>
<linearGradient id="paint1_linear" x1="32.4308" y1="28.6154" x2="32.4308" y2="1816.12" gradientUnits="userSpaceOnUse">
<stop stop-color="#676767"/>
<stop offset="0.0213301"/>
<stop offset="0.978505"/>
<stop offset="1" stop-color="#676767"/>
</linearGradient>
<linearGradient id="paint2_linear" x1="2.07416" y1="292.708" x2="4.17166" y2="292.708" gradientUnits="userSpaceOnUse">
<stop stop-color="#4E4D52"/>
<stop offset="0.00734796" stop-color="#636369"/>
<stop offset="0.903834" stop-color="#636369"/>
<stop offset="1" stop-color="#4A4950"/>
</linearGradient>
<linearGradient id="paint3_linear" x1="2.07416" y1="452.953" x2="4.17166" y2="452.953" gradientUnits="userSpaceOnUse">
<stop stop-color="#4E4D52"/>
<stop offset="0.00734796" stop-color="#636369"/>
<stop offset="0.903834" stop-color="#636369"/>
<stop offset="1" stop-color="#4A4950"/>
</linearGradient>
<linearGradient id="paint4_linear" x1="2.07416" y1="613.199" x2="4.17166" y2="613.199" gradientUnits="userSpaceOnUse">
<stop stop-color="#4E4D52"/>
<stop offset="0.00734796" stop-color="#636369"/>
<stop offset="0.903834" stop-color="#636369"/>
<stop offset="1" stop-color="#4A4950"/>
</linearGradient>
<linearGradient id="paint5_linear" x1="931.179" y1="514.046" x2="931.061" y2="514.046" gradientUnits="userSpaceOnUse">
<stop stop-color="#3B3B40"/>
<stop offset="1" stop-color="#606166"/>
</linearGradient>
<linearGradient id="paint6_linear" x1="933.815" y1="420.646" x2="933.815" y2="624.769" gradientUnits="userSpaceOnUse">
<stop stop-opacity="0.996971"/>
<stop offset="0.0951211" stop-opacity="0.01"/>
<stop offset="0.895463" stop-opacity="0.01"/>
<stop offset="1"/>
</linearGradient>
<radialGradient id="paint7_radial" cx="0" cy="0" r="1" gradientUnits="userSpaceOnUse" gradientTransform="translate(575.422 101.615) rotate(45.1938) scale(24.0039)">
<stop stop-color="#434343"/>
<stop offset="1" stop-color="#121212"/>
</radialGradient>
<radialGradient id="paint8_radial" cx="0" cy="0" r="1" gradientUnits="userSpaceOnUse" gradientTransform="translate(558.477 74.4) rotate(90) scale(14.3077)">
<stop stop-color="#2A4893"/>
<stop offset="1" stop-color="#213054"/>
</radialGradient>
<clipPath id="clip0">
<rect width="103.015" height="2.86154" fill="white" transform="translate(415.877 1841.88)"/>
</clipPath>
<clipPath id="clip1">
<rect width="933.815" height="414.923" fill="white" transform="translate(0 251.815)"/>
</clipPath>
<clipPath id="clip2">
<rect width="106.831" height="17.1692" fill="white" transform="translate(413.015 73.4462)"/>
</clipPath>
<clipPath id="clip3">
<rect width="23.8462" height="23.8462" fill="white" transform="translate(546.554 69.6307)"/>
</clipPath>
</defs>
</svg>
