<svg width="1247" height="1881" viewBox="0 0 1247 1881" fill="none" xmlns="http://www.w3.org/2000/svg">
<g filter="url(#filter0_i)">
<path d="M112.124 0H1134.26C1167.77 0 1183.61 3.0583 1200.05 11.8539C1214.88 19.7859 1226.6 31.499 1234.53 46.3305C1243.33 62.7768 1246.38 78.614 1246.38 112.124V1768.27C1246.38 1801.78 1243.33 1817.62 1234.53 1834.06C1226.6 1848.9 1214.88 1860.61 1200.05 1868.54C1183.61 1877.34 1167.77 1880.4 1134.26 1880.4H112.124C78.614 1880.4 62.7768 1877.34 46.3305 1868.54C31.499 1860.61 19.7859 1848.9 11.8539 1834.06C3.0583 1817.62 0 1801.78 0 1768.27V112.124C0 78.614 3.0583 62.7768 11.8539 46.3305C19.7859 31.499 31.499 19.7859 46.3305 11.8539C62.7768 3.0583 78.614 0 112.124 0Z" fill="#9FA0A7"/>
<path d="M112.124 0H1134.26C1167.77 0 1183.61 3.0583 1200.05 11.8539C1214.88 19.7859 1226.6 31.499 1234.53 46.3305C1243.33 62.7768 1246.38 78.614 1246.38 112.124V1768.27C1246.38 1801.78 1243.33 1817.62 1234.53 1834.06C1226.6 1848.9 1214.88 1860.61 1200.05 1868.54C1183.61 1877.34 1167.77 1880.4 1134.26 1880.4H112.124C78.614 1880.4 62.7768 1877.34 46.3305 1868.54C31.499 1860.61 19.7859 1848.9 11.8539 1834.06C3.0583 1817.62 0 1801.78 0 1768.27V112.124C0 78.614 3.0583 62.7768 11.8539 46.3305C19.7859 31.499 31.499 19.7859 46.3305 11.8539C62.7768 3.0583 78.614 0 112.124 0Z" fill="url(#paint0_linear)"/>
<path d="M112.124 0H1134.26C1167.77 0 1183.61 3.0583 1200.05 11.8539C1214.88 19.7859 1226.6 31.499 1234.53 46.3305C1243.33 62.7768 1246.38 78.614 1246.38 112.124V1768.27C1246.38 1801.78 1243.33 1817.62 1234.53 1834.06C1226.6 1848.9 1214.88 1860.61 1200.05 1868.54C1183.61 1877.34 1167.77 1880.4 1134.26 1880.4H112.124C78.614 1880.4 62.7768 1877.34 46.3305 1868.54C31.499 1860.61 19.7859 1848.9 11.8539 1834.06C3.0583 1817.62 0 1801.78 0 1768.27V112.124C0 78.614 3.0583 62.7768 11.8539 46.3305C19.7859 31.499 31.499 19.7859 46.3305 11.8539C62.7768 3.0583 78.614 0 112.124 0Z" fill="url(#paint1_linear)"/>
</g>
<g filter="url(#filter1_d)">
<path d="M112.124 12.2618C77.3997 12.2618 64.8079 15.8774 52.1132 22.6665C39.4186 29.4557 29.4557 39.4185 22.6666 52.1132C15.8774 64.8078 12.2619 77.3997 12.2619 112.124V1768.27C12.2619 1803 15.8774 1815.59 22.6666 1828.28C29.4557 1840.98 39.4186 1850.94 52.1132 1857.73C64.8079 1864.52 77.3997 1868.13 112.124 1868.13H1134.26C1168.98 1868.13 1181.58 1864.52 1194.27 1857.73C1206.97 1850.94 1216.93 1840.98 1223.72 1828.28C1230.51 1815.59 1234.12 1803 1234.12 1768.27V112.124C1234.12 77.3997 1230.51 64.8078 1223.72 52.1132C1216.93 39.4185 1206.97 29.4557 1194.27 22.6665C1181.58 15.8774 1168.98 12.2618 1134.26 12.2618H112.124Z" fill="#0F0F0F"/>
</g>
<g filter="url(#filter2_i)">
<path fill-rule="evenodd" clip-rule="evenodd" d="M623.192 1840C650.28 1840 672.239 1818.04 672.239 1790.96C672.239 1763.87 650.28 1741.91 623.192 1741.91C596.104 1741.91 574.144 1763.87 574.144 1790.96C574.144 1818.04 596.104 1840 623.192 1840ZM623.526 1833.33C647.113 1833.33 666.234 1814.21 666.234 1790.62C666.234 1767.03 647.113 1747.91 623.526 1747.91C599.939 1747.91 580.818 1767.03 580.818 1790.62C580.818 1814.21 599.939 1833.33 623.526 1833.33Z" fill="url(#paint2_angular)"/>
</g>
<g filter="url(#filter3_d)">
<ellipse cx="623.471" cy="102.831" rx="11.2398" ry="11.2276" fill="url(#paint3_radial)"/>
</g>
<g filter="url(#filter4_d)">
<ellipse cx="623.471" cy="102.831" rx="5.32413" ry="5.31835" fill="url(#paint4_radial)"/>
</g>
<g filter="url(#filter5_f)">
<circle cx="627.026" cy="100.442" r="0.887738" fill="#75C8FF"/>
</g>
<g filter="url(#filter6_f)">
<path fill-rule="evenodd" clip-rule="evenodd" d="M624.112 104.903C625.241 104.58 625.894 103.402 625.57 102.274C625.246 101.145 624.069 100.493 622.94 100.816C621.812 101.14 621.159 102.317 621.483 103.446C621.806 104.574 622.984 105.227 624.112 104.903V104.903Z" fill="#00154F"/>
</g>
<path d="M64.9158 199.091V199.091V1680.58C64.9158 1681.78 65.8937 1682.76 67.0999 1682.76H1179.28C1180.49 1682.76 1181.47 1681.79 1181.47 1680.58V199.091C1181.47 197.89 1180.49 196.911 1179.28 196.911H67.0999C65.8968 196.911 64.9158 197.887 64.9158 199.091V199.091Z" fill="#212121"/>
<rect x="69.2434" y="201.239" width="1107.9" height="1477.2" fill="#FF0000"/>
<text fill="black" xml:space="preserve" style="white-space: pre" font-family="Roboto" font-size="20" letter-spacing="0em"><tspan x="97" y="238.336">name: iPad Mini&#10;</tspan><tspan x="97" y="261.336">density: 2&#10;</tspan><tspan x="97" y="284.336">screen_size: 768x1024&#10;</tspan><tspan x="97" y="307.336">safe_areas: 0,20,0,0|0,20,0,0</tspan></text>
<defs>
<filter id="filter0_i" x="0" y="0" width="1246.38" height="1880.4" filterUnits="userSpaceOnUse" color-interpolation-filters="sRGB">
<feFlood flood-opacity="0" result="BackgroundImageFix"/>
<feBlend mode="normal" in="SourceGraphic" in2="BackgroundImageFix" result="shape"/>
<feColorMatrix in="SourceAlpha" type="matrix" values="0 0 0 0 0 0 0 0 0 0 0 0 0 0 0 0 0 0 127 0" result="hardAlpha"/>
<feOffset/>
<feGaussianBlur stdDeviation="0.721287"/>
<feComposite in2="hardAlpha" operator="arithmetic" k2="-1" k3="1"/>
<feColorMatrix type="matrix" values="0 0 0 0 0 0 0 0 0 0 0 0 0 0 0 0 0 0 0.3 0"/>
<feBlend mode="normal" in2="shape" result="effect1_innerShadow"/>
</filter>
<filter id="filter1_d" x="11.5406" y="11.5406" width="1223.3" height="1857.31" filterUnits="userSpaceOnUse" color-interpolation-filters="sRGB">
<feFlood flood-opacity="0" result="BackgroundImageFix"/>
<feColorMatrix in="SourceAlpha" type="matrix" values="0 0 0 0 0 0 0 0 0 0 0 0 0 0 0 0 0 0 127 0"/>
<feOffset/>
<feGaussianBlur stdDeviation="0.360643"/>
<feColorMatrix type="matrix" values="0 0 0 0 0.557681 0 0 0 0 0.56321 0 0 0 0 0.585326 0 0 0 1 0"/>
<feBlend mode="normal" in2="BackgroundImageFix" result="effect1_dropShadow"/>
<feBlend mode="normal" in="SourceGraphic" in2="effect1_dropShadow" result="shape"/>
</filter>
<filter id="filter2_i" x="574.144" y="1741.91" width="98.8163" height="98.095" filterUnits="userSpaceOnUse" color-interpolation-filters="sRGB">
<feFlood flood-opacity="0" result="BackgroundImageFix"/>
<feBlend mode="normal" in="SourceGraphic" in2="BackgroundImageFix" result="shape"/>
<feColorMatrix in="SourceAlpha" type="matrix" values="0 0 0 0 0 0 0 0 0 0 0 0 0 0 0 0 0 0 127 0" result="hardAlpha"/>
<feOffset dx="0.721287"/>
<feGaussianBlur stdDeviation="0.360643"/>
<feComposite in2="hardAlpha" operator="arithmetic" k2="-1" k3="1"/>
<feColorMatrix type="matrix" values="0 0 0 0 0 0 0 0 0 0 0 0 0 0 0 0 0 0 0.112687 0"/>
<feBlend mode="normal" in2="shape" result="effect1_innerShadow"/>
</filter>
<filter id="filter3_d" x="612.231" y="91.6033" width="22.4797" height="23.1765" filterUnits="userSpaceOnUse" color-interpolation-filters="sRGB">
<feFlood flood-opacity="0" result="BackgroundImageFix"/>
<feColorMatrix in="SourceAlpha" type="matrix" values="0 0 0 0 0 0 0 0 0 0 0 0 0 0 0 0 0 0 127 0"/>
<feOffset dy="0.721287"/>
<feColorMatrix type="matrix" values="0 0 0 0 0.133333 0 0 0 0 0.133333 0 0 0 0 0.133333 0 0 0 1 0"/>
<feBlend mode="normal" in2="BackgroundImageFix" result="effect1_dropShadow"/>
<feBlend mode="normal" in="SourceGraphic" in2="effect1_dropShadow" result="shape"/>
</filter>
<filter id="filter4_d" x="615.262" y="94.6275" width="16.4186" height="16.407" filterUnits="userSpaceOnUse" color-interpolation-filters="sRGB">
<feFlood flood-opacity="0" result="BackgroundImageFix"/>
<feColorMatrix in="SourceAlpha" type="matrix" values="0 0 0 0 0 0 0 0 0 0 0 0 0 0 0 0 0 0 127 0"/>
<feMorphology radius="1.44257" operator="dilate" in="SourceAlpha" result="effect1_dropShadow"/>
<feOffset/>
<feGaussianBlur stdDeviation="0.721287"/>
<feColorMatrix type="matrix" values="0 0 0 0 0 0 0 0 0 0 0 0 0 0 0 0 0 0 0.4 0"/>
<feBlend mode="normal" in2="BackgroundImageFix" result="effect1_dropShadow"/>
<feBlend mode="normal" in="SourceGraphic" in2="effect1_dropShadow" result="shape"/>
</filter>
<filter id="filter5_f" x="624.177" y="97.5931" width="5.6968" height="5.6968" filterUnits="userSpaceOnUse" color-interpolation-filters="sRGB">
<feFlood flood-opacity="0" result="BackgroundImageFix"/>
<feBlend mode="normal" in="SourceGraphic" in2="BackgroundImageFix" result="shape"/>
<feGaussianBlur stdDeviation="0.980331" result="effect1_foregroundBlur"/>
</filter>
<filter id="filter6_f" x="619.439" y="98.7727" width="8.17422" height="8.17422" filterUnits="userSpaceOnUse" color-interpolation-filters="sRGB">
<feFlood flood-opacity="0" result="BackgroundImageFix"/>
<feBlend mode="normal" in="SourceGraphic" in2="BackgroundImageFix" result="shape"/>
<feGaussianBlur stdDeviation="0.980331" result="effect1_foregroundBlur"/>
</filter>
<linearGradient id="paint0_linear" x1="13.394" y1="40.4146" x2="13.394" y2="1880.4" gradientUnits="userSpaceOnUse">
<stop stop-color="#4C4D50" stop-opacity="0.01"/>
<stop offset="0.0362117" stop-color="#4C4D50"/>
<stop offset="0.446329" stop-color="#4C4D50" stop-opacity="0.01"/>
<stop offset="0.941095" stop-color="#4C4D50" stop-opacity="0.907892"/>
<stop offset="1" stop-color="#4C4D50" stop-opacity="0.01"/>
</linearGradient>
<linearGradient id="paint1_linear" x1="1246.38" y1="-1.94409" x2="0" y2="-1.94409" gradientUnits="userSpaceOnUse">
<stop stop-color="#4C4D50" stop-opacity="0.01"/>
<stop offset="0.507121" stop-color="#4C4D50" stop-opacity="0.5"/>
<stop offset="1" stop-color="#4C4D50" stop-opacity="0.01"/>
</linearGradient>
<radialGradient id="paint2_angular" cx="0" cy="0" r="1" gradientUnits="userSpaceOnUse" gradientTransform="translate(623.192 1790.96) scale(49.0475)">
<stop offset="0.138428" stop-color="#67666C"/>
<stop offset="0.200569" stop-color="#090A10"/>
<stop offset="0.293609" stop-color="#1D1E23"/>
<stop offset="0.321076" stop-color="#4C4B50"/>
<stop offset="0.423219" stop-color="#7F7E84"/>
<stop offset="0.501325" stop-color="#B5B5B5"/>
<stop offset="0.524768" stop-color="#090A10"/>
<stop offset="0.71246" stop-color="#151419"/>
<stop offset="0.726278" stop-color="#4D4C51"/>
<stop offset="0.769684" stop-color="#504F54"/>
<stop offset="0.777708" stop-color="#3A393E"/>
<stop offset="0.879251" stop-color="#151519"/>
<stop offset="0.926482" stop-color="#100F14"/>
<stop offset="0.950315" stop-color="#5B5C62"/>
</radialGradient>
<radialGradient id="paint3_radial" cx="0" cy="0" r="1" gradientUnits="userSpaceOnUse" gradientTransform="translate(639.445 121.722) rotate(45.1627) scale(22.616 22.6161)">
<stop stop-color="white"/>
<stop offset="1" stop-color="#252525"/>
</radialGradient>
<radialGradient id="paint4_radial" cx="0" cy="0" r="1" gradientUnits="userSpaceOnUse" gradientTransform="translate(623.471 97.5127) rotate(90) scale(10.6367 10.6483)">
<stop stop-color="#2A4893"/>
<stop offset="1" stop-color="#213054"/>
</radialGradient>
</defs>
</svg>
