<svg width="3064" height="1780" viewBox="0 0 3064 1780" fill="none" xmlns="http://www.w3.org/2000/svg">
<rect x="282.5" y="4.5" width="2499" height="1752" rx="92.5" fill="black" stroke="url(#paint0_linear)" stroke-width="9"/>
<g clip-path="url(#clip0)">
<g filter="url(#filter0_i)">
<path fill-rule="evenodd" clip-rule="evenodd" d="M292 99.5834V1645.42C292 1693.23 331.243 1732 379.642 1732H2684.36C2732.76 1732 2772 1693.23 2772 1645.42V99.5834C2772 51.7722 2732.76 13 2684.36 13H379.642C331.242 13 292 51.7667 292 99.5834Z" fill="#262626"/>
<path fill-rule="evenodd" clip-rule="evenodd" d="M292 99.5834V1645.42C292 1693.23 331.243 1732 379.642 1732H2684.36C2732.76 1732 2772 1693.23 2772 1645.42V99.5834C2772 51.7722 2732.76 13 2684.36 13H379.642C331.242 13 292 51.7667 292 99.5834Z" fill="url(#paint1_linear)" style="mix-blend-mode:multiply"/>
</g>
<path d="M290.5 99.5834V1645.42C290.5 1694.07 330.432 1733.5 379.642 1733.5H2684.36C2733.57 1733.5 2773.5 1694.08 2773.5 1645.42V99.5834C2773.5 50.9267 2733.57 11.5 2684.36 11.5H379.642C330.431 11.5 290.5 50.9211 290.5 99.5834Z" stroke="#252728" stroke-width="3"/>
<mask id="mask0" mask-type="alpha" maskUnits="userSpaceOnUse" x="289" y="10" width="2486" height="1725">
<path d="M290.5 99.5834V1645.42C290.5 1694.07 330.432 1733.5 379.642 1733.5H2684.36C2733.57 1733.5 2773.5 1694.08 2773.5 1645.42V99.5834C2773.5 50.9267 2733.57 11.5 2684.36 11.5H379.642C330.431 11.5 290.5 50.9211 290.5 99.5834Z" fill="white"/>
<path d="M290.5 99.5834V1645.42C290.5 1694.07 330.432 1733.5 379.642 1733.5H2684.36C2733.57 1733.5 2773.5 1694.08 2773.5 1645.42V99.5834C2773.5 50.9267 2733.57 11.5 2684.36 11.5H379.642C330.431 11.5 290.5 50.9211 290.5 99.5834Z" stroke="white" stroke-width="3"/>
</mask>
<g mask="url(#mask0)">
<rect x="283.029" y="-110.713" width="2799.97" height="1744.95" fill="black" fill-opacity="0.429376"/>
</g>
</g>
<path fill-rule="evenodd" clip-rule="evenodd" d="M1481.28 1681.82L1480.61 1669.39C1480.3 1663.59 1480.15 1659.52 1480.15 1657.17H1480.07C1478.78 1661.31 1477.59 1664.89 1476.5 1667.92L1471.5 1681.65H1468.73L1464.11 1668.17C1462.68 1663.86 1461.6 1660.19 1460.87 1657.17H1460.79C1460.7 1660.78 1460.52 1664.95 1460.24 1669.68L1459.49 1681.82H1456L1457.97 1653.51H1462.64L1467.47 1667.2C1468.59 1670.56 1469.54 1673.74 1470.32 1676.74H1470.41C1471.08 1674.16 1472.09 1670.98 1473.43 1667.2L1478.47 1653.51H1483.13L1484.9 1681.82H1481.28ZM1503.73 1669.35V1676.95C1503.73 1678.91 1503.83 1680.53 1504.02 1681.82H1500.71L1500.41 1679.26H1500.29C1499.67 1680.13 1498.82 1680.85 1497.74 1681.42C1496.67 1682 1495.44 1682.28 1494.07 1682.28C1492.11 1682.28 1490.58 1681.71 1489.49 1680.56C1488.4 1679.41 1487.85 1678.04 1487.85 1676.44C1487.85 1673.98 1488.91 1672.1 1491.03 1670.79C1493.14 1669.49 1496.16 1668.86 1500.08 1668.88V1668.46C1500.08 1667.96 1500.03 1667.48 1499.93 1667.01C1499.83 1666.55 1499.64 1666.06 1499.34 1665.52C1499.05 1664.99 1498.57 1664.57 1497.91 1664.26C1497.25 1663.96 1496.44 1663.8 1495.46 1663.8C1493.38 1663.8 1491.61 1664.31 1490.12 1665.31L1489.28 1662.84C1491.16 1661.66 1493.4 1661.07 1496 1661.07C1498.83 1661.07 1500.82 1661.86 1501.99 1663.42C1503.15 1664.99 1503.73 1666.97 1503.73 1669.35ZM1500.16 1674.97V1671.45C1494.42 1671.33 1491.55 1672.86 1491.55 1676.02C1491.55 1677.17 1491.88 1678.05 1492.54 1678.65C1493.2 1679.25 1494.01 1679.55 1494.99 1679.55C1496.25 1679.55 1497.32 1679.22 1498.19 1678.56C1499.05 1677.91 1499.66 1677.1 1499.99 1676.15C1500.1 1675.79 1500.16 1675.39 1500.16 1674.97ZM1522.35 1678.33L1522.98 1681.11C1521.33 1681.89 1519.39 1682.28 1517.15 1682.28C1514.09 1682.28 1511.64 1681.33 1509.8 1679.43C1507.95 1677.52 1507.02 1675.02 1507.02 1671.91C1507.02 1668.74 1508.02 1666.15 1510.03 1664.12C1512.03 1662.09 1514.67 1661.07 1517.94 1661.07C1520.02 1661.07 1521.72 1661.44 1523.07 1662.16L1522.23 1664.98C1521 1664.33 1519.57 1664.01 1517.94 1664.01C1515.7 1664.01 1513.95 1664.75 1512.67 1666.22C1511.4 1667.69 1510.76 1669.51 1510.76 1671.7C1510.76 1674.02 1511.43 1675.87 1512.76 1677.24C1514.09 1678.61 1515.77 1679.3 1517.82 1679.3C1519.39 1679.3 1520.9 1678.98 1522.35 1678.33ZM1526.24 1681.74V1653.93C1528 1653.51 1530.23 1653.3 1532.91 1653.3C1536.41 1653.3 1538.99 1653.99 1540.64 1655.36C1542.24 1656.54 1543.04 1658.2 1543.04 1660.36C1543.04 1661.73 1542.61 1662.98 1541.75 1664.1C1540.9 1665.22 1539.73 1666.04 1538.25 1666.57V1666.7C1539.82 1667.06 1541.18 1667.85 1542.34 1669.05C1543.51 1670.26 1544.09 1671.82 1544.09 1673.76C1544.09 1676.05 1543.27 1677.94 1541.65 1679.43C1539.77 1681.19 1536.53 1682.07 1531.91 1682.07C1529.75 1682.07 1527.86 1681.96 1526.24 1681.74ZM1529.89 1656.37V1665.52H1533.21C1535.08 1665.52 1536.57 1665.08 1537.66 1664.18C1538.75 1663.28 1539.3 1662.14 1539.3 1660.74C1539.3 1657.66 1537.24 1656.12 1533.12 1656.12C1531.75 1656.12 1530.67 1656.2 1529.89 1656.37ZM1529.89 1668.25V1679.05C1530.56 1679.16 1531.58 1679.22 1532.96 1679.22C1535.06 1679.22 1536.79 1678.78 1538.16 1677.89C1539.54 1677.01 1540.22 1675.62 1540.22 1673.71C1540.22 1671.89 1539.54 1670.53 1538.16 1669.62C1536.79 1668.71 1535.04 1668.25 1532.91 1668.25H1529.89ZM1556.45 1661.07C1559.36 1661.07 1561.72 1662.04 1563.53 1663.97C1565.34 1665.9 1566.24 1668.41 1566.24 1671.49C1566.24 1674.99 1565.23 1677.66 1563.21 1679.51C1561.2 1681.36 1558.83 1682.28 1556.12 1682.28C1553.32 1682.28 1550.99 1681.32 1549.14 1679.4C1547.3 1677.49 1546.37 1674.96 1546.37 1671.82C1546.37 1668.55 1547.33 1665.94 1549.25 1663.99C1551.17 1662.04 1553.57 1661.07 1556.45 1661.07ZM1556.37 1663.84C1554.35 1663.84 1552.81 1664.62 1551.75 1666.18C1550.68 1667.73 1550.15 1669.57 1550.15 1671.7C1550.15 1673.94 1550.73 1675.8 1551.87 1677.28C1553.02 1678.77 1554.49 1679.51 1556.28 1679.51C1558.05 1679.51 1559.52 1678.76 1560.69 1677.26C1561.87 1675.76 1562.46 1673.88 1562.46 1671.61C1562.46 1669.63 1561.95 1667.83 1560.93 1666.24C1559.9 1664.64 1558.38 1663.84 1556.37 1663.84ZM1578.31 1661.07C1581.22 1661.07 1583.58 1662.04 1585.39 1663.97C1587.19 1665.9 1588.1 1668.41 1588.1 1671.49C1588.1 1674.99 1587.09 1677.66 1585.07 1679.51C1583.06 1681.36 1580.69 1682.28 1577.97 1682.28C1575.17 1682.28 1572.85 1681.32 1571 1679.4C1569.15 1677.49 1568.23 1674.96 1568.23 1671.82C1568.23 1668.55 1569.19 1665.94 1571.11 1663.99C1573.03 1662.04 1575.43 1661.07 1578.31 1661.07ZM1578.23 1663.84C1576.21 1663.84 1574.67 1664.62 1573.61 1666.18C1572.54 1667.73 1572.01 1669.57 1572.01 1671.7C1572.01 1673.94 1572.58 1675.8 1573.73 1677.28C1574.88 1678.77 1576.35 1679.51 1578.14 1679.51C1579.91 1679.51 1581.38 1678.76 1582.55 1677.26C1583.73 1675.76 1584.32 1673.88 1584.32 1671.61C1584.32 1669.63 1583.81 1667.83 1582.78 1666.24C1581.76 1664.64 1580.24 1663.84 1578.23 1663.84ZM1595.21 1652V1670.82H1595.3C1595.86 1670.03 1596.44 1669.26 1597.06 1668.51L1603.07 1661.49H1607.48L1599.66 1669.85L1608.61 1681.82H1604.07L1597.1 1672.08L1595.21 1674.18V1681.82H1591.56V1652H1595.21Z" fill="#C4C3C8"/>
<g clip-path="url(#clip1)">
<g filter="url(#filter1_ii)">
<path fill-rule="evenodd" clip-rule="evenodd" d="M1532 1700H0V1717.1C20.4211 1727.86 109.291 1747.03 205.2 1753.45C301.109 1759.86 436.05 1762 436.05 1762H1532H1539H2629.93C2629.93 1762 2764.26 1759.86 2859.73 1753.45C2955.21 1747.03 3043.67 1727.86 3064 1717.1V1700H1539H1532Z" fill="url(#paint2_linear)"/>
<path fill-rule="evenodd" clip-rule="evenodd" d="M1532 1700H0V1717.1C20.4211 1727.86 109.291 1747.03 205.2 1753.45C301.109 1759.86 436.05 1762 436.05 1762H1532H1539H2629.93C2629.93 1762 2764.26 1759.86 2859.73 1753.45C2955.21 1747.03 3043.67 1727.86 3064 1717.1V1700H1539H1532Z" fill="url(#paint3_linear)" style="mix-blend-mode:overlay"/>
<path fill-rule="evenodd" clip-rule="evenodd" d="M1532 1700H0V1717.1C20.4211 1727.86 109.291 1747.03 205.2 1753.45C301.109 1759.86 436.05 1762 436.05 1762H1532H1539H2629.93C2629.93 1762 2764.26 1759.86 2859.73 1753.45C2955.21 1747.03 3043.67 1727.86 3064 1717.1V1700H1539H1532Z" fill="url(#paint4_linear)" fill-opacity="0.43" style="mix-blend-mode:overlay"/>
</g>
<ellipse cx="2765.5" cy="1747.5" rx="16.5" ry="3.5" fill="url(#paint5_linear)"/>
<mask id="mask1" mask-type="alpha" maskUnits="userSpaceOnUse" x="2749" y="1744" width="33" height="7">
<ellipse cx="2765.5" cy="1747.5" rx="16.5" ry="3.5" fill="white"/>
</mask>
<g mask="url(#mask1)">
<g filter="url(#filter2_f)">
<path fill-rule="evenodd" clip-rule="evenodd" d="M2765 1747C2769.42 1747 2773 1745.43 2773 1743.5C2773 1743.13 2772.87 1742.77 2772.63 1742.44C2770.47 1742.16 2768.05 1742 2765.5 1742C2762.5 1742 2759.69 1742.22 2757.27 1742.6C2757.09 1742.89 2757 1743.19 2757 1743.5C2757 1745.43 2760.58 1747 2765 1747Z" fill="#141823"/>
</g>
</g>
<ellipse cx="1908.5" cy="1747.5" rx="16.5" ry="3.5" fill="url(#paint6_linear)"/>
<mask id="mask2" mask-type="alpha" maskUnits="userSpaceOnUse" x="1892" y="1744" width="33" height="7">
<ellipse cx="1908.5" cy="1747.5" rx="16.5" ry="3.5" fill="white"/>
</mask>
<g mask="url(#mask2)">
<g filter="url(#filter3_f)">
<path fill-rule="evenodd" clip-rule="evenodd" d="M1908 1747C1912.42 1747 1916 1745.43 1916 1743.5C1916 1743.13 1915.87 1742.77 1915.63 1742.44C1913.47 1742.16 1911.05 1742 1908.5 1742C1905.5 1742 1902.69 1742.22 1900.27 1742.6C1900.09 1742.89 1900 1743.19 1900 1743.5C1900 1745.43 1903.58 1747 1908 1747Z" fill="#141823"/>
</g>
</g>
<ellipse cx="1152.5" cy="1747.5" rx="16.5" ry="3.5" fill="url(#paint7_linear)"/>
<mask id="mask3" mask-type="alpha" maskUnits="userSpaceOnUse" x="1136" y="1744" width="33" height="7">
<ellipse cx="1152.5" cy="1747.5" rx="16.5" ry="3.5" fill="white"/>
</mask>
<g mask="url(#mask3)">
<g filter="url(#filter4_f)">
<path fill-rule="evenodd" clip-rule="evenodd" d="M1152 1747C1156.42 1747 1160 1745.43 1160 1743.5C1160 1743.13 1159.87 1742.77 1159.63 1742.44C1157.47 1742.16 1155.05 1742 1152.5 1742C1149.5 1742 1146.69 1742.22 1144.27 1742.6C1144.09 1742.89 1144 1743.19 1144 1743.5C1144 1745.43 1147.58 1747 1152 1747Z" fill="#141823"/>
</g>
</g>
<ellipse cx="302.5" cy="1747.5" rx="16.5" ry="3.5" fill="url(#paint8_linear)"/>
<mask id="mask4" mask-type="alpha" maskUnits="userSpaceOnUse" x="286" y="1744" width="33" height="7">
<ellipse cx="302.5" cy="1747.5" rx="16.5" ry="3.5" fill="white"/>
</mask>
<g mask="url(#mask4)">
<g filter="url(#filter5_f)">
<path fill-rule="evenodd" clip-rule="evenodd" d="M302 1747C306.418 1747 310 1745.43 310 1743.5C310 1743.13 309.869 1742.77 309.627 1742.44C307.469 1742.16 305.052 1742 302.5 1742C299.502 1742 296.69 1742.22 294.267 1742.6C294.093 1742.89 294 1743.19 294 1743.5C294 1745.43 297.582 1747 302 1747Z" fill="#141823"/>
</g>
</g>
<g filter="url(#filter6_di)">
<path fill-rule="evenodd" clip-rule="evenodd" d="M1823 1712.96C1753.29 1718.49 1649.46 1722 1533.49 1722C1415.86 1722 1310.71 1718.39 1241 1712.72V1700H1823V1712.96Z" fill="url(#paint9_linear)"/>
</g>
<g filter="url(#filter7_d)">
<rect y="1700" width="1241" height="16" fill="url(#paint10_linear)"/>
<rect width="1241" height="16" transform="matrix(-1 0 0 1 3064 1700)" fill="url(#paint11_linear)"/>
</g>
</g>
<rect x="380" y="128" width="2304" height="1440" fill="#1D2129"/>
<rect x="380" y="128" width="2304" height="1440" fill="url(#paint12_linear)"/>
<g clip-path="url(#clip2)">
<g filter="url(#filter8_ddd)">
<path fill-rule="evenodd" clip-rule="evenodd" d="M642.031 316C638.148 316 635 319.148 635 323.031V1373.58C635 1377.46 638.148 1380.61 642.031 1380.61H2415.94C2419.82 1380.61 2422.97 1377.46 2422.97 1373.58V323.031C2422.97 319.148 2419.82 316 2415.94 316H642.031Z" fill="#ECECEC"/>
</g>
<g clip-path="url(#clip3)">
<g filter="url(#filter9_ii)">
<path d="M635 323.031C635 319.148 638.148 316 642.031 316H2415.94C2419.82 316 2422.97 319.148 2422.97 323.031V346.936H635V323.031Z" fill="url(#paint13_linear)"/>
</g>
<circle cx="654.687" cy="331.468" r="8.08552" fill="#FF5F58" stroke="#E1483F" stroke-width="0.703089"/>
<circle cx="682.811" cy="331.468" r="8.08552" fill="#D1D1D1" stroke="#B1B1B1" stroke-width="0.703089"/>
<circle cx="710.934" cy="331.468" r="8.08552" fill="#D1D1D1" stroke="#B1B1B1" stroke-width="0.703089"/>
</g>
<path d="M635 346.794H2422.65V1374.63C2422.65 1378.1 2419.84 1380.91 2416.37 1380.91H641.285C637.814 1380.91 635 1378.1 635 1374.63V346.794Z" fill="#FF0000"/>
<text fill="black" xml:space="preserve" style="white-space: pre" font-family="Roboto" font-size="12.5692" letter-spacing="0em"><tspan x="654.482" y="385.614">name: Macbook&#10;</tspan><tspan x="654.482" y="400.614">density: 2&#10;</tspan><tspan x="654.482" y="415.614">screen_size: 1422x822</tspan></text>
</g>
<g clip-path="url(#clip4)">
<g filter="url(#filter10_bdd)">
<rect x="380" y="128.155" width="2304.14" height="27.9703" fill="#FAFAFA" fill-opacity="0.8"/>
</g>
<g clip-path="url(#clip5)">
<path fill-rule="evenodd" clip-rule="evenodd" d="M2636.53 135.766H2634V138.302H2636.53V135.766ZM2656.83 135.766H2639.07V138.302H2656.83V135.766ZM2633.99 140.839H2636.53V143.376H2633.99V140.839ZM2653.02 140.839H2639.07V143.376H2653.02V140.839ZM2633.99 145.913H2636.53V148.45H2633.99V145.913ZM2656.83 145.913H2639.07V148.45H2656.83V145.913Z" fill="black" fill-opacity="0.75"/>
<g opacity="0.8">
<circle cx="2602.92" cy="140.205" r="6.02479" stroke="black" stroke-width="1.90257"/>
<path d="M2613.07 150.352L2607.36 144.644" stroke="black" stroke-width="1.90257" stroke-linecap="round" stroke-linejoin="round"/>
</g>
<g opacity="0.8">
<path d="M2498.09 135.497L2502.22 145.797L2506.35 135.497H2508.5V148.121H2506.84V143.205L2507 137.899L2502.85 148.121H2501.58L2497.44 137.925L2497.61 143.205V148.121H2495.94V135.497H2498.09Z" fill="black"/>
<path d="M2510.46 143.344C2510.46 142.425 2510.64 141.598 2511 140.864C2511.36 140.13 2511.87 139.563 2512.51 139.164C2513.16 138.766 2513.89 138.566 2514.72 138.566C2516 138.566 2517.03 139.008 2517.82 139.893C2518.61 140.777 2519 141.953 2519 143.422V143.534C2519 144.448 2518.83 145.268 2518.47 145.997C2518.13 146.719 2517.63 147.283 2516.97 147.688C2516.33 148.092 2515.58 148.295 2514.74 148.295C2513.47 148.295 2512.43 147.852 2511.64 146.968C2510.86 146.084 2510.46 144.913 2510.46 143.456V143.344ZM2512.08 143.534C2512.08 144.575 2512.32 145.41 2512.8 146.04C2513.28 146.67 2513.93 146.985 2514.74 146.985C2515.55 146.985 2516.2 146.667 2516.68 146.031C2517.16 145.39 2517.4 144.494 2517.4 143.344C2517.4 142.315 2517.15 141.482 2516.66 140.847C2516.18 140.205 2515.53 139.884 2514.72 139.884C2513.93 139.884 2513.29 140.199 2512.8 140.829C2512.32 141.459 2512.08 142.361 2512.08 143.534Z" fill="black"/>
<path d="M2520.74 147.28C2520.74 147.003 2520.83 146.771 2520.99 146.586C2521.16 146.401 2521.4 146.309 2521.73 146.309C2522.06 146.309 2522.31 146.401 2522.48 146.586C2522.65 146.771 2522.74 147.003 2522.74 147.28C2522.74 147.546 2522.65 147.768 2522.48 147.948C2522.31 148.127 2522.06 148.216 2521.73 148.216C2521.4 148.216 2521.16 148.127 2520.99 147.948C2520.83 147.768 2520.74 147.546 2520.74 147.28Z" fill="black"/>
<path d="M2536.94 142.737C2536.94 144.615 2536.62 146.011 2535.98 146.925C2535.34 147.838 2534.33 148.295 2532.97 148.295C2531.62 148.295 2530.62 147.849 2529.98 146.959C2529.33 146.063 2528.99 144.728 2528.97 142.953V140.812C2528.97 138.956 2529.29 137.578 2529.93 136.676C2530.58 135.774 2531.58 135.323 2532.95 135.323C2534.31 135.323 2535.31 135.76 2535.95 136.633C2536.59 137.5 2536.92 138.841 2536.94 140.656V142.737ZM2535.34 140.543C2535.34 139.185 2535.14 138.196 2534.76 137.578C2534.38 136.953 2533.78 136.641 2532.95 136.641C2532.13 136.641 2531.53 136.951 2531.16 137.569C2530.78 138.188 2530.59 139.138 2530.58 140.422V142.988C2530.58 144.352 2530.77 145.361 2531.17 146.014C2531.56 146.662 2532.17 146.985 2532.97 146.985C2533.76 146.985 2534.35 146.679 2534.73 146.066C2535.12 145.453 2535.32 144.488 2535.34 143.17V140.543Z" fill="black"/>
<path d="M2544.84 142.572C2544.5 142.971 2544.1 143.292 2543.63 143.534C2543.17 143.777 2542.66 143.899 2542.11 143.899C2541.38 143.899 2540.74 143.719 2540.2 143.361C2539.66 143.003 2539.25 142.5 2538.95 141.852C2538.66 141.199 2538.51 140.479 2538.51 139.693C2538.51 138.849 2538.67 138.089 2538.99 137.413C2539.31 136.737 2539.77 136.219 2540.35 135.861C2540.94 135.503 2541.63 135.323 2542.42 135.323C2543.67 135.323 2544.65 135.792 2545.37 136.728C2546.09 137.659 2546.45 138.93 2546.45 140.543V141.011C2546.45 143.468 2545.96 145.263 2544.99 146.396C2544.02 147.523 2542.56 148.101 2540.6 148.13H2540.29V146.777H2540.62C2541.95 146.754 2542.96 146.41 2543.68 145.745C2544.39 145.075 2544.77 144.017 2544.84 142.572ZM2542.37 142.572C2542.9 142.572 2543.4 142.407 2543.85 142.078C2544.31 141.748 2544.64 141.341 2544.85 140.855V140.214C2544.85 139.162 2544.62 138.306 2544.16 137.647C2543.7 136.988 2543.13 136.659 2542.43 136.659C2541.72 136.659 2541.16 136.93 2540.73 137.474C2540.3 138.011 2540.09 138.722 2540.09 139.607C2540.09 140.468 2540.29 141.179 2540.7 141.74C2541.12 142.294 2541.67 142.572 2542.37 142.572Z" fill="black"/>
<path d="M2548.47 147.28C2548.47 147.003 2548.55 146.771 2548.71 146.586C2548.88 146.401 2549.13 146.309 2549.46 146.309C2549.79 146.309 2550.04 146.401 2550.2 146.586C2550.38 146.771 2550.46 147.003 2550.46 147.28C2550.46 147.546 2550.38 147.768 2550.2 147.948C2550.04 148.127 2549.79 148.216 2549.46 148.216C2549.13 148.216 2548.88 148.127 2548.71 147.948C2548.55 147.768 2548.47 147.546 2548.47 147.28ZM2548.48 139.624C2548.48 139.346 2548.56 139.115 2548.72 138.93C2548.89 138.745 2549.14 138.653 2549.47 138.653C2549.8 138.653 2550.04 138.745 2550.21 138.93C2550.39 139.115 2550.47 139.346 2550.47 139.624C2550.47 139.89 2550.39 140.112 2550.21 140.292C2550.04 140.471 2549.8 140.56 2549.47 140.56C2549.14 140.56 2548.89 140.471 2548.72 140.292C2548.56 140.112 2548.48 139.89 2548.48 139.624Z" fill="black"/>
<path d="M2559.12 143.881H2560.88V145.19H2559.12V148.121H2557.51V145.19H2551.76V144.245L2557.42 135.497H2559.12V143.881ZM2553.58 143.881H2557.51V137.69L2557.32 138.037L2553.58 143.881Z" fill="black"/>
<path d="M2567.29 148.121H2565.68V137.43L2562.44 138.618V137.162L2567.04 135.436H2567.29V148.121Z" fill="black"/>
</g>
<g opacity="0.8">
<path fill-rule="evenodd" clip-rule="evenodd" d="M2456.42 139.571C2456.42 138.87 2456.99 138.302 2457.69 138.302H2461.5L2466.57 134.497V149.718L2461.5 145.913H2457.69C2456.99 145.913 2456.42 145.345 2456.42 144.644V139.571Z" fill="black"/>
<path d="M2473.94 148.449C2475.54 146.733 2476.53 144.4 2476.53 141.83C2476.53 139.22 2475.51 136.855 2473.86 135.131" stroke="black" stroke-width="1.26838" stroke-linecap="round"/>
<path d="M2469.74 146.547C2470.91 145.41 2471.64 143.822 2471.64 142.064C2471.64 140.351 2470.95 138.798 2469.83 137.668" stroke="black" stroke-width="1.26838" stroke-linecap="round"/>
</g>
<path d="M2442.65 138.107C2439.94 135.084 2436.29 133.229 2432.27 133.229C2428.22 133.229 2424.54 135.109 2421.84 138.168" stroke="black" stroke-width="1.52205" stroke-linecap="square"/>
<path d="M2439.64 141.742C2437.71 139.609 2435.12 138.302 2432.27 138.302C2429.42 138.302 2426.83 139.603 2424.91 141.728" stroke="black" stroke-width="1.52205" stroke-linecap="square"/>
<path d="M2436.58 145.318C2435.44 144.11 2433.93 143.376 2432.27 143.376C2430.63 143.376 2429.13 144.098 2427.99 145.287" stroke="black" stroke-width="1.52205" stroke-linecap="square"/>
<ellipse cx="2432.25" cy="149.401" rx="2.1484" ry="1.58547" fill="black"/>
</g>
<g clip-path="url(#clip6)">
<path fill-rule="evenodd" clip-rule="evenodd" d="M417.858 133.877C418.635 133.033 419.062 131.874 418.995 130.692C417.937 130.692 416.71 131.311 415.933 132.223C415.325 132.977 414.673 134.159 414.909 135.341C416.001 135.476 417.183 134.789 417.858 133.877ZM418.894 135.599C417.251 135.599 415.799 136.511 415.022 136.511C414.212 136.511 413.03 135.554 411.702 135.599C409.969 135.633 408.382 136.657 407.492 138.166C406.862 139.246 406.614 140.518 406.637 141.813C406.671 144.255 407.627 146.799 408.753 148.42C409.62 149.658 410.599 150.986 411.983 150.986C413.233 150.986 413.694 150.153 415.326 150.153C416.846 150.153 417.319 150.986 418.635 150.986C420.02 150.986 420.932 149.725 421.753 148.476C422.789 147.024 423.138 145.64 423.183 145.583C423.138 145.583 420.526 144.525 420.425 141.509C420.425 138.864 422.575 137.67 422.665 137.614C421.494 135.813 419.603 135.599 418.894 135.599Z" fill="#474747"/>
<path d="M457.551 142.696H452.47V148.045H450.277V135.421H458.297V137.19H452.47V140.944H457.551V142.696Z" fill="#484848"/>
<path d="M461.773 148.045H459.666V138.664H461.773V148.045ZM459.536 136.227C459.536 135.904 459.637 135.635 459.839 135.421C460.047 135.207 460.342 135.1 460.724 135.1C461.105 135.1 461.4 135.207 461.608 135.421C461.816 135.635 461.92 135.904 461.92 136.227C461.92 136.545 461.816 136.811 461.608 137.025C461.4 137.233 461.105 137.337 460.724 137.337C460.342 137.337 460.047 137.233 459.839 137.025C459.637 136.811 459.536 136.545 459.536 136.227Z" fill="#484848"/>
<path d="M466.012 148.045H463.905V134.727H466.012V148.045Z" fill="#484848"/>
<path d="M472.141 148.219C470.806 148.219 469.722 147.8 468.889 146.961C468.063 146.118 467.65 144.996 467.65 143.597V143.337C467.65 142.401 467.829 141.565 468.187 140.831C468.551 140.091 469.06 139.516 469.713 139.106C470.366 138.696 471.095 138.49 471.898 138.49C473.176 138.49 474.161 138.898 474.855 139.713C475.554 140.528 475.904 141.681 475.904 143.172V144.022H469.774C469.837 144.797 470.095 145.409 470.546 145.86C471.002 146.311 471.574 146.537 472.262 146.537C473.228 146.537 474.014 146.146 474.621 145.366L475.757 146.45C475.381 147.011 474.878 147.447 474.248 147.759C473.624 148.065 472.921 148.219 472.141 148.219ZM471.889 140.181C471.311 140.181 470.843 140.383 470.485 140.788C470.132 141.193 469.907 141.756 469.809 142.479H473.823V142.323C473.777 141.617 473.589 141.086 473.259 140.727C472.93 140.363 472.473 140.181 471.889 140.181Z" fill="#484848"/>
<path d="M505.413 142.409H500.228V146.294H506.289V148.045H498.034V135.421H506.228V137.19H500.228V140.675H505.413V142.409Z" fill="#484848"/>
<path d="M506.999 143.285C506.999 141.84 507.334 140.681 508.004 139.808C508.675 138.93 509.574 138.49 510.701 138.49C511.695 138.49 512.499 138.837 513.111 139.531V134.727H515.218V148.045H513.311L513.207 147.074C512.577 147.837 511.736 148.219 510.684 148.219C509.585 148.219 508.695 147.776 508.013 146.892C507.337 146.008 506.999 144.805 506.999 143.285ZM509.106 143.467C509.106 144.421 509.288 145.167 509.652 145.704C510.022 146.236 510.545 146.502 511.221 146.502C512.082 146.502 512.713 146.118 513.111 145.349V141.343C512.724 140.591 512.1 140.216 511.239 140.216C510.556 140.216 510.03 140.487 509.66 141.031C509.291 141.568 509.106 142.381 509.106 143.467Z" fill="#484848"/>
<path d="M519.353 148.045H517.246V138.664H519.353V148.045ZM517.116 136.227C517.116 135.904 517.217 135.635 517.42 135.421C517.628 135.207 517.923 135.1 518.304 135.1C518.686 135.1 518.98 135.207 519.188 135.421C519.397 135.635 519.501 135.904 519.501 136.227C519.501 136.545 519.397 136.811 519.188 137.025C518.98 137.233 518.686 137.337 518.304 137.337C517.923 137.337 517.628 137.233 517.42 137.025C517.217 136.811 517.116 136.545 517.116 136.227Z" fill="#484848"/>
<path d="M523.991 136.383V138.664H525.647V140.224H523.991V145.461C523.991 145.82 524.06 146.08 524.199 146.242C524.344 146.398 524.598 146.476 524.962 146.476C525.205 146.476 525.451 146.447 525.699 146.389V148.019C525.219 148.152 524.757 148.219 524.312 148.219C522.693 148.219 521.884 147.326 521.884 145.539V140.224H520.341V138.664H521.884V136.383H523.991Z" fill="#484848"/>
<path d="M552.199 145.297L555.407 135.421H557.818L553.274 148.045H551.15L546.624 135.421H549.026L552.199 145.297Z" fill="#484848"/>
<path d="M560.982 148.045H558.875V138.664H560.982V148.045ZM558.745 136.227C558.745 135.904 558.846 135.635 559.048 135.421C559.256 135.207 559.551 135.1 559.933 135.1C560.314 135.1 560.609 135.207 560.817 135.421C561.025 135.635 561.129 135.904 561.129 136.227C561.129 136.545 561.025 136.811 560.817 137.025C560.609 137.233 560.314 137.337 559.933 137.337C559.551 137.337 559.256 137.233 559.048 137.025C558.846 136.811 558.745 136.545 558.745 136.227Z" fill="#484848"/>
<path d="M567.111 148.219C565.776 148.219 564.692 147.8 563.859 146.961C563.033 146.118 562.619 144.996 562.619 143.597V143.337C562.619 142.401 562.799 141.565 563.157 140.831C563.521 140.091 564.03 139.516 564.683 139.106C565.336 138.696 566.065 138.49 566.868 138.49C568.146 138.49 569.131 138.898 569.825 139.713C570.524 140.528 570.874 141.681 570.874 143.172V144.022H564.744C564.807 144.797 565.065 145.409 565.515 145.86C565.972 146.311 566.544 146.537 567.232 146.537C568.198 146.537 568.984 146.146 569.591 145.366L570.726 146.45C570.351 147.011 569.848 147.447 569.218 147.759C568.593 148.065 567.891 148.219 567.111 148.219ZM566.859 140.181C566.281 140.181 565.813 140.383 565.455 140.788C565.102 141.193 564.877 141.756 564.778 142.479H568.793V142.323C568.747 141.617 568.559 141.086 568.229 140.727C567.9 140.363 567.443 140.181 566.859 140.181Z" fill="#484848"/>
<path d="M580.454 145.141L581.945 138.664H584L581.442 148.045H579.708L577.697 141.603L575.72 148.045H573.986L571.419 138.664H573.474L574.991 145.071L576.916 138.664H578.503L580.454 145.141Z" fill="#484848"/>
<path d="M615.798 144.924L617.74 135.421H619.917L617.003 148.045H614.905L612.503 138.828L610.049 148.045H607.943L605.029 135.421H607.206L609.165 144.907L611.576 135.421H613.414L615.798 144.924Z" fill="#484848"/>
<path d="M623.254 148.045H621.147V138.664H623.254V148.045ZM621.017 136.227C621.017 135.904 621.118 135.635 621.32 135.421C621.528 135.207 621.823 135.1 622.205 135.1C622.586 135.1 622.881 135.207 623.089 135.421C623.297 135.635 623.401 135.904 623.401 136.227C623.401 136.545 623.297 136.811 623.089 137.025C622.881 137.233 622.586 137.337 622.205 137.337C621.823 137.337 621.528 137.233 621.32 137.025C621.118 136.811 621.017 136.545 621.017 136.227Z" fill="#484848"/>
<path d="M627.207 138.664L627.267 139.748C627.961 138.909 628.871 138.49 629.999 138.49C631.952 138.49 632.947 139.609 632.981 141.846V148.045H630.874V141.967C630.874 141.372 630.744 140.933 630.484 140.649C630.23 140.36 629.811 140.216 629.227 140.216C628.377 140.216 627.744 140.6 627.328 141.369V148.045H625.221V138.664H627.207Z" fill="#484848"/>
<path d="M634.437 143.285C634.437 141.84 634.772 140.681 635.443 139.808C636.113 138.93 637.012 138.49 638.139 138.49C639.133 138.49 639.937 138.837 640.55 139.531V134.727H642.657V148.045H640.749L640.645 147.074C640.015 147.837 639.174 148.219 638.122 148.219C637.024 148.219 636.133 147.776 635.451 146.892C634.775 146.008 634.437 144.805 634.437 143.285ZM636.544 143.467C636.544 144.421 636.726 145.167 637.09 145.704C637.46 146.236 637.983 146.502 638.659 146.502C639.521 146.502 640.151 146.118 640.55 145.349V141.343C640.162 140.591 639.538 140.216 638.677 140.216C637.995 140.216 637.469 140.487 637.099 141.031C636.729 141.568 636.544 142.381 636.544 143.467Z" fill="#484848"/>
<path d="M644.156 143.268C644.156 142.349 644.338 141.522 644.702 140.788C645.066 140.048 645.578 139.482 646.237 139.089C646.896 138.69 647.653 138.49 648.508 138.49C649.774 138.49 650.8 138.898 651.586 139.713C652.378 140.528 652.806 141.609 652.87 142.956L652.878 143.45C652.878 144.375 652.699 145.201 652.341 145.93C651.988 146.658 651.479 147.222 650.815 147.62C650.156 148.019 649.393 148.219 648.526 148.219C647.202 148.219 646.141 147.779 645.344 146.901C644.552 146.016 644.156 144.84 644.156 143.372V143.268ZM646.263 143.45C646.263 144.415 646.462 145.172 646.861 145.722C647.26 146.265 647.815 146.537 648.526 146.537C649.237 146.537 649.789 146.259 650.182 145.704C650.581 145.149 650.78 144.337 650.78 143.268C650.78 142.32 650.575 141.568 650.164 141.013C649.76 140.459 649.208 140.181 648.508 140.181C647.82 140.181 647.274 140.456 646.87 141.005C646.465 141.548 646.263 142.363 646.263 143.45Z" fill="#484848"/>
<path d="M662.597 145.141L664.088 138.664H666.143L663.585 148.045H661.851L659.84 141.603L657.863 148.045H656.129L653.562 138.664H655.617L657.135 145.071L659.059 138.664H660.646L662.597 145.141Z" fill="#484848"/>
<path d="M698.063 148.045H695.878V142.435H690.233V148.045H688.039V135.421H690.233V140.675H695.878V135.421H698.063V148.045Z" fill="#484848"/>
<path d="M704.287 148.219C702.952 148.219 701.868 147.8 701.036 146.961C700.209 146.118 699.796 144.996 699.796 143.597V143.337C699.796 142.401 699.975 141.565 700.333 140.831C700.697 140.091 701.206 139.516 701.859 139.106C702.512 138.696 703.241 138.49 704.044 138.49C705.322 138.49 706.307 138.898 707.001 139.713C707.7 140.528 708.05 141.681 708.05 143.172V144.022H701.92C701.984 144.797 702.241 145.409 702.692 145.86C703.148 146.311 703.721 146.537 704.408 146.537C705.374 146.537 706.16 146.146 706.767 145.366L707.903 146.45C707.527 147.011 707.024 147.447 706.394 147.759C705.77 148.065 705.067 148.219 704.287 148.219ZM704.036 140.181C703.458 140.181 702.989 140.383 702.631 140.788C702.278 141.193 702.053 141.756 701.955 142.479H705.969V142.323C705.923 141.617 705.735 141.086 705.406 140.727C705.076 140.363 704.619 140.181 704.036 140.181Z" fill="#484848"/>
<path d="M711.63 148.045H709.523V134.727H711.63V148.045Z" fill="#484848"/>
<path d="M721.843 143.45C721.843 144.901 721.514 146.06 720.855 146.927C720.196 147.788 719.311 148.219 718.201 148.219C717.173 148.219 716.349 147.881 715.73 147.204V151.652H713.623V138.664H715.566L715.652 139.617C716.271 138.866 717.112 138.49 718.175 138.49C719.32 138.49 720.216 138.918 720.863 139.774C721.516 140.623 721.843 141.805 721.843 143.32V143.45ZM719.745 143.268C719.745 142.331 719.557 141.589 719.181 141.039C718.811 140.49 718.279 140.216 717.586 140.216C716.725 140.216 716.106 140.571 715.73 141.282V145.444C716.112 146.172 716.736 146.537 717.603 146.537C718.274 146.537 718.797 146.268 719.173 145.73C719.554 145.187 719.745 144.366 719.745 143.268Z" fill="#484848"/>
</g>
</g>
<defs>
<filter id="filter0_i" x="289" y="10" width="2486" height="1727" filterUnits="userSpaceOnUse" color-interpolation-filters="sRGB">
<feFlood flood-opacity="0" result="BackgroundImageFix"/>
<feBlend mode="normal" in="SourceGraphic" in2="BackgroundImageFix" result="shape"/>
<feColorMatrix in="SourceAlpha" type="matrix" values="0 0 0 0 0 0 0 0 0 0 0 0 0 0 0 0 0 0 127 0" result="hardAlpha"/>
<feOffset dy="2"/>
<feGaussianBlur stdDeviation="6"/>
<feComposite in2="hardAlpha" operator="arithmetic" k2="-1" k3="1"/>
<feColorMatrix type="matrix" values="0 0 0 0 0 0 0 0 0 0 0 0 0 0 0 0 0 0 0.803612 0"/>
<feBlend mode="normal" in2="shape" result="effect1_innerShadow"/>
</filter>
<filter id="filter1_ii" x="0" y="1698" width="3064" height="75" filterUnits="userSpaceOnUse" color-interpolation-filters="sRGB">
<feFlood flood-opacity="0" result="BackgroundImageFix"/>
<feBlend mode="normal" in="SourceGraphic" in2="BackgroundImageFix" result="shape"/>
<feColorMatrix in="SourceAlpha" type="matrix" values="0 0 0 0 0 0 0 0 0 0 0 0 0 0 0 0 0 0 127 0" result="hardAlpha"/>
<feOffset dy="-2"/>
<feGaussianBlur stdDeviation="2"/>
<feComposite in2="hardAlpha" operator="arithmetic" k2="-1" k3="1"/>
<feColorMatrix type="matrix" values="0 0 0 0 0.284465 0 0 0 0 0.284465 0 0 0 0 0.284465 0 0 0 1 0"/>
<feBlend mode="normal" in2="shape" result="effect1_innerShadow"/>
<feColorMatrix in="SourceAlpha" type="matrix" values="0 0 0 0 0 0 0 0 0 0 0 0 0 0 0 0 0 0 127 0" result="hardAlpha"/>
<feOffset dy="11"/>
<feGaussianBlur stdDeviation="11"/>
<feComposite in2="hardAlpha" operator="arithmetic" k2="-1" k3="1"/>
<feColorMatrix type="matrix" values="0 0 0 0 0 0 0 0 0 0 0 0 0 0 0 0 0 0 0.52423 0"/>
<feBlend mode="normal" in2="effect1_innerShadow" result="effect2_innerShadow"/>
</filter>
<filter id="filter2_f" x="2753.32" y="1738.32" width="23.3547" height="12.3547" filterUnits="userSpaceOnUse" color-interpolation-filters="sRGB">
<feFlood flood-opacity="0" result="BackgroundImageFix"/>
<feBlend mode="normal" in="SourceGraphic" in2="BackgroundImageFix" result="shape"/>
<feGaussianBlur stdDeviation="1.83868" result="effect1_foregroundBlur"/>
</filter>
<filter id="filter3_f" x="1896.32" y="1738.32" width="23.3547" height="12.3547" filterUnits="userSpaceOnUse" color-interpolation-filters="sRGB">
<feFlood flood-opacity="0" result="BackgroundImageFix"/>
<feBlend mode="normal" in="SourceGraphic" in2="BackgroundImageFix" result="shape"/>
<feGaussianBlur stdDeviation="1.83868" result="effect1_foregroundBlur"/>
</filter>
<filter id="filter4_f" x="1140.32" y="1738.32" width="23.3547" height="12.3547" filterUnits="userSpaceOnUse" color-interpolation-filters="sRGB">
<feFlood flood-opacity="0" result="BackgroundImageFix"/>
<feBlend mode="normal" in="SourceGraphic" in2="BackgroundImageFix" result="shape"/>
<feGaussianBlur stdDeviation="1.83868" result="effect1_foregroundBlur"/>
</filter>
<filter id="filter5_f" x="290.323" y="1738.32" width="23.3547" height="12.3547" filterUnits="userSpaceOnUse" color-interpolation-filters="sRGB">
<feFlood flood-opacity="0" result="BackgroundImageFix"/>
<feBlend mode="normal" in="SourceGraphic" in2="BackgroundImageFix" result="shape"/>
<feGaussianBlur stdDeviation="1.83868" result="effect1_foregroundBlur"/>
</filter>
<filter id="filter6_di" x="1239" y="1700" width="586" height="26" filterUnits="userSpaceOnUse" color-interpolation-filters="sRGB">
<feFlood flood-opacity="0" result="BackgroundImageFix"/>
<feColorMatrix in="SourceAlpha" type="matrix" values="0 0 0 0 0 0 0 0 0 0 0 0 0 0 0 0 0 0 127 0"/>
<feOffset dy="2"/>
<feGaussianBlur stdDeviation="1"/>
<feColorMatrix type="matrix" values="0 0 0 0 0.362776 0 0 0 0 0.362776 0 0 0 0 0.362776 0 0 0 0.300413 0"/>
<feBlend mode="normal" in2="BackgroundImageFix" result="effect1_dropShadow"/>
<feBlend mode="normal" in="SourceGraphic" in2="effect1_dropShadow" result="shape"/>
<feColorMatrix in="SourceAlpha" type="matrix" values="0 0 0 0 0 0 0 0 0 0 0 0 0 0 0 0 0 0 127 0" result="hardAlpha"/>
<feOffset dy="2"/>
<feComposite in2="hardAlpha" operator="arithmetic" k2="-1" k3="1"/>
<feColorMatrix type="matrix" values="0 0 0 0 0.345424 0 0 0 0 0.345424 0 0 0 0 0.345424 0 0 0 0.433537 0"/>
<feBlend mode="normal" in2="shape" result="effect2_innerShadow"/>
</filter>
<filter id="filter7_d" x="-2" y="1700" width="3068" height="20" filterUnits="userSpaceOnUse" color-interpolation-filters="sRGB">
<feFlood flood-opacity="0" result="BackgroundImageFix"/>
<feColorMatrix in="SourceAlpha" type="matrix" values="0 0 0 0 0 0 0 0 0 0 0 0 0 0 0 0 0 0 127 0"/>
<feOffset dy="2"/>
<feGaussianBlur stdDeviation="1"/>
<feColorMatrix type="matrix" values="0 0 0 0 0 0 0 0 0 0 0 0 0 0 0 0 0 0 0.108073 0"/>
<feBlend mode="normal" in2="BackgroundImageFix" result="effect1_dropShadow"/>
<feBlend mode="normal" in="SourceGraphic" in2="effect1_dropShadow" result="shape"/>
</filter>
<filter id="filter8_ddd" x="564.691" y="259.753" width="1928.58" height="1205.23" filterUnits="userSpaceOnUse" color-interpolation-filters="sRGB">
<feFlood flood-opacity="0" result="BackgroundImageFix"/>
<feColorMatrix in="SourceAlpha" type="matrix" values="0 0 0 0 0 0 0 0 0 0 0 0 0 0 0 0 0 0 127 0"/>
<feOffset dy="14.0618"/>
<feGaussianBlur stdDeviation="35.1544"/>
<feColorMatrix type="matrix" values="0 0 0 0 0 0 0 0 0 0 0 0 0 0 0 0 0 0 0.2 0"/>
<feBlend mode="normal" in2="BackgroundImageFix" result="effect1_dropShadow"/>
<feColorMatrix in="SourceAlpha" type="matrix" values="0 0 0 0 0 0 0 0 0 0 0 0 0 0 0 0 0 0 127 0"/>
<feOffset dy="28.1236"/>
<feGaussianBlur stdDeviation="21.0927"/>
<feColorMatrix type="matrix" values="0 0 0 0 0 0 0 0 0 0 0 0 0 0 0 0 0 0 0.3 0"/>
<feBlend mode="normal" in2="effect1_dropShadow" result="effect2_dropShadow"/>
<feColorMatrix in="SourceAlpha" type="matrix" values="0 0 0 0 0 0 0 0 0 0 0 0 0 0 0 0 0 0 127 0"/>
<feOffset/>
<feGaussianBlur stdDeviation="0.703089"/>
<feColorMatrix type="matrix" values="0 0 0 0 0 0 0 0 0 0 0 0 0 0 0 0 0 0 0.9 0"/>
<feBlend mode="normal" in2="effect2_dropShadow" result="effect3_dropShadow"/>
<feBlend mode="normal" in="SourceGraphic" in2="effect3_dropShadow" result="shape"/>
</filter>
<filter id="filter9_ii" x="635" y="315.297" width="1787.97" height="32.3421" filterUnits="userSpaceOnUse" color-interpolation-filters="sRGB">
<feFlood flood-opacity="0" result="BackgroundImageFix"/>
<feBlend mode="normal" in="SourceGraphic" in2="BackgroundImageFix" result="shape"/>
<feColorMatrix in="SourceAlpha" type="matrix" values="0 0 0 0 0 0 0 0 0 0 0 0 0 0 0 0 0 0 127 0" result="hardAlpha"/>
<feOffset dy="-0.703089"/>
<feGaussianBlur stdDeviation="0.351544"/>
<feComposite in2="hardAlpha" operator="arithmetic" k2="-1" k3="1"/>
<feColorMatrix type="matrix" values="0 0 0 0 0 0 0 0 0 0 0 0 0 0 0 0 0 0 0.2 0"/>
<feBlend mode="normal" in2="shape" result="effect1_innerShadow"/>
<feColorMatrix in="SourceAlpha" type="matrix" values="0 0 0 0 0 0 0 0 0 0 0 0 0 0 0 0 0 0 127 0" result="hardAlpha"/>
<feOffset dy="0.703089"/>
<feGaussianBlur stdDeviation="0.351544"/>
<feComposite in2="hardAlpha" operator="arithmetic" k2="-1" k3="1"/>
<feColorMatrix type="matrix" values="0 0 0 0 1 0 0 0 0 1 0 0 0 0 1 0 0 0 0.6 0"/>
<feBlend mode="normal" in2="effect1_innerShadow" result="effect2_innerShadow"/>
</filter>
<filter id="filter10_bdd" x="345.522" y="93.6771" width="2373.09" height="97.963" filterUnits="userSpaceOnUse" color-interpolation-filters="sRGB">
<feFlood flood-opacity="0" result="BackgroundImageFix"/>
<feGaussianBlur in="BackgroundImage" stdDeviation="17.239"/>
<feComposite in2="SourceAlpha" operator="in" result="effect1_backgroundBlur"/>
<feColorMatrix in="SourceAlpha" type="matrix" values="0 0 0 0 0 0 0 0 0 0 0 0 0 0 0 0 0 0 127 0"/>
<feOffset dy="10.147"/>
<feGaussianBlur stdDeviation="12.6838"/>
<feColorMatrix type="matrix" values="0 0 0 0 0 0 0 0 0 0 0 0 0 0 0 0 0 0 0.25 0"/>
<feBlend mode="normal" in2="effect1_backgroundBlur" result="effect2_dropShadow"/>
<feColorMatrix in="SourceAlpha" type="matrix" values="0 0 0 0 0 0 0 0 0 0 0 0 0 0 0 0 0 0 127 0"/>
<feOffset dy="0.634189"/>
<feColorMatrix type="matrix" values="0 0 0 0 0 0 0 0 0 0 0 0 0 0 0 0 0 0 0.1 0"/>
<feBlend mode="normal" in2="effect2_dropShadow" result="effect3_dropShadow"/>
<feBlend mode="normal" in="SourceGraphic" in2="effect3_dropShadow" result="shape"/>
</filter>
<linearGradient id="paint0_linear" x1="2038.39" y1="-524.936" x2="91.8115" y2="858.598" gradientUnits="userSpaceOnUse">
<stop stop-color="#A5A4A9"/>
<stop offset="1" stop-color="#757479"/>
</linearGradient>
<linearGradient id="paint1_linear" x1="1555.64" y1="-466.026" x2="187.495" y2="-272.838" gradientUnits="userSpaceOnUse">
<stop stop-color="white" stop-opacity="0.5"/>
<stop offset="0.6405" stop-color="#C4AE99" stop-opacity="0.82025"/>
<stop offset="1" stop-color="#D1B397"/>
</linearGradient>
<linearGradient id="paint2_linear" x1="-563.879" y1="1700" x2="-563.879" y2="1784.82" gradientUnits="userSpaceOnUse">
<stop stop-color="#6B6970"/>
<stop offset="0.372886" stop-color="#67666B"/>
<stop offset="0.693226" stop-color="#363439"/>
<stop offset="1" stop-color="#383838"/>
</linearGradient>
<linearGradient id="paint3_linear" x1="-564.336" y1="1700" x2="-564.336" y2="1784.84" gradientUnits="userSpaceOnUse">
<stop stop-color="white" stop-opacity="0.444322"/>
<stop offset="1" stop-color="#473F38" stop-opacity="0.275108"/>
</linearGradient>
<linearGradient id="paint4_linear" x1="0" y1="1700" x2="0" y2="1762" gradientUnits="userSpaceOnUse">
<stop stop-color="#919191"/>
<stop offset="1" stop-opacity="0.5"/>
</linearGradient>
<linearGradient id="paint5_linear" x1="2749" y1="1744" x2="2749" y2="1751" gradientUnits="userSpaceOnUse">
<stop stop-color="#232227" stop-opacity="0.474015"/>
<stop offset="1" stop-color="#3A393F" stop-opacity="0.01"/>
</linearGradient>
<linearGradient id="paint6_linear" x1="1892" y1="1744" x2="1892" y2="1751" gradientUnits="userSpaceOnUse">
<stop stop-color="#232227" stop-opacity="0.474015"/>
<stop offset="1" stop-color="#3A393F" stop-opacity="0.01"/>
</linearGradient>
<linearGradient id="paint7_linear" x1="1136" y1="1744" x2="1136" y2="1751" gradientUnits="userSpaceOnUse">
<stop stop-color="#232227" stop-opacity="0.474015"/>
<stop offset="1" stop-color="#3A393F" stop-opacity="0.01"/>
</linearGradient>
<linearGradient id="paint8_linear" x1="286" y1="1744" x2="286" y2="1751" gradientUnits="userSpaceOnUse">
<stop stop-color="#232227" stop-opacity="0.474015"/>
<stop offset="1" stop-color="#3A393F" stop-opacity="0.01"/>
</linearGradient>
<linearGradient id="paint9_linear" x1="1823" y1="1695.87" x2="1241" y2="1695.87" gradientUnits="userSpaceOnUse">
<stop stop-color="#484848"/>
<stop offset="0.00583792" stop-color="#6C6C6C"/>
<stop offset="0.0260052" stop-color="#8E8E92"/>
<stop offset="0.226402" stop-color="#C3C2C7"/>
<stop offset="0.501568" stop-color="#C4C3C9"/>
<stop offset="0.724358" stop-color="#C7C6CC"/>
<stop offset="0.950294" stop-color="#C4C3C9"/>
<stop offset="0.978667" stop-color="#A8A7AC"/>
<stop offset="0.989557" stop-color="#9A9A9A"/>
<stop offset="1" stop-color="#5D5D5D"/>
</linearGradient>
<linearGradient id="paint10_linear" x1="1245.18" y1="1699.97" x2="0" y2="1699.97" gradientUnits="userSpaceOnUse">
<stop stop-color="#828282"/>
<stop offset="0.00725779" stop-color="#D3D2D7"/>
<stop offset="0.745353" stop-color="#C5C5C8"/>
<stop offset="0.902807" stop-color="#C2C2C4"/>
<stop offset="0.933421" stop-color="#CAC8CE"/>
<stop offset="0.958117" stop-color="#DDDCE1"/>
<stop offset="0.979433" stop-color="#8C8B90"/>
<stop offset="1" stop-color="#333335"/>
</linearGradient>
<linearGradient id="paint11_linear" x1="1245.18" y1="-0.0269498" x2="0" y2="-0.0269498" gradientUnits="userSpaceOnUse">
<stop stop-color="#828282"/>
<stop offset="0.00725779" stop-color="#D3D2D7"/>
<stop offset="0.745353" stop-color="#C5C5C8"/>
<stop offset="0.902807" stop-color="#C2C2C4"/>
<stop offset="0.933421" stop-color="#CAC8CE"/>
<stop offset="0.958117" stop-color="#DDDCE1"/>
<stop offset="0.979433" stop-color="#8C8B90"/>
<stop offset="1" stop-color="#333335"/>
</linearGradient>
<linearGradient id="paint12_linear" x1="1532" y1="128" x2="1532" y2="1568" gradientUnits="userSpaceOnUse">
<stop stop-color="#221D29"/>
<stop offset="1" stop-color="#293251"/>
</linearGradient>
<linearGradient id="paint13_linear" x1="635" y1="316" x2="635" y2="346.936" gradientUnits="userSpaceOnUse">
<stop stop-color="#E7E6E7"/>
<stop offset="1" stop-color="#E1E1E1"/>
</linearGradient>
<clipPath id="clip0">
<rect width="2480" height="1719" fill="white" transform="translate(292 13)"/>
</clipPath>
<clipPath id="clip1">
<rect width="3064" height="62" fill="white" transform="translate(0 1700)"/>
</clipPath>
<clipPath id="clip2">
<rect width="1787.97" height="1064.61" fill="white" transform="translate(635 316)"/>
</clipPath>
<clipPath id="clip3">
<rect width="1787.97" height="30.9359" fill="white" transform="translate(635 316)"/>
</clipPath>
<clipPath id="clip4">
<rect width="2306" height="27.9703" fill="white" transform="translate(380 128.155)"/>
</clipPath>
<clipPath id="clip5">
<rect width="271.433" height="20.294" fill="white" transform="translate(2385.39 131.96)"/>
</clipPath>
<clipPath id="clip6">
<rect width="454.079" height="21.5624" fill="white" transform="translate(406.636 130.692)"/>
</clipPath>
</defs>
</svg>
