<svg width="2536" height="2096" viewBox="0 0 2536 2096" fill="none" xmlns="http://www.w3.org/2000/svg">
<path fill-rule="evenodd" clip-rule="evenodd" d="M1016.62 1742.73C1016.62 1742.73 1003.37 1972.98 982.215 2004.11C970.852 2020.83 894.288 2067.41 885.928 2074.42C877.568 2081.44 885.321 2083.23 885.321 2083.23C885.321 2083.23 910.064 2091.89 937.913 2093.71C955.547 2094.85 974.023 2093.55 987.337 2093.66C1027.71 2093.99 1108.47 2093.73 1108.47 2093.73H1426.73C1426.73 2093.73 1507.49 2093.99 1547.86 2093.66C1561.18 2093.55 1579.65 2094.85 1597.29 2093.71C1625.14 2091.89 1649.9 2083.67 1649.9 2083.67C1649.9 2083.67 1657.63 2081.44 1649.27 2074.42C1640.91 2067.41 1564.35 2020.83 1552.99 2004.11C1531.83 1972.98 1518.58 1742.73 1518.58 1742.73H1448.79H1098.92H1016.62Z" fill="url(#paint0_linear)"/>
<path fill-rule="evenodd" clip-rule="evenodd" d="M1016.62 1742.73C1016.62 1742.73 1003.37 1972.98 982.215 2004.11C970.852 2020.83 894.288 2067.41 885.928 2074.42C877.568 2081.44 885.321 2083.23 885.321 2083.23C885.321 2083.23 910.064 2091.89 937.913 2093.71C955.547 2094.85 974.023 2093.55 987.337 2093.66C1027.71 2093.99 1108.47 2093.73 1108.47 2093.73H1426.73C1426.73 2093.73 1507.49 2093.99 1547.86 2093.66C1561.18 2093.55 1579.65 2094.85 1597.29 2093.71C1625.14 2091.89 1649.9 2083.67 1649.9 2083.67C1649.9 2083.67 1657.63 2081.44 1649.27 2074.42C1640.91 2067.41 1564.35 2020.83 1552.99 2004.11C1531.83 1972.98 1518.58 1742.73 1518.58 1742.73H1448.79H1098.92H1016.62Z" fill="url(#paint1_radial)" style="mix-blend-mode:soft-light"/>
<path fill-rule="evenodd" clip-rule="evenodd" d="M1016.62 1742.73C1016.62 1742.73 1003.37 1972.98 982.215 2004.11C970.852 2020.83 894.288 2067.41 885.928 2074.42C877.568 2081.44 885.321 2083.23 885.321 2083.23C885.321 2083.23 910.064 2091.89 937.913 2093.71C955.547 2094.85 974.023 2093.55 987.337 2093.66C1027.71 2093.99 1108.47 2093.73 1108.47 2093.73H1426.73C1426.73 2093.73 1507.49 2093.99 1547.86 2093.66C1561.18 2093.55 1579.65 2094.85 1597.29 2093.71C1625.14 2091.89 1649.9 2083.67 1649.9 2083.67C1649.9 2083.67 1657.63 2081.44 1649.27 2074.42C1640.91 2067.41 1564.35 2020.83 1552.99 2004.11C1531.83 1972.98 1518.58 1742.73 1518.58 1742.73H1448.79H1098.92H1016.62Z" fill="url(#paint2_radial)" style="mix-blend-mode:soft-light"/>
<path fill-rule="evenodd" clip-rule="evenodd" d="M1016.62 1742.73C1016.62 1742.73 1003.37 1972.98 982.215 2004.11C970.852 2020.83 894.288 2067.41 885.928 2074.42C877.568 2081.44 885.321 2083.23 885.321 2083.23C885.321 2083.23 910.064 2091.89 937.913 2093.71C955.547 2094.85 974.023 2093.55 987.337 2093.66C1027.71 2093.99 1108.47 2093.73 1108.47 2093.73H1426.73C1426.73 2093.73 1507.49 2093.99 1547.86 2093.66C1561.18 2093.55 1579.65 2094.85 1597.29 2093.71C1625.14 2091.89 1649.9 2083.67 1649.9 2083.67C1649.9 2083.67 1657.63 2081.44 1649.27 2074.42C1640.91 2067.41 1564.35 2020.83 1552.99 2004.11C1531.83 1972.98 1518.58 1742.73 1518.58 1742.73H1448.79H1098.92H1016.62Z" fill="url(#paint3_radial)" style="mix-blend-mode:soft-light"/>
<path fill-rule="evenodd" clip-rule="evenodd" d="M1016.62 1742.73C1016.62 1742.73 1003.37 1972.98 982.215 2004.11C970.852 2020.83 894.288 2067.41 885.928 2074.42C877.568 2081.44 885.321 2083.23 885.321 2083.23C885.321 2083.23 910.064 2091.89 937.913 2093.71C955.547 2094.85 974.023 2093.55 987.337 2093.66C1027.71 2093.99 1108.47 2093.73 1108.47 2093.73H1426.73C1426.73 2093.73 1507.49 2093.99 1547.86 2093.66C1561.18 2093.55 1579.65 2094.85 1597.29 2093.71C1625.14 2091.89 1649.9 2083.67 1649.9 2083.67C1649.9 2083.67 1657.63 2081.44 1649.27 2074.42C1640.91 2067.41 1564.35 2020.83 1552.99 2004.11C1531.83 1972.98 1518.58 1742.73 1518.58 1742.73H1448.79H1098.92H1016.62Z" fill="url(#paint4_radial)" style="mix-blend-mode:soft-light"/>
<path fill-rule="evenodd" clip-rule="evenodd" d="M1016.62 1742.73C1016.62 1742.73 1003.37 1972.98 982.215 2004.11C970.852 2020.83 894.288 2067.41 885.928 2074.42C877.568 2081.44 885.321 2083.23 885.321 2083.23C885.321 2083.23 910.064 2091.89 937.913 2093.71C955.547 2094.85 974.023 2093.55 987.337 2093.66C1027.71 2093.99 1108.47 2093.73 1108.47 2093.73H1426.73C1426.73 2093.73 1507.49 2093.99 1547.86 2093.66C1561.18 2093.55 1579.65 2094.85 1597.29 2093.71C1625.14 2091.89 1649.9 2083.67 1649.9 2083.67C1649.9 2083.67 1657.63 2081.44 1649.27 2074.42C1640.91 2067.41 1564.35 2020.83 1552.99 2004.11C1531.83 1972.98 1518.58 1742.73 1518.58 1742.73H1448.79H1098.92H1016.62Z" fill="url(#paint5_radial)" fill-opacity="0.4" style="mix-blend-mode:luminosity"/>
<path fill-rule="evenodd" clip-rule="evenodd" d="M1016.62 1742.73C1016.62 1742.73 1003.37 1972.98 982.215 2004.11C970.852 2020.83 894.288 2067.41 885.928 2074.42C877.568 2081.44 885.321 2083.23 885.321 2083.23C885.321 2083.23 910.064 2091.89 937.913 2093.71C955.547 2094.85 974.023 2093.55 987.337 2093.66C1027.71 2093.99 1108.47 2093.73 1108.47 2093.73H1426.73C1426.73 2093.73 1507.49 2093.99 1547.86 2093.66C1561.18 2093.55 1579.65 2094.85 1597.29 2093.71C1625.14 2091.89 1649.9 2083.67 1649.9 2083.67C1649.9 2083.67 1657.63 2081.44 1649.27 2074.42C1640.91 2067.41 1564.35 2020.83 1552.99 2004.11C1531.83 1972.98 1518.58 1742.73 1518.58 1742.73H1448.79H1098.92H1016.62Z" fill="url(#paint6_radial)" fill-opacity="0.4" style="mix-blend-mode:luminosity"/>
<path fill-rule="evenodd" clip-rule="evenodd" d="M1016.62 1742.73C1016.62 1742.73 1003.37 1972.98 982.215 2004.11C970.852 2020.83 894.288 2067.41 885.928 2074.42C877.568 2081.44 885.321 2083.23 885.321 2083.23C885.321 2083.23 910.064 2091.89 937.913 2093.71C955.547 2094.85 974.023 2093.55 987.337 2093.66C1027.71 2093.99 1108.47 2093.73 1108.47 2093.73H1426.73C1426.73 2093.73 1507.49 2093.99 1547.86 2093.66C1561.18 2093.55 1579.65 2094.85 1597.29 2093.71C1625.14 2091.89 1649.9 2083.67 1649.9 2083.67C1649.9 2083.67 1657.63 2081.44 1649.27 2074.42C1640.91 2067.41 1564.35 2020.83 1552.99 2004.11C1531.83 1972.98 1518.58 1742.73 1518.58 1742.73H1448.79H1098.92H1016.62Z" fill="url(#paint7_radial)"/>
<path fill-rule="evenodd" clip-rule="evenodd" d="M1016.62 1742.73C1016.62 1742.73 1003.37 1972.98 982.215 2004.11C970.852 2020.83 894.288 2067.41 885.928 2074.42C877.568 2081.44 885.321 2083.23 885.321 2083.23C885.321 2083.23 910.064 2091.89 937.913 2093.71C955.547 2094.85 974.023 2093.55 987.337 2093.66C1027.71 2093.99 1108.47 2093.73 1108.47 2093.73H1426.73C1426.73 2093.73 1507.49 2093.99 1547.86 2093.66C1561.18 2093.55 1579.65 2094.85 1597.29 2093.71C1625.14 2091.89 1649.9 2083.67 1649.9 2083.67C1649.9 2083.67 1657.63 2081.44 1649.27 2074.42C1640.91 2067.41 1564.35 2020.83 1552.99 2004.11C1531.83 1972.98 1518.58 1742.73 1518.58 1742.73H1448.79H1098.92H1016.62Z" fill="url(#paint8_radial)"/>
<path fill-rule="evenodd" clip-rule="evenodd" d="M1016.62 1742.73C1016.62 1742.73 1003.37 1972.98 982.215 2004.11C970.852 2020.83 894.288 2067.41 885.928 2074.42C877.568 2081.44 885.321 2083.23 885.321 2083.23C885.321 2083.23 910.064 2091.89 937.913 2093.71C955.547 2094.85 974.023 2093.55 987.337 2093.66C1027.71 2093.99 1108.47 2093.73 1108.47 2093.73H1426.73C1426.73 2093.73 1507.49 2093.99 1547.86 2093.66C1561.18 2093.55 1579.65 2094.85 1597.29 2093.71C1625.14 2091.89 1649.9 2083.67 1649.9 2083.67C1649.9 2083.67 1657.63 2081.44 1649.27 2074.42C1640.91 2067.41 1564.35 2020.83 1552.99 2004.11C1531.83 1972.98 1518.58 1742.73 1518.58 1742.73H1448.79H1098.92H1016.62Z" fill="url(#paint9_radial)" fill-opacity="0.2"/>
<path fill-rule="evenodd" clip-rule="evenodd" d="M1016.62 1742.73C1016.62 1742.73 1003.37 1972.98 982.215 2004.11C970.852 2020.83 894.288 2067.41 885.928 2074.42C877.568 2081.44 885.321 2083.23 885.321 2083.23C885.321 2083.23 910.064 2091.89 937.913 2093.71C955.547 2094.85 974.023 2093.55 987.337 2093.66C1027.71 2093.99 1108.47 2093.73 1108.47 2093.73H1426.73C1426.73 2093.73 1507.49 2093.99 1547.86 2093.66C1561.18 2093.55 1579.65 2094.85 1597.29 2093.71C1625.14 2091.89 1649.9 2083.67 1649.9 2083.67C1649.9 2083.67 1657.63 2081.44 1649.27 2074.42C1640.91 2067.41 1564.35 2020.83 1552.99 2004.11C1531.83 1972.98 1518.58 1742.73 1518.58 1742.73H1448.79H1098.92H1016.62Z" fill="url(#paint10_radial)" fill-opacity="0.2"/>
<g filter="url(#filter0_d)">
<path fill-rule="evenodd" clip-rule="evenodd" d="M1584.39 2089.74C1640.02 2089.74 1652.79 2079.7 1652.79 2079.7C1652.99 2079.56 1653.16 2079.65 1653.16 2079.89V2083.03C1653.16 2084.01 1652.52 2085.3 1651.67 2085.84C1651.67 2085.84 1641.21 2096 1581.59 2096H1531.99H1009.35H953.615C893.999 2096 883.535 2085.84 883.535 2085.84C882.688 2085.3 882.048 2084.01 882.048 2083.03L882.048 2079.89C882.048 2079.65 882.214 2079.56 882.418 2079.7C882.418 2079.7 895.184 2089.74 950.815 2089.74H1009.35H1531.99H1584.39Z" fill="url(#paint11_linear)"/>
</g>
<path d="M0 1511.3H2535.21V1652.98C2535.21 1684.55 2535.21 1700.34 2529.06 1712.4C2523.66 1723.01 2515.03 1731.63 2504.42 1737.04C2492.36 1743.18 2476.57 1743.18 2445 1743.18H90.2054C58.6305 1743.18 42.8431 1743.18 30.7831 1737.04C20.1748 1731.63 11.55 1723.01 6.14487 1712.4C0 1700.34 0 1684.55 0 1652.98V1511.3Z" fill="url(#paint12_linear)"/>
<path fill-rule="evenodd" clip-rule="evenodd" d="M1268.58 1596.45C1272.55 1596.45 1279.92 1590.99 1289.52 1590.99C1306.03 1590.99 1312.53 1602.74 1312.53 1602.74C1312.53 1602.74 1299.82 1609.24 1299.82 1625C1299.82 1642.78 1315.65 1648.9 1315.65 1648.9C1315.65 1648.9 1304.59 1680.04 1289.64 1680.04C1282.78 1680.04 1277.44 1675.41 1270.21 1675.41C1262.83 1675.41 1255.52 1680.21 1250.75 1680.21C1237.11 1680.21 1219.86 1650.68 1219.86 1626.93C1219.86 1603.57 1234.46 1591.32 1248.15 1591.32C1257.05 1591.32 1263.95 1596.45 1268.58 1596.45Z" fill="black"/>
<path fill-rule="evenodd" clip-rule="evenodd" d="M1272.72 1572.97C1280.44 1562.8 1291.17 1562.75 1291.17 1562.75C1291.17 1562.75 1292.76 1572.31 1285.1 1581.52C1276.91 1591.36 1267.6 1589.75 1267.6 1589.75C1267.6 1589.75 1265.85 1582.02 1272.72 1572.97Z" fill="black"/>
<path d="M0 97.4799C0 63.3588 0 46.2982 6.64042 33.2656C12.4815 21.8018 21.8018 12.4815 33.2656 6.64042C46.2982 0 63.3587 0 97.4799 0H2437.73C2471.85 0 2488.91 0 2501.94 6.64042C2513.4 12.4815 2522.72 21.8018 2528.56 33.2656C2535.21 46.2982 2535.21 63.3587 2535.21 97.4799V1511.3H0V97.4799Z" fill="#030303"/>
<g opacity="0.703683">
<circle cx="1265.56" cy="43.4204" r="9.77527" fill="url(#paint13_radial)"/>
<g filter="url(#filter1_d)">
<circle cx="1265.56" cy="43.4203" r="5.05617" fill="url(#paint14_radial)"/>
</g>
<mask id="mask0" mask-type="alpha" maskUnits="userSpaceOnUse" x="1260" y="38" width="11" height="11">
<circle cx="1265.56" cy="43.4203" r="5.05617" fill="white"/>
</mask>
<g mask="url(#mask0)">
<g filter="url(#filter2_f)">
<circle cx="1270.28" cy="40.7238" r="1.01123" fill="#2F3046"/>
</g>
<g filter="url(#filter3_f)">
<circle cx="1270.28" cy="40.7238" r="1.01123" fill="#21271B"/>
</g>
<g filter="url(#filter4_f)">
<ellipse cx="1264.21" cy="40.7238" rx="2.35955" ry="1.01123" transform="rotate(-29 1264.21 40.7238)" fill="#323137"/>
</g>
<g filter="url(#filter5_f)">
<circle cx="1266.23" cy="43.4205" r="2.35955" transform="rotate(-16 1266.23 43.4205)" fill="url(#paint15_radial)"/>
</g>
<g filter="url(#filter6_f)">
<circle cx="1265.71" cy="44.6511" r="0.674157" fill="#505760"/>
</g>
</g>
</g>
<rect x="101.845" y="107.755" width="2331.52" height="1313.07" fill="#202020"/>
<rect x="103.663" y="109.574" width="2327.88" height="1309.43" fill="url(#paint16_linear)"/>
<g clip-path="url(#clip0)">
<g filter="url(#filter7_ddd)">
<path fill-rule="evenodd" clip-rule="evenodd" d="M387.877 258.925C383.994 258.925 380.846 262.073 380.846 265.956V1316.5C380.846 1320.39 383.994 1323.54 387.877 1323.54H2161.78C2165.67 1323.54 2168.81 1320.39 2168.81 1316.5V265.956C2168.81 262.073 2165.67 258.925 2161.78 258.925H387.877Z" fill="#ECECEC"/>
</g>
<g clip-path="url(#clip1)">
<g filter="url(#filter8_ii)">
<path d="M380.846 265.956C380.846 262.073 383.994 258.925 387.877 258.925H2161.78C2165.67 258.925 2168.81 262.073 2168.81 265.956V289.861H380.846V265.956Z" fill="url(#paint17_linear)"/>
</g>
<circle cx="400.533" cy="274.393" r="8.08552" fill="#FF5F58" stroke="#E1483F" stroke-width="0.703089"/>
<circle cx="428.657" cy="274.393" r="8.08552" fill="#D1D1D1" stroke="#B1B1B1" stroke-width="0.703089"/>
<circle cx="456.781" cy="274.393" r="8.08552" fill="#D1D1D1" stroke="#B1B1B1" stroke-width="0.703089"/>
</g>
<path d="M380.847 289.72H2168.5V1317.55C2168.5 1321.02 2165.69 1323.84 2162.21 1323.84H387.131C383.66 1323.84 380.847 1321.02 380.847 1317.55V289.72Z" fill="#FF0000"/>
<text fill="black" xml:space="preserve" style="white-space: pre" font-family="Roboto" font-size="12.5692" letter-spacing="0em"><tspan x="400.329" y="328.54">name: iMac Pro&#10;</tspan><tspan x="400.329" y="343.54">density: 2&#10;</tspan><tspan x="400.329" y="358.54">screen_size: 1422x822</tspan></text>
</g>
<g clip-path="url(#clip2)">
<g filter="url(#filter9_bdd)">
<rect x="101.81" y="107.467" width="2329.7" height="28.2807" fill="#FAFAFA" fill-opacity="0.8"/>
</g>
<g clip-path="url(#clip3)">
<path fill-rule="evenodd" clip-rule="evenodd" d="M2403.9 115.161H2385.94V117.726H2403.9V115.161ZM2383.38 115.161H2380.81V117.726H2383.38V115.161ZM2380.81 120.291H2383.38V122.856H2380.81V120.291ZM2400.05 120.291H2385.94V122.856H2400.05V120.291ZM2380.81 125.421H2383.38V127.986H2380.81V125.421ZM2403.9 125.421H2385.94V127.986H2403.9V125.421Z" fill="black" fill-opacity="0.75"/>
<g opacity="0.8">
<circle cx="2349.39" cy="119.65" r="6.09164" stroke="black" stroke-width="1.92368"/>
<path d="M2359.65 129.909L2353.88 124.138" stroke="black" stroke-width="1.92368" stroke-linecap="round" stroke-linejoin="round"/>
</g>
<g opacity="0.8">
<path d="M2243.4 114.889L2247.57 125.304L2251.75 114.889H2253.93V127.654H2252.25V122.683L2252.4 117.318L2248.21 127.654H2246.93L2242.74 117.344L2242.91 122.683V127.654H2241.23V114.889H2243.4Z" fill="black"/>
<path d="M2255.91 122.823C2255.91 121.894 2256.09 121.058 2256.45 120.316C2256.82 119.574 2257.33 119.001 2257.98 118.598C2258.63 118.195 2259.38 117.993 2260.21 117.993C2261.51 117.993 2262.55 118.44 2263.34 119.334C2264.15 120.228 2264.55 121.418 2264.55 122.902V123.016C2264.55 123.94 2264.37 124.77 2264.01 125.506C2263.66 126.237 2263.15 126.806 2262.49 127.215C2261.84 127.625 2261.09 127.829 2260.23 127.829C2258.95 127.829 2257.9 127.382 2257.1 126.488C2256.31 125.594 2255.91 124.41 2255.91 122.937V122.823ZM2257.54 123.016C2257.54 124.068 2257.78 124.913 2258.27 125.55C2258.76 126.187 2259.41 126.505 2260.23 126.505C2261.06 126.505 2261.71 126.184 2262.2 125.541C2262.68 124.892 2262.92 123.986 2262.92 122.823C2262.92 121.783 2262.68 120.941 2262.18 120.299C2261.69 119.65 2261.03 119.325 2260.21 119.325C2259.41 119.325 2258.77 119.644 2258.28 120.281C2257.79 120.918 2257.54 121.83 2257.54 123.016Z" fill="black"/>
<path d="M2266.31 126.803C2266.31 126.523 2266.39 126.289 2266.55 126.102C2266.72 125.915 2266.97 125.822 2267.31 125.822C2267.64 125.822 2267.89 125.915 2268.06 126.102C2268.24 126.289 2268.32 126.523 2268.32 126.803C2268.32 127.072 2268.24 127.297 2268.06 127.478C2267.89 127.66 2267.64 127.75 2267.31 127.75C2266.97 127.75 2266.72 127.66 2266.55 127.478C2266.39 127.297 2266.31 127.072 2266.31 126.803Z" fill="black"/>
<path d="M2282.68 122.21C2282.68 124.109 2282.36 125.521 2281.71 126.444C2281.06 127.367 2280.05 127.829 2278.67 127.829C2277.3 127.829 2276.3 127.379 2275.64 126.479C2274.99 125.573 2274.65 124.223 2274.62 122.429V120.263C2274.62 118.387 2274.95 116.993 2275.6 116.082C2276.25 115.17 2277.26 114.714 2278.65 114.714C2280.02 114.714 2281.03 115.155 2281.68 116.038C2282.33 116.915 2282.66 118.27 2282.68 120.106V122.21ZM2281.06 119.992C2281.06 118.618 2280.87 117.619 2280.48 116.993C2280.09 116.362 2279.48 116.047 2278.65 116.047C2277.82 116.047 2277.21 116.359 2276.83 116.985C2276.45 117.61 2276.26 118.571 2276.25 119.869V122.464C2276.25 123.843 2276.44 124.863 2276.84 125.524C2277.25 126.178 2277.85 126.505 2278.67 126.505C2279.47 126.505 2280.06 126.196 2280.45 125.576C2280.84 124.957 2281.04 123.981 2281.06 122.648V119.992Z" fill="black"/>
<path d="M2290.67 122.043C2290.33 122.446 2289.92 122.771 2289.45 123.016C2288.98 123.262 2288.47 123.384 2287.9 123.384C2287.17 123.384 2286.53 123.203 2285.98 122.841C2285.43 122.479 2285.01 121.97 2284.71 121.315C2284.42 120.655 2284.27 119.927 2284.27 119.133C2284.27 118.279 2284.43 117.511 2284.75 116.827C2285.08 116.143 2285.54 115.62 2286.13 115.258C2286.73 114.895 2287.43 114.714 2288.22 114.714C2289.48 114.714 2290.48 115.188 2291.2 116.134C2291.93 117.075 2292.3 118.361 2292.3 119.992V120.465C2292.3 122.949 2291.81 124.764 2290.82 125.909C2289.84 127.049 2288.36 127.633 2286.38 127.663H2286.06V126.295H2286.41C2287.74 126.272 2288.77 125.924 2289.49 125.252C2290.21 124.574 2290.6 123.504 2290.67 122.043ZM2288.17 122.043C2288.71 122.043 2289.21 121.877 2289.67 121.543C2290.13 121.21 2290.46 120.798 2290.68 120.307V119.659C2290.68 118.595 2290.44 117.73 2289.98 117.064C2289.52 116.397 2288.94 116.064 2288.23 116.064C2287.52 116.064 2286.94 116.339 2286.51 116.888C2286.08 117.432 2285.86 118.151 2285.86 119.045C2285.86 119.916 2286.07 120.635 2286.48 121.202C2286.91 121.763 2287.47 122.043 2288.17 122.043Z" fill="black"/>
<path d="M2294.34 126.803C2294.34 126.523 2294.42 126.289 2294.58 126.102C2294.75 125.915 2295.01 125.822 2295.34 125.822C2295.67 125.822 2295.92 125.915 2296.09 126.102C2296.27 126.289 2296.36 126.523 2296.36 126.803C2296.36 127.072 2296.27 127.297 2296.09 127.478C2295.92 127.66 2295.67 127.75 2295.34 127.75C2295.01 127.75 2294.75 127.66 2294.58 127.478C2294.42 127.297 2294.34 127.072 2294.34 126.803ZM2294.35 119.062C2294.35 118.782 2294.43 118.548 2294.59 118.361C2294.76 118.174 2295.01 118.081 2295.35 118.081C2295.68 118.081 2295.93 118.174 2296.1 118.361C2296.28 118.548 2296.36 118.782 2296.36 119.062C2296.36 119.331 2296.28 119.556 2296.1 119.737C2295.93 119.919 2295.68 120.009 2295.35 120.009C2295.01 120.009 2294.76 119.919 2294.59 119.737C2294.43 119.556 2294.35 119.331 2294.35 119.062Z" fill="black"/>
<path d="M2305.11 123.367H2306.88V124.691H2305.11V127.654H2303.48V124.691H2297.67V123.735L2303.39 114.889H2305.11V123.367ZM2299.51 123.367H2303.48V117.107L2303.29 117.458L2299.51 123.367Z" fill="black"/>
<path d="M2313.37 127.654H2311.74V116.844L2308.47 118.045V116.573L2313.12 114.828H2313.37V127.654Z" fill="black"/>
</g>
<g opacity="0.8">
<path fill-rule="evenodd" clip-rule="evenodd" d="M2201.27 119.009C2201.27 118.3 2201.85 117.726 2202.55 117.726H2206.4L2211.53 113.879V129.268L2206.4 125.421H2202.55C2201.85 125.421 2201.27 124.847 2201.27 124.138V119.009Z" fill="black"/>
<path d="M2218.98 127.986C2220.6 126.251 2221.6 123.892 2221.6 121.293C2221.6 118.654 2220.57 116.262 2218.91 114.52" stroke="black" stroke-width="1.28245" stroke-linecap="round"/>
<path d="M2214.74 126.062C2215.92 124.913 2216.66 123.307 2216.66 121.53C2216.66 119.797 2215.96 118.227 2214.83 117.085" stroke="black" stroke-width="1.28245" stroke-linecap="round"/>
</g>
<path d="M2187.34 117.529C2184.61 114.472 2180.91 112.596 2176.85 112.596C2172.75 112.596 2169.04 114.497 2166.3 117.59" stroke="black" stroke-width="1.53894" stroke-linecap="square"/>
<path d="M2184.3 121.204C2182.35 119.047 2179.73 117.726 2176.85 117.726C2173.97 117.726 2171.35 119.042 2169.4 121.19" stroke="black" stroke-width="1.53894" stroke-linecap="square"/>
<path d="M2181.21 124.82C2180.05 123.599 2178.52 122.856 2176.85 122.856C2175.19 122.856 2173.67 123.586 2172.52 124.788" stroke="black" stroke-width="1.53894" stroke-linecap="square"/>
<ellipse cx="2176.83" cy="128.948" rx="2.17224" ry="1.60306" fill="black"/>
</g>
<g clip-path="url(#clip4)">
<path fill-rule="evenodd" clip-rule="evenodd" d="M140.089 113.252C140.875 112.399 141.307 111.226 141.239 110.031C140.169 110.031 138.928 110.657 138.143 111.579C137.529 112.342 136.869 113.537 137.108 114.732C138.211 114.868 139.406 114.174 140.089 113.252ZM141.137 114.994C139.475 114.994 138.007 115.915 137.222 115.915C136.402 115.915 135.207 114.948 133.864 114.994C132.112 115.028 130.507 116.063 129.608 117.588C128.971 118.681 128.72 119.967 128.743 121.276C128.777 123.745 129.745 126.317 130.883 127.956C131.759 129.208 132.749 130.551 134.149 130.551C135.412 130.551 135.879 129.709 137.529 129.709C139.065 129.709 139.543 130.551 140.875 130.551C142.275 130.551 143.196 129.276 144.027 128.013C145.074 126.545 145.427 125.145 145.473 125.088C145.427 125.088 142.787 124.018 142.684 120.968C142.684 118.294 144.858 117.088 144.949 117.031C143.765 115.21 141.854 114.994 141.137 114.994Z" fill="#474747"/>
<path d="M180.222 122.168H175.085V127.577H172.867V114.813H180.976V116.601H175.085V120.397H180.222V122.168Z" fill="#484848"/>
<path d="M184.491 127.577H182.36V118.092H184.491V127.577ZM182.229 115.628C182.229 115.301 182.331 115.029 182.536 114.813C182.746 114.597 183.044 114.489 183.43 114.489C183.816 114.489 184.114 114.597 184.324 114.813C184.534 115.029 184.64 115.301 184.64 115.628C184.64 115.95 184.534 116.219 184.324 116.435C184.114 116.645 183.816 116.75 183.43 116.75C183.044 116.75 182.746 116.645 182.536 116.435C182.331 116.219 182.229 115.95 182.229 115.628Z" fill="#484848"/>
<path d="M188.777 127.577H186.646V114.112H188.777V127.577Z" fill="#484848"/>
<path d="M194.974 127.753C193.624 127.753 192.528 127.329 191.686 126.481C190.85 125.628 190.433 124.494 190.433 123.08V122.817C190.433 121.87 190.614 121.026 190.976 120.283C191.344 119.535 191.859 118.954 192.519 118.539C193.179 118.124 193.916 117.916 194.728 117.916C196.02 117.916 197.016 118.328 197.718 119.152C198.425 119.977 198.778 121.143 198.778 122.65V123.51H192.58C192.645 124.293 192.905 124.912 193.361 125.368C193.822 125.824 194.401 126.052 195.096 126.052C196.072 126.052 196.867 125.657 197.481 124.868L198.629 125.964C198.25 126.531 197.741 126.972 197.104 127.288C196.473 127.598 195.763 127.753 194.974 127.753ZM194.719 119.626C194.135 119.626 193.662 119.83 193.299 120.24C192.943 120.649 192.715 121.218 192.615 121.949H196.674V121.791C196.628 121.078 196.438 120.541 196.105 120.178C195.771 119.81 195.31 119.626 194.719 119.626Z" fill="#484848"/>
<path d="M228.615 121.879H223.372V125.806H229.5V127.577H221.154V114.813H229.439V116.601H223.372V120.126H228.615V121.879Z" fill="#484848"/>
<path d="M230.218 122.764C230.218 121.303 230.557 120.131 231.235 119.249C231.913 118.361 232.822 117.916 233.962 117.916C234.967 117.916 235.779 118.267 236.399 118.968V114.112H238.529V127.577H236.6L236.495 126.595C235.858 127.367 235.008 127.753 233.944 127.753C232.834 127.753 231.933 127.306 231.244 126.411C230.56 125.517 230.218 124.301 230.218 122.764ZM232.348 122.948C232.348 123.913 232.533 124.667 232.901 125.21C233.275 125.748 233.804 126.017 234.488 126.017C235.358 126.017 235.995 125.628 236.399 124.851V120.801C236.007 120.041 235.376 119.661 234.505 119.661C233.815 119.661 233.284 119.936 232.91 120.485C232.535 121.029 232.348 121.85 232.348 122.948Z" fill="#484848"/>
<path d="M242.71 127.577H240.579V118.092H242.71V127.577ZM240.448 115.628C240.448 115.301 240.55 115.029 240.755 114.813C240.965 114.597 241.263 114.489 241.649 114.489C242.035 114.489 242.333 114.597 242.543 114.813C242.754 115.029 242.859 115.301 242.859 115.628C242.859 115.95 242.754 116.219 242.543 116.435C242.333 116.645 242.035 116.75 241.649 116.75C241.263 116.75 240.965 116.645 240.755 116.435C240.55 116.219 240.448 115.95 240.448 115.628Z" fill="#484848"/>
<path d="M247.399 115.786V118.092H249.074V119.67H247.399V124.965C247.399 125.327 247.469 125.59 247.609 125.754C247.756 125.912 248.013 125.991 248.381 125.991C248.626 125.991 248.875 125.961 249.126 125.903V127.551C248.641 127.685 248.173 127.753 247.723 127.753C246.087 127.753 245.269 126.85 245.269 125.044V119.67H243.708V118.092H245.269V115.786H247.399Z" fill="#484848"/>
<path d="M275.92 124.798L279.164 114.813H281.601L277.007 127.577H274.86L270.283 114.813H272.712L275.92 124.798Z" fill="#484848"/>
<path d="M284.8 127.577H282.67V118.092H284.8V127.577ZM282.538 115.628C282.538 115.301 282.641 115.029 282.845 114.813C283.056 114.597 283.354 114.489 283.739 114.489C284.125 114.489 284.423 114.597 284.634 114.813C284.844 115.029 284.949 115.301 284.949 115.628C284.949 115.95 284.844 116.219 284.634 116.435C284.423 116.645 284.125 116.75 283.739 116.75C283.354 116.75 283.056 116.645 282.845 116.435C282.641 116.219 282.538 115.95 282.538 115.628Z" fill="#484848"/>
<path d="M290.997 127.753C289.647 127.753 288.551 127.329 287.71 126.481C286.874 125.628 286.456 124.494 286.456 123.08V122.817C286.456 121.87 286.637 121.026 287 120.283C287.368 119.535 287.882 118.954 288.543 118.539C289.203 118.124 289.939 117.916 290.752 117.916C292.043 117.916 293.04 118.328 293.741 119.152C294.448 119.977 294.802 121.143 294.802 122.65V123.51H288.604C288.668 124.293 288.928 124.912 289.384 125.368C289.846 125.824 290.424 126.052 291.12 126.052C292.096 126.052 292.891 125.657 293.505 124.868L294.653 125.964C294.273 126.531 293.765 126.972 293.128 127.288C292.496 127.598 291.786 127.753 290.997 127.753ZM290.743 119.626C290.159 119.626 289.685 119.83 289.323 120.24C288.966 120.649 288.738 121.218 288.639 121.949H292.698V121.791C292.651 121.078 292.461 120.541 292.128 120.178C291.795 119.81 291.333 119.626 290.743 119.626Z" fill="#484848"/>
<path d="M304.488 124.64L305.996 118.092H308.074L305.488 127.577H303.734L301.701 121.064L299.702 127.577H297.948L295.353 118.092H297.431L298.965 124.57L300.911 118.092H302.516L304.488 124.64Z" fill="#484848"/>
<path d="M340.225 124.421L342.188 114.813H344.389L341.443 127.577H339.322L336.893 118.258L334.412 127.577H332.282L329.336 114.813H331.537L333.518 124.404L335.955 114.813H337.814L340.225 124.421Z" fill="#484848"/>
<path d="M347.763 127.577H345.633V118.092H347.763V127.577ZM345.501 115.628C345.501 115.301 345.604 115.029 345.808 114.813C346.019 114.597 346.317 114.489 346.702 114.489C347.088 114.489 347.386 114.597 347.597 114.813C347.807 115.029 347.912 115.301 347.912 115.628C347.912 115.95 347.807 116.219 347.597 116.435C347.386 116.645 347.088 116.75 346.702 116.75C346.317 116.75 346.019 116.645 345.808 116.435C345.604 116.219 345.501 115.95 345.501 115.628Z" fill="#484848"/>
<path d="M351.76 118.092L351.821 119.188C352.523 118.34 353.443 117.916 354.583 117.916C356.558 117.916 357.563 119.047 357.598 121.309V127.577H355.468V121.432C355.468 120.83 355.337 120.386 355.074 120.099C354.816 119.807 354.393 119.661 353.802 119.661C352.943 119.661 352.303 120.05 351.883 120.827V127.577H349.752V118.092H351.76Z" fill="#484848"/>
<path d="M359.07 122.764C359.07 121.303 359.409 120.131 360.087 119.249C360.765 118.361 361.674 117.916 362.814 117.916C363.819 117.916 364.631 118.267 365.251 118.968V114.112H367.381V127.577H365.453L365.347 126.595C364.71 127.367 363.86 127.753 362.796 127.753C361.686 127.753 360.786 127.306 360.096 126.411C359.412 125.517 359.07 124.301 359.07 122.764ZM361.201 122.948C361.201 123.913 361.385 124.667 361.753 125.21C362.127 125.748 362.656 126.017 363.34 126.017C364.211 126.017 364.848 125.628 365.251 124.851V120.801C364.859 120.041 364.228 119.661 363.357 119.661C362.668 119.661 362.136 119.936 361.762 120.485C361.388 121.029 361.201 121.85 361.201 122.948Z" fill="#484848"/>
<path d="M368.897 122.747C368.897 121.818 369.081 120.982 369.449 120.24C369.817 119.491 370.335 118.919 371.001 118.521C371.667 118.118 372.433 117.916 373.298 117.916C374.578 117.916 375.615 118.328 376.41 119.152C377.211 119.977 377.643 121.069 377.707 122.431L377.716 122.931C377.716 123.866 377.535 124.702 377.173 125.438C376.816 126.175 376.302 126.744 375.63 127.148C374.963 127.551 374.192 127.753 373.315 127.753C371.977 127.753 370.904 127.308 370.098 126.42C369.297 125.526 368.897 124.337 368.897 122.852V122.747ZM371.027 122.931C371.027 123.907 371.229 124.673 371.632 125.228C372.035 125.777 372.596 126.052 373.315 126.052C374.034 126.052 374.592 125.771 374.99 125.21C375.393 124.649 375.595 123.828 375.595 122.747C375.595 121.788 375.387 121.029 374.972 120.467C374.563 119.906 374.005 119.626 373.298 119.626C372.602 119.626 372.05 119.903 371.641 120.459C371.232 121.008 371.027 121.832 371.027 122.931Z" fill="#484848"/>
<path d="M387.543 124.64L389.051 118.092H391.128L388.542 127.577H386.789L384.755 121.064L382.756 127.577H381.003L378.408 118.092H380.486L382.02 124.57L383.966 118.092H385.57L387.543 124.64Z" fill="#484848"/>
<path d="M423.402 127.577H421.193V121.905H415.486V127.577H413.268V114.813H415.486V120.126H421.193V114.813H423.402V127.577Z" fill="#484848"/>
<path d="M429.695 127.753C428.345 127.753 427.25 127.329 426.408 126.481C425.572 125.628 425.154 124.494 425.154 123.08V122.817C425.154 121.87 425.335 121.026 425.698 120.283C426.066 119.535 426.58 118.954 427.241 118.539C427.901 118.124 428.638 117.916 429.45 117.916C430.742 117.916 431.738 118.328 432.439 119.152C433.147 119.977 433.5 121.143 433.5 122.65V123.51H427.302C427.366 124.293 427.626 124.912 428.082 125.368C428.544 125.824 429.123 126.052 429.818 126.052C430.794 126.052 431.589 125.657 432.203 124.868L433.351 125.964C432.971 126.531 432.463 126.972 431.826 127.288C431.195 127.598 430.484 127.753 429.695 127.753ZM429.441 119.626C428.857 119.626 428.383 119.83 428.021 120.24C427.664 120.649 427.437 121.218 427.337 121.949H431.396V121.791C431.349 121.078 431.159 120.541 430.826 120.178C430.493 119.81 430.031 119.626 429.441 119.626Z" fill="#484848"/>
<path d="M437.12 127.577H434.99V114.112H437.12V127.577Z" fill="#484848"/>
<path d="M447.446 122.931C447.446 124.398 447.113 125.57 446.447 126.446C445.781 127.317 444.886 127.753 443.764 127.753C442.724 127.753 441.891 127.411 441.266 126.727V131.224H439.135V118.092H441.099L441.187 119.056C441.812 118.296 442.662 117.916 443.738 117.916C444.895 117.916 445.801 118.349 446.456 119.214C447.116 120.073 447.446 121.268 447.446 122.799V122.931ZM445.325 122.747C445.325 121.8 445.135 121.049 444.755 120.494C444.381 119.939 443.843 119.661 443.142 119.661C442.271 119.661 441.646 120.02 441.266 120.739V124.947C441.651 125.684 442.283 126.052 443.159 126.052C443.837 126.052 444.366 125.78 444.746 125.237C445.132 124.687 445.325 123.857 445.325 122.747Z" fill="#484848"/>
</g>
</g>
<defs>
<filter id="filter0_d" x="882.048" y="2079.18" width="771.11" height="16.8226" filterUnits="userSpaceOnUse" color-interpolation-filters="sRGB">
<feFlood flood-opacity="0" result="BackgroundImageFix"/>
<feColorMatrix in="SourceAlpha" type="matrix" values="0 0 0 0 0 0 0 0 0 0 0 0 0 0 0 0 0 0 127 0"/>
<feOffset dy="-0.454664"/>
<feColorMatrix type="matrix" values="0 0 0 0 1 0 0 0 0 1 0 0 0 0 1 0 0 0 0.061849 0"/>
<feBlend mode="normal" in2="BackgroundImageFix" result="effect1_dropShadow"/>
<feBlend mode="normal" in="SourceGraphic" in2="effect1_dropShadow" result="shape"/>
</filter>
<filter id="filter1_d" x="1258.68" y="36.5455" width="13.7497" height="13.7497" filterUnits="userSpaceOnUse" color-interpolation-filters="sRGB">
<feFlood flood-opacity="0" result="BackgroundImageFix"/>
<feColorMatrix in="SourceAlpha" type="matrix" values="0 0 0 0 0 0 0 0 0 0 0 0 0 0 0 0 0 0 127 0"/>
<feMorphology radius="0.909328" operator="dilate" in="SourceAlpha" result="effect1_dropShadow"/>
<feOffset/>
<feGaussianBlur stdDeviation="0.454664"/>
<feColorMatrix type="matrix" values="0 0 0 0 0 0 0 0 0 0 0 0 0 0 0 0 0 0 0.4 0"/>
<feBlend mode="normal" in2="BackgroundImageFix" result="effect1_dropShadow"/>
<feBlend mode="normal" in="SourceGraphic" in2="effect1_dropShadow" result="shape"/>
</filter>
<filter id="filter2_f" x="1268.03" y="38.4766" width="4.49428" height="4.49428" filterUnits="userSpaceOnUse" color-interpolation-filters="sRGB">
<feFlood flood-opacity="0" result="BackgroundImageFix"/>
<feBlend mode="normal" in="SourceGraphic" in2="BackgroundImageFix" result="shape"/>
<feGaussianBlur stdDeviation="0.617952" result="effect1_foregroundBlur"/>
</filter>
<filter id="filter3_f" x="1268.03" y="38.4766" width="4.49428" height="4.49428" filterUnits="userSpaceOnUse" color-interpolation-filters="sRGB">
<feFlood flood-opacity="0" result="BackgroundImageFix"/>
<feBlend mode="normal" in="SourceGraphic" in2="BackgroundImageFix" result="shape"/>
<feGaussianBlur stdDeviation="0.617952" result="effect1_foregroundBlur"/>
</filter>
<filter id="filter4_f" x="1260.85" y="38.0418" width="6.71505" height="5.36388" filterUnits="userSpaceOnUse" color-interpolation-filters="sRGB">
<feFlood flood-opacity="0" result="BackgroundImageFix"/>
<feBlend mode="normal" in="SourceGraphic" in2="BackgroundImageFix" result="shape"/>
<feGaussianBlur stdDeviation="0.617952" result="effect1_foregroundBlur"/>
</filter>
<filter id="filter5_f" x="1262.63" y="39.8244" width="7.19212" height="7.19212" filterUnits="userSpaceOnUse" color-interpolation-filters="sRGB">
<feFlood flood-opacity="0" result="BackgroundImageFix"/>
<feBlend mode="normal" in="SourceGraphic" in2="BackgroundImageFix" result="shape"/>
<feGaussianBlur stdDeviation="0.617952" result="effect1_foregroundBlur"/>
</filter>
<filter id="filter6_f" x="1263.8" y="42.741" width="3.82012" height="3.82012" filterUnits="userSpaceOnUse" color-interpolation-filters="sRGB">
<feFlood flood-opacity="0" result="BackgroundImageFix"/>
<feBlend mode="normal" in="SourceGraphic" in2="BackgroundImageFix" result="shape"/>
<feGaussianBlur stdDeviation="0.617952" result="effect1_foregroundBlur"/>
</filter>
<filter id="filter7_ddd" x="310.538" y="202.678" width="1928.58" height="1205.23" filterUnits="userSpaceOnUse" color-interpolation-filters="sRGB">
<feFlood flood-opacity="0" result="BackgroundImageFix"/>
<feColorMatrix in="SourceAlpha" type="matrix" values="0 0 0 0 0 0 0 0 0 0 0 0 0 0 0 0 0 0 127 0"/>
<feOffset dy="14.0618"/>
<feGaussianBlur stdDeviation="35.1544"/>
<feColorMatrix type="matrix" values="0 0 0 0 0 0 0 0 0 0 0 0 0 0 0 0 0 0 0.2 0"/>
<feBlend mode="normal" in2="BackgroundImageFix" result="effect1_dropShadow"/>
<feColorMatrix in="SourceAlpha" type="matrix" values="0 0 0 0 0 0 0 0 0 0 0 0 0 0 0 0 0 0 127 0"/>
<feOffset dy="28.1236"/>
<feGaussianBlur stdDeviation="21.0927"/>
<feColorMatrix type="matrix" values="0 0 0 0 0 0 0 0 0 0 0 0 0 0 0 0 0 0 0.3 0"/>
<feBlend mode="normal" in2="effect1_dropShadow" result="effect2_dropShadow"/>
<feColorMatrix in="SourceAlpha" type="matrix" values="0 0 0 0 0 0 0 0 0 0 0 0 0 0 0 0 0 0 127 0"/>
<feOffset/>
<feGaussianBlur stdDeviation="0.703089"/>
<feColorMatrix type="matrix" values="0 0 0 0 0 0 0 0 0 0 0 0 0 0 0 0 0 0 0.9 0"/>
<feBlend mode="normal" in2="effect2_dropShadow" result="effect3_dropShadow"/>
<feBlend mode="normal" in="SourceGraphic" in2="effect3_dropShadow" result="shape"/>
</filter>
<filter id="filter8_ii" x="380.846" y="258.222" width="1787.97" height="32.3421" filterUnits="userSpaceOnUse" color-interpolation-filters="sRGB">
<feFlood flood-opacity="0" result="BackgroundImageFix"/>
<feBlend mode="normal" in="SourceGraphic" in2="BackgroundImageFix" result="shape"/>
<feColorMatrix in="SourceAlpha" type="matrix" values="0 0 0 0 0 0 0 0 0 0 0 0 0 0 0 0 0 0 127 0" result="hardAlpha"/>
<feOffset dy="-0.703089"/>
<feGaussianBlur stdDeviation="0.351544"/>
<feComposite in2="hardAlpha" operator="arithmetic" k2="-1" k3="1"/>
<feColorMatrix type="matrix" values="0 0 0 0 0 0 0 0 0 0 0 0 0 0 0 0 0 0 0.2 0"/>
<feBlend mode="normal" in2="shape" result="effect1_innerShadow"/>
<feColorMatrix in="SourceAlpha" type="matrix" values="0 0 0 0 0 0 0 0 0 0 0 0 0 0 0 0 0 0 127 0" result="hardAlpha"/>
<feOffset dy="0.703089"/>
<feGaussianBlur stdDeviation="0.351544"/>
<feComposite in2="hardAlpha" operator="arithmetic" k2="-1" k3="1"/>
<feColorMatrix type="matrix" values="0 0 0 0 1 0 0 0 0 1 0 0 0 0 1 0 0 0 0.6 0"/>
<feBlend mode="normal" in2="effect1_innerShadow" result="effect2_innerShadow"/>
</filter>
<filter id="filter9_bdd" x="66.9498" y="72.6059" width="2399.42" height="99.0499" filterUnits="userSpaceOnUse" color-interpolation-filters="sRGB">
<feFlood flood-opacity="0" result="BackgroundImageFix"/>
<feGaussianBlur in="BackgroundImage" stdDeviation="17.4303"/>
<feComposite in2="SourceAlpha" operator="in" result="effect1_backgroundBlur"/>
<feColorMatrix in="SourceAlpha" type="matrix" values="0 0 0 0 0 0 0 0 0 0 0 0 0 0 0 0 0 0 127 0"/>
<feOffset dy="10.2596"/>
<feGaussianBlur stdDeviation="12.8245"/>
<feColorMatrix type="matrix" values="0 0 0 0 0 0 0 0 0 0 0 0 0 0 0 0 0 0 0.25 0"/>
<feBlend mode="normal" in2="effect1_backgroundBlur" result="effect2_dropShadow"/>
<feColorMatrix in="SourceAlpha" type="matrix" values="0 0 0 0 0 0 0 0 0 0 0 0 0 0 0 0 0 0 127 0"/>
<feOffset dy="0.641225"/>
<feColorMatrix type="matrix" values="0 0 0 0 0 0 0 0 0 0 0 0 0 0 0 0 0 0 0.1 0"/>
<feBlend mode="normal" in2="effect2_dropShadow" result="effect3_dropShadow"/>
<feBlend mode="normal" in="SourceGraphic" in2="effect3_dropShadow" result="shape"/>
</filter>
<linearGradient id="paint0_linear" x1="882.048" y1="1742.73" x2="882.048" y2="2094.18" gradientUnits="userSpaceOnUse">
<stop stop-color="#242328"/>
<stop offset="0.190646" stop-color="#2C2B30"/>
<stop offset="0.387487" stop-color="#4B4A4F"/>
<stop offset="0.421228" stop-color="#555459"/>
<stop offset="0.583651" stop-color="#727076"/>
<stop offset="0.665405" stop-color="#434248"/>
<stop offset="0.744936" stop-color="#26252A"/>
<stop offset="0.80397" stop-color="#313035"/>
<stop offset="0.980985" stop-color="#3F3F43"/>
<stop offset="0.988443" stop-color="#343338"/>
<stop offset="1" stop-color="#D2D3D5"/>
<stop offset="1" stop-color="#2B2A2F"/>
</linearGradient>
<radialGradient id="paint1_radial" cx="0" cy="0" r="1" gradientUnits="userSpaceOnUse" gradientTransform="translate(944.318 2063.28) rotate(16.4906) scale(108.853 83.4256)">
<stop stop-color="#E9EAEC"/>
<stop offset="1" stop-color="white" stop-opacity="0.01"/>
</radialGradient>
<radialGradient id="paint2_radial" cx="0" cy="0" r="1" gradientUnits="userSpaceOnUse" gradientTransform="translate(1596.18 2060.92) rotate(63.1632) scale(96.4324 243.602)">
<stop stop-color="#E9EAEC"/>
<stop offset="1" stop-color="white" stop-opacity="0.01"/>
</radialGradient>
<radialGradient id="paint3_radial" cx="0" cy="0" r="1" gradientUnits="userSpaceOnUse" gradientTransform="translate(1000.66 2081.68) rotate(98.4617) scale(78.8069 447.419)">
<stop stop-color="white" stop-opacity="0.818784"/>
<stop offset="1" stop-color="white" stop-opacity="0.01"/>
</radialGradient>
<radialGradient id="paint4_radial" cx="0" cy="0" r="1" gradientUnits="userSpaceOnUse" gradientTransform="translate(1536.83 2081.77) rotate(81.7234) scale(75.2373 404.11)">
<stop stop-color="white" stop-opacity="0.82"/>
<stop offset="1" stop-color="white" stop-opacity="0.01"/>
</radialGradient>
<radialGradient id="paint5_radial" cx="0" cy="0" r="1" gradientUnits="userSpaceOnUse" gradientTransform="translate(1653.16 2087.64) rotate(147.343) scale(179.495 127.224)">
<stop stop-color="white"/>
<stop offset="1" stop-color="white" stop-opacity="0.01"/>
</radialGradient>
<radialGradient id="paint6_radial" cx="0" cy="0" r="1" gradientUnits="userSpaceOnUse" gradientTransform="translate(882.048 2080.75) rotate(117.573) scale(129.905 417.74)">
<stop stop-color="white"/>
<stop offset="1" stop-color="white" stop-opacity="0.01"/>
</radialGradient>
<radialGradient id="paint7_radial" cx="0" cy="0" r="1" gradientUnits="userSpaceOnUse" gradientTransform="translate(1260.86 2039.62) rotate(90) scale(60.4028 656.097)">
<stop stop-color="#343338"/>
<stop offset="1" stop-color="#2D2C31" stop-opacity="0.01"/>
</radialGradient>
<radialGradient id="paint8_radial" cx="0" cy="0" r="1" gradientUnits="userSpaceOnUse" gradientTransform="translate(1277.53 1742.73) rotate(90) scale(196.446 634.905)">
<stop stop-color="#27262B"/>
<stop offset="1" stop-color="#2D2C31" stop-opacity="0.01"/>
</radialGradient>
<radialGradient id="paint9_radial" cx="0" cy="0" r="1" gradientUnits="userSpaceOnUse" gradientTransform="translate(969.585 1951.37) rotate(103.127) scale(77.171 633.515)">
<stop stop-color="#27262B"/>
<stop offset="1" stop-color="#2D2C31" stop-opacity="0.01"/>
</radialGradient>
<radialGradient id="paint10_radial" cx="0" cy="0" r="1" gradientUnits="userSpaceOnUse" gradientTransform="translate(1558.64 1951.68) rotate(77.0406) scale(70.1351 553.176)">
<stop stop-color="#27262B"/>
<stop offset="1" stop-color="#2D2C31" stop-opacity="0.01"/>
</radialGradient>
<linearGradient id="paint11_linear" x1="886.889" y1="2099.14" x2="1648.25" y2="2099.14" gradientUnits="userSpaceOnUse">
<stop stop-color="#838385"/>
<stop offset="0.0182458" stop-color="#C1C0C6"/>
<stop offset="0.0375704" stop-color="#27262B"/>
<stop offset="0.504551" stop-color="#2B2A2F"/>
<stop offset="0.965588" stop-color="#2F2E33"/>
<stop offset="0.985363" stop-color="#C1C0C6"/>
<stop offset="1" stop-color="#838385"/>
</linearGradient>
<linearGradient id="paint12_linear" x1="0" y1="1743.18" x2="2535.21" y2="1743.18" gradientUnits="userSpaceOnUse">
<stop stop-color="#29282D"/>
<stop offset="1" stop-color="#404044"/>
</linearGradient>
<radialGradient id="paint13_radial" cx="0" cy="0" r="1" gradientUnits="userSpaceOnUse" gradientTransform="translate(1252.75 61.3403) rotate(116.906) scale(17.9971)">
<stop stop-color="white"/>
<stop offset="0.0281362" stop-color="#CECECE" stop-opacity="0.767503"/>
<stop offset="1" stop-color="#252525"/>
</radialGradient>
<radialGradient id="paint14_radial" cx="0" cy="0" r="1" gradientUnits="userSpaceOnUse" gradientTransform="translate(1265.56 38.3641) rotate(90) scale(10.1123)">
<stop stop-color="#2F2E32"/>
<stop offset="1" stop-color="#101518"/>
</radialGradient>
<radialGradient id="paint15_radial" cx="0" cy="0" r="1" gradientUnits="userSpaceOnUse" gradientTransform="translate(1265.51 41.7965) rotate(90) scale(3.72804)">
<stop stop-color="#101722"/>
<stop offset="1" stop-color="#525669"/>
</radialGradient>
<linearGradient id="paint16_linear" x1="1267.6" y1="109.574" x2="1267.6" y2="1419.01" gradientUnits="userSpaceOnUse">
<stop stop-color="#221D29"/>
<stop offset="1" stop-color="#293251"/>
</linearGradient>
<linearGradient id="paint17_linear" x1="380.846" y1="258.925" x2="380.846" y2="289.861" gradientUnits="userSpaceOnUse">
<stop stop-color="#E7E6E7"/>
<stop offset="1" stop-color="#E1E1E1"/>
</linearGradient>
<clipPath id="clip0">
<rect width="1787.97" height="1064.61" fill="white" transform="translate(380.846 258.925)"/>
</clipPath>
<clipPath id="clip1">
<rect width="1787.97" height="30.9359" fill="white" transform="translate(380.846 258.925)"/>
</clipPath>
<clipPath id="clip2">
<rect width="2331.58" height="28.2807" fill="white" transform="translate(101.81 107.467)"/>
</clipPath>
<clipPath id="clip3">
<rect width="274.444" height="20.5192" fill="white" transform="translate(2129.45 111.314)"/>
</clipPath>
<clipPath id="clip4">
<rect width="459.117" height="21.8017" fill="white" transform="translate(128.742 110.031)"/>
</clipPath>
</defs>
</svg>
