<svg width="2980" height="4322" viewBox="0 0 2980 4322" fill="none" xmlns="http://www.w3.org/2000/svg">
<g clip-path="url(#clip0)">
<g clip-path="url(#clip1)">
<g filter="url(#filter0_ii)">
<path fill-rule="evenodd" clip-rule="evenodd" d="M2979.65 4232.21L2979.65 4052.25C2979.65 4051.16 2978.77 4050.28 2977.68 4050.28L2977.68 271.593C2978.77 271.593 2979.65 270.711 2979.65 269.625L2979.65 90.1709C2979.65 40.3709 2939.28 -1.76467e-06 2889.48 -3.94158e-06L90.1726 -0.000126303C40.3707 -0.00012848 -0.00026927 40.3708 -0.000271447 90.1708L-0.000452448 4230.98C-0.000454633 4280.97 40.8999 4321.87 90.8888 4321.87L2889.99 4321.87C2939.51 4321.87 2979.65 4281.73 2979.65 4232.21" fill="url(#paint0_linear)"/>
<path fill-rule="evenodd" clip-rule="evenodd" d="M2979.65 4232.21L2979.65 4052.25C2979.65 4051.16 2978.77 4050.28 2977.68 4050.28L2977.68 271.593C2978.77 271.593 2979.65 270.711 2979.65 269.625L2979.65 90.1709C2979.65 40.3709 2939.28 -1.76467e-06 2889.48 -3.94158e-06L90.1726 -0.000126303C40.3707 -0.00012848 -0.00026927 40.3708 -0.000271447 90.1708L-0.000452448 4230.98C-0.000454633 4280.97 40.8999 4321.87 90.8888 4321.87L2889.99 4321.87C2939.51 4321.87 2979.65 4281.73 2979.65 4232.21" fill="url(#paint1_radial)" fill-opacity="0.9"/>
<path fill-rule="evenodd" clip-rule="evenodd" d="M2979.65 4232.21L2979.65 4052.25C2979.65 4051.16 2978.77 4050.28 2977.68 4050.28L2977.68 271.593C2978.77 271.593 2979.65 270.711 2979.65 269.625L2979.65 90.1709C2979.65 40.3709 2939.28 -1.76467e-06 2889.48 -3.94158e-06L90.1726 -0.000126303C40.3707 -0.00012848 -0.00026927 40.3708 -0.000271447 90.1708L-0.000452448 4230.98C-0.000454633 4280.97 40.8999 4321.87 90.8888 4321.87L2889.99 4321.87C2939.51 4321.87 2979.65 4281.73 2979.65 4232.21" fill="url(#paint2_radial)" fill-opacity="0.9"/>
<path fill-rule="evenodd" clip-rule="evenodd" d="M2979.65 4232.21L2979.65 4052.25C2979.65 4051.16 2978.77 4050.28 2977.68 4050.28L2977.68 271.593C2978.77 271.593 2979.65 270.711 2979.65 269.625L2979.65 90.1709C2979.65 40.3709 2939.28 -1.76467e-06 2889.48 -3.94158e-06L90.1726 -0.000126303C40.3707 -0.00012848 -0.00026927 40.3708 -0.000271447 90.1708L-0.000452448 4230.98C-0.000454633 4280.97 40.8999 4321.87 90.8888 4321.87L2889.99 4321.87C2939.51 4321.87 2979.65 4281.73 2979.65 4232.21" fill="url(#paint3_radial)" fill-opacity="0.7"/>
<path fill-rule="evenodd" clip-rule="evenodd" d="M2979.65 4232.21L2979.65 4052.25C2979.65 4051.16 2978.77 4050.28 2977.68 4050.28L2977.68 271.593C2978.77 271.593 2979.65 270.711 2979.65 269.625L2979.65 90.1709C2979.65 40.3709 2939.28 -1.76467e-06 2889.48 -3.94158e-06L90.1726 -0.000126303C40.3707 -0.00012848 -0.00026927 40.3708 -0.000271447 90.1708L-0.000452448 4230.98C-0.000454633 4280.97 40.8999 4321.87 90.8888 4321.87L2889.99 4321.87C2939.51 4321.87 2979.65 4281.73 2979.65 4232.21" fill="url(#paint4_radial)" fill-opacity="0.3"/>
<path fill-rule="evenodd" clip-rule="evenodd" d="M2979.65 4232.21L2979.65 4052.25C2979.65 4051.16 2978.77 4050.28 2977.68 4050.28L2977.68 271.593C2978.77 271.593 2979.65 270.711 2979.65 269.625L2979.65 90.1709C2979.65 40.3709 2939.28 -1.76467e-06 2889.48 -3.94158e-06L90.1726 -0.000126303C40.3707 -0.00012848 -0.00026927 40.3708 -0.000271447 90.1708L-0.000452448 4230.98C-0.000454633 4280.97 40.8999 4321.87 90.8888 4321.87L2889.99 4321.87C2939.51 4321.87 2979.65 4281.73 2979.65 4232.21" fill="url(#paint5_linear)" fill-opacity="0.4"/>
<path fill-rule="evenodd" clip-rule="evenodd" d="M2979.65 4232.21L2979.65 4052.25C2979.65 4051.16 2978.77 4050.28 2977.68 4050.28L2977.68 271.593C2978.77 271.593 2979.65 270.711 2979.65 269.625L2979.65 90.1709C2979.65 40.3709 2939.28 -1.76467e-06 2889.48 -3.94158e-06L90.1726 -0.000126303C40.3707 -0.00012848 -0.00026927 40.3708 -0.000271447 90.1708L-0.000452448 4230.98C-0.000454633 4280.97 40.8999 4321.87 90.8888 4321.87L2889.99 4321.87C2939.51 4321.87 2979.65 4281.73 2979.65 4232.21" fill="url(#paint6_linear)" fill-opacity="0.5" style="mix-blend-mode:multiply"/>
</g>
<mask id="mask0" mask-type="alpha" maskUnits="userSpaceOnUse" x="0" y="0" width="2980" height="4322">
<path fill-rule="evenodd" clip-rule="evenodd" d="M2979.65 4232.21L2979.65 4052.25C2979.65 4051.16 2978.77 4050.28 2977.68 4050.28L2977.68 271.593C2978.77 271.593 2979.65 270.711 2979.65 269.625L2979.65 90.1709C2979.65 40.3709 2939.28 -1.76467e-06 2889.48 -3.94158e-06L90.1726 -0.000126303C40.3707 -0.00012848 -0.00026927 40.3708 -0.000271447 90.1708L-0.000452448 4230.98C-0.000454633 4280.97 40.8999 4321.87 90.8888 4321.87L2889.99 4321.87C2939.51 4321.87 2979.65 4281.73 2979.65 4232.21" fill="white"/>
</mask>
<g mask="url(#mask0)">
<rect width="403.454" height="216.487" transform="matrix(-0.5 -0.866025 -0.866025 0.5 3103.41 4380.46)" fill="url(#paint7_linear)" fill-opacity="0.4" style="mix-blend-mode:multiply"/>
<rect x="3103.41" y="-62.5215" width="403.454" height="216.487" transform="rotate(120 3103.41 -62.5215)" fill="url(#paint8_linear)" fill-opacity="0.4" style="mix-blend-mode:multiply"/>
<rect x="-8.79492" y="-208.815" width="403.454" height="216.487" transform="rotate(45 -8.79492 -208.815)" fill="url(#paint9_linear)" fill-opacity="0.4" style="mix-blend-mode:multiply"/>
<rect width="403.454" height="216.487" transform="matrix(0.707107 -0.707107 -0.707107 -0.707107 -8.79492 4527.81)" fill="url(#paint10_linear)" fill-opacity="0.4" style="mix-blend-mode:multiply"/>
<g opacity="0.4" filter="url(#filter1_ii)">
<rect x="2979.65" y="271.593" width="3778.69" height="19.6807" transform="rotate(90 2979.65 271.593)" fill="url(#paint11_radial)"/>
<rect x="2979.65" y="271.593" width="3778.69" height="19.6807" transform="rotate(90 2979.65 271.593)" fill="url(#paint12_radial)"/>
</g>
</g>
</g>
<g filter="url(#filter2_d)">
<mask id="path-8-outside-1" maskUnits="userSpaceOnUse" x="12.908" y="13.744" width="2953" height="4295" fill="black">
<rect fill="white" x="12.908" y="13.744" width="2953" height="4295"/>
<path fill-rule="evenodd" clip-rule="evenodd" d="M2746.12 4302.19L2378.73 4302.19C2374.89 4304.74 2370.35 4306.13 2365.67 4306.13L90.5311 4306.13C49.2291 4306.13 15.7444 4272.65 15.7444 4231.34L15.7446 90.5305C15.7446 49.2287 49.2292 15.744 90.5312 15.744L2365.68 15.7441C2370.35 15.7441 2374.89 17.1326 2378.73 19.6802L2746.12 19.6802C2749.96 17.1327 2754.49 15.7441 2759.17 15.7441L2889.12 15.7441C2930.43 15.7441 2963.91 49.2288 2963.91 90.5307L2963.91 4231.34C2963.91 4272.65 2930.43 4306.13 2889.12 4306.13L2759.17 4306.13C2754.49 4306.13 2749.96 4304.74 2746.12 4302.19Z"/>
</mask>
<path d="M2378.73 4302.19L2378.73 4300.22L2378.14 4300.22L2377.64 4300.55L2378.73 4302.19ZM2746.12 4302.19L2747.2 4300.55L2746.71 4300.22L2746.12 4300.22L2746.12 4302.19ZM2378.73 19.6802L2377.64 21.3203L2378.13 21.6482L2378.73 21.6482L2378.73 19.6802ZM2746.12 19.6802L2746.12 21.6482L2746.71 21.6482L2747.21 21.3202L2746.12 19.6802ZM2378.73 4304.16L2746.12 4304.16L2746.12 4300.22L2378.73 4300.22L2378.73 4304.16ZM2365.67 4308.1C2370.74 4308.1 2375.66 4306.59 2379.82 4303.83L2377.64 4300.55C2374.12 4302.89 2369.96 4304.16 2365.67 4304.16L2365.67 4308.1ZM90.5311 4308.1L2365.67 4308.1L2365.67 4304.16L90.5311 4304.16L90.5311 4308.1ZM13.7764 4231.34C13.7764 4273.73 48.1422 4308.1 90.5311 4308.1L90.5311 4304.16C50.316 4304.16 17.7125 4271.56 17.7125 4231.34L13.7764 4231.34ZM13.7766 90.5305L13.7764 4231.34L17.7125 4231.34L17.7127 90.5305L13.7766 90.5305ZM90.5313 13.7759C48.1423 13.7759 13.7766 48.1418 13.7766 90.5305L17.7127 90.5305C17.7127 50.3156 50.3162 17.7121 90.5312 17.7121L90.5313 13.7759ZM2365.68 13.776L90.5313 13.7759L90.5312 17.7121L2365.68 17.7122L2365.68 13.776ZM2379.82 18.04C2375.66 15.2804 2370.74 13.776 2365.68 13.776L2365.68 17.7122C2369.96 17.7122 2374.12 18.9849 2377.64 21.3203L2379.82 18.04ZM2746.12 17.7121L2378.73 17.7121L2378.73 21.6482L2746.12 21.6482L2746.12 17.7121ZM2759.17 13.7761C2754.1 13.7761 2749.19 15.2804 2745.03 18.0401L2747.21 21.3202C2750.73 18.9849 2754.88 17.7122 2759.17 17.7122L2759.17 13.7761ZM2889.12 13.7761L2759.17 13.7761L2759.17 17.7122L2889.12 17.7122L2889.12 13.7761ZM2965.88 90.5307C2965.88 48.1419 2931.51 13.7761 2889.12 13.7761L2889.12 17.7122C2929.34 17.7122 2961.94 50.3157 2961.94 90.5307L2965.88 90.5307ZM2965.88 4231.34L2965.88 90.5307L2961.94 90.5307L2961.94 4231.34L2965.88 4231.34ZM2889.12 4308.1C2931.51 4308.1 2965.88 4273.73 2965.88 4231.34L2961.94 4231.34C2961.94 4271.56 2929.34 4304.16 2889.12 4304.16L2889.12 4308.1ZM2759.17 4308.1L2889.12 4308.1L2889.12 4304.16L2759.17 4304.16L2759.17 4308.1ZM2745.03 4303.83C2749.19 4306.59 2754.1 4308.1 2759.17 4308.1L2759.17 4304.16C2754.88 4304.16 2750.72 4302.89 2747.2 4300.55L2745.03 4303.83Z" fill="url(#paint13_linear)" mask="url(#path-8-outside-1)"/>
</g>
<rect x="2765.13" y="19.6797" width="106.276" height="429.038" transform="rotate(90 2765.13 19.6797)" fill="#111111"/>
<rect x="2765.13" y="4195.92" width="106.276" height="429.038" transform="rotate(90 2765.13 4195.92)" fill="#111111"/>
<g filter="url(#filter3_dii)">
<path fill-rule="evenodd" clip-rule="evenodd" d="M2742.47 4299.21C2746.9 4303.64 2752.91 4306.13 2759.17 4306.13L2889.12 4306.13C2930.43 4306.13 2963.91 4272.65 2963.91 4231.34L2963.91 90.5307C2963.91 49.2288 2930.43 15.7441 2889.12 15.7441L2759.17 15.7441C2752.91 15.7441 2746.9 18.2337 2742.47 22.6619L2726.79 38.3493C2722.36 42.7775 2716.35 45.2651 2710.09 45.2651L2414.76 45.2651C2408.5 45.2651 2402.49 42.7775 2398.06 38.3493L2382.37 22.6619C2377.95 18.2337 2371.94 15.7441 2365.68 15.7441L90.5312 15.744C49.2293 15.744 15.7447 49.2287 15.7447 90.5305L15.7445 4231.34C15.7445 4272.65 49.2292 4306.13 90.531 4306.13L2365.67 4306.13C2371.94 4306.13 2377.95 4303.64 2382.37 4299.21L2398.06 4283.53C2402.49 4279.1 2408.5 4276.61 2414.76 4276.61L2710.09 4276.61C2716.35 4276.61 2722.36 4279.1 2726.79 4283.53L2742.47 4299.21Z" fill="url(#paint14_linear)"/>
</g>
<rect x="2761.2" y="259.784" width="3802.3" height="2546.68" transform="rotate(90 2761.2 259.784)" fill="#2A2929"/>
<g clip-path="url(#clip2)">
<g opacity="0.5" clip-path="url(#clip3)">
<circle cx="2855.66" cy="2160.94" r="33.4571" transform="rotate(90 2855.66 2160.94)" fill="url(#paint15_radial)"/>
<g clip-path="url(#clip4)">
<g filter="url(#filter4_d)">
<circle cx="2855.66" cy="2160.94" r="15.7445" transform="rotate(90 2855.66 2160.94)" fill="url(#paint16_linear)"/>
</g>
<mask id="mask1" mask-type="alpha" maskUnits="userSpaceOnUse" x="2839" y="2145" width="33" height="32">
<circle cx="2855.66" cy="2160.94" r="15.7445" transform="rotate(90 2855.66 2160.94)" fill="white"/>
</mask>
<g mask="url(#mask1)">
<g filter="url(#filter5_f)">
<circle cx="2849.76" cy="2153.06" r="3.93613" transform="rotate(90 2849.76 2153.06)" fill="#4297D8"/>
</g>
<g filter="url(#filter6_f)">
<circle cx="2853.7" cy="2164.87" r="5.9042" transform="rotate(90 2853.7 2164.87)" fill="#17154B"/>
</g>
<g filter="url(#filter7_f)">
<circle cx="2863.54" cy="2172.74" r="3.93613" transform="rotate(90 2863.54 2172.74)" fill="#A3D1FA"/>
</g>
<g filter="url(#filter8_f)">
<ellipse cx="2861.98" cy="2156.19" rx="5.9042" ry="1.96807" transform="rotate(60 2861.98 2156.19)" fill="#2934CD"/>
</g>
</g>
</g>
</g>
<g filter="url(#filter9_ii)">
<circle cx="2854.68" cy="2264.26" r="14.7605" transform="rotate(90 2854.68 2264.26)" fill="#212121"/>
<circle cx="2854.68" cy="2264.26" r="14.7605" transform="rotate(90 2854.68 2264.26)" fill="url(#paint17_linear)" fill-opacity="0.2"/>
</g>
<g clip-path="url(#clip5)">
<circle opacity="0.2" cx="2855.66" cy="2345.93" r="11.8084" transform="rotate(90 2855.66 2345.93)" fill="url(#paint18_linear)"/>
<circle opacity="0.6" cx="2855.66" cy="2345.93" r="7.87227" transform="rotate(90 2855.66 2345.93)" fill="#0A0A0A"/>
</g>
</g>
<path fill-rule="evenodd" clip-rule="evenodd" d="M1529.11 4170.04C1531.98 4187.67 1534.5 4205.66 1537.01 4223.29L1536.29 4223.29L1490.35 4223.29C1490.35 4205.66 1489.99 4187.67 1489.99 4170.04L1529.11 4170.04ZM1523.01 4125.07C1525.16 4138.38 1526.96 4151.69 1528.39 4165.36L1489.99 4165.36C1489.99 4151.69 1489.63 4138.38 1489.63 4125.07L1523.01 4125.07ZM1485.68 4125.07C1485.68 4138.38 1485.32 4151.69 1485.68 4165.36L1446.91 4165.36C1448.71 4151.69 1450.5 4138.38 1452.3 4125.07L1485.68 4125.07ZM1485.32 4170.04L1485.32 4223.29L1440.81 4223.29L1438.66 4223.29C1441.53 4205.66 1443.68 4187.67 1446.19 4170.04L1485.32 4170.04Z" fill="white"/>
<path fill-rule="evenodd" clip-rule="evenodd" d="M1529.11 4170.04C1531.98 4187.67 1534.5 4205.66 1537.01 4223.29L1536.29 4223.29L1490.35 4223.29C1490.35 4205.66 1489.99 4187.67 1489.99 4170.04L1529.11 4170.04ZM1523.01 4125.07C1525.16 4138.38 1526.96 4151.69 1528.39 4165.36L1489.99 4165.36C1489.99 4151.69 1489.63 4138.38 1489.63 4125.07L1523.01 4125.07ZM1485.68 4125.07C1485.68 4138.38 1485.32 4151.69 1485.68 4165.36L1446.91 4165.36C1448.71 4151.69 1450.5 4138.38 1452.3 4125.07L1485.68 4125.07ZM1485.32 4170.04L1485.32 4223.29L1440.81 4223.29L1438.66 4223.29C1441.53 4205.66 1443.68 4187.67 1446.19 4170.04L1485.32 4170.04Z" fill="url(#paint19_linear)" fill-opacity="0.15"/>
</g>
<path d="M2749.39 271.593L2749.39 4050.28H230.264L230.264 271.593L2749.39 271.593Z" fill="#FF0000"/>
<text fill="black" xml:space="preserve" style="white-space: pre" font-family="Roboto" font-size="20" letter-spacing="0em"><tspan x="351" y="390.336">name:Microsoft Surface 3&#10;</tspan><tspan x="351" y="413.336">density: 1&#10;</tspan><tspan x="351" y="436.336">screen_size: 1280x1920&#10;</tspan><tspan x="351" y="459.336">safe_areas: 0,20,0,0|0,20,0,0</tspan></text>
<defs>
<filter id="filter0_ii" x="0" y="0" width="2979.65" height="4323.84" filterUnits="userSpaceOnUse" color-interpolation-filters="sRGB">
<feFlood flood-opacity="0" result="BackgroundImageFix"/>
<feBlend mode="normal" in="SourceGraphic" in2="BackgroundImageFix" result="shape"/>
<feColorMatrix in="SourceAlpha" type="matrix" values="0 0 0 0 0 0 0 0 0 0 0 0 0 0 0 0 0 0 127 0" result="hardAlpha"/>
<feOffset dy="5.9042"/>
<feComposite in2="hardAlpha" operator="arithmetic" k2="-1" k3="1"/>
<feColorMatrix type="matrix" values="0 0 0 0 1 0 0 0 0 1 0 0 0 0 1 0 0 0 0.8 0"/>
<feBlend mode="normal" in2="shape" result="effect1_innerShadow"/>
<feColorMatrix in="SourceAlpha" type="matrix" values="0 0 0 0 0 0 0 0 0 0 0 0 0 0 0 0 0 0 127 0" result="hardAlpha"/>
<feOffset dy="1.96807"/>
<feGaussianBlur stdDeviation="1.96807"/>
<feComposite in2="hardAlpha" operator="arithmetic" k2="-1" k3="1"/>
<feColorMatrix type="matrix" values="0 0 0 0 0 0 0 0 0 0 0 0 0 0 0 0 0 0 0.2 0"/>
<feBlend mode="normal" in2="effect1_innerShadow" result="effect2_innerShadow"/>
</filter>
<filter id="filter1_ii" x="2958" y="271.593" width="23.617" height="3778.69" filterUnits="userSpaceOnUse" color-interpolation-filters="sRGB">
<feFlood flood-opacity="0" result="BackgroundImageFix"/>
<feBlend mode="normal" in="SourceGraphic" in2="BackgroundImageFix" result="shape"/>
<feColorMatrix in="SourceAlpha" type="matrix" values="0 0 0 0 0 0 0 0 0 0 0 0 0 0 0 0 0 0 127 0" result="hardAlpha"/>
<feOffset dx="1.96807"/>
<feGaussianBlur stdDeviation="1.96807"/>
<feComposite in2="hardAlpha" operator="arithmetic" k2="-1" k3="1"/>
<feColorMatrix type="matrix" values="0 0 0 0 0 0 0 0 0 0 0 0 0 0 0 0 0 0 0.3 0"/>
<feBlend mode="normal" in2="shape" result="effect1_innerShadow"/>
<feColorMatrix in="SourceAlpha" type="matrix" values="0 0 0 0 0 0 0 0 0 0 0 0 0 0 0 0 0 0 127 0" result="hardAlpha"/>
<feOffset dx="-1.96807"/>
<feGaussianBlur stdDeviation="1.96807"/>
<feComposite in2="hardAlpha" operator="arithmetic" k2="-1" k3="1"/>
<feColorMatrix type="matrix" values="0 0 0 0 0 0 0 0 0 0 0 0 0 0 0 0 0 0 0.3 0"/>
<feBlend mode="normal" in2="effect1_innerShadow" result="effect2_innerShadow"/>
</filter>
<filter id="filter2_d" x="7.87217" y="7.87217" width="2963.91" height="4306.13" filterUnits="userSpaceOnUse" color-interpolation-filters="sRGB">
<feFlood flood-opacity="0" result="BackgroundImageFix"/>
<feColorMatrix in="SourceAlpha" type="matrix" values="0 0 0 0 0 0 0 0 0 0 0 0 0 0 0 0 0 0 127 0"/>
<feOffset/>
<feGaussianBlur stdDeviation="2.9521"/>
<feColorMatrix type="matrix" values="0 0 0 0 0 0 0 0 0 0 0 0 0 0 0 0 0 0 0.5 0"/>
<feBlend mode="normal" in2="BackgroundImageFix" result="effect1_dropShadow"/>
<feBlend mode="normal" in="SourceGraphic" in2="effect1_dropShadow" result="shape"/>
</filter>
<filter id="filter3_dii" x="13.7761" y="15.7441" width="2952.1" height="4294.32" filterUnits="userSpaceOnUse" color-interpolation-filters="sRGB">
<feFlood flood-opacity="0" result="BackgroundImageFix"/>
<feColorMatrix in="SourceAlpha" type="matrix" values="0 0 0 0 0 0 0 0 0 0 0 0 0 0 0 0 0 0 127 0"/>
<feOffset dy="1.96807"/>
<feGaussianBlur stdDeviation="0.984033"/>
<feColorMatrix type="matrix" values="0 0 0 0 0 0 0 0 0 0 0 0 0 0 0 0 0 0 1 0"/>
<feBlend mode="normal" in2="BackgroundImageFix" result="effect1_dropShadow"/>
<feBlend mode="normal" in="SourceGraphic" in2="effect1_dropShadow" result="shape"/>
<feColorMatrix in="SourceAlpha" type="matrix" values="0 0 0 0 0 0 0 0 0 0 0 0 0 0 0 0 0 0 127 0" result="hardAlpha"/>
<feOffset dx="3.93613"/>
<feGaussianBlur stdDeviation="0.984033"/>
<feComposite in2="hardAlpha" operator="arithmetic" k2="-1" k3="1"/>
<feColorMatrix type="matrix" values="0 0 0 0 1 0 0 0 0 1 0 0 0 0 1 0 0 0 0.1 0"/>
<feBlend mode="normal" in2="shape" result="effect2_innerShadow"/>
<feColorMatrix in="SourceAlpha" type="matrix" values="0 0 0 0 0 0 0 0 0 0 0 0 0 0 0 0 0 0 127 0" result="hardAlpha"/>
<feOffset dx="-3.93613"/>
<feGaussianBlur stdDeviation="0.984033"/>
<feComposite in2="hardAlpha" operator="arithmetic" k2="-1" k3="1"/>
<feColorMatrix type="matrix" values="0 0 0 0 1 0 0 0 0 1 0 0 0 0 1 0 0 0 0.1 0"/>
<feBlend mode="normal" in2="effect2_innerShadow" result="effect3_innerShadow"/>
</filter>
<filter id="filter4_d" x="2832.05" y="2137.32" width="47.2336" height="47.2336" filterUnits="userSpaceOnUse" color-interpolation-filters="sRGB">
<feFlood flood-opacity="0" result="BackgroundImageFix"/>
<feColorMatrix in="SourceAlpha" type="matrix" values="0 0 0 0 0 0 0 0 0 0 0 0 0 0 0 0 0 0 127 0"/>
<feMorphology radius="3.93613" operator="dilate" in="SourceAlpha" result="effect1_dropShadow"/>
<feOffset/>
<feGaussianBlur stdDeviation="1.96807"/>
<feColorMatrix type="matrix" values="0 0 0 0 0 0 0 0 0 0 0 0 0 0 0 0 0 0 0.5 0"/>
<feBlend mode="normal" in2="BackgroundImageFix" result="effect1_dropShadow"/>
<feBlend mode="normal" in="SourceGraphic" in2="effect1_dropShadow" result="shape"/>
</filter>
<filter id="filter5_f" x="2840.47" y="2143.78" width="18.5718" height="18.5718" filterUnits="userSpaceOnUse" color-interpolation-filters="sRGB">
<feFlood flood-opacity="0" result="BackgroundImageFix"/>
<feBlend mode="normal" in="SourceGraphic" in2="BackgroundImageFix" result="shape"/>
<feGaussianBlur stdDeviation="2.67488" result="effect1_foregroundBlur"/>
</filter>
<filter id="filter6_f" x="2842.44" y="2153.62" width="22.5079" height="22.5079" filterUnits="userSpaceOnUse" color-interpolation-filters="sRGB">
<feFlood flood-opacity="0" result="BackgroundImageFix"/>
<feBlend mode="normal" in="SourceGraphic" in2="BackgroundImageFix" result="shape"/>
<feGaussianBlur stdDeviation="2.67488" result="effect1_foregroundBlur"/>
</filter>
<filter id="filter7_f" x="2854.25" y="2163.46" width="18.5718" height="18.5718" filterUnits="userSpaceOnUse" color-interpolation-filters="sRGB">
<feFlood flood-opacity="0" result="BackgroundImageFix"/>
<feBlend mode="normal" in="SourceGraphic" in2="BackgroundImageFix" result="shape"/>
<feGaussianBlur stdDeviation="2.67488" result="effect1_foregroundBlur"/>
</filter>
<filter id="filter8_f" x="2853.22" y="2145.63" width="17.5182" height="21.1155" filterUnits="userSpaceOnUse" color-interpolation-filters="sRGB">
<feFlood flood-opacity="0" result="BackgroundImageFix"/>
<feBlend mode="normal" in="SourceGraphic" in2="BackgroundImageFix" result="shape"/>
<feGaussianBlur stdDeviation="2.67488" result="effect1_foregroundBlur"/>
</filter>
<filter id="filter9_ii" x="2839.92" y="2249.5" width="29.521" height="31.4891" filterUnits="userSpaceOnUse" color-interpolation-filters="sRGB">
<feFlood flood-opacity="0" result="BackgroundImageFix"/>
<feBlend mode="normal" in="SourceGraphic" in2="BackgroundImageFix" result="shape"/>
<feColorMatrix in="SourceAlpha" type="matrix" values="0 0 0 0 0 0 0 0 0 0 0 0 0 0 0 0 0 0 127 0" result="hardAlpha"/>
<feOffset dy="1.96807"/>
<feGaussianBlur stdDeviation="0.984033"/>
<feComposite in2="hardAlpha" operator="arithmetic" k2="-1" k3="1"/>
<feColorMatrix type="matrix" values="0 0 0 0 0 0 0 0 0 0 0 0 0 0 0 0 0 0 1 0"/>
<feBlend mode="normal" in2="shape" result="effect1_innerShadow"/>
<feColorMatrix in="SourceAlpha" type="matrix" values="0 0 0 0 0 0 0 0 0 0 0 0 0 0 0 0 0 0 127 0" result="hardAlpha"/>
<feOffset dy="-1.96807"/>
<feComposite in2="hardAlpha" operator="arithmetic" k2="-1" k3="1"/>
<feColorMatrix type="matrix" values="0 0 0 0 1 0 0 0 0 1 0 0 0 0 1 0 0 0 0.05 0"/>
<feBlend mode="normal" in2="effect1_innerShadow" result="effect2_innerShadow"/>
</filter>
<linearGradient id="paint0_linear" x1="2979.65" y1="0" x2="-0.000244141" y2="-0.000130245" gradientUnits="userSpaceOnUse">
<stop stop-color="#C1C1C1"/>
<stop offset="1" stop-color="#909090"/>
</linearGradient>
<radialGradient id="paint1_radial" cx="0" cy="0" r="1" gradientUnits="userSpaceOnUse" gradientTransform="translate(2979.65) rotate(-180) scale(289.29 419.605)">
<stop stop-color="white"/>
<stop offset="1" stop-color="white" stop-opacity="0.01"/>
</radialGradient>
<radialGradient id="paint2_radial" cx="0" cy="0" r="1" gradientUnits="userSpaceOnUse" gradientTransform="translate(2979.65 4321.87) rotate(-180) scale(289.29 419.605)">
<stop stop-color="white"/>
<stop offset="1" stop-color="white" stop-opacity="0.01"/>
</radialGradient>
<radialGradient id="paint3_radial" cx="0" cy="0" r="1" gradientUnits="userSpaceOnUse" gradientTransform="translate(1489.83 2160.94) rotate(-180) scale(919.83 4196.58)">
<stop stop-color="white" stop-opacity="0.01"/>
<stop offset="1" stop-color="white" stop-opacity="0.5"/>
</radialGradient>
<radialGradient id="paint4_radial" cx="0" cy="0" r="1" gradientUnits="userSpaceOnUse" gradientTransform="translate(-0.000336638 2116.1) rotate(-180) scale(981.573 3736.99)">
<stop/>
<stop offset="1" stop-opacity="0.01"/>
</radialGradient>
<linearGradient id="paint5_linear" x1="96.0352" y1="2091.29" x2="-0.000335554" y2="2091.29" gradientUnits="userSpaceOnUse">
<stop stop-color="white" stop-opacity="0.5"/>
<stop offset="1" stop-opacity="0.5"/>
</linearGradient>
<linearGradient id="paint6_linear" x1="2979.65" y1="0" x2="-0.000244141" y2="-0.000130245" gradientUnits="userSpaceOnUse">
<stop stop-color="white" stop-opacity="0.5"/>
<stop offset="0.0254035" stop-color="white" stop-opacity="0.5"/>
<stop offset="0.045714" stop-opacity="0.5"/>
<stop offset="0.0983374" stop-opacity="0.5"/>
<stop offset="0.16883" stop-color="#7A7777" stop-opacity="0.5"/>
<stop offset="0.191128" stop-opacity="0.5"/>
<stop offset="0.341913" stop-color="white" stop-opacity="0.5"/>
<stop offset="1" stop-color="white" stop-opacity="0.5"/>
</linearGradient>
<linearGradient id="paint7_linear" x1="0" y1="0" x2="0" y2="216.487" gradientUnits="userSpaceOnUse">
<stop stop-color="white"/>
<stop offset="0.401915" stop-color="white"/>
<stop offset="0.466575"/>
<stop offset="1" stop-color="white"/>
</linearGradient>
<linearGradient id="paint8_linear" x1="3103.41" y1="-62.5215" x2="3103.41" y2="153.966" gradientUnits="userSpaceOnUse">
<stop stop-color="white"/>
<stop offset="0.401915" stop-color="white"/>
<stop offset="0.466575"/>
<stop offset="1" stop-color="white"/>
</linearGradient>
<linearGradient id="paint9_linear" x1="-8.79492" y1="-208.815" x2="-8.79492" y2="7.67189" gradientUnits="userSpaceOnUse">
<stop stop-color="white"/>
<stop offset="0.401915" stop-color="white"/>
<stop offset="0.466575"/>
<stop offset="1" stop-color="white"/>
</linearGradient>
<linearGradient id="paint10_linear" x1="0" y1="0" x2="0" y2="216.487" gradientUnits="userSpaceOnUse">
<stop stop-color="white"/>
<stop offset="0.401915" stop-color="white"/>
<stop offset="0.466575"/>
<stop offset="1" stop-color="white"/>
</linearGradient>
<radialGradient id="paint11_radial" cx="0" cy="0" r="1" gradientUnits="userSpaceOnUse" gradientTransform="translate(2982.14 295.15) rotate(90) scale(18.4122 3535.14)">
<stop/>
<stop offset="1" stop-opacity="0.01"/>
</radialGradient>
<radialGradient id="paint12_radial" cx="0" cy="0" r="1" gradientUnits="userSpaceOnUse" gradientTransform="translate(6758.34 294.379) rotate(90) scale(18.4122 3535.14)">
<stop/>
<stop offset="1" stop-opacity="0.01"/>
</radialGradient>
<linearGradient id="paint13_linear" x1="2963.91" y1="15.7441" x2="15.7446" y2="15.744" gradientUnits="userSpaceOnUse">
<stop stop-color="white" stop-opacity="0.3"/>
<stop offset="1" stop-color="white" stop-opacity="0.01"/>
</linearGradient>
<linearGradient id="paint14_linear" x1="2963.91" y1="15.7441" x2="15.7446" y2="15.744" gradientUnits="userSpaceOnUse">
<stop stop-color="#212121"/>
<stop offset="0.218653" stop-color="#0C0C0C"/>
<stop offset="1" stop-color="#151514"/>
</linearGradient>
<radialGradient id="paint15_radial" cx="0" cy="0" r="1" gradientUnits="userSpaceOnUse" gradientTransform="translate(2886.48 2217.59) rotate(49.5605) scale(55.7766)">
<stop stop-color="#E3E0E0"/>
<stop offset="1" stop-color="#252728"/>
</radialGradient>
<linearGradient id="paint16_linear" x1="2839.92" y1="2145.19" x2="2839.92" y2="2176.68" gradientUnits="userSpaceOnUse">
<stop stop-color="#3343AC"/>
<stop offset="1" stop-color="#1E2462"/>
</linearGradient>
<linearGradient id="paint17_linear" x1="2835.98" y1="2254.91" x2="2846.81" y2="2284.43" gradientUnits="userSpaceOnUse">
<stop stop-color="white" stop-opacity="0.5"/>
<stop offset="1" stop-opacity="0.01"/>
</linearGradient>
<linearGradient id="paint18_linear" x1="2838.44" y1="2340.28" x2="2850.74" y2="2363.89" gradientUnits="userSpaceOnUse">
<stop/>
<stop offset="1" stop-color="#111111"/>
</linearGradient>
<linearGradient id="paint19_linear" x1="1537.01" y1="4125.07" x2="1438.66" y2="4125.07" gradientUnits="userSpaceOnUse">
<stop stop-color="white" stop-opacity="0.5"/>
<stop offset="1" stop-opacity="0.5"/>
</linearGradient>
<clipPath id="clip0">
<rect width="4321.87" height="2979.65" fill="white" transform="translate(2979.65) rotate(90)"/>
</clipPath>
<clipPath id="clip1">
<rect width="4321.87" height="2979.65" fill="white" transform="translate(2979.65) rotate(90)"/>
</clipPath>
<clipPath id="clip2">
<rect width="230.264" height="66.9143" fill="white" transform="translate(2889.12 2127.48) rotate(90)"/>
</clipPath>
<clipPath id="clip3">
<rect width="66.9143" height="66.9143" fill="white" transform="translate(2889.12 2127.48) rotate(90)"/>
</clipPath>
<clipPath id="clip4">
<rect width="31.4891" height="31.4891" fill="white" transform="translate(2871.41 2145.19) rotate(90)"/>
</clipPath>
<clipPath id="clip5">
<rect width="23.6168" height="23.6168" fill="white" transform="translate(2867.47 2334.13) rotate(90)"/>
</clipPath>
</defs>
</svg>
