<svg width="2881" height="2032" viewBox="0 0 2881 2032" fill="none" xmlns="http://www.w3.org/2000/svg">
<g clip-path="url(#clip0_2:556)">
<g clip-path="url(#clip1_2:556)">
<g clip-path="url(#clip2_2:556)">
<path d="M1061.98 2002.38H1001.05V2005.28C1001.05 2005.28 1001.05 2005.29 1001.05 2005.29C1001.05 2006.66 1014.69 2007.77 1031.51 2007.77C1048.34 2007.77 1061.98 2006.66 1061.98 2005.29C1061.98 2005.29 1061.98 2005.28 1061.98 2005.28V2002.38Z" fill="url(#paint0_linear_2:556)"/>
<path d="M1481.03 2002.38H1400.21V2006.32L1400.21 2006.32L1400.21 2006.33V2006.53H1400.27C1401.5 2008.38 1419.09 2009.85 1440.62 2009.85C1462.15 2009.85 1479.74 2008.38 1480.96 2006.53H1481.03V2002.38Z" fill="url(#paint1_linear_2:556)"/>
<path d="M1878.95 2002.38H1818.02V2005.26C1818.02 2005.27 1818.02 2005.28 1818.02 2005.29C1818.02 2006.66 1831.65 2007.77 1848.48 2007.77C1865.31 2007.77 1878.95 2006.66 1878.95 2005.29L1878.95 2005.28H1878.95V2002.38Z" fill="url(#paint2_linear_2:556)"/>
<g clip-path="url(#clip3_2:556)">
<path fill-rule="evenodd" clip-rule="evenodd" d="M974.336 1993.03C971.171 1991.2 963.345 1983.33 963.345 1981.67C963.345 1980.02 1917.46 1980.02 1917.46 1981.67C1917.46 1983.33 1910.44 1990.51 1906.51 1992.82C1902.59 1995.13 1881.5 2002.38 1880.48 2002.38C1879.46 2002.38 1001.33 2002.38 1000.39 2002.38C999.446 2002.38 977.5 1994.86 974.336 1993.03Z" fill="url(#paint3_linear_2:556)"/>
<path fill-rule="evenodd" clip-rule="evenodd" d="M974.336 1993.03C971.171 1991.2 963.345 1983.33 963.345 1981.67C963.345 1980.02 1917.46 1980.02 1917.46 1981.67C1917.46 1983.33 1910.44 1990.51 1906.51 1992.82C1902.59 1995.13 1881.5 2002.38 1880.48 2002.38C1879.46 2002.38 1001.33 2002.38 1000.39 2002.38C999.446 2002.38 977.5 1994.86 974.336 1993.03Z" fill="url(#paint4_linear_2:556)"/>
<path fill-rule="evenodd" clip-rule="evenodd" d="M963.077 1973.83C963.096 1976.67 963.085 1980.43 963.077 1980.83C962.963 1986.63 988.863 1986.63 1004.78 1986.63H1876.04C1891.96 1986.63 1918.05 1986.63 1917.79 1980.83C1917.77 1980.43 1917.84 1975.36 1917.79 1973.83C1909.47 1960.1 1891.7 1938.06 1891.7 1938.06C1888.38 1932.6 1869.12 1932.68 1865.69 1932.6C1865.69 1932.6 1589.79 1925.29 1440.41 1925.29C1291.08 1925.29 1015.14 1932.6 1015.14 1932.6C1011.71 1932.68 992.783 1932.6 989.124 1938.06C980.699 1951.97 967.864 1965.93 963.077 1973.83Z" fill="url(#paint5_linear_2:556)"/>
<path fill-rule="evenodd" clip-rule="evenodd" d="M963.483 1972.5C959.353 1979.59 987.769 1979.59 1004.78 1979.59H1876.04C1893.06 1979.59 1921.7 1979.59 1917.34 1972.5L1891.7 1930.19C1888.38 1924.72 1869.12 1924.81 1865.69 1924.72C1865.69 1924.72 1589.79 1917.41 1440.41 1917.41C1291.08 1917.41 1015.14 1924.72 1015.14 1924.72C1011.71 1924.81 992.784 1924.72 989.125 1930.19C976.304 1951.34 963.483 1972.5 963.483 1972.5Z" fill="url(#paint6_linear_2:556)"/>
</g>
<path fill-rule="evenodd" clip-rule="evenodd" d="M1440.41 1936.07C1520.76 1936.07 1585.9 1932.73 1585.9 1928.61C1585.9 1924.48 1520.76 1921.14 1440.41 1921.14C1360.06 1921.14 1294.92 1924.48 1294.92 1928.61C1294.92 1932.73 1360.06 1936.07 1440.41 1936.07ZM1440.41 1935.65C1519.16 1935.65 1583 1932.5 1583 1928.61C1583 1924.71 1519.16 1921.56 1440.41 1921.56C1361.66 1921.56 1297.83 1924.71 1297.83 1928.61C1297.83 1932.5 1361.66 1935.65 1440.41 1935.65Z" fill="url(#paint7_linear_2:556)"/>
<path fill-rule="evenodd" clip-rule="evenodd" d="M1565.88 1679.69H1314.7V1927.64C1314.7 1928.1 1315.07 1928.47 1315.53 1928.47H1565.05C1565.51 1928.47 1565.88 1928.1 1565.88 1927.64V1679.69ZM1480.91 1682.17H1399.67V1779.58C1399.67 1799.5 1415.82 1815.64 1435.73 1815.64H1444.85C1464.77 1815.64 1480.91 1799.5 1480.91 1779.58V1682.17Z" fill="url(#paint8_linear_2:556)"/>
<rect x="1323.03" y="1682.33" width="0.528204" height="246.143" fill="url(#paint9_linear_2:556)"/>
<rect x="1557.02" y="1682.33" width="0.528204" height="246.143" fill="url(#paint10_linear_2:556)"/>
</g>
<g clip-path="url(#clip4_2:556)">
<path fill-rule="evenodd" clip-rule="evenodd" d="M0 51.2356V51.2356C0 22.9389 22.9373 0 51.233 0H2829.59C2857.88 0 2880.82 22.9421 2880.82 51.2356V1679.69C2880.82 1707.98 2857.89 1730.92 2829.59 1730.92H51.233C22.939 1730.92 0 1707.98 0 1679.69V51.2356Z" fill="url(#paint11_radial_2:556)"/>
<path d="M10.0359 51.2349V51.2349V1679.69C10.0359 1702.44 28.4805 1720.89 51.233 1720.89H2829.59C2852.34 1720.89 2870.79 1702.44 2870.79 1679.69V51.2349C2870.79 28.4853 2852.34 10.0352 2829.59 10.0352H51.233C28.48 10.0352 10.0359 28.4809 10.0359 51.2349V51.2349Z" fill="url(#paint12_linear_2:556)"/>
<rect x="2554.39" y="1720.89" width="2.11282" height="10.0359" fill="#3F3F3F"/>
<rect x="324.317" y="1720.89" width="2.11282" height="10.0359" fill="#3F3F3F"/>
</g>
</g>
<rect x="88.2101" y="94.0195" width="2704.4" height="1521.23" fill="url(#paint13_linear_2:556)"/>
<rect x="502" y="270.486" width="1878" height="35.5598" fill="black"/>
<path d="M2358.56 288.267L2363.33 293.037L2362.54 293.823L2357.78 289.054L2353.01 293.823L2352.22 293.037L2356.99 288.267L2352.22 283.498L2353.01 282.711L2357.78 287.48L2362.54 282.711L2363.33 283.498L2358.56 288.267Z" fill="white"/>
<path d="M2309.99 282.711V293.823H2298.88V282.711H2309.99ZM2308.88 283.823H2299.99V292.711H2308.88V283.823Z" fill="white"/>
<path d="M2256.65 287.154V288.267H2245.54V287.154H2256.65Z" fill="white"/>
<rect x="502" y="306.047" width="1878" height="1133.47" fill="#131313"/>
<path d="M502 306.047H2380V1439.51H502V306.047Z" fill="#FF0000"/>
<text fill="black" xml:space="preserve" style="white-space: pre" font-family="Roboto" font-size="14.9696" letter-spacing="0em"><tspan x="538.671" y="352.388">name:Windows Screen&#10;</tspan><tspan x="538.671" y="370.388">density: 2&#10;</tspan><tspan x="538.671" y="388.388">screen_size: 1690x1020&#10;</tspan><tspan x="538.671" y="406.388">safe_areas: 0,0,0,0</tspan></text>
</g>
<defs>
<linearGradient id="paint0_linear_2:556" x1="1061.98" y1="1999.69" x2="1001.05" y2="1999.69" gradientUnits="userSpaceOnUse">
<stop stop-color="#1D1D1D"/>
<stop offset="0.173469" stop-color="#363636"/>
<stop offset="0.306202" stop-color="#242424"/>
<stop offset="0.575627" stop-color="#474747"/>
<stop offset="1"/>
</linearGradient>
<linearGradient id="paint1_linear_2:556" x1="1481.03" y1="1998.65" x2="1400.21" y2="1998.65" gradientUnits="userSpaceOnUse">
<stop stop-color="#1D1D1D"/>
<stop offset="0.173469" stop-color="#363636"/>
<stop offset="0.306202" stop-color="#242424"/>
<stop offset="0.575627" stop-color="#474747"/>
<stop offset="1"/>
</linearGradient>
<linearGradient id="paint2_linear_2:556" x1="1878.95" y1="1999.69" x2="1818.02" y2="1999.69" gradientUnits="userSpaceOnUse">
<stop stop-color="#1D1D1D"/>
<stop offset="0.173469" stop-color="#363636"/>
<stop offset="0.306202" stop-color="#242424"/>
<stop offset="0.575627" stop-color="#474747"/>
<stop offset="1"/>
</linearGradient>
<linearGradient id="paint3_linear_2:556" x1="989.967" y1="2002.08" x2="1917.46" y2="2002.08" gradientUnits="userSpaceOnUse">
<stop stop-color="#2A2A2A"/>
<stop offset="0.498645" stop-color="#393939"/>
<stop offset="1" stop-color="#2C2C2C"/>
</linearGradient>
<linearGradient id="paint4_linear_2:556" x1="1201.88" y1="1991.41" x2="1201.88" y2="2002.38" gradientUnits="userSpaceOnUse">
<stop stop-opacity="0.01"/>
<stop offset="1" stop-opacity="0.37316"/>
</linearGradient>
<linearGradient id="paint5_linear_2:556" x1="1917.8" y1="1932.49" x2="963.077" y2="1932.49" gradientUnits="userSpaceOnUse">
<stop stop-color="#494949"/>
<stop offset="0.00548826" stop-color="#E4E4E4"/>
<stop offset="0.0146788" stop-color="white"/>
<stop offset="0.0262518" stop-color="#ECECEC"/>
<stop offset="0.035185" stop-color="#9C9C9C"/>
<stop offset="0.0428973" stop-color="#6C6B6B"/>
<stop offset="0.0502683" stop-color="#6E6E6E"/>
<stop offset="0.0606556" stop-color="#868686"/>
<stop offset="0.0960526" stop-color="#E2E2E2"/>
<stop offset="0.907582" stop-color="#E2E2E2"/>
<stop offset="0.941267" stop-color="#858585"/>
<stop offset="0.959083" stop-color="#777777"/>
<stop offset="0.97214" stop-color="#CBCBCB"/>
<stop offset="0.98448" stop-color="white"/>
<stop offset="0.993451" stop-color="#E4E4E4"/>
<stop offset="1" stop-color="#1C1C1C"/>
</linearGradient>
<linearGradient id="paint6_linear_2:556" x1="1955.7" y1="1922.35" x2="1569.48" y2="1451.3" gradientUnits="userSpaceOnUse">
<stop stop-color="#D1D1D1"/>
<stop offset="0.259865" stop-color="#F5F5F5"/>
<stop offset="0.706852" stop-color="#F4F4F4"/>
<stop offset="1" stop-color="#D2D2D2"/>
</linearGradient>
<linearGradient id="paint7_linear_2:556" x1="1294.92" y1="1936.07" x2="1585.9" y2="1936.07" gradientUnits="userSpaceOnUse">
<stop stop-color="#848484"/>
<stop offset="0.0993312" stop-color="#DDDDDD"/>
<stop offset="0.898922" stop-color="#DDDDDD"/>
<stop offset="1" stop-color="#848484"/>
</linearGradient>
<linearGradient id="paint8_linear_2:556" x1="1326.46" y1="1702.99" x2="1326.46" y2="1928.47" gradientUnits="userSpaceOnUse">
<stop stop-color="#8F8F8F"/>
<stop offset="0.328727" stop-color="#BDBDBD"/>
<stop offset="0.592228" stop-color="#C9C9C9"/>
<stop offset="1" stop-color="#DEDEDE"/>
</linearGradient>
<linearGradient id="paint9_linear_2:556" x1="1323.03" y1="1682.33" x2="1323.03" y2="1923.56" gradientUnits="userSpaceOnUse">
<stop stop-color="#777777"/>
<stop offset="1" stop-color="#D1D1D1"/>
</linearGradient>
<linearGradient id="paint10_linear_2:556" x1="1557.03" y1="1682.33" x2="1557.03" y2="1923.56" gradientUnits="userSpaceOnUse">
<stop stop-color="#777777"/>
<stop offset="1" stop-color="#D1D1D1"/>
</linearGradient>
<radialGradient id="paint11_radial_2:556" cx="0" cy="0" r="1" gradientUnits="userSpaceOnUse" gradientTransform="translate(1440.41 865.462) scale(1440.41 865.462)">
<stop stop-color="#BFBFBF"/>
<stop offset="0.110766" stop-color="#BFBFBF"/>
<stop offset="0.124129" stop-color="#F5F5F5"/>
<stop offset="0.136474" stop-color="#BFBFBF"/>
<stop offset="0.365401" stop-color="#BFBFBF"/>
<stop offset="0.376459" stop-color="#E8E8E8"/>
<stop offset="0.388172" stop-color="#BFBFBF"/>
<stop offset="0.559436" stop-color="#BFBFBF"/>
<stop offset="0.614254" stop-color="#F2F2F2"/>
<stop offset="0.6392" stop-color="#BFBFBF"/>
<stop offset="0.853366" stop-color="#BFBFBF"/>
<stop offset="0.877624" stop-color="#F2F2F2"/>
<stop offset="0.908839" stop-color="#BFBFBF"/>
<stop offset="0.95123" stop-color="#BFBFBF"/>
<stop offset="1" stop-color="#BFBFBF"/>
</radialGradient>
<linearGradient id="paint12_linear_2:556" x1="1712.42" y1="-211.227" x2="1556.61" y2="836.725" gradientUnits="userSpaceOnUse">
<stop stop-color="#2C2C2C"/>
<stop offset="1" stop-color="#1B1B1B"/>
</linearGradient>
<linearGradient id="paint13_linear_2:556" x1="1440.41" y1="94.0195" x2="1440.41" y2="1615.25" gradientUnits="userSpaceOnUse">
<stop stop-color="#221D29"/>
<stop offset="1" stop-color="#293251"/>
</linearGradient>
<clipPath id="clip0_2:556">
<rect width="2880.82" height="2032" fill="white"/>
</clipPath>
<clipPath id="clip1_2:556">
<rect width="2880.82" height="2306.67" fill="white"/>
</clipPath>
<clipPath id="clip2_2:556">
<rect width="954.992" height="454.285" fill="white" transform="translate(962.916 1555.56)"/>
</clipPath>
<clipPath id="clip3_2:556">
<rect width="954.992" height="84.9711" fill="white" transform="translate(962.916 1917.41)"/>
</clipPath>
<clipPath id="clip4_2:556">
<rect width="2880.82" height="1730.92" fill="white"/>
</clipPath>
</defs>
</svg>
