<svg width="2008" height="2911" viewBox="0 0 2008 2911" fill="none" xmlns="http://www.w3.org/2000/svg">
<g clip-path="url(#clip0_82:166)">
<path fill-rule="evenodd" clip-rule="evenodd" d="M2007.94 2850.6L2007.94 2729.39C2007.94 2728.66 2007.35 2728.07 2006.62 2728.07L2006.62 182.932C2007.35 182.932 2007.94 182.338 2007.94 181.606L2007.94 60.7347C2007.94 27.1919 1980.75 -1.18859e-06 1947.21 -2.65485e-06L61.7346 -8.50716e-05C28.1905 -8.65378e-05 0.998653 27.1918 0.998652 60.7346L0.99853 2849.78C0.998529 2883.45 28.547 2911 62.217 2911L1947.55 2911C1980.91 2911 2007.94 2883.96 2007.94 2850.6" fill="url(#paint0_linear_82:166)"/>
<path fill-rule="evenodd" clip-rule="evenodd" d="M2007.94 2850.6L2007.94 2729.39C2007.94 2728.66 2007.35 2728.07 2006.62 2728.07L2006.62 182.932C2007.35 182.932 2007.94 182.338 2007.94 181.606L2007.94 60.7347C2007.94 27.1919 1980.75 -1.18859e-06 1947.21 -2.65485e-06L61.7346 -8.50716e-05C28.1905 -8.65378e-05 0.998653 27.1918 0.998652 60.7346L0.99853 2849.78C0.998529 2883.45 28.547 2911 62.217 2911L1947.55 2911C1980.91 2911 2007.94 2883.96 2007.94 2850.6" fill="url(#paint1_radial_82:166)"/>
<path fill-rule="evenodd" clip-rule="evenodd" d="M2007.94 2850.6L2007.94 2729.39C2007.94 2728.66 2007.35 2728.07 2006.62 2728.07L2006.62 182.932C2007.35 182.932 2007.94 182.338 2007.94 181.606L2007.94 60.7347C2007.94 27.1919 1980.75 -1.18859e-06 1947.21 -2.65485e-06L61.7346 -8.50716e-05C28.1905 -8.65378e-05 0.998653 27.1918 0.998652 60.7346L0.99853 2849.78C0.998529 2883.45 28.547 2911 62.217 2911L1947.55 2911C1980.91 2911 2007.94 2883.96 2007.94 2850.6" fill="url(#paint2_radial_82:166)"/>
<path fill-rule="evenodd" clip-rule="evenodd" d="M2007.94 2850.6L2007.94 2729.39C2007.94 2728.66 2007.35 2728.07 2006.62 2728.07L2006.62 182.932C2007.35 182.932 2007.94 182.338 2007.94 181.606L2007.94 60.7347C2007.94 27.1919 1980.75 -1.18859e-06 1947.21 -2.65485e-06L61.7346 -8.50716e-05C28.1905 -8.65378e-05 0.998653 27.1918 0.998652 60.7346L0.99853 2849.78C0.998529 2883.45 28.547 2911 62.217 2911L1947.55 2911C1980.91 2911 2007.94 2883.96 2007.94 2850.6" fill="url(#paint3_radial_82:166)"/>
<path fill-rule="evenodd" clip-rule="evenodd" d="M2007.94 2850.6L2007.94 2729.39C2007.94 2728.66 2007.35 2728.07 2006.62 2728.07L2006.62 182.932C2007.35 182.932 2007.94 182.338 2007.94 181.606L2007.94 60.7347C2007.94 27.1919 1980.75 -1.18859e-06 1947.21 -2.65485e-06L61.7346 -8.50716e-05C28.1905 -8.65378e-05 0.998653 27.1918 0.998652 60.7346L0.99853 2849.78C0.998529 2883.45 28.547 2911 62.217 2911L1947.55 2911C1980.91 2911 2007.94 2883.96 2007.94 2850.6" fill="url(#paint4_radial_82:166)"/>
<path fill-rule="evenodd" clip-rule="evenodd" d="M2007.94 2850.6L2007.94 2729.39C2007.94 2728.66 2007.35 2728.07 2006.62 2728.07L2006.62 182.932C2007.35 182.932 2007.94 182.338 2007.94 181.606L2007.94 60.7347C2007.94 27.1919 1980.75 -1.18859e-06 1947.21 -2.65485e-06L61.7346 -8.50716e-05C28.1905 -8.65378e-05 0.998653 27.1918 0.998652 60.7346L0.99853 2849.78C0.998529 2883.45 28.547 2911 62.217 2911L1947.55 2911C1980.91 2911 2007.94 2883.96 2007.94 2850.6" fill="url(#paint5_linear_82:166)"/>
<path fill-rule="evenodd" clip-rule="evenodd" d="M2007.94 2850.6L2007.94 2729.39C2007.94 2728.66 2007.35 2728.07 2006.62 2728.07L2006.62 182.932C2007.35 182.932 2007.94 182.338 2007.94 181.606L2007.94 60.7347C2007.94 27.1919 1980.75 -1.18859e-06 1947.21 -2.65485e-06L61.7346 -8.50716e-05C28.1905 -8.65378e-05 0.998653 27.1918 0.998652 60.7346L0.99853 2849.78C0.998529 2883.45 28.547 2911 62.217 2911L1947.55 2911C1980.91 2911 2007.94 2883.96 2007.94 2850.6" fill="url(#paint6_linear_82:166)" style="mix-blend-mode:multiply"/>
<path d="M1594.4 2901.06C1597.61 2901.06 1600.73 2900.12 1603.39 2898.41H1850.45C1853.11 2900.12 1856.23 2901.06 1859.44 2901.06H1946.97C1975.15 2901.06 1998 2878.21 1998 2850.02L1998 60.9771C1998 32.7922 1975.15 9.94178 1946.97 9.94178L1859.44 9.94177C1856.23 9.94177 1853.11 10.8758 1850.45 12.5925L1603.39 12.5925C1600.73 10.8758 1597.61 9.94176 1594.4 9.94176L61.9756 9.9417C33.7907 9.94169 10.9404 32.7921 10.9404 60.977L10.9402 2850.02C10.9402 2878.21 33.7906 2901.06 61.9755 2901.06H1594.4Z" stroke="url(#paint7_linear_82:166)" stroke-width="1.32559"/>
<rect x="1863.45" y="13.2549" width="71.582" height="288.979" transform="rotate(90 1863.45 13.2549)" fill="#111111"/>
<rect x="1863.45" y="2826.16" width="71.582" height="288.979" transform="rotate(90 1863.45 2826.16)" fill="#111111"/>
<path fill-rule="evenodd" clip-rule="evenodd" d="M1848.19 2895.74C1851.17 2898.72 1855.22 2900.39 1859.44 2900.39L1946.97 2900.39C1974.79 2900.39 1997.34 2877.84 1997.34 2850.02L1997.34 60.977C1997.34 33.1581 1974.79 10.6045 1946.97 10.6045L1859.44 10.6045C1855.22 10.6045 1851.18 12.2814 1848.19 15.2639L1837.63 25.8302C1834.64 28.8128 1830.6 30.4884 1826.38 30.4884L1627.46 30.4884C1623.24 30.4884 1619.2 28.8128 1616.21 25.8302L1605.65 15.2639C1602.66 12.2813 1598.62 10.6045 1594.4 10.6045L61.9757 10.6044C34.1568 10.6044 11.6032 33.158 11.6032 60.9769L11.6031 2850.02C11.6031 2877.84 34.1567 2900.39 61.9756 2900.39L1594.4 2900.39C1598.62 2900.39 1602.66 2898.72 1605.65 2895.74L1616.21 2885.17C1619.2 2882.19 1623.24 2880.51 1627.46 2880.51L1826.38 2880.51C1830.6 2880.51 1834.64 2882.19 1837.63 2885.17L1848.19 2895.74Z" fill="url(#paint8_linear_82:166)"/>
<rect x="1860.8" y="174.978" width="2561.04" height="1715.32" transform="rotate(90 1860.8 174.978)" fill="#2A2929"/>
<g clip-path="url(#clip1_82:166)">
<g opacity="0.5" clip-path="url(#clip2_82:166)">
<circle cx="1924.43" cy="1455.5" r="22.5351" transform="rotate(90 1924.43 1455.5)" fill="url(#paint9_radial_82:166)"/>
<circle cx="1924.43" cy="1455.5" r="10.6047" transform="rotate(90 1924.43 1455.5)" fill="url(#paint10_linear_82:166)"/>
</g>
<circle cx="1923.77" cy="1525.09" r="9.94194" transform="rotate(90 1923.77 1525.09)" fill="#212121"/>
<circle cx="1923.77" cy="1525.09" r="9.94194" transform="rotate(90 1923.77 1525.09)" fill="url(#paint11_linear_82:166)"/>
<g clip-path="url(#clip3_82:166)">
<circle opacity="0.2" cx="1924.43" cy="1580.1" r="7.95355" transform="rotate(90 1924.43 1580.1)" fill="url(#paint12_linear_82:166)"/>
<circle opacity="0.6" cx="1924.43" cy="1580.11" r="5.30237" transform="rotate(90 1924.43 1580.11)" fill="#0A0A0A"/>
</g>
</g>
<path fill-rule="evenodd" clip-rule="evenodd" d="M1030.93 2808.73C1032.87 2820.61 1034.56 2832.72 1036.25 2844.6H1004.82C1004.82 2832.72 1004.58 2820.61 1004.58 2808.73L1030.93 2808.73ZM1026.82 2778.44C1028.27 2787.41 1029.48 2796.37 1030.45 2805.58L1004.58 2805.58C1004.58 2796.37 1004.34 2787.41 1004.34 2778.44L1026.82 2778.44ZM1001.68 2778.44C1001.68 2787.41 1001.44 2796.37 1001.68 2805.58L975.567 2805.58C976.776 2796.37 977.985 2787.41 979.194 2778.44L1001.68 2778.44ZM1001.44 2808.73L1001.44 2844.6H970.006C971.941 2832.72 973.391 2820.61 975.084 2808.73L1001.44 2808.73Z" fill="white"/>
<path fill-rule="evenodd" clip-rule="evenodd" d="M1030.93 2808.73C1032.87 2820.61 1034.56 2832.72 1036.25 2844.6H1004.82C1004.82 2832.72 1004.58 2820.61 1004.58 2808.73L1030.93 2808.73ZM1026.82 2778.44C1028.27 2787.41 1029.48 2796.37 1030.45 2805.58L1004.58 2805.58C1004.58 2796.37 1004.34 2787.41 1004.34 2778.44L1026.82 2778.44ZM1001.68 2778.44C1001.68 2787.41 1001.44 2796.37 1001.68 2805.58L975.567 2805.58C976.776 2796.37 977.985 2787.41 979.194 2778.44L1001.68 2778.44ZM1001.44 2808.73L1001.44 2844.6H970.006C971.941 2832.72 973.391 2820.61 975.084 2808.73L1001.44 2808.73Z" fill="url(#paint13_linear_82:166)"/>
</g>
<path d="M1852.85 182.932L1852.85 2728.07H156.094L156.094 182.932L1852.85 182.932Z" fill="#FF0000"/>
<text fill="black" xml:space="preserve" style="white-space: pre" font-family="Roboto" font-size="13.471" letter-spacing="0em"><tspan x="237.416" y="263.166">name:Microsoft Surface 3&#10;</tspan><tspan x="237.416" y="279.166">density: 1&#10;</tspan><tspan x="237.416" y="295.166">screen_size: 1280x1920&#10;</tspan><tspan x="237.416" y="311.166">safe_areas: 0,20,0,0|0,20,0,0</tspan></text>
<defs>
<linearGradient id="paint0_linear_82:166" x1="2007.94" y1="0" x2="0.998657" y2="-8.77264e-05" gradientUnits="userSpaceOnUse">
<stop stop-color="#C1C1C1"/>
<stop offset="1" stop-color="#909090"/>
</linearGradient>
<radialGradient id="paint1_radial_82:166" cx="0" cy="0" r="1" gradientUnits="userSpaceOnUse" gradientTransform="translate(2007.94) rotate(-180) scale(194.852 282.625)">
<stop stop-color="white"/>
<stop offset="1" stop-color="white" stop-opacity="0.01"/>
</radialGradient>
<radialGradient id="paint2_radial_82:166" cx="0" cy="0" r="1" gradientUnits="userSpaceOnUse" gradientTransform="translate(2007.94 2911) rotate(-180) scale(194.852 282.625)">
<stop stop-color="white"/>
<stop offset="1" stop-color="white" stop-opacity="0.01"/>
</radialGradient>
<radialGradient id="paint3_radial_82:166" cx="0" cy="0" r="1" gradientUnits="userSpaceOnUse" gradientTransform="translate(1004.47 1455.5) rotate(-180) scale(619.552 2826.61)">
<stop stop-color="white" stop-opacity="0.01"/>
<stop offset="1" stop-color="white" stop-opacity="0.5"/>
</radialGradient>
<radialGradient id="paint4_radial_82:166" cx="0" cy="0" r="1" gradientUnits="userSpaceOnUse" gradientTransform="translate(0.998595 1425.3) rotate(-180) scale(661.139 2517.05)">
<stop/>
<stop offset="1" stop-opacity="0.01"/>
</radialGradient>
<linearGradient id="paint5_linear_82:166" x1="65.6833" y1="1408.59" x2="0.998596" y2="1408.59" gradientUnits="userSpaceOnUse">
<stop stop-color="white" stop-opacity="0.5"/>
<stop offset="1" stop-opacity="0.5"/>
</linearGradient>
<linearGradient id="paint6_linear_82:166" x1="2007.94" y1="0" x2="0.998657" y2="-8.77264e-05" gradientUnits="userSpaceOnUse">
<stop stop-color="white" stop-opacity="0.5"/>
<stop offset="0.0254035" stop-color="white" stop-opacity="0.5"/>
<stop offset="0.045714" stop-opacity="0.5"/>
<stop offset="0.0983374" stop-opacity="0.5"/>
<stop offset="0.16883" stop-color="#7A7777" stop-opacity="0.5"/>
<stop offset="0.191128" stop-opacity="0.5"/>
<stop offset="0.341913" stop-color="white" stop-opacity="0.5"/>
<stop offset="1" stop-color="white" stop-opacity="0.5"/>
</linearGradient>
<linearGradient id="paint7_linear_82:166" x1="1997.34" y1="10.6045" x2="11.6033" y2="10.6044" gradientUnits="userSpaceOnUse">
<stop stop-color="white" stop-opacity="0.3"/>
<stop offset="1" stop-color="white" stop-opacity="0.01"/>
</linearGradient>
<linearGradient id="paint8_linear_82:166" x1="1997.34" y1="10.6045" x2="11.6033" y2="10.6044" gradientUnits="userSpaceOnUse">
<stop stop-color="#212121"/>
<stop offset="0.218653" stop-color="#0C0C0C"/>
<stop offset="1" stop-color="#151514"/>
</linearGradient>
<radialGradient id="paint9_radial_82:166" cx="0" cy="0" r="1" gradientUnits="userSpaceOnUse" gradientTransform="translate(1940.93 1481.43) rotate(54.9612) scale(49.8513)">
<stop stop-color="#818181"/>
<stop offset="1" stop-color="#333536"/>
</radialGradient>
<linearGradient id="paint10_linear_82:166" x1="1913.83" y1="1444.9" x2="1913.83" y2="1466.1" gradientUnits="userSpaceOnUse">
<stop stop-color="#3343AC"/>
<stop offset="1" stop-color="#1E2462"/>
</linearGradient>
<linearGradient id="paint11_linear_82:166" x1="1911.17" y1="1518.8" x2="1918.47" y2="1538.68" gradientUnits="userSpaceOnUse">
<stop stop-color="white" stop-opacity="0.5"/>
<stop offset="1" stop-opacity="0.01"/>
</linearGradient>
<linearGradient id="paint12_linear_82:166" x1="1912.83" y1="1576.29" x2="1921.12" y2="1592.2" gradientUnits="userSpaceOnUse">
<stop/>
<stop offset="1" stop-color="#111111"/>
</linearGradient>
<linearGradient id="paint13_linear_82:166" x1="1036.25" y1="2778.44" x2="970.007" y2="2778.44" gradientUnits="userSpaceOnUse">
<stop stop-color="white" stop-opacity="0.5"/>
<stop offset="1" stop-opacity="0.5"/>
</linearGradient>
<clipPath id="clip0_82:166">
<rect width="2911" height="2006.95" fill="white" transform="translate(2007.94) rotate(90)"/>
</clipPath>
<clipPath id="clip1_82:166">
<rect width="155.094" height="45.0701" fill="white" transform="translate(1946.97 1432.96) rotate(90)"/>
</clipPath>
<clipPath id="clip2_82:166">
<rect width="45.0701" height="45.0701" fill="white" transform="translate(1946.97 1432.96) rotate(90)"/>
</clipPath>
<clipPath id="clip3_82:166">
<rect width="15.9071" height="15.9071" fill="white" transform="translate(1932.39 1572.15) rotate(90)"/>
</clipPath>
</defs>
</svg>
