<svg width="2230" height="2032" viewBox="0 0 2230 2032" fill="none" xmlns="http://www.w3.org/2000/svg">
<g clip-path="url(#clip0)">
<g clip-path="url(#clip1)">
<g clip-path="url(#clip2)">
<g filter="url(#filter0_iii)">
<path fill-rule="evenodd" clip-rule="evenodd" d="M735.549 2024.57H674.619V2027.46C674.619 2027.46 674.619 2027.47 674.619 2027.47C674.619 2028.84 688.258 2029.96 705.084 2029.96C721.909 2029.96 735.549 2028.84 735.549 2027.47H735.549V2024.57Z" fill="url(#paint0_linear)"/>
</g>
<g filter="url(#filter1_iii)">
<path fill-rule="evenodd" clip-rule="evenodd" d="M1154.6 2024.57H1073.78V2028.49C1073.78 2028.5 1073.78 2028.5 1073.78 2028.51C1073.78 2028.51 1073.78 2028.52 1073.78 2028.52V2028.71H1073.84C1075.08 2030.56 1092.67 2032.03 1114.19 2032.03C1135.71 2032.03 1153.3 2030.56 1154.53 2028.71H1154.6V2024.57Z" fill="url(#paint1_linear)"/>
</g>
<g filter="url(#filter2_iii)">
<path fill-rule="evenodd" clip-rule="evenodd" d="M1552.52 2024.57H1491.59V2027.45C1491.59 2027.46 1491.58 2027.46 1491.58 2027.47C1491.58 2028.84 1505.22 2029.96 1522.05 2029.96C1538.88 2029.96 1552.51 2028.84 1552.52 2027.47H1552.52V2024.57Z" fill="url(#paint2_linear)"/>
</g>
<g clip-path="url(#clip3)">
<g filter="url(#filter3_ii)">
<path fill-rule="evenodd" clip-rule="evenodd" d="M647.906 2015.21C644.742 2013.38 636.916 2005.51 636.916 2003.86C636.916 2002.2 1591.03 2002.2 1591.03 2003.86C1591.03 2005.51 1584.01 2012.69 1580.08 2015C1576.16 2017.31 1555.07 2024.57 1554.05 2024.57C1553.03 2024.57 674.895 2024.57 673.956 2024.57C673.016 2024.57 651.07 2017.04 647.906 2015.21Z" fill="url(#paint3_linear)"/>
<path fill-rule="evenodd" clip-rule="evenodd" d="M647.906 2015.21C644.742 2013.38 636.916 2005.51 636.916 2003.86C636.916 2002.2 1591.03 2002.2 1591.03 2003.86C1591.03 2005.51 1584.01 2012.69 1580.08 2015C1576.16 2017.31 1555.07 2024.57 1554.05 2024.57C1553.03 2024.57 674.895 2024.57 673.956 2024.57C673.016 2024.57 651.07 2017.04 647.906 2015.21Z" fill="url(#paint4_linear)"/>
</g>
<path fill-rule="evenodd" clip-rule="evenodd" d="M636.647 1996.01C636.666 1998.85 636.655 2002.61 636.647 2003.01C636.532 2008.82 662.433 2008.82 678.352 2008.82H1549.61C1565.53 2008.82 1591.62 2008.82 1591.35 2003.02C1591.34 2002.61 1591.41 1997.54 1591.35 1996.01C1583.04 1982.29 1565.27 1960.25 1565.27 1960.25C1561.95 1954.78 1542.69 1954.87 1539.26 1954.78C1539.26 1954.78 1263.36 1947.47 1113.98 1947.47C964.65 1947.47 688.706 1954.78 688.706 1954.78C685.276 1954.86 666.353 1954.78 662.693 1960.25C654.268 1974.15 641.434 1988.11 636.647 1996.01Z" fill="url(#paint5_linear)"/>
<g filter="url(#filter4_d)">
<path fill-rule="evenodd" clip-rule="evenodd" d="M637.052 1994.68C632.921 2001.77 661.337 2001.77 678.352 2001.77H1549.61C1566.63 2001.77 1595.27 2001.77 1590.91 1994.68L1565.27 1952.37C1561.95 1946.91 1542.69 1946.99 1539.26 1946.91C1539.26 1946.91 1263.36 1939.6 1113.98 1939.6C964.651 1939.6 688.706 1946.91 688.706 1946.91C685.276 1946.99 666.353 1946.91 662.693 1952.37C649.872 1973.53 637.052 1994.68 637.052 1994.68Z" fill="url(#paint6_linear)"/>
</g>
<mask id="mask0" mask-type="alpha" maskUnits="userSpaceOnUse" x="636" y="1939" width="956" height="63">
<path fill-rule="evenodd" clip-rule="evenodd" d="M637.052 1994.68C632.921 2001.77 661.337 2001.77 678.352 2001.77H1549.61C1566.63 2001.77 1595.27 2001.77 1590.91 1994.68L1565.27 1952.37C1561.95 1946.91 1542.69 1946.99 1539.26 1946.91C1539.26 1946.91 1263.36 1939.6 1113.98 1939.6C964.651 1939.6 688.706 1946.91 688.706 1946.91C685.276 1946.99 666.353 1946.91 662.693 1952.37C649.872 1973.53 637.052 1994.68 637.052 1994.68Z" fill="white"/>
</mask>
<g mask="url(#mask0)">
</g>
</g>
<path fill-rule="evenodd" clip-rule="evenodd" d="M1113.98 1958.25C1194.33 1958.25 1259.47 1954.91 1259.47 1950.79C1259.47 1946.67 1194.33 1943.33 1113.98 1943.33C1033.63 1943.33 968.495 1946.67 968.495 1950.79C968.495 1954.91 1033.63 1958.25 1113.98 1958.25ZM1113.98 1957.83C1192.73 1957.83 1256.57 1954.68 1256.57 1950.79C1256.57 1946.9 1192.73 1943.74 1113.98 1943.74C1035.23 1943.74 971.396 1946.9 971.396 1950.79C971.396 1954.68 1035.23 1957.83 1113.98 1957.83Z" fill="url(#paint7_linear)"/>
<path fill-rule="evenodd" clip-rule="evenodd" d="M1239.45 1701.87H988.269V1949.83C988.269 1950.28 988.64 1950.66 989.098 1950.66H1238.62C1239.08 1950.66 1239.45 1950.28 1239.45 1949.83V1701.87ZM1154.48 1704.36H1073.24V1801.77C1073.24 1821.68 1089.39 1837.83 1109.3 1837.83H1118.42C1138.34 1837.83 1154.48 1821.68 1154.48 1801.77V1704.36Z" fill="url(#paint8_linear)"/>
<rect x="996.599" y="1704.51" width="0.528204" height="246.143" fill="url(#paint9_linear)"/>
<rect x="1230.59" y="1704.51" width="0.528204" height="246.143" fill="url(#paint10_linear)"/>
</g>
<g filter="url(#filter5_i)">
<path fill-rule="evenodd" clip-rule="evenodd" d="M0 51.2356C0 22.9389 22.9373 0 51.233 0H2177.78C2206.08 0 2229.02 22.9421 2229.02 51.2356V1679.69C2229.02 1707.98 2206.08 1730.92 2177.78 1730.92H51.233C22.939 1730.92 0 1707.98 0 1679.69V51.2356Z" fill="url(#paint11_angular)"/>
</g>
<g filter="url(#filter6_di)">
<path d="M10.0359 51.2358V1679.69C10.0359 1702.44 28.4805 1720.89 51.233 1720.89H2177.26C2200.01 1720.89 2218.45 1702.44 2218.45 1679.69V51.2358C2218.45 28.4863 2200.01 10.0361 2177.26 10.0361H51.233C28.48 10.0361 10.0359 28.4819 10.0359 51.2358Z" fill="url(#paint12_linear)"/>
</g>
<rect x="324.317" y="1720.89" width="2.11282" height="10.0359" fill="#3F3F3F"/>
</g>
<rect x="88.2102" y="94.0205" width="2028.3" height="1521.23" fill="url(#paint13_linear)"/>
<rect x="257" y="339" width="1690" height="32" fill="black"/>
<path d="M1927.71 355L1932 359.292L1931.29 360L1927 355.708L1922.71 360L1922 359.292L1926.29 355L1922 350.708L1922.71 350L1927 354.292L1931.29 350L1932 350.708L1927.71 355Z" fill="white"/>
<path d="M1884 350V360H1874V350H1884ZM1883 351.001H1875V358.999H1883V351.001Z" fill="white"/>
<path d="M1836 353.999V355H1826V353.999H1836Z" fill="white"/>
<rect x="257" y="371" width="1690" height="1020" fill="#131313"/>
<path d="M257 371H1947V1391H257V371Z" fill="#FF0000"/>
<text fill="black" xml:space="preserve" style="white-space: pre" font-family="Roboto" font-size="13.471" letter-spacing="0em"><tspan x="276" y="401.604">name:Windows Screen (4/3)&#10;</tspan><tspan x="276" y="417.604">density: 2&#10;</tspan><tspan x="276" y="433.604">screen_size: 1690x1020&#10;</tspan><tspan x="276" y="449.604">safe_areas: 0,0,0,0</tspan></text>
</g>
<defs>
<filter id="filter0_iii" x="674.619" y="2024.15" width="60.9308" height="6.21732" filterUnits="userSpaceOnUse" color-interpolation-filters="sRGB">
<feFlood flood-opacity="0" result="BackgroundImageFix"/>
<feBlend mode="normal" in="SourceGraphic" in2="BackgroundImageFix" result="shape"/>
<feColorMatrix in="SourceAlpha" type="matrix" values="0 0 0 0 0 0 0 0 0 0 0 0 0 0 0 0 0 0 127 0" result="hardAlpha"/>
<feOffset dy="0.414493"/>
<feGaussianBlur stdDeviation="1.03623"/>
<feComposite in2="hardAlpha" operator="arithmetic" k2="-1" k3="1"/>
<feColorMatrix type="matrix" values="0 0 0 0 1 0 0 0 0 1 0 0 0 0 1 0 0 0 0.231686 0"/>
<feBlend mode="normal" in2="shape" result="effect1_innerShadow"/>
<feColorMatrix in="SourceAlpha" type="matrix" values="0 0 0 0 0 0 0 0 0 0 0 0 0 0 0 0 0 0 127 0" result="hardAlpha"/>
<feOffset dy="0.414493"/>
<feGaussianBlur stdDeviation="0.62174"/>
<feComposite in2="hardAlpha" operator="arithmetic" k2="-1" k3="1"/>
<feColorMatrix type="matrix" values="0 0 0 0 0 0 0 0 0 0 0 0 0 0 0 0 0 0 0.613026 0"/>
<feBlend mode="normal" in2="effect1_innerShadow" result="effect2_innerShadow"/>
<feColorMatrix in="SourceAlpha" type="matrix" values="0 0 0 0 0 0 0 0 0 0 0 0 0 0 0 0 0 0 127 0" result="hardAlpha"/>
<feOffset dy="-1.24348"/>
<feGaussianBlur stdDeviation="0.207247"/>
<feComposite in2="hardAlpha" operator="arithmetic" k2="-1" k3="1"/>
<feColorMatrix type="matrix" values="0 0 0 0 0 0 0 0 0 0 0 0 0 0 0 0 0 0 0.449643 0"/>
<feBlend mode="normal" in2="effect2_innerShadow" result="effect3_innerShadow"/>
</filter>
<filter id="filter1_iii" x="1073.78" y="2024.15" width="80.8265" height="8.28978" filterUnits="userSpaceOnUse" color-interpolation-filters="sRGB">
<feFlood flood-opacity="0" result="BackgroundImageFix"/>
<feBlend mode="normal" in="SourceGraphic" in2="BackgroundImageFix" result="shape"/>
<feColorMatrix in="SourceAlpha" type="matrix" values="0 0 0 0 0 0 0 0 0 0 0 0 0 0 0 0 0 0 127 0" result="hardAlpha"/>
<feOffset dy="0.414493"/>
<feGaussianBlur stdDeviation="1.03623"/>
<feComposite in2="hardAlpha" operator="arithmetic" k2="-1" k3="1"/>
<feColorMatrix type="matrix" values="0 0 0 0 1 0 0 0 0 1 0 0 0 0 1 0 0 0 0.231686 0"/>
<feBlend mode="normal" in2="shape" result="effect1_innerShadow"/>
<feColorMatrix in="SourceAlpha" type="matrix" values="0 0 0 0 0 0 0 0 0 0 0 0 0 0 0 0 0 0 127 0" result="hardAlpha"/>
<feOffset dy="0.414493"/>
<feGaussianBlur stdDeviation="0.62174"/>
<feComposite in2="hardAlpha" operator="arithmetic" k2="-1" k3="1"/>
<feColorMatrix type="matrix" values="0 0 0 0 0 0 0 0 0 0 0 0 0 0 0 0 0 0 0.613026 0"/>
<feBlend mode="normal" in2="effect1_innerShadow" result="effect2_innerShadow"/>
<feColorMatrix in="SourceAlpha" type="matrix" values="0 0 0 0 0 0 0 0 0 0 0 0 0 0 0 0 0 0 127 0" result="hardAlpha"/>
<feOffset dy="-1.24348"/>
<feGaussianBlur stdDeviation="0.207247"/>
<feComposite in2="hardAlpha" operator="arithmetic" k2="-1" k3="1"/>
<feColorMatrix type="matrix" values="0 0 0 0 0 0 0 0 0 0 0 0 0 0 0 0 0 0 0.449643 0"/>
<feBlend mode="normal" in2="effect2_innerShadow" result="effect3_innerShadow"/>
</filter>
<filter id="filter2_iii" x="1491.58" y="2024.15" width="60.9311" height="6.21732" filterUnits="userSpaceOnUse" color-interpolation-filters="sRGB">
<feFlood flood-opacity="0" result="BackgroundImageFix"/>
<feBlend mode="normal" in="SourceGraphic" in2="BackgroundImageFix" result="shape"/>
<feColorMatrix in="SourceAlpha" type="matrix" values="0 0 0 0 0 0 0 0 0 0 0 0 0 0 0 0 0 0 127 0" result="hardAlpha"/>
<feOffset dy="0.414493"/>
<feGaussianBlur stdDeviation="1.03623"/>
<feComposite in2="hardAlpha" operator="arithmetic" k2="-1" k3="1"/>
<feColorMatrix type="matrix" values="0 0 0 0 1 0 0 0 0 1 0 0 0 0 1 0 0 0 0.231686 0"/>
<feBlend mode="normal" in2="shape" result="effect1_innerShadow"/>
<feColorMatrix in="SourceAlpha" type="matrix" values="0 0 0 0 0 0 0 0 0 0 0 0 0 0 0 0 0 0 127 0" result="hardAlpha"/>
<feOffset dy="0.414493"/>
<feGaussianBlur stdDeviation="0.62174"/>
<feComposite in2="hardAlpha" operator="arithmetic" k2="-1" k3="1"/>
<feColorMatrix type="matrix" values="0 0 0 0 0 0 0 0 0 0 0 0 0 0 0 0 0 0 0.613026 0"/>
<feBlend mode="normal" in2="effect1_innerShadow" result="effect2_innerShadow"/>
<feColorMatrix in="SourceAlpha" type="matrix" values="0 0 0 0 0 0 0 0 0 0 0 0 0 0 0 0 0 0 127 0" result="hardAlpha"/>
<feOffset dy="-1.24348"/>
<feGaussianBlur stdDeviation="0.207247"/>
<feComposite in2="hardAlpha" operator="arithmetic" k2="-1" k3="1"/>
<feColorMatrix type="matrix" values="0 0 0 0 0 0 0 0 0 0 0 0 0 0 0 0 0 0 0.449643 0"/>
<feBlend mode="normal" in2="effect2_innerShadow" result="effect3_innerShadow"/>
</filter>
<filter id="filter3_ii" x="634.429" y="2002.62" width="959.093" height="21.9531" filterUnits="userSpaceOnUse" color-interpolation-filters="sRGB">
<feFlood flood-opacity="0" result="BackgroundImageFix"/>
<feBlend mode="normal" in="SourceGraphic" in2="BackgroundImageFix" result="shape"/>
<feColorMatrix in="SourceAlpha" type="matrix" values="0 0 0 0 0 0 0 0 0 0 0 0 0 0 0 0 0 0 127 0" result="hardAlpha"/>
<feOffset dx="4.14493"/>
<feGaussianBlur stdDeviation="1.24348"/>
<feComposite in2="hardAlpha" operator="arithmetic" k2="-1" k3="1"/>
<feColorMatrix type="matrix" values="0 0 0 0 0 0 0 0 0 0 0 0 0 0 0 0 0 0 0.502293 0"/>
<feBlend mode="normal" in2="shape" result="effect1_innerShadow"/>
<feColorMatrix in="SourceAlpha" type="matrix" values="0 0 0 0 0 0 0 0 0 0 0 0 0 0 0 0 0 0 127 0" result="hardAlpha"/>
<feOffset dx="-4.14493"/>
<feGaussianBlur stdDeviation="1.24348"/>
<feComposite in2="hardAlpha" operator="arithmetic" k2="-1" k3="1"/>
<feColorMatrix type="matrix" values="0 0 0 0 0 0 0 0 0 0 0 0 0 0 0 0 0 0 0.502293 0"/>
<feBlend mode="normal" in2="effect1_innerShadow" result="effect2_innerShadow"/>
</filter>
<filter id="filter4_d" x="636.232" y="1939.6" width="955.539" height="63.832" filterUnits="userSpaceOnUse" color-interpolation-filters="sRGB">
<feFlood flood-opacity="0" result="BackgroundImageFix"/>
<feColorMatrix in="SourceAlpha" type="matrix" values="0 0 0 0 0 0 0 0 0 0 0 0 0 0 0 0 0 0 127 0"/>
<feOffset dy="1.24348"/>
<feGaussianBlur stdDeviation="0.207247"/>
<feColorMatrix type="matrix" values="0 0 0 0 0 0 0 0 0 0 0 0 0 0 0 0 0 0 0.101591 0"/>
<feBlend mode="normal" in2="BackgroundImageFix" result="effect1_dropShadow"/>
<feBlend mode="normal" in="SourceGraphic" in2="effect1_dropShadow" result="shape"/>
</filter>
<filter id="filter5_i" x="0" y="0" width="2229.02" height="1730.92" filterUnits="userSpaceOnUse" color-interpolation-filters="sRGB">
<feFlood flood-opacity="0" result="BackgroundImageFix"/>
<feBlend mode="normal" in="SourceGraphic" in2="BackgroundImageFix" result="shape"/>
<feColorMatrix in="SourceAlpha" type="matrix" values="0 0 0 0 0 0 0 0 0 0 0 0 0 0 0 0 0 0 127 0" result="hardAlpha"/>
<feOffset/>
<feGaussianBlur stdDeviation="0.528204"/>
<feComposite in2="hardAlpha" operator="arithmetic" k2="-1" k3="1"/>
<feColorMatrix type="matrix" values="0 0 0 0 0 0 0 0 0 0 0 0 0 0 0 0 0 0 0.253255 0"/>
<feBlend mode="normal" in2="shape" result="effect1_innerShadow"/>
</filter>
<filter id="filter6_di" x="9.50768" y="9.50793" width="2209.47" height="1711.91" filterUnits="userSpaceOnUse" color-interpolation-filters="sRGB">
<feFlood flood-opacity="0" result="BackgroundImageFix"/>
<feColorMatrix in="SourceAlpha" type="matrix" values="0 0 0 0 0 0 0 0 0 0 0 0 0 0 0 0 0 0 127 0"/>
<feOffset/>
<feGaussianBlur stdDeviation="0.264102"/>
<feColorMatrix type="matrix" values="0 0 0 0 0 0 0 0 0 0 0 0 0 0 0 0 0 0 0.247934 0"/>
<feBlend mode="normal" in2="BackgroundImageFix" result="effect1_dropShadow"/>
<feBlend mode="normal" in="SourceGraphic" in2="effect1_dropShadow" result="shape"/>
<feColorMatrix in="SourceAlpha" type="matrix" values="0 0 0 0 0 0 0 0 0 0 0 0 0 0 0 0 0 0 127 0" result="hardAlpha"/>
<feOffset/>
<feGaussianBlur stdDeviation="0.264102"/>
<feComposite in2="hardAlpha" operator="arithmetic" k2="-1" k3="1"/>
<feColorMatrix type="matrix" values="0 0 0 0 0 0 0 0 0 0 0 0 0 0 0 0 0 0 0.386634 0"/>
<feBlend mode="normal" in2="shape" result="effect2_innerShadow"/>
</filter>
<linearGradient id="paint0_linear" x1="735.549" y1="2021.87" x2="674.619" y2="2021.87" gradientUnits="userSpaceOnUse">
<stop stop-color="#1D1D1D"/>
<stop offset="0.173469" stop-color="#363636"/>
<stop offset="0.306202" stop-color="#242424"/>
<stop offset="0.575627" stop-color="#474747"/>
<stop offset="1"/>
</linearGradient>
<linearGradient id="paint1_linear" x1="1154.6" y1="2020.84" x2="1073.78" y2="2020.84" gradientUnits="userSpaceOnUse">
<stop stop-color="#1D1D1D"/>
<stop offset="0.173469" stop-color="#363636"/>
<stop offset="0.306202" stop-color="#242424"/>
<stop offset="0.575627" stop-color="#474747"/>
<stop offset="1"/>
</linearGradient>
<linearGradient id="paint2_linear" x1="1552.52" y1="2021.87" x2="1491.58" y2="2021.87" gradientUnits="userSpaceOnUse">
<stop stop-color="#1D1D1D"/>
<stop offset="0.173469" stop-color="#363636"/>
<stop offset="0.306202" stop-color="#242424"/>
<stop offset="0.575627" stop-color="#474747"/>
<stop offset="1"/>
</linearGradient>
<linearGradient id="paint3_linear" x1="663.537" y1="2024.26" x2="1591.03" y2="2024.26" gradientUnits="userSpaceOnUse">
<stop stop-color="#2A2A2A"/>
<stop offset="0.498645" stop-color="#393939"/>
<stop offset="1" stop-color="#2C2C2C"/>
</linearGradient>
<linearGradient id="paint4_linear" x1="875.445" y1="2013.59" x2="875.445" y2="2024.57" gradientUnits="userSpaceOnUse">
<stop stop-opacity="0.01"/>
<stop offset="1" stop-opacity="0.37316"/>
</linearGradient>
<linearGradient id="paint5_linear" x1="1591.37" y1="1954.67" x2="636.646" y2="1954.67" gradientUnits="userSpaceOnUse">
<stop stop-color="#494949"/>
<stop offset="0.00548826" stop-color="#E4E4E4"/>
<stop offset="0.0146788" stop-color="white"/>
<stop offset="0.0262518" stop-color="#ECECEC"/>
<stop offset="0.035185" stop-color="#9C9C9C"/>
<stop offset="0.0428973" stop-color="#6C6B6B"/>
<stop offset="0.0502683" stop-color="#6E6E6E"/>
<stop offset="0.0606556" stop-color="#868686"/>
<stop offset="0.0960526" stop-color="#E2E2E2"/>
<stop offset="0.907582" stop-color="#E2E2E2"/>
<stop offset="0.941267" stop-color="#858585"/>
<stop offset="0.959083" stop-color="#777777"/>
<stop offset="0.97214" stop-color="#CBCBCB"/>
<stop offset="0.98448" stop-color="white"/>
<stop offset="0.993451" stop-color="#E4E4E4"/>
<stop offset="1" stop-color="#1C1C1C"/>
</linearGradient>
<linearGradient id="paint6_linear" x1="1629.27" y1="1944.54" x2="1243.05" y2="1473.49" gradientUnits="userSpaceOnUse">
<stop stop-color="#D1D1D1"/>
<stop offset="0.259865" stop-color="#F5F5F5"/>
<stop offset="0.706852" stop-color="#F4F4F4"/>
<stop offset="1" stop-color="#D2D2D2"/>
</linearGradient>
<linearGradient id="paint7_linear" x1="968.495" y1="1958.25" x2="1259.47" y2="1958.25" gradientUnits="userSpaceOnUse">
<stop stop-color="#848484"/>
<stop offset="0.0993312" stop-color="#DDDDDD"/>
<stop offset="0.898922" stop-color="#DDDDDD"/>
<stop offset="1" stop-color="#848484"/>
</linearGradient>
<linearGradient id="paint8_linear" x1="1000.03" y1="1725.17" x2="1000.03" y2="1950.66" gradientUnits="userSpaceOnUse">
<stop stop-color="#8F8F8F"/>
<stop offset="0.328727" stop-color="#BDBDBD"/>
<stop offset="0.592228" stop-color="#C9C9C9"/>
<stop offset="1" stop-color="#DEDEDE"/>
</linearGradient>
<linearGradient id="paint9_linear" x1="996.604" y1="1704.51" x2="996.604" y2="1945.74" gradientUnits="userSpaceOnUse">
<stop stop-color="#777777"/>
<stop offset="1" stop-color="#D1D1D1"/>
</linearGradient>
<linearGradient id="paint10_linear" x1="1230.6" y1="1704.51" x2="1230.6" y2="1945.74" gradientUnits="userSpaceOnUse">
<stop stop-color="#777777"/>
<stop offset="1" stop-color="#D1D1D1"/>
</linearGradient>
<radialGradient id="paint11_angular" cx="0" cy="0" r="1" gradientUnits="userSpaceOnUse" gradientTransform="translate(1440.41 865.462) scale(1440.41 865.462)">
<stop stop-color="#BFBFBF"/>
<stop offset="0.110766" stop-color="#BFBFBF"/>
<stop offset="0.124129" stop-color="#F5F5F5"/>
<stop offset="0.136474" stop-color="#BFBFBF"/>
<stop offset="0.365401" stop-color="#BFBFBF"/>
<stop offset="0.376459" stop-color="#E8E8E8"/>
<stop offset="0.388172" stop-color="#BFBFBF"/>
<stop offset="0.559436" stop-color="#BFBFBF"/>
<stop offset="0.614254" stop-color="#F2F2F2"/>
<stop offset="0.6392" stop-color="#BFBFBF"/>
<stop offset="0.853366" stop-color="#BFBFBF"/>
<stop offset="0.877624" stop-color="#F2F2F2"/>
<stop offset="0.908839" stop-color="#BFBFBF"/>
<stop offset="0.95123" stop-color="#BFBFBF"/>
<stop offset="1" stop-color="#BFBFBF"/>
</radialGradient>
<linearGradient id="paint12_linear" x1="1712.42" y1="-211.226" x2="1556.61" y2="836.726" gradientUnits="userSpaceOnUse">
<stop stop-color="#2C2C2C"/>
<stop offset="1" stop-color="#1B1B1B"/>
</linearGradient>
<linearGradient id="paint13_linear" x1="1102.36" y1="94.0205" x2="1102.36" y2="1615.25" gradientUnits="userSpaceOnUse">
<stop stop-color="#221D29"/>
<stop offset="1" stop-color="#293251"/>
</linearGradient>
<clipPath id="clip0">
<rect width="2229.02" height="2032" fill="white"/>
</clipPath>
<clipPath id="clip1">
<rect width="2880.82" height="2306.67" fill="white"/>
</clipPath>
<clipPath id="clip2">
<rect width="954.992" height="454.285" fill="white" transform="translate(636.485 1577.75)"/>
</clipPath>
<clipPath id="clip3">
<rect width="954.992" height="84.9711" fill="white" transform="translate(636.486 1939.6)"/>
</clipPath>
</defs>
</svg>
