<svg width="4024" height="2298" viewBox="0 0 4024 2298" fill="none" xmlns="http://www.w3.org/2000/svg">
<g clip-path="url(#clip0)">
<g clip-path="url(#clip1)">
<rect x="256.18" y="1595.68" width="2910.85" height="272.562" rx="4.41038" fill="#1E1E1E"/>
<g clip-path="url(#clip2)">
<rect x="251.769" width="2917.91" height="1842.66" rx="48.5142" fill="url(#paint0_radial)"/>
<rect x="209.43" y="1792.38" width="3022.88" height="187.882" fill="#282828"/>
<circle cx="472.73" cy="1746.07" r="16.3184" fill="url(#paint1_radial)" stroke="#2D2D2D" stroke-width="3.5283"/>
<g filter="url(#filter0_d)">
<path fill-rule="evenodd" clip-rule="evenodd" d="M1699.14 1710.22C1698.33 1709.68 1697.51 1709.13 1696.7 1708.58C1693.29 1710.82 1689.9 1713.07 1686.5 1715.32C1680.08 1719.56 1673.66 1723.8 1667.18 1727.98C1664.84 1720.74 1659.8 1714.93 1652.7 1712.67C1647.68 1711.08 1641.47 1711.28 1635.04 1711.5C1631.16 1711.63 1627.21 1711.76 1623.4 1711.5V1760.23C1627.3 1760.05 1631.18 1760.16 1634.93 1760.27C1638.98 1760.39 1642.89 1760.5 1646.54 1760.23C1657.83 1759.4 1664.65 1752.38 1667.52 1743.05C1672.36 1746.29 1677.11 1749.61 1681.87 1752.92C1686.86 1756.41 1691.85 1759.89 1696.93 1763.27C1700.2 1761.13 1703.49 1758.94 1706.79 1756.75C1713.1 1752.55 1719.43 1748.34 1725.66 1744.46V1760.23H1757.93V1744.69C1756.02 1744.66 1754.06 1744.68 1752.11 1744.69C1748.93 1744.72 1745.75 1744.74 1742.76 1744.57V1711.5H1725.66V1728.1C1723.54 1729.48 1721.43 1730.87 1719.32 1732.26C1713.68 1735.97 1708.04 1739.68 1702.29 1743.29C1701.84 1742.99 1701.37 1742.71 1700.9 1742.43C1700.08 1741.93 1699.25 1741.44 1698.53 1740.83C1701.76 1738.69 1704.96 1736.52 1708.15 1734.34C1712.52 1731.37 1716.88 1728.41 1721.33 1725.53C1718.15 1723.06 1714.75 1720.82 1711.3 1718.63C1704.2 1723.29 1697.07 1727.91 1689.95 1732.54C1689.35 1732.93 1688.75 1733.32 1688.15 1733.71C1687.57 1733.25 1686.95 1732.83 1686.33 1732.42C1685.71 1732.01 1685.09 1731.59 1684.51 1731.14C1687.69 1729.06 1690.86 1726.96 1694.02 1724.86C1698.47 1721.91 1702.92 1718.96 1707.42 1716.06C1704.78 1714 1701.96 1712.11 1699.14 1710.22ZM1639.7 1744.69V1727.16C1639.69 1726.99 1639.68 1726.83 1639.81 1726.81C1644.75 1726.49 1648.31 1727.01 1650.42 1729.5C1653.57 1733.23 1652.85 1740.23 1649.28 1743.05C1647.11 1744.77 1644.38 1744.74 1640.87 1744.7C1640.49 1744.7 1640.1 1744.69 1639.7 1744.69Z" fill="url(#paint2_linear)"/>
<path d="M1779.47 1711.5H1762.37C1762.24 1711.52 1762.25 1711.69 1762.26 1711.85V1760.23H1794.52V1744.69H1779.47V1711.5Z" fill="url(#paint3_linear)"/>
</g>
</g>
<g clip-path="url(#clip3)">
<g filter="url(#filter1_di)">
<path fill-rule="evenodd" clip-rule="evenodd" d="M300.282 0C273.488 0 251.769 21.7215 251.769 48.5164V1794.14C251.769 1820.94 273.489 1842.66 300.282 1842.66H3121.16C3147.96 1842.66 3169.68 1820.94 3169.68 1794.14V48.5164C3169.68 21.7139 3147.96 0 3121.16 0H300.282ZM266.765 1794.14V48.5162C266.765 30.0025 281.771 14.9951 300.282 14.9951H3121.17C3139.68 14.9951 3154.68 29.998 3154.68 48.5162V1794.14C3154.68 1812.65 3139.68 1827.66 3121.17 1827.66H300.282C281.768 1827.66 266.765 1812.66 266.765 1794.14Z" fill="url(#paint4_linear)"/>
</g>
<g filter="url(#filter2_ii)">
<rect x="251.769" width="2917.91" height="1842.66" rx="48.5142" fill="url(#paint5_radial)" fill-opacity="0.01"/>
</g>
</g>
</g>
<g clip-path="url(#clip4)">
<g clip-path="url(#clip5)">
<path fill-rule="evenodd" clip-rule="evenodd" d="M367.322 1925.9L416.545 1944.02C417.033 1944.2 417.549 1944.29 418.069 1944.29H3008.26C3008.92 1944.29 3009.58 1944.14 3010.17 1943.86L3048.25 1925.6L367.322 1925.9Z" fill="url(#paint6_radial)"/>
<path opacity="0.4" d="M399 1937.04H3024L3009.5 1944.1H417L399 1937.04Z" fill="#2A2A2A"/>
<path opacity="0.4" d="M407.5 1940.57L3016 1941L3009.5 1944H417.5L407.5 1940.57Z" fill="url(#paint7_linear)"/>
</g>
<g clip-path="url(#clip6)">
<g filter="url(#filter3_i)">
<path fill-rule="evenodd" clip-rule="evenodd" d="M3393 1880.65C3395.61 1880.67 3396.43 1883.6 3394.07 1884.7C3368.97 1896.46 3276 1930.03 3032.83 1930.03H2695.12V1929.98H700.036V1929.94H389.325C98.4194 1929.94 20.6658 1881.3 20.6658 1881.3L700.036 1877.52V1877.06H2695.12H2817.02V1877.69L3393 1880.65Z" fill="url(#paint8_linear)"/>
<path fill-rule="evenodd" clip-rule="evenodd" d="M3393 1880.65C3395.61 1880.67 3396.43 1883.6 3394.07 1884.7C3368.97 1896.46 3276 1930.03 3032.83 1930.03H2695.12V1929.98H700.036V1929.94H389.325C98.4194 1929.94 20.6658 1881.3 20.6658 1881.3L700.036 1877.52V1877.06H2695.12H2817.02V1877.69L3393 1880.65Z" fill="url(#paint9_radial)"/>
</g>
<ellipse cx="1045.2" cy="1909.26" rx="22.4929" ry="5.73349" fill="url(#paint10_radial)"/>
<ellipse cx="2374.49" cy="1909.26" rx="22.4929" ry="5.73349" fill="url(#paint11_radial)"/>
<path opacity="0.4" fill-rule="evenodd" clip-rule="evenodd" d="M219.133 1923.81C219.133 1923.81 1951.56 1923.81 2817.77 1923.81C2950.65 1923.81 3216.43 1923.81 3216.43 1923.81V1929.99H219.133V1923.81Z" fill="#D8D8D8"/>
</g>
<path d="M19.7834 1836.48C19.7834 1833.56 22.153 1831.19 25.0759 1831.19H3396.37C3399.29 1831.19 3401.66 1833.56 3401.66 1836.48V1858.54H19.7834V1836.48Z" fill="#1B1B1B"/>
<path d="M1309.38 1858.53H1325.26C1325.25 1852.2 1321.7 1847.07 1317.32 1847.07C1312.93 1847.07 1309.38 1852.2 1309.38 1858.53Z" fill="#1B1B1B"/>
<path d="M2089.13 1858.53H2105.01C2105.01 1852.2 2101.46 1847.07 2097.07 1847.07C2092.69 1847.07 2089.13 1852.2 2089.13 1858.53Z" fill="#1B1B1B"/>
<g clip-path="url(#clip7)">
<g filter="url(#filter4_ii)">
<path d="M19.7837 1878.82C19.7837 1880.77 21.3634 1882.35 23.312 1882.35H3398.14C3400.08 1882.35 3401.66 1880.77 3401.66 1878.82V1858.53H19.7837V1878.82Z" fill="#C2C2C2"/>
<path d="M19.7837 1878.82C19.7837 1880.77 21.3634 1882.35 23.312 1882.35H3398.14C3400.08 1882.35 3401.66 1880.77 3401.66 1878.82V1858.53H19.7837V1878.82Z" fill="url(#paint12_linear)"/>
<path d="M19.7837 1878.82C19.7837 1880.77 21.3634 1882.35 23.312 1882.35H3398.14C3400.08 1882.35 3401.66 1880.77 3401.66 1878.82V1858.53H19.7837V1878.82Z" fill="url(#paint13_linear)"/>
<path d="M19.7837 1878.82C19.7837 1880.77 21.3634 1882.35 23.312 1882.35H3398.14C3400.08 1882.35 3401.66 1880.77 3401.66 1878.82V1858.53H19.7837V1878.82Z" fill="url(#paint14_linear)"/>
<path d="M19.7837 1878.82C19.7837 1880.77 21.3634 1882.35 23.312 1882.35H3398.14C3400.08 1882.35 3401.66 1880.77 3401.66 1878.82V1858.53H19.7837V1878.82Z" fill="url(#paint15_linear)"/>
<path d="M19.7837 1878.82C19.7837 1880.77 21.3634 1882.35 23.312 1882.35H3398.14C3400.08 1882.35 3401.66 1880.77 3401.66 1878.82V1858.53H19.7837V1878.82Z" fill="url(#paint16_radial)"/>
</g>
<g filter="url(#filter5_i)">
<path d="M1638.39 1858.54V1864.71C1638.39 1868.12 1641.16 1870.88 1644.57 1870.88H1776.88C1780.29 1870.88 1783.05 1868.12 1783.05 1864.71V1858.54H1638.39Z" fill="#AFAFAF"/>
</g>
</g>
</g>
</g>
<g opacity="0.9">
<rect x="299.402" y="52.9238" width="2822.64" height="1587.74" fill="#FF0000"/>
<rect x="299.402" y="52.9238" width="2822.64" height="1587.74" fill="url(#paint17_linear)"/>
</g>
<rect x="685" y="282" width="2054" height="38.8923" fill="black"/>
<path d="M2715.55 301.444L2720.77 306.661L2719.91 307.521L2714.69 302.305L2709.48 307.521L2708.62 306.661L2713.83 301.444L2708.62 296.228L2709.48 295.367L2714.69 300.584L2719.91 295.367L2720.77 296.228L2715.55 301.444Z" fill="white"/>
<path d="M2662.43 295.367V307.521H2650.28V295.367H2662.43ZM2661.22 296.584H2651.49V306.304H2661.22V296.584Z" fill="white"/>
<path d="M2604.09 300.229V301.445H2591.94V300.229H2604.09Z" fill="white"/>
<rect x="685" y="320.893" width="2054" height="1239.69" fill="#131313"/>
<path d="M685 320.893H2739V1560.59H685V320.893Z" fill="#FF0000"/>
<text fill="black" xml:space="preserve" style="white-space: pre" font-family="Roboto" font-size="16.3725" letter-spacing="0em"><tspan x="708.093" y="357.864">name: Dell XPS 13&#10;</tspan><tspan x="708.093" y="376.864">density: 2&#10;</tspan><tspan x="708.093" y="395.864">screen_size: 1690x1020&#10;</tspan><tspan x="708.093" y="414.864">safe_areas: 0,0,0,0</tspan></text>
<defs>
<filter id="filter0_d" x="1621.63" y="1708.58" width="174.651" height="58.217" filterUnits="userSpaceOnUse" color-interpolation-filters="sRGB">
<feFlood flood-opacity="0" result="BackgroundImageFix"/>
<feColorMatrix in="SourceAlpha" type="matrix" values="0 0 0 0 0 0 0 0 0 0 0 0 0 0 0 0 0 0 127 0"/>
<feOffset dy="1.76415"/>
<feGaussianBlur stdDeviation="0.882076"/>
<feColorMatrix type="matrix" values="0 0 0 0 0 0 0 0 0 0 0 0 0 0 0 0 0 0 0.499066 0"/>
<feBlend mode="normal" in2="BackgroundImageFix" result="effect1_dropShadow"/>
<feBlend mode="normal" in="SourceGraphic" in2="effect1_dropShadow" result="shape"/>
</filter>
<filter id="filter1_di" x="250.005" y="0" width="2921.44" height="1846.19" filterUnits="userSpaceOnUse" color-interpolation-filters="sRGB">
<feFlood flood-opacity="0" result="BackgroundImageFix"/>
<feColorMatrix in="SourceAlpha" type="matrix" values="0 0 0 0 0 0 0 0 0 0 0 0 0 0 0 0 0 0 127 0"/>
<feOffset dy="1.76415"/>
<feGaussianBlur stdDeviation="0.882076"/>
<feColorMatrix type="matrix" values="0 0 0 0 0 0 0 0 0 0 0 0 0 0 0 0 0 0 0.1 0"/>
<feBlend mode="normal" in2="BackgroundImageFix" result="effect1_dropShadow"/>
<feBlend mode="normal" in="SourceGraphic" in2="effect1_dropShadow" result="shape"/>
<feColorMatrix in="SourceAlpha" type="matrix" values="0 0 0 0 0 0 0 0 0 0 0 0 0 0 0 0 0 0 127 0" result="hardAlpha"/>
<feOffset/>
<feGaussianBlur stdDeviation="1.76415"/>
<feComposite in2="hardAlpha" operator="arithmetic" k2="-1" k3="1"/>
<feColorMatrix type="matrix" values="0 0 0 0 0 0 0 0 0 0 0 0 0 0 0 0 0 0 0.49 0"/>
<feBlend mode="normal" in2="shape" result="effect2_innerShadow"/>
</filter>
<filter id="filter2_ii" x="251.769" y="0" width="2917.91" height="1844.42" filterUnits="userSpaceOnUse" color-interpolation-filters="sRGB">
<feFlood flood-opacity="0" result="BackgroundImageFix"/>
<feBlend mode="normal" in="SourceGraphic" in2="BackgroundImageFix" result="shape"/>
<feColorMatrix in="SourceAlpha" type="matrix" values="0 0 0 0 0 0 0 0 0 0 0 0 0 0 0 0 0 0 127 0" result="hardAlpha"/>
<feMorphology radius="2.64623" operator="erode" in="SourceAlpha" result="effect1_innerShadow"/>
<feOffset/>
<feGaussianBlur stdDeviation="0.882076"/>
<feComposite in2="hardAlpha" operator="arithmetic" k2="-1" k3="1"/>
<feColorMatrix type="matrix" values="0 0 0 0 0.215686 0 0 0 0 0.215686 0 0 0 0 0.215686 0 0 0 1 0"/>
<feBlend mode="normal" in2="shape" result="effect1_innerShadow"/>
<feColorMatrix in="SourceAlpha" type="matrix" values="0 0 0 0 0 0 0 0 0 0 0 0 0 0 0 0 0 0 127 0" result="hardAlpha"/>
<feOffset dy="7.93868"/>
<feGaussianBlur stdDeviation="0.882076"/>
<feComposite in2="hardAlpha" operator="arithmetic" k2="-1" k3="1"/>
<feColorMatrix type="matrix" values="0 0 0 0 0.360784 0 0 0 0 0.360784 0 0 0 0 0.360784 0 0 0 1 0"/>
<feBlend mode="normal" in2="effect1_innerShadow" result="effect2_innerShadow"/>
</filter>
<filter id="filter3_i" x="20.6658" y="1874.41" width="3374.8" height="55.6205" filterUnits="userSpaceOnUse" color-interpolation-filters="sRGB">
<feFlood flood-opacity="0" result="BackgroundImageFix"/>
<feBlend mode="normal" in="SourceGraphic" in2="BackgroundImageFix" result="shape"/>
<feColorMatrix in="SourceAlpha" type="matrix" values="0 0 0 0 0 0 0 0 0 0 0 0 0 0 0 0 0 0 127 0" result="hardAlpha"/>
<feOffset dy="-2.64623"/>
<feGaussianBlur stdDeviation="8.82076"/>
<feComposite in2="hardAlpha" operator="arithmetic" k2="-1" k3="1"/>
<feColorMatrix type="matrix" values="0 0 0 0 0 0 0 0 0 0 0 0 0 0 0 0 0 0 0.5 0"/>
<feBlend mode="normal" in2="shape" result="effect1_innerShadow"/>
</filter>
<filter id="filter4_ii" x="19.7837" y="1857.65" width="3381.88" height="26.4623" filterUnits="userSpaceOnUse" color-interpolation-filters="sRGB">
<feFlood flood-opacity="0" result="BackgroundImageFix"/>
<feBlend mode="normal" in="SourceGraphic" in2="BackgroundImageFix" result="shape"/>
<feColorMatrix in="SourceAlpha" type="matrix" values="0 0 0 0 0 0 0 0 0 0 0 0 0 0 0 0 0 0 127 0" result="hardAlpha"/>
<feOffset dy="-2.64623"/>
<feGaussianBlur stdDeviation="0.441038"/>
<feComposite in2="hardAlpha" operator="arithmetic" k2="-1" k3="1"/>
<feColorMatrix type="matrix" values="0 0 0 0 0 0 0 0 0 0 0 0 0 0 0 0 0 0 0.3 0"/>
<feBlend mode="normal" in2="shape" result="effect1_innerShadow"/>
<feColorMatrix in="SourceAlpha" type="matrix" values="0 0 0 0 0 0 0 0 0 0 0 0 0 0 0 0 0 0 127 0" result="hardAlpha"/>
<feOffset dy="5.29246"/>
<feGaussianBlur stdDeviation="0.882076"/>
<feComposite in2="hardAlpha" operator="arithmetic" k2="-1" k3="1"/>
<feColorMatrix type="matrix" values="0 0 0 0 0 0 0 0 0 0 0 0 0 0 0 0 0 0 0.3 0"/>
<feBlend mode="normal" in2="effect1_innerShadow" result="effect2_innerShadow"/>
</filter>
<filter id="filter5_i" x="1638.39" y="1858.54" width="144.66" height="12.3493" filterUnits="userSpaceOnUse" color-interpolation-filters="sRGB">
<feFlood flood-opacity="0" result="BackgroundImageFix"/>
<feBlend mode="normal" in="SourceGraphic" in2="BackgroundImageFix" result="shape"/>
<feColorMatrix in="SourceAlpha" type="matrix" values="0 0 0 0 0 0 0 0 0 0 0 0 0 0 0 0 0 0 127 0" result="hardAlpha"/>
<feOffset dy="2.64623"/>
<feComposite in2="hardAlpha" operator="arithmetic" k2="-1" k3="1"/>
<feColorMatrix type="matrix" values="0 0 0 0 0 0 0 0 0 0 0 0 0 0 0 0 0 0 0.1 0"/>
<feBlend mode="normal" in2="shape" result="effect1_innerShadow"/>
</filter>
<radialGradient id="paint0_radial" cx="0" cy="0" r="1" gradientUnits="userSpaceOnUse" gradientTransform="translate(1710.72) rotate(90) scale(1842.66 2917.91)">
<stop stop-color="#4E4E4E"/>
<stop offset="1" stop-color="#363636"/>
</radialGradient>
<radialGradient id="paint1_radial" cx="0" cy="0" r="1" gradientUnits="userSpaceOnUse" gradientTransform="translate(472.73 1746.07) rotate(90) scale(14.5543)">
<stop stop-color="#3F3F3F"/>
<stop offset="1" stop-color="#3F3F3F"/>
</radialGradient>
<linearGradient id="paint2_linear" x1="1623.4" y1="1708.58" x2="1623.4" y2="1763.27" gradientUnits="userSpaceOnUse">
<stop stop-color="#BDBDBD"/>
<stop offset="1" stop-color="#B4B4B4"/>
</linearGradient>
<linearGradient id="paint3_linear" x1="1623.4" y1="1708.58" x2="1623.4" y2="1763.27" gradientUnits="userSpaceOnUse">
<stop stop-color="#BDBDBD"/>
<stop offset="1" stop-color="#B4B4B4"/>
</linearGradient>
<linearGradient id="paint4_linear" x1="1706.72" y1="-442.991" x2="1052.3" y2="1635.34" gradientUnits="userSpaceOnUse">
<stop stop-color="#4B4B4B"/>
<stop offset="1" stop-color="#343434"/>
</linearGradient>
<radialGradient id="paint5_radial" cx="0" cy="0" r="1" gradientUnits="userSpaceOnUse" gradientTransform="translate(1710.72) rotate(90) scale(1842.66 2917.91)">
<stop stop-color="#4E4E4E"/>
<stop offset="1" stop-color="#363636"/>
</radialGradient>
<radialGradient id="paint6_radial" cx="0" cy="0" r="1" gradientUnits="userSpaceOnUse" gradientTransform="translate(1707.78 1925.6) rotate(43.0478) scale(1104.15 73793)">
<stop stop-color="#9B9B9B"/>
<stop offset="1" stop-color="#626262"/>
</radialGradient>
<linearGradient id="paint7_linear" x1="3011.28" y1="1938.8" x2="419.512" y2="1938.8" gradientUnits="userSpaceOnUse">
<stop stop-color="#292929"/>
<stop offset="0.630501" stop-color="#4E4E4E"/>
<stop offset="1" stop-color="#2D2D2D"/>
</linearGradient>
<linearGradient id="paint8_linear" x1="20.6658" y1="1877.06" x2="20.6658" y2="1930.03" gradientUnits="userSpaceOnUse">
<stop stop-color="#D8D8D8"/>
<stop offset="1" stop-color="#646464"/>
</linearGradient>
<radialGradient id="paint9_radial" cx="0" cy="0" r="1" gradientUnits="userSpaceOnUse" gradientTransform="translate(1708.06 1877.06) rotate(32.3444) scale(2101.61 38346.2)">
<stop stop-color="white" stop-opacity="0.01"/>
<stop offset="1" stop-opacity="0.5"/>
</radialGradient>
<radialGradient id="paint10_radial" cx="0" cy="0" r="1" gradientUnits="userSpaceOnUse" gradientTransform="translate(1045.2 1908.73) rotate(90) scale(6.25647 83.8926)">
<stop stop-color="#2D2D2D"/>
<stop offset="1" stop-color="#585858"/>
</radialGradient>
<radialGradient id="paint11_radial" cx="0" cy="0" r="1" gradientUnits="userSpaceOnUse" gradientTransform="translate(2374.49 1908.73) rotate(90) scale(6.25647 83.8926)">
<stop stop-color="#2D2D2D"/>
<stop offset="1" stop-color="#585858"/>
</radialGradient>
<linearGradient id="paint12_linear" x1="186.734" y1="1871.05" x2="13.61" y2="1871.05" gradientUnits="userSpaceOnUse">
<stop stop-color="#414141" stop-opacity="0.01"/>
<stop offset="0.916949" stop-color="#5E5E5E"/>
<stop offset="1" stop-color="#3D3D3D" stop-opacity="0.01"/>
</linearGradient>
<linearGradient id="paint13_linear" x1="3406.4" y1="1871.06" x2="3229.6" y2="1871.06" gradientUnits="userSpaceOnUse">
<stop stop-color="#5D5D5D"/>
<stop offset="0.103485" stop-color="#5D5D5D"/>
<stop offset="1" stop-color="#343434" stop-opacity="0.01"/>
</linearGradient>
<linearGradient id="paint14_linear" x1="53.5868" y1="1870.53" x2="27.3709" y2="1870.53" gradientUnits="userSpaceOnUse">
<stop stop-color="white" stop-opacity="0.01"/>
<stop offset="0.501676" stop-color="white"/>
<stop offset="0.771243" stop-color="white"/>
<stop offset="1" stop-color="white" stop-opacity="0.01"/>
</linearGradient>
<linearGradient id="paint15_linear" x1="3370.87" y1="1870.35" x2="3397.6" y2="1870.35" gradientUnits="userSpaceOnUse">
<stop stop-color="white" stop-opacity="0.01"/>
<stop offset="0.539957" stop-color="white"/>
<stop offset="0.832325" stop-color="white"/>
<stop offset="1" stop-color="white" stop-opacity="0.01"/>
</linearGradient>
<radialGradient id="paint16_radial" cx="0" cy="0" r="1" gradientUnits="userSpaceOnUse" gradientTransform="translate(1710.72 1870.44) rotate(-77.7625) scale(1282.7 173960)">
<stop stop-color="#E4E4E4"/>
<stop offset="1" stop-color="#E4E4E4" stop-opacity="0.01"/>
</radialGradient>
<linearGradient id="paint17_linear" x1="1710.72" y1="52.9238" x2="1710.72" y2="1640.66" gradientUnits="userSpaceOnUse">
<stop stop-color="#221D29"/>
<stop offset="1" stop-color="#293251"/>
</linearGradient>
<clipPath id="clip0">
<rect width="3381.88" height="1944.98" fill="white" transform="translate(19.7837)"/>
</clipPath>
<clipPath id="clip1">
<rect width="2917.91" height="1868.24" fill="white" transform="translate(251.769)"/>
</clipPath>
<clipPath id="clip2">
<rect width="2917.91" height="1842.66" fill="white" transform="translate(251.769)"/>
</clipPath>
<clipPath id="clip3">
<rect width="2917.91" height="1842.66" fill="white" transform="translate(251.769)"/>
</clipPath>
<clipPath id="clip4">
<rect width="3381.88" height="113.788" fill="white" transform="translate(19.7837 1831.19)"/>
</clipPath>
<clipPath id="clip5">
<rect width="2681.51" height="19.4057" fill="white" transform="translate(367.322 1925.57)"/>
</clipPath>
<clipPath id="clip6">
<rect width="3380.12" height="53.8066" fill="white" transform="translate(20.6655 1877.06)"/>
</clipPath>
<clipPath id="clip7">
<rect width="3381.88" height="23.8161" fill="white" transform="translate(19.7837 1858.53)"/>
</clipPath>
</defs>
</svg>
