<svg width="124" height="122" viewBox="0 0 124 122" fill="none" xmlns="http://www.w3.org/2000/svg">
<path d="M62 0.534485C27.745 0.534485 0 28.295 0 62.5345C0 89.9333 17.763 113.168 42.3925 121.357C45.4925 121.941 46.6292 120.024 46.6292 118.376C46.6292 116.903 46.5775 113.002 46.5517 107.836C29.3053 111.576 25.668 99.5175 25.668 99.5175C22.847 92.3616 18.7705 90.45 18.7705 90.45C13.1543 86.606 19.2045 86.6835 19.2045 86.6835C25.4303 87.1175 28.7008 93.0695 28.7008 93.0695C34.2292 102.55 43.214 99.812 46.7583 98.2258C47.3163 94.2165 48.9128 91.4833 50.685 89.9333C36.9158 88.3833 22.444 83.0513 22.444 59.295C22.444 52.5267 24.8465 46.9983 28.8248 42.6583C28.1273 41.0928 26.0348 34.7895 29.3673 26.249C29.3673 26.249 34.5598 24.5853 46.4173 32.604C51.3773 31.2245 56.6473 30.5425 61.9173 30.5115C67.1873 30.5425 72.4573 31.2245 77.4173 32.604C89.1973 24.5853 94.3898 26.249 94.3898 26.249C97.7223 34.7895 95.6298 41.0928 95.0098 42.6583C98.9623 46.9983 101.365 52.5267 101.365 59.295C101.365 83.1133 86.8723 88.3575 73.0773 89.8816C75.2473 91.7416 77.2623 95.5443 77.2623 101.352C77.2623 109.649 77.1848 116.314 77.1848 118.329C77.1848 119.957 78.2698 121.894 81.4473 121.274C106.252 113.142 124 89.892 124 62.5345C124 28.295 96.2395 0.534485 62 0.534485" fill="#17212F"/>
</svg>
