<svg width="137" height="137" viewBox="0 0 137 137" fill="none" xmlns="http://www.w3.org/2000/svg">
<path d="M27.76 108.35L4.48 85.07C1.72 82.23 0 78.23 0 74.32C0 72.51 1.02 69.68 1.79 68.05L23.28 23.28L27.76 108.35Z" fill="#17212F"/>
<path d="M107.46 27.76L84.18 4.48C82.15 2.44 77.91 0 74.33 0C71.25 0 68.23 0.62 66.27 1.79L23.29 23.28L107.46 27.76Z" fill="#3B557A"/>
<path d="M55.52 136.11H111.94V111.93L69.85 98.5L31.35 111.93L55.52 136.11Z" fill="#3B557A"/>
<path d="M23.29 95.82C23.29 103 24.19 104.77 27.77 108.36L31.35 111.94H111.94L72.54 67.17L23.29 23.29V95.82Z" fill="#2A3F5C"/>
<path d="M94.92 23.28H23.28L111.93 111.93H136.11V56.41L107.46 27.76C103.44 23.72 99.86 23.28 94.92 23.28Z" fill="#17212F"/>
<path opacity="0.2" d="M135.22 55.52V111.04H111.04L111.94 111.93H136.12V56.42L135.22 55.52Z" fill="#263238"/>
</svg>
